<?xml version="1.0" encoding="utf-8"?>
<!-- Generator: Adobe Illustrator 19.0.0, SVG Export Plug-In . SVG Version: 6.00 Build 0)  -->
<svg version="1.1" xmlns="http://www.w3.org/2000/svg" xmlns:xlink="http://www.w3.org/1999/xlink" x="0px" y="0px" width="663.6px"
	 height="800.5px" viewBox="14 77.9 663.6 800.5" style="enable-background:new 14 77.9 663.6 800.5;" xml:space="preserve">
<style type="text/css">
	.st0{fill:#6F6E66;}
	.st1{fill:#FBC213;}
	.st2{fill:#C9D535;}
	.st3{fill:#E71A83;}
	.st4{fill:none;stroke:#CAD0D0;stroke-width:2;stroke-miterlimit:10;}
	.st5{fill:#169BD8;}
	.st6{fill:#CDD735;}
	.st7{fill:#92D4F3;}
	.st8{fill:none;stroke:#000000;stroke-miterlimit:10;}
	.st9{font-family:'ArialMT';}
	.st10{font-size:12px;}
</style>
<g id="Layer_2">
	<path class="st0" d="M106.8,282.3l-3.9-2.9C93.1,293,85,307.5,78.5,322.7l4.6,1.9C89.5,309.6,97.4,295.4,106.8,282.3z"/>
	<path class="st0" d="M80.9,330.1l-4.6-1.9c-6.6,16.9-11.2,34.6-13.5,52.8l5,0.5C70,363.6,74.5,346.4,80.9,330.1z"/>
	<path class="st0" d="M249.3,193.3l-0.8-4.9c-18.5,3.1-36.5,8.5-53.6,16l2.1,4.5C213.5,201.6,231,196.3,249.3,193.3z"/>
	<path class="st0" d="M191.6,211.4l-2.1-4.5c-15.4,7.3-30,16.5-43.6,27.3l3,3.8C162,227.6,176.3,218.6,191.6,211.4z"/>
	<path class="st0" d="M65.9,409.8c0-7.5,0.4-15,1.1-22.3l-5-0.5c-0.8,7.6-1.2,15.2-1.2,22.9v20.8h5L65.9,409.8L65.9,409.8z"/>
	<path class="st0" d="M144.3,241.8l-3-3.8c-5,4.2-9.8,8.6-14.4,13.2c-7.4,7.4-14.2,15.2-20.4,23.3l3.9,2.9
		C120.3,264.4,131.7,252.4,144.3,241.8z"/>
	<path class="st0" d="M65.9,475.4h-5v-38.8h5V475.4z"/>
	<path class="st0" d="M65.9,587.8V567h-5v20.8c0,7.7,0.4,15.3,1.2,22.9l5-0.5C66.3,602.8,65.9,595.3,65.9,587.8z"/>
	<path class="st0" d="M67.7,616.1l-5,0.5c2.3,18.2,6.9,35.9,13.5,52.8l4.6-1.9C74.5,651.2,70,634,67.7,616.1z"/>
	<path class="st0" d="M65.9,516.2h-5v-34.9h5V516.2z"/>
	<path class="st0" d="M65.9,561h-5v-38.8h5V561z"/>
	<path class="st0" d="M389.4,190.3c10.2,0,20.3,0.7,30.1,2.1l0.8-4.9c-10.2-1.4-20.5-2.1-31-2.1H361v5L389.4,190.3L389.4,190.3z"/>
	<path class="st0" d="M608.9,436.6h5v38.8h-5V436.6z"/>
	<path class="st0" d="M591.7,324.6l4.6-1.9c-6.4-15.2-14.6-29.7-24.4-43.3l-3.9,2.9C577.4,295.4,585.3,309.6,591.7,324.6z"/>
	<path class="st0" d="M608.9,481.4h5v34.9h-5V481.4z"/>
	<path class="st0" d="M607.1,381.5l5-0.5c-2.3-18.2-6.9-35.9-13.5-52.8l-4.6,1.9C600.3,346.4,604.8,363.6,607.1,381.5z"/>
	<path class="st0" d="M608.9,587.8c0,7.5-0.4,15-1.1,22.3l5,0.5c0.8-7.6,1.2-15.2,1.2-22.9v-20.8h-5v20.9H608.9z"/>
	<path class="st0" d="M608.9,522.2h5V561h-5V522.2z"/>
	<path class="st0" d="M319.8,190.3v-5H355v5H319.8z"/>
	<path class="st0" d="M83.1,673l-4.6,1.9c6.4,15.2,14.6,29.7,24.4,43.3l3.9-2.9C97.4,702.2,89.5,688,83.1,673z"/>
	<path class="st0" d="M564.4,277.5l3.9-2.9c-6.2-8.2-13-16-20.4-23.3c-4.7-4.7-9.5-9.1-14.4-13.2l-3,3.8
		C543.1,252.4,554.5,264.4,564.4,277.5z"/>
	<path class="st0" d="M285.4,190.3h28.4v-5h-28.4c-10.4,0-20.8,0.7-31,2.1l0.8,4.9C265.1,191,275.2,190.3,285.4,190.3z"/>
	<path class="st0" d="M525.8,238l3-3.8c-13.6-10.8-28.2-20-43.6-27.3l-2.1,4.5C498.5,218.6,512.7,227.6,525.8,238z"/>
	<path class="st0" d="M477.7,208.9l2.1-4.5c-17.1-7.6-35-12.9-53.6-16l-0.8,4.9C443.8,196.3,461.3,201.6,477.7,208.9z"/>
	<path class="st0" d="M608.9,409.8v20.8h5v-20.8c0-7.7-0.4-15.3-1.2-22.9l-5,0.5C608.5,394.8,608.9,402.3,608.9,409.8z"/>
	<path class="st0" d="M149,759.6l-3,3.8c13.6,10.8,28.2,20,43.6,27.3l2.1-4.5C176.3,779,162,770,149,759.6z"/>
	<path class="st0" d="M389.4,807.3H361v5h28.4c10.4,0,20.8-0.7,31-2.1l-0.8-4.9C409.7,806.6,399.6,807.3,389.4,807.3z"/>
	<path class="st0" d="M593.9,667.4l4.6,1.9c6.6-16.9,11.2-34.6,13.5-52.8l-5-0.5C604.8,634,600.3,651.2,593.9,667.4z"/>
	<path class="st0" d="M355,807.3v5h-35.2v-5H355z"/>
	<path class="st0" d="M285.4,807.3c-10.2,0-20.3-0.7-30.1-2.1l-0.8,4.9c10.2,1.4,20.5,2.1,31,2.1h28.4v-5L285.4,807.3L285.4,807.3z"
		/>
	<path class="st0" d="M483.2,786.2l2.1,4.5c15.4-7.3,30-16.5,43.6-27.3l-3-3.8C512.7,770,498.5,779,483.2,786.2z"/>
	<path class="st0" d="M568,715.3l3.9,2.9c9.8-13.6,17.9-28.1,24.4-43.3l-4.6-1.9C585.3,688,577.4,702.2,568,715.3z"/>
	<path class="st0" d="M197,788.7l-2.1,4.5c17.1,7.6,35,12.9,53.6,16l0.8-4.9C231,801.3,213.5,796,197,788.7z"/>
	<path class="st0" d="M110.4,720.1l-3.9,2.9c6.2,8.2,13,16,20.4,23.3c4.7,4.7,9.5,9.1,14.4,13.2l3-3.8
		C131.7,745.2,120.3,733.2,110.4,720.1z"/>
	<path class="st0" d="M425.5,804.3l0.8,4.9c18.5-3.1,36.5-8.5,53.6-16l-2.1-4.5C461.3,796,443.8,801.3,425.5,804.3z"/>
	<path class="st0" d="M530.5,755.8l3,3.8c5-4.2,9.8-8.6,14.4-13.2c7.4-7.4,14.2-15.2,20.4-23.3l-3.9-2.9
		C554.5,733.2,543.1,745.2,530.5,755.8z"/>
	<path class="st1" d="M319.8,249.3v-59H355v59H319.8z"/>
	<path class="st1" d="M285.4,744.3c-6.6,0-13.2-0.4-19.7-1.2l-10.4,62.2c9.9,1.4,19.9,2.1,30.1,2.1h28.4v-63L285.4,744.3
		L285.4,744.3z"/>
	<path class="st1" d="M285.3,253.3h28.4v-63h-28.4c-10.2,0-20.3,0.7-30.1,2.1l10.4,62.2C272,253.7,278.6,253.3,285.3,253.3z"/>
	<path class="st1" d="M355,744.3v63h-35.2v-63H355z"/>
	<path class="st1" d="M259.7,255.4l-10.4-62.1c-18.3,3-35.8,8.3-52.3,15.6l26.7,57.1C235.3,261,247.3,257.5,259.7,255.4z"/>
	<path class="st2" d="M535.8,643.1l58.2,24.4c6.4-16.3,10.8-33.5,13.1-51.4l-62.7-6.8C542.8,620.9,539.9,632.2,535.8,643.1z"/>
	<path class="st2" d="M517.5,677.3l50.5,38c9.4-13.1,17.3-27.2,23.7-42.3l-58.2-24.4C529.2,658.7,523.9,668.3,517.5,677.3z"/>
	<path class="st1" d="M389.4,744.3H361v63h28.4c10.2,0,20.3-0.7,30.1-2.1L409.1,743C402.6,743.9,396,744.3,389.4,744.3z"/>
	<path class="st1" d="M157.3,320.3l-50.5-38c-9.4,13.1-17.3,27.2-23.7,42.3l58.2,24.4C145.5,338.9,150.9,329.3,157.3,320.3z"/>
	<path class="st2" d="M608.9,567h-63v20.8c0,5.2-0.3,10.4-0.8,15.5l62.6,6.8c0.7-7.3,1.1-14.8,1.1-22.3V567H608.9z"/>
	<path class="st1" d="M218.3,268.5l-26.7-57.1c-15.3,7.2-29.6,16.2-42.6,26.6l39.5,49.2C197.8,279.8,207.8,273.5,218.3,268.5z"/>
	<path class="st1" d="M174.9,299.3c2.9-2.9,5.9-5.6,8.9-8.3l-39.5-49.3c-12.6,10.6-24,22.6-34,35.7l50.5,37.9
		C165.1,309.8,169.8,304.4,174.9,299.3z"/>
	<path class="st1" d="M415.1,742.2l10.4,62.1c18.3-3,35.8-8.3,52.3-15.6L451,731.6C439.5,736.5,427.5,740.1,415.1,742.2z"/>
	<path class="st1" d="M456.5,729.1l26.7,57.1c15.3-7.2,29.5-16.2,42.6-26.6l-39.5-49.2C477,717.8,467,724,456.5,729.1z"/>
	<path class="st2" d="M545.9,522.2h63V561h-63V522.2z"/>
	<path class="st2" d="M545.9,436.6h63v38.8h-63V436.6z"/>
	<path class="st2" d="M545.9,409.8v20.8h63v-20.8c0-7.5-0.4-15-1.1-22.3l-62.6,6.8C545.6,399.4,545.9,404.6,545.9,409.8z"/>
	<path class="st1" d="M174.9,698.3c-5.1-5.1-9.8-10.5-14.1-16.1l-50.5,37.9c10,13.1,21.4,25.1,34,35.7l39.5-49.3
		C180.8,703.9,177.8,701.2,174.9,698.3z"/>
	<path class="st1" d="M499.9,698.3c-2.9,2.9-5.9,5.6-8.9,8.3l39.5,49.3c12.6-10.6,24-22.6,34-35.7L514,682.1
		C509.7,687.8,505,693.2,499.9,698.3z"/>
	<path class="st2" d="M544.4,388.3l62.7-6.8c-2.3-17.9-6.8-35.1-13.1-51.4l-58.2,24.4C539.9,365.4,542.8,376.7,544.4,388.3z"/>
	<path class="st2" d="M545.9,481.4h63v34.9h-63V481.4z"/>
	<path class="st1" d="M141.3,648.6L83.1,673c6.3,15,14.3,29.2,23.7,42.3l50.5-37.9C150.9,668.3,145.5,658.7,141.3,648.6z"/>
	<path class="st2" d="M533.5,349l58.2-24.4c-6.3-15-14.3-29.2-23.7-42.3l-50.5,38C523.9,329.3,529.2,338.9,533.5,349z"/>
	<path class="st1" d="M486.3,287.2l39.5-49.2c-13.1-10.4-27.4-19.4-42.6-26.6l-26.7,57.1C467,273.5,477,279.8,486.3,287.2z"/>
	<path class="st1" d="M223.8,731.6L197,788.7c16.5,7.3,34,12.6,52.3,15.6l10.4-62.1C247.3,740.1,235.3,736.5,223.8,731.6z"/>
	<path class="st1" d="M451,266l26.7-57.1c-16.5-7.3-34-12.6-52.3-15.6L415,255.4C427.5,257.5,439.5,261,451,266z"/>
	<path class="st1" d="M499.9,299.3c5.1,5.1,9.8,10.5,14.1,16.1l50.5-37.9c-10-13.1-21.4-25.1-34-35.7L491,291.1
		C494,293.7,497,296.4,499.9,299.3z"/>
	<path class="st1" d="M188.5,710.4L149,759.6c13.1,10.4,27.4,19.4,42.6,26.6l26.7-57.1C207.8,724,197.8,717.8,188.5,710.4z"/>
	<path class="st1" d="M389.4,253.3c6.6,0,13.2,0.4,19.7,1.2l10.4-62.2c-9.9-1.4-19.9-2.1-30.1-2.1H361v63h28.4V253.3z"/>
	<path class="st3" d="M285.4,258.3h28.4v-5h-28.4c-6.6,0-13.2,0.4-19.7,1.2l0.8,4.9C272.7,258.7,279,258.3,285.4,258.3z"/>
	<path class="st3" d="M260.5,260.3l-0.8-4.9c-12.4,2.1-24.5,5.6-35.9,10.6l2.1,4.5C237,265.8,248.6,262.3,260.5,260.3z"/>
	<path class="st3" d="M220.4,273l-2.1-4.5c-10.5,5.1-20.5,11.3-29.8,18.7l3.1,3.9C200.6,284,210.3,277.9,220.4,273z"/>
	<path class="st3" d="M319.8,258.3v-9H355v9H319.8z"/>
	<path class="st3" d="M414.2,737.2l0.8,4.9c12.4-2.1,24.5-5.6,35.9-10.6l-2.1-4.5C437.8,731.8,426.2,735.2,414.2,737.2z"/>
	<path class="st3" d="M178.5,694.7c-4.9-4.9-9.5-10.1-13.6-15.6l-4,3c4.3,5.6,9,11,14.1,16.1c2.9,2.9,5.9,5.6,8.9,8.3l3.1-3.9
		C184.1,700.1,181.2,697.5,178.5,694.7z"/>
	<path class="st3" d="M513.5,674.3l4,3c6.4-9,11.7-18.6,16-28.7l-4.6-1.9C524.8,656.3,519.6,665.6,513.5,674.3z"/>
	<path class="st3" d="M191.6,706.5l-3.1,3.9c9.3,7.4,19.3,13.7,29.8,18.7l2.1-4.5C210.3,719.7,200.6,713.6,191.6,706.5z"/>
	<path class="st3" d="M531.2,641.1l4.6,1.9c4.1-10.8,7-22.2,8.6-33.8l-5-0.5C537.9,619.9,535.1,630.7,531.2,641.1z"/>
	<path class="st3" d="M496.3,694.7c-2.8,2.8-5.6,5.4-8.5,7.9l3.1,3.9c3.1-2.6,6-5.4,8.9-8.3c5.1-5.1,9.8-10.5,14.1-16.1l-4-3
		C505.8,684.6,501.3,689.8,496.3,694.7z"/>
	<path class="st3" d="M178.5,302.9c2.8-2.8,5.6-5.4,8.5-7.9l-3.1-3.9c-3.1,2.6-6,5.4-8.9,8.3c-5.1,5.1-9.8,10.5-14.1,16.1l4,3
		C169,313,173.5,307.8,178.5,302.9z"/>
	<path class="st3" d="M135.4,608.7l-5,0.5c1.6,11.6,4.5,22.9,8.6,33.8l4.6-1.9C139.7,630.7,136.9,619.9,135.4,608.7z"/>
	<path class="st3" d="M389.4,739.3H361v5h28.4c6.6,0,13.2-0.4,19.7-1.2l-0.8-4.9C402.1,738.9,395.8,739.3,389.4,739.3z"/>
	<path class="st3" d="M540.9,587.8c0,5-0.2,10-0.7,15l5,0.5c0.5-5.1,0.8-10.3,0.8-15.5V567h-5L540.9,587.8L540.9,587.8z"/>
	<path class="st3" d="M145.9,646.7l-4.6,1.9c4.3,10,9.6,19.7,16,28.7l4-3C155.1,665.6,150,656.3,145.9,646.7z"/>
	<path class="st3" d="M225.9,727l-2.1,4.5c11.5,5,23.5,8.5,35.9,10.6l0.8-4.9C248.6,735.2,237,731.8,225.9,727z"/>
	<path class="st3" d="M285.4,739.3c-6.4,0-12.7-0.4-18.9-1.2l-0.8,4.9c6.5,0.8,13.1,1.2,19.7,1.2h28.4v-5L285.4,739.3L285.4,739.3z"
		/>
	<path class="st3" d="M133.9,587.8V567h-5v20.8c0,5.2,0.3,10.4,0.8,15.5l5-0.5C134.1,597.8,133.9,592.8,133.9,587.8z"/>
	<path class="st3" d="M143.6,356.5l-4.6-1.9c-4.1,10.8-7,22.2-8.6,33.8l5,0.5C136.9,377.7,139.7,366.9,143.6,356.5z"/>
	<path class="st3" d="M161.3,323.3l-4-3c-6.4,9-11.7,18.6-16,28.7l4.6,1.9C150,341.2,155.1,332,161.3,323.3z"/>
	<path class="st3" d="M355,739.3v5h-35.2v-5H355z"/>
	<path class="st3" d="M454.3,724.6l2.1,4.5c10.5-5.1,20.5-11.3,29.8-18.7l-3.1-3.9C474.2,713.6,464.5,719.7,454.3,724.6z"/>
	<path class="st3" d="M133.9,516.2h-5v-34.9h5V516.2z"/>
	<path class="st3" d="M133.9,475.4h-5v-38.8h5V475.4z"/>
	<path class="st3" d="M389.4,258.3c6.4,0,12.7,0.4,18.9,1.2l0.8-4.9c-6.5-0.8-13.1-1.2-19.7-1.2H361v5h28.4V258.3z"/>
	<path class="st3" d="M133.9,409.8c0-5,0.2-10,0.7-15l-5-0.5c-0.5,5.1-0.8,10.3-0.8,15.5v20.8h5v-20.8H133.9z"/>
	<path class="st3" d="M133.9,561h-5v-38.8h5V561z"/>
	<path class="st3" d="M539.4,388.8l5-0.5c-1.6-11.6-4.5-22.9-8.6-33.8l-4.6,1.9C535.1,366.9,537.9,377.7,539.4,388.8z"/>
	<path class="st3" d="M528.9,350.9l4.6-1.9c-4.3-10-9.6-19.7-16-28.7l-4,3C519.6,332,524.8,341.2,528.9,350.9z"/>
	<path class="st3" d="M496.3,302.9c4.9,4.9,9.5,10.1,13.6,15.6l4-3c-4.3-5.6-9-11-14.1-16.1c-2.9-2.9-5.9-5.6-8.9-8.3l-3.1,3.9
		C490.7,297.5,493.6,300.1,496.3,302.9z"/>
	<path class="st3" d="M540.9,409.8v20.8h5v-20.8c0-5.2-0.3-10.4-0.8-15.5l-5,0.5C540.6,399.8,540.9,404.8,540.9,409.8z"/>
	<path class="st3" d="M540.9,522.2h5V561h-5V522.2z"/>
	<path class="st3" d="M540.9,436.6h5v38.8h-5V436.6z"/>
	<path class="st3" d="M540.9,481.4h5v34.9h-5V481.4z"/>
	<path class="st3" d="M448.9,270.5l2.1-4.5c-11.5-5-23.5-8.5-35.9-10.6l-0.8,4.9C426.2,262.3,437.8,265.8,448.9,270.5z"/>
	<path class="st3" d="M483.2,291.1l3.1-3.9c-9.3-7.4-19.3-13.7-29.8-18.7l-2.1,4.5C464.5,277.9,474.2,284,483.2,291.1z"/>
	<path class="st4" d="M392,156.9H285c-141.3,0-257,115.7-257,257v170c0,141.4,115.7,257,257,257h107c141.3,0,257-115.6,257-257v-170
		C649,272.6,533.3,156.9,392,156.9z"/>
	<path class="st5" d="M315.5,463v-28.2h43.4V463H315.5z"/>
	<path class="st5" d="M313.5,498.6h-5.1v-63.8h5.1V498.6z"/>
	<path class="st5" d="M336.2,534.2h-20.7v-33.6h20.7V534.2z"/>
	<path class="st5" d="M313.5,500.6v63.9h-5.1v-63.9H313.5z"/>
	<path class="st5" d="M360.9,463v-28.2h5.2v63.8h-5.2V465V463z"/>
	<path class="st5" d="M338.2,500.6h20.7v33.6h-20.7V500.6z"/>
	<path class="st5" d="M338.2,465h20.7v33.6h-20.7V465z"/>
	<path class="st5" d="M336.2,498.6h-20.7V465h20.7V498.6z"/>
	<path class="st5" d="M360.9,500.6h5.2v63.9h-5.2v-28.3v-2V500.6z"/>
	<path class="st5" d="M358.9,536.2v28.3h-43.4v-28.3H358.9z"/>
	<path class="st6" d="M429.9,516.8h87.6v-34h-87.8L429.9,516.8z"/>
	<path class="st5" d="M410,374.4l51.8-71.3c-13.2-8.9-28.1-15.3-44.2-18.7l-17.4,85.4C403.7,370.8,406.9,372.4,410,374.4z"/>
	<path class="st6" d="M244.5,591.5l-0.1-22.7H157v24.1c0,6.7,0.5,13.3,1.6,19.8l86.2-17C244.6,594.4,244.5,593,244.5,591.5z"/>
	<path class="st6" d="M429.7,476.8h87.8v-40h-88L429.7,476.8z"/>
	<path class="st6" d="M430.1,562.8h87.4v-40h-87.6L430.1,562.8z"/>
	<path class="st6" d="M429.3,408.9l0.1,21.8h88.1v-23.1c0-7.1-0.6-14-1.7-20.8L429,404C429.2,405.6,429.3,407.3,429.3,408.9z"/>
	<path class="st5" d="M284.5,368h29v-86.3H283c-6.9,0-13.6,0.6-20.2,1.6l17.3,85C281.6,368.1,283,368,284.5,368z"/>
	<path class="st5" d="M319.5,368v-86.3H355V368H319.5z"/>
	<path class="st5" d="M388.4,368c2,0,4,0.1,6,0.4l17.4-85.2c-6.6-1.1-13.3-1.6-20.2-1.6H361v86.3h27.4V368z"/>
	<path class="st6" d="M243.6,408.9c0-1.8,0.1-3.5,0.4-5.3l-85.3-16.7c-1.1,6.8-1.7,13.7-1.7,20.8v23.1h86.7L243.6,408.9z"/>
	<path class="st5" d="M274.2,369.3l-17.3-85c-16.1,3.4-31,9.8-44.2,18.7l51.3,70.6C267.2,371.8,270.6,370.3,274.2,369.3z"/>
	<path class="st6" d="M430.3,591.5c0,1.5-0.1,2.9-0.2,4.3l85.9,16.9c1-6.4,1.6-13.1,1.6-19.8v-24.1h-87.4L430.3,591.5z"/>
	<path class="st5" d="M355,632.5V719h-35.5v-86.5H355L355,632.5z"/>
	<path class="st5" d="M285.5,632.5c-1.9,0-3.7-0.1-5.5-0.4l-17.4,85.2c6.6,1.1,13.5,1.7,20.4,1.7h30.5v-86.5L285.5,632.5
		L285.5,632.5z"/>
	<path class="st5" d="M389.3,632.5H361V719h30.5c7,0,13.8-0.6,20.4-1.7l-17.4-85.2C392.8,632.4,391.1,632.5,389.3,632.5z"/>
	<path class="st5" d="M400.4,630.9l17.4,85.3c16.2-3.4,31.2-10,44.5-19l-51.6-71C407.5,628.3,404.1,629.9,400.4,630.9z"/>
	<path class="st5" d="M263.8,626.1l-51.7,71.1c13.2,9,28.3,15.6,44.5,19l17.4-85.4C270.5,629.8,267.1,628.2,263.8,626.1z"/>
	<path class="st6" d="M426.1,393.2c0.7,1.6,1.3,3.2,1.8,4.9l86.9-17.1c-1.2-5.4-2.7-10.8-4.6-15.9L426.1,393.2z"/>
	<path class="st7" d="M498.8,341.6l-46.6,29l-3.2-5.1l46.5-28.9c-7.9-11.5-17.6-21.7-28.8-30l-51.9,71.5c0.8,0.7,1.6,1.4,2.3,2.2
		c3.9,3.9,6.9,8.3,8.9,13l84-28.1C507.2,356.8,503.4,349,498.8,341.6z"/>
	<path class="st6" d="M165,363.5c-2.1,5.6-3.9,11.5-5.1,17.5l85.3,16.8c0.7-2.3,1.6-4.6,2.7-6.8L165,363.5z"/>
	<path class="st7" d="M255.7,380.2c1.1-1.1,2.2-2.1,3.3-3l-51.3-70.6c-11.1,8.3-20.8,18.4-28.7,29.8l46.4,30.2l-3.3,5l-46.4-30.2
		c-4.3,6.9-7.9,14.4-10.8,22.1l82.9,27.5C249.8,387.1,252.4,383.5,255.7,380.2z"/>
	<path class="st6" d="M245.8,601.7l-86.2,17c1.2,5.9,2.9,11.7,4.9,17.3l83.9-27.3C247.3,606.4,246.4,604.1,245.8,601.7z"/>
	<path class="st7" d="M248.4,608.7L164.5,636c2.9,8,6.6,15.6,10.9,22.7l45.1-28.7l3.2,5.1l-45.1,28.7c7.8,11.5,17.5,21.7,28.6,30
		l51.7-71.2c-0.8-0.7-1.6-1.4-2.4-2.2C253.2,616.8,250.4,612.9,248.4,608.7z"/>
	<path class="st6" d="M514.9,618.7L429,601.8c-0.7,2.8-1.8,5.5-3.2,8.1l83.4,28.1C511.6,631.8,513.5,625.3,514.9,618.7z"/>
	<path class="st7" d="M499.2,658.4c3.9-6.5,7.3-13.3,10-20.4l-83.4-28.1c-2,3.7-4.5,7.2-7.7,10.4c-0.8,0.8-1.7,1.6-2.5,2.3
		l51.6,71.1c11.2-8.4,20.9-18.7,28.8-30.3l-46.5-29.9l3.2-5.1L499.2,658.4z"/>
	<path class="st6" d="M197.4,482.8v34.1H157v-34.1H197.4z"/>
	<path class="st5" d="M243.9,482.8h-46.5v34h46.7L243.9,482.8z"/>
	<path class="st6" d="M197.4,436.8v40H157v-40H197.4z"/>
	<path class="st5" d="M243.7,436.8h-46.3v40h46.5L243.7,436.8z"/>
	<path class="st6" d="M197.4,522.8v40H157v-40H197.4z"/>
	<path class="st5" d="M244.1,522.8h-46.7v40h47L244.1,522.8z"/>
	<path class="st1" d="M80.9,330.1c-6.4,16.3-10.8,33.5-13.1,51.4l42.5,4.6c1.6-13.6,4.9-26.8,10-39.5L80.9,330.1z"/>
	<path class="st1" d="M109.7,392.1L67,387.5c-0.7,7.3-1.1,14.8-1.1,22.3v20.8h43.3v-26.7C109.2,400,109.4,396,109.7,392.1z"/>
	<path class="st1" d="M109.2,522.2V561H65.9v-38.8H109.2z"/>
	<path class="st1" d="M67.7,616.1c2.3,17.9,6.8,35.1,13.1,51.4l40.2-16.9c-5.2-12.5-8.8-25.6-10.5-39.1L67.7,616.1z"/>
	<path class="st1" d="M109.2,567H65.9v20.8c0,7.5,0.4,15,1.1,22.3l42.9-4.7c-0.4-4.7-0.7-9.4-0.7-14.1L109.2,567z"/>
	<path class="st1" d="M109.2,481.4v34.9H65.9v-34.9H109.2z"/>
	<path class="st7" d="M139,354.5l-18.8-7.9c-5.1,12.6-8.4,25.9-10,39.5l20.1,2.2C132,376.7,134.9,365.4,139,354.5z"/>
	<path class="st7" d="M128.9,409.8c0-5.2,0.3-10.4,0.8-15.5l-20-2.2c-0.3,3.9-0.5,7.9-0.5,11.8v26.7h19.7L128.9,409.8z"/>
	<path class="st7" d="M128.9,561h-19.7v-38.8h19.7V561z"/>
	<path class="st7" d="M130.4,609.3l-19.9,2.2c1.8,13.5,5.3,26.6,10.5,39.1l18-7.5C134.9,632.2,132,620.9,130.4,609.3z"/>
	<path class="st7" d="M128.9,587.8V567h-19.7v24.4c0,4.7,0.2,9.4,0.7,14.1l19.8-2.1C129.2,598.2,128.9,593,128.9,587.8z"/>
	<path class="st7" d="M128.9,516.2h-19.7v-34.9h19.7V516.2z"/>
	<path class="st1" d="M109.2,436.6v38.8H65.9v-38.8H109.2z"/>
	<path class="st7" d="M128.9,475.4h-19.7v-38.8h19.7V475.4z"/>
	<g>
		<path class="st0" d="M251.6,397.8v8.8l-4.5-4.4"/>
		<g>
			<path class="st0" d="M259.7,399.9c0,0.4-0.1,0.7-0.2,1c-0.1,0.3-0.3,0.6-0.5,0.8c-0.2,0.2-0.5,0.4-0.9,0.5s-0.7,0.2-1.2,0.2H256
				v2.7v0.1c0,0,0,0-0.1,0.1c-0.1,0.1-0.1,0-0.2,0s-0.1,0-0.2,0s-0.2,0-0.2,0s-0.1,0-0.2,0s-0.1,0-0.1-0.1s0-0.1,0-0.1v-7
				c0-0.2,0-0.3,0.1-0.3s0.2-0.1,0.3-0.1h1.6c0.2,0,0.3,0,0.5,0s0.3,0,0.5,0.1s0.4,0.1,0.6,0.3c0.2,0.2,0.4,0.3,0.5,0.5
				c0.1,0.2,0.3,0.4,0.3,0.6S259.7,399.6,259.7,399.9z M258.7,400c0-0.3-0.1-0.6-0.2-0.8c-0.1-0.2-0.3-0.4-0.4-0.5s-0.3-0.2-0.5-0.2
				s-0.4,0-0.5,0h-0.9v3h0.9c0.3,0,0.6,0,0.8-0.1c0.2-0.1,0.4-0.2,0.5-0.3c0.1-0.1,0.2-0.3,0.3-0.5
				C258.8,400.4,258.7,400.2,258.7,400z"/>
			<path class="st0" d="M262.1,405.1C262.1,405.1,262.1,405.2,262.1,405.1c0,0.1-0.1,0.1-0.1,0.1h-0.1c0,0-0.1,0-0.2,0
				c-0.1,0-0.2,0-0.2,0h-0.1c0,0-0.1,0-0.1-0.1s0,0,0-0.1v-7.8v-0.1c0,0,0,0,0.1-0.1s0.1,0,0.1,0s0.1,0,0.2,0c0.1,0,0.2,0,0.2,0h0.1
				c0,0,0.1,0,0.1,0.1s0,0.1,0,0.1V405.1z"/>
			<path class="st0" d="M267.9,405.1v0.1c0,0-0.1,0-0.1,0.1s-0.1,0-0.2,0c-0.1,0-0.2,0-0.2,0s-0.1,0-0.1-0.1s0-0.1,0-0.1v-0.5
				c-0.2,0.2-0.5,0.4-0.8,0.6c-0.3,0.2-0.6,0.2-0.9,0.2s-0.5,0-0.8-0.1s-0.4-0.2-0.6-0.3s-0.3-0.3-0.4-0.5c-0.1-0.2-0.1-0.4-0.1-0.7
				c0-0.3,0.1-0.6,0.2-0.8c0.1-0.2,0.3-0.4,0.5-0.5c0.2-0.1,0.5-0.3,0.8-0.3s0.7-0.1,1.1-0.1h0.7v-0.4c0-0.2,0-0.4-0.1-0.5
				c-0.1-0.1-0.1-0.3-0.2-0.4c-0.1-0.1-0.2-0.2-0.4-0.2s-0.3-0.1-0.6-0.1c-0.2,0-0.5,0-0.6,0.1s-0.4,0.1-0.5,0.2
				c-0.1,0.1-0.3,0.1-0.4,0.2c-0.1,0.1-0.2-0.1-0.2-0.1h-0.1c0,0,0,0-0.1-0.1s0-0.1,0-0.1s0-0.1,0-0.2s0-0.2,0-0.2s0-0.1,0.1-0.2
				c0.1-0.1,0.1-0.1,0.3-0.2c0.2-0.1,0.3-0.1,0.4-0.2c0.1-0.1,0.4-0.1,0.6-0.1s0.4-0.1,0.6-0.1c0.4,0,0.7,0,1,0.1
				c0.3,0.1,0.5,0.2,0.6,0.4c0.1,0.2,0.3,0.4,0.4,0.6c0.1,0.2,0.1,0.5,0.1,0.9L267.9,405.1L267.9,405.1z M266.9,402.7h-0.8
				c-0.3,0-0.5,0-0.7,0.1s-0.4,0.1-0.5,0.2c-0.1,0.1-0.2,0.2-0.3,0.3c-0.1,0.1-0.1,0.3-0.1,0.4c0,0.3,0.1,0.5,0.3,0.7
				c0.2,0.2,0.4,0.2,0.7,0.2c0.3,0,0.5-0.1,0.7-0.2c0.2-0.1,0.4-0.3,0.7-0.6L266.9,402.7L266.9,402.7z"/>
			<path class="st0" d="M271.8,405.3l-0.7,1.9c0,0.1-0.1,0.1-0.2,0.1c-0.1,0-0.2,0-0.4,0c-0.1,0-0.2,0-0.2,0h-0.1l-0.1-0.1v-0.1
				l0.7-1.8c0,0-0.1,0-0.1-0.1s-0.1-0.1-0.1-0.1l-1.9-5c0-0.1,0-0.1,0-0.2c0-0.1,0-0.1,0-0.1s0.1,0,0.2-0.1s0.2,0,0.3,0
				c0.1,0,0.2,0,0.3,0s0.1,0,0.2,0c0.1,0,0.1,0,0.1,0.1s0,0.1,0.1,0.1l1.5,4.2l0,0l1.5-4.3c0-0.1,0.1-0.1,0.1-0.1h0.1
				c0,0,0.2,0,0.3,0s0.2,0,0.3,0c0.1,0,0.1,0,0.2,0.1s0,0.1,0,0.1s0,0.1,0,0.2L271.8,405.3z"/>
			<path class="st0" d="M279.2,402.2c0,0.2,0,0.3-0.1,0.3c-0.1,0-0.2,0.1-0.3,0.1h-3.5c0,0.3,0,0.6,0.1,0.8c0.1,0.2,0.2,0.4,0.3,0.6
				c0.1,0.2,0.3,0.3,0.5,0.4c0.2,0.1,0.5,0.1,0.8,0.1s0.5,0,0.7-0.1c0.2-0.1,0.4-0.1,0.5-0.1c0.1-0.1,0.3-0.1,0.4-0.1
				c0.1,0,0.2-0.1,0.2-0.1h0.1c0,0,0,0,0.1,0.1v0.1c0,0,0,0.1,0,0.2s0,0.1,0,0.1v0.1v0.1c0,0,0,0-0.1,0.1s-0.1,0.1-0.2,0.1
				c-0.1,0-0.2,0.1-0.4,0.1c-0.2,0-0.4,0.1-0.6,0.1s-0.5,0.1-0.7,0.1c-0.4,0-0.8-0.1-1.1-0.2c-0.3-0.1-0.6-0.3-0.8-0.5
				c-0.2-0.2-0.4-0.5-0.5-0.9c-0.1-0.4-0.2-0.8-0.2-1.3s0.1-0.9,0.2-1.2c0.1-0.3,0.3-0.7,0.5-0.9c0.2-0.2,0.5-0.4,0.8-0.6
				s0.7-0.2,1-0.2c0.4,0,0.8,0.1,1.1,0.2c0.3,0.1,0.5,0.3,0.7,0.5c0.2,0.2,0.3,0.5,0.4,0.8c0.1,0.3,0.1,0.6,0.1,1V402.2z M278.2,402
				c0-0.5-0.1-0.9-0.3-1.2c-0.2-0.3-0.6-0.4-1.1-0.4c-0.2,0-0.5,0-0.6,0.1c-0.2,0.1-0.3,0.2-0.5,0.4c-0.1,0.1-0.2,0.3-0.3,0.5
				c-0.1,0.2-0.1,0.4-0.1,0.6H278.2L278.2,402z"/>
			<path class="st0" d="M283.8,400.2c0,0.1,0,0.2,0,0.2v0.1v0.1c0,0,0,0-0.1,0s-0.1,0-0.1,0s-0.1,0-0.2-0.1s-0.1,0-0.2,0
				s-0.1,0-0.2,0c-0.1,0-0.2,0-0.3,0.1s-0.2,0.1-0.3,0.2c-0.1,0.1-0.2,0.2-0.3,0.4c-0.1,0.2-0.2,0.3-0.4,0.5v3.5v0.1
				c0,0,0,0-0.1,0.1s-0.1,0-0.1,0s-0.1,0-0.2,0c-0.1,0-0.2,0-0.2,0H281c0,0-0.1,0-0.1-0.1s0,0,0-0.1v-5.3v-0.1c0,0,0,0,0.1-0.1
				s0.1,0,0.1,0s0.1,0,0.2,0c0.1,0,0.2,0,0.2,0h0.1c0,0,0.1,0,0.1,0.1s0,0,0,0.1v0.8c0.1-0.2,0.3-0.4,0.4-0.5s0.2-0.2,0.4-0.3
				s0.2-0.1,0.3-0.2c0.1-0.1,0.2,0,0.3,0s0.1,0,0.2,0s0.1,0,0.2,0s0.1,0,0.2,0.1s0.1,0,0.1,0.1s0,0,0,0.1S283.8,400,283.8,400.2
				C283.8,400.2,283.8,400.2,283.8,400.2C283.8,400.2,283.8,400.1,283.8,400.2z"/>
			<path class="st0" d="M291.9,404.8c0,0.1,0,0.1,0,0.2c0,0.1,0,0.1,0,0.1s0,0.1-0.1,0.1s-0.1,0-0.1,0h-3.6c-0.1,0-0.2,0-0.3-0.1
				s-0.1-0.2-0.1-0.3V398c0-0.2,0-0.3,0.1-0.3s0.2-0.1,0.3-0.1h3.6h0.1c0,0,0,0,0.1,0.1s0,0.1,0,0.1s0,0.1,0,0.2c0,0.1,0,0.1,0,0.2
				c0,0.1,0,0.1,0,0.1s0,0.1-0.1,0.1s-0.1,0-0.1,0h-3v2.4h2.5h0.1c0,0,0,0,0.1,0.1s0,0.1,0,0.1s0,0.1,0,0.2c0,0.1,0,0.1,0,0.2
				c0,0.1,0,0.1,0,0.1s0,0.1-0.1,0.1s-0.1,0-0.1,0h-2.5v2.7h3h0.1c0,0,0,0,0.1,0.1s0,0.1,0,0.1V404.8z"/>
			<path class="st0" d="M298,405.1C298,405.1,298,405.2,298,405.1c0,0.1-0.1,0.1-0.1,0.1h-0.1c0,0-0.1,0-0.2,0s-0.2,0-0.2,0h-0.1
				c0,0-0.1,0-0.1-0.1s0,0,0-0.1v-3.1c0-0.3,0-0.5-0.1-0.7c-0.1-0.2-0.1-0.3-0.2-0.5c-0.1-0.2-0.2-0.2-0.3-0.3s-0.3-0.1-0.5-0.1
				s-0.5,0.1-0.7,0.3c-0.2,0.2-0.5,0.4-0.8,0.8v3.7v0.1c0,0,0,0-0.1,0.1s-0.1,0-0.1,0s-0.1,0-0.2,0s-0.2,0-0.2,0h-0.1
				c0,0-0.1,0-0.1-0.1s0,0,0-0.1v-5.3v-0.1c0,0,0,0,0.1-0.1s0.1,0,0.1,0s0.1,0,0.2,0s0.2,0,0.2,0h0.1c0,0,0.1,0,0.1,0.1s0,0,0,0.1
				v0.7c0.3-0.3,0.6-0.6,0.9-0.7c0.3-0.1,0.6-0.2,0.9-0.2c0.4,0,0.6,0.1,0.9,0.2c0.3,0.1,0.4,0.3,0.6,0.5c0.2,0.2,0.3,0.4,0.3,0.7
				c0,0.3,0.1,0.6,0.1,1v3.1H298z"/>
			<path class="st0" d="M302.4,404.7c0,0.1,0,0.2,0,0.3s0,0.1-0.1,0.1s-0.1,0.1-0.1,0.1s-0.1,0-0.2,0.1s-0.2,0-0.3,0s-0.2,0-0.3,0
				c-0.3,0-0.5,0-0.7-0.1s-0.4-0.2-0.5-0.3s-0.2-0.3-0.3-0.6c-0.1-0.3-0.1-0.5-0.1-0.8v-3.1h-0.7c-0.1,0-0.1,0-0.1-0.1
				s-0.1-0.2-0.1-0.3s0-0.1,0-0.2c0-0.1,0-0.1,0-0.1s0-0.1,0.1-0.1s0.1,0,0.1,0h0.7v-1.3v-0.1c0,0,0,0,0.1-0.1s0.1,0,0.1,0
				s0.1,0,0.2,0s0.2,0,0.2,0h0.1c0,0,0.1,0,0.1,0.1s0,0,0,0.1v1.3h1.4h0.1c0,0,0,0,0.1,0.1s0,0.1,0,0.1s0,0.1,0,0.2
				c0,0.1,0,0.2-0.1,0.3s-0.1,0.1-0.1,0.1h-1.4v2.9c0,0.4,0.1,0.6,0.2,0.8c0.1,0.2,0.3,0.3,0.6,0.3c0.1,0,0.2,0,0.2,0s0.1,0,0.2-0.1
				s0.1,0,0.1-0.1s0.1,0,0.1,0s0,0,0.1,0s0,0,0,0.1s0,0.1,0,0.1L302.4,404.7z"/>
			<path class="st0" d="M306.7,400.2c0,0.1,0,0.2,0,0.2v0.1v0.1c0,0,0,0-0.1,0s-0.1,0-0.1,0s-0.1,0-0.2-0.1s-0.1,0-0.2,0
				s-0.1,0-0.2,0s-0.2,0-0.3,0.1s-0.2,0.1-0.3,0.2c-0.1,0.1-0.2,0.2-0.3,0.4c-0.1,0.2-0.2,0.3-0.4,0.5v3.5v0.1c0,0,0,0-0.1,0.1
				s-0.1,0-0.1,0s-0.1,0-0.2,0s-0.2,0-0.2,0h-0.1c0,0-0.1,0-0.1-0.1s0,0,0-0.1v-5.3v-0.1c0,0,0,0,0.1-0.1s0.1,0,0.1,0s0.1,0,0.2,0
				s0.2,0,0.2,0h0.1c0,0,0.1,0,0.1,0.1s0,0,0,0.1v0.8c0.1-0.2,0.3-0.4,0.4-0.5s0.2-0.2,0.4-0.3s0.2-0.1,0.3-0.2c0.1-0.1,0.2,0,0.3,0
				c0.1,0,0.1,0,0.2,0s0.1,0,0.2,0s0.1,0,0.2,0.1s0.1,0,0.1,0.1s0,0,0,0.1S306.7,400,306.7,400.2
				C306.7,400.2,306.7,400.2,306.7,400.2C306.7,400.2,306.7,400.1,306.7,400.2z"/>
			<path class="st0" d="M311.6,405.1v0.1c0,0-0.1,0-0.1,0.1s-0.1,0-0.2,0s-0.2,0-0.2,0s-0.1,0-0.1-0.1s0-0.1,0-0.1v-0.5
				c-0.2,0.2-0.5,0.4-0.8,0.6s-0.6,0.2-0.9,0.2s-0.5,0-0.8-0.1s-0.4-0.2-0.6-0.3s-0.3-0.3-0.4-0.5c-0.1-0.2-0.1-0.4-0.1-0.7
				c0-0.3,0.1-0.6,0.2-0.8c0.1-0.2,0.3-0.4,0.5-0.5s0.5-0.3,0.8-0.3s0.7-0.1,1.1-0.1h0.7v-0.4c0-0.2,0-0.4-0.1-0.5s-0.1-0.3-0.2-0.4
				c-0.1-0.1-0.2-0.2-0.4-0.2s-0.3-0.1-0.6-0.1c-0.2,0-0.5,0-0.6,0.1s-0.4,0.1-0.5,0.2c-0.1,0.1-0.3,0.1-0.4,0.2
				c-0.1,0.1-0.2,0.1-0.2,0.1h-0.1c0,0,0,0-0.1-0.1s0-0.1,0-0.1s0-0.1,0-0.2c0-0.1,0-0.2,0-0.2s0-0.1,0.1-0.2
				c0.1-0.1,0.1-0.1,0.3-0.2c0.2-0.1,0.3-0.1,0.4-0.2c0.1-0.1,0.4-0.1,0.6-0.1s0.4-0.1,0.6-0.1c0.4,0,0.7,0,1,0.1s0.5,0.2,0.6,0.4
				c0.1,0.2,0.3,0.4,0.4,0.6s0.1,0.5,0.1,0.9L311.6,405.1L311.6,405.1z M310.6,402.7h-0.8c-0.3,0-0.5,0-0.7,0.1s-0.4,0.1-0.5,0.2
				c-0.1,0.1-0.2,0.2-0.3,0.3s-0.1,0.3-0.1,0.4c0,0.3,0.1,0.5,0.3,0.7c0.2,0.2,0.4,0.2,0.7,0.2c0.3,0,0.5-0.1,0.7-0.2
				c0.2-0.1,0.4-0.3,0.7-0.6L310.6,402.7L310.6,402.7z"/>
			<path class="st0" d="M317.9,405.1C317.9,405.1,317.9,405.2,317.9,405.1c0,0.1-0.1,0.1-0.1,0.1h-0.1c0,0-0.1,0-0.2,0s-0.2,0-0.2,0
				h-0.1c0,0-0.1,0-0.1-0.1s0,0,0-0.1v-3.1c0-0.3,0-0.5-0.1-0.7c-0.1-0.2-0.1-0.3-0.2-0.5c-0.1-0.2-0.2-0.2-0.3-0.3
				s-0.3-0.1-0.5-0.1s-0.5,0.1-0.7,0.3c-0.2,0.2-0.5,0.4-0.8,0.8v3.7v0.1c0,0,0,0-0.1,0.1s-0.1,0-0.1,0s-0.1,0-0.2,0s-0.2,0-0.2,0
				h-0.1c0,0-0.1,0-0.1-0.1s0,0,0-0.1v-5.3v-0.1c0,0,0,0,0.1-0.1s0.1,0,0.1,0s0.1,0,0.2,0s0.2,0,0.2,0h0.1c0,0,0.1,0,0.1,0.1
				s0,0,0,0.1v0.7c0.3-0.3,0.6-0.6,0.9-0.7c0.3-0.1,0.6-0.2,0.9-0.2c0.4,0,0.6,0.1,0.9,0.2c0.3,0.1,0.4,0.3,0.6,0.5
				c0.2,0.2,0.3,0.4,0.3,0.7c0,0.3,0.1,0.6,0.1,1v3.1H317.9z"/>
			<path class="st0" d="M323.4,404.3c0,0.1,0,0.1,0,0.2c0,0.1,0,0.1,0,0.1v0.1c0,0,0,0.1-0.1,0.1s-0.1,0.1-0.2,0.2
				c-0.1,0.1-0.2,0.1-0.4,0.2c-0.2,0.1-0.3,0.1-0.5,0.1s-0.3,0.1-0.5,0.1c-0.4,0-0.7-0.1-1-0.2c-0.3-0.1-0.5-0.3-0.7-0.5
				c-0.2-0.2-0.3-0.5-0.5-0.9s-0.2-0.8-0.2-1.2c0-0.5,0.1-1,0.2-1.3c0.1-0.3,0.3-0.7,0.5-0.9c0.2-0.2,0.5-0.4,0.8-0.5s0.6-0.2,1-0.2
				c0.2,0,0.3,0,0.5,0s0.3,0.1,0.4,0.1s0.3,0.1,0.4,0.2c0.1,0.1,0.2,0.1,0.2,0.2c0,0.1,0.1,0.1,0.1,0.1v0.1v0.1c0,0,0,0.1,0,0.2
				c0,0.2,0,0.3-0.1,0.3s-0.1,0.1-0.1,0.1c-0.1,0-0.1,0-0.2-0.1s-0.2-0.1-0.3-0.2c-0.1-0.1-0.3-0.1-0.4-0.2
				c-0.1-0.1-0.4-0.1-0.6-0.1c-0.5,0-0.8,0.2-1.1,0.5c-0.3,0.3-0.4,0.9-0.4,1.6c0,0.3,0,0.6,0.1,0.9s0.2,0.5,0.3,0.6
				s0.3,0.3,0.5,0.4c0.2,0.1,0.4,0.1,0.6,0.1s0.4,0,0.6-0.1s0.3-0.1,0.4-0.2c0.1-0.1,0.2-0.2,0.3-0.2s0.1-0.1,0.2-0.1h0.1
				c0,0,0,0,0,0.1s0,0.1,0,0.1S323.4,404.2,323.4,404.3z"/>
			<path class="st0" d="M329.2,402.2c0,0.2,0,0.3-0.1,0.3s-0.2,0.1-0.3,0.1h-3.5c0,0.3,0,0.6,0.1,0.8c0.1,0.2,0.2,0.4,0.3,0.6
				c0.1,0.2,0.3,0.3,0.5,0.4c0.2,0.1,0.5,0.1,0.8,0.1s0.5,0,0.7-0.1s0.4-0.1,0.5-0.1c0.1-0.1,0.3-0.1,0.4-0.1s0.2-0.1,0.2-0.1h0.1
				c0,0,0,0,0.1,0.1v0.1c0,0,0,0.1,0,0.2s0,0.1,0,0.1v0.1v0.1c0,0,0,0-0.1,0.1s-0.1,0.1-0.2,0.1s-0.2,0.1-0.4,0.1s-0.4,0.1-0.6,0.1
				s-0.5,0.1-0.7,0.1c-0.4,0-0.8-0.1-1.1-0.2c-0.3-0.1-0.6-0.3-0.8-0.5c-0.2-0.2-0.4-0.5-0.5-0.9s-0.2-0.8-0.2-1.3s0.1-0.9,0.2-1.2
				c0.1-0.3,0.3-0.7,0.5-0.9c0.2-0.2,0.5-0.4,0.8-0.6s0.7-0.2,1-0.2c0.4,0,0.8,0.1,1.1,0.2c0.3,0.1,0.5,0.3,0.7,0.5
				c0.2,0.2,0.3,0.5,0.4,0.8c0.1,0.3,0.1,0.6,0.1,1V402.2z M328.2,402c0-0.5-0.1-0.9-0.3-1.2c-0.2-0.3-0.6-0.4-1.1-0.4
				c-0.2,0-0.5,0-0.6,0.1c-0.2,0.1-0.3,0.2-0.5,0.4c-0.1,0.1-0.2,0.3-0.3,0.5c-0.1,0.2-0.1,0.4-0.1,0.6H328.2L328.2,402z"/>
		</g>
	</g>
</g>
<g id="Layer_3">
	<path id="A" class="st8" d="M319.2,328.1H356"/>
	<text transform="matrix(1 0 0 1 14 77.89)" class="st9 st10">             </text>
	<text transform="matrix(1 0 0 1 14 77.89)" class="st9 st10"> </text>
	<text transform="matrix(1 0 0 1 17.334 77.89)" class="st9 st10"> </text>
	<text transform="matrix(1 0 0 1 20.668 77.89)" class="st9 st10"> </text>
	<text transform="matrix(1 0 0 1 24.002 77.89)" class="st9 st10"> </text>
	<text transform="matrix(1 0 0 1 27.3359 77.89)" class="st9 st10"> </text>
	<text transform="matrix(1 0 0 1 30.6699 77.89)" class="st9 st10"> </text>
	<text transform="matrix(1 0 0 1 34.0039 77.89)" class="st9 st10"> </text>
	<text transform="matrix(1 0 0 1 37.3379 77.89)" class="st9 st10"> </text>
	<text transform="matrix(1 0 0 1 40.6719 77.89)" class="st9 st10"> </text>
	<text transform="matrix(1 0 0 1 44.0059 77.89)" class="st9 st10"> </text>
	<text transform="matrix(1 0 0 1 47.3398 77.89)" class="st9 st10"> </text>
	<text transform="matrix(1 0 0 1 50.6738 77.89)" class="st9 st10"> </text>
	<text transform="matrix(1 0 0 1 54.0078 77.89)" class="st9 st10"> </text>
	<text transform="matrix(1 0 0 1 57.3418 77.89)" class="st9 st10"> </text>
	<text transform="matrix(1 0 0 1 60.6758 77.89)" class="st9 st10">A</text>
	<text transform="matrix(1 0 0 1 68.6797 77.89)" class="st9 st10"> </text>
	<text transform="matrix(1 0 0 1 72.0137 77.89)" class="st9 st10"> </text>
	<text transform="matrix(1 0 0 1 75.3477 77.89)" class="st9 st10"> </text>
	<text transform="matrix(1 0 0 1 78.6816 77.89)" class="st9 st10"> </text>
	<text transform="matrix(1 0 0 1 82.0156 77.89)" class="st9 st10"> </text>
	<text transform="matrix(1 0 0 1 85.3496 77.89)" class="st9 st10"> </text>
	<text transform="matrix(1 0 0 1 88.6836 77.89)" class="st9 st10"> </text>
	<text transform="matrix(1 0 0 1 92.0176 77.89)" class="st9 st10"> </text>
	<text transform="matrix(1 0 0 1 95.3516 77.89)" class="st9 st10"> </text>
	<text transform="matrix(1 0 0 1 98.6855 77.89)" class="st9 st10"> </text>
	<text transform="matrix(1 0 0 1 102.0195 77.89)" class="st9 st10"> </text>
	<text transform="matrix(1 0 0 1 105.3535 77.89)" class="st9 st10"> </text>
	<text transform="matrix(1 0 0 1 108.6875 77.89)" class="st9 st10"> </text>
	<text transform="matrix(1 0 0 1 14 77.89)" class="st9 st10">         </text>
	<path id="B" class="st8" d="M362,328.1h41.2"/>
	<text transform="matrix(1 0 0 1 14 77.89)" class="st9 st10">             </text>
	<text transform="matrix(1 0 0 1 14 77.89)" class="st9 st10"> </text>
	<text transform="matrix(1 0 0 1 17.334 77.89)" class="st9 st10"> </text>
	<text transform="matrix(1 0 0 1 20.668 77.89)" class="st9 st10"> </text>
	<text transform="matrix(1 0 0 1 24.002 77.89)" class="st9 st10"> </text>
	<text transform="matrix(1 0 0 1 27.3359 77.89)" class="st9 st10"> </text>
	<text transform="matrix(1 0 0 1 30.6699 77.89)" class="st9 st10"> </text>
	<text transform="matrix(1 0 0 1 34.0039 77.89)" class="st9 st10"> </text>
	<text transform="matrix(1 0 0 1 37.3379 77.89)" class="st9 st10"> </text>
	<text transform="matrix(1 0 0 1 40.6719 77.89)" class="st9 st10"> </text>
	<text transform="matrix(1 0 0 1 44.0059 77.89)" class="st9 st10"> </text>
	<text transform="matrix(1 0 0 1 47.3398 77.89)" class="st9 st10"> </text>
	<text transform="matrix(1 0 0 1 50.6738 77.89)" class="st9 st10"> </text>
	<text transform="matrix(1 0 0 1 54.0078 77.89)" class="st9 st10"> </text>
	<text transform="matrix(1 0 0 1 57.3418 77.89)" class="st9 st10"> </text>
	<text transform="matrix(1 0 0 1 60.6758 77.89)" class="st9 st10">B</text>
	<text transform="matrix(1 0 0 1 68.6797 77.89)" class="st9 st10"> </text>
	<text transform="matrix(1 0 0 1 72.0137 77.89)" class="st9 st10"> </text>
	<text transform="matrix(1 0 0 1 75.3477 77.89)" class="st9 st10"> </text>
	<text transform="matrix(1 0 0 1 78.6816 77.89)" class="st9 st10"> </text>
	<text transform="matrix(1 0 0 1 82.0156 77.89)" class="st9 st10"> </text>
	<text transform="matrix(1 0 0 1 85.3496 77.89)" class="st9 st10"> </text>
	<text transform="matrix(1 0 0 1 88.6836 77.89)" class="st9 st10"> </text>
	<text transform="matrix(1 0 0 1 92.0176 77.89)" class="st9 st10"> </text>
	<text transform="matrix(1 0 0 1 95.3516 77.89)" class="st9 st10"> </text>
	<text transform="matrix(1 0 0 1 98.6855 77.89)" class="st9 st10"> </text>
	<text transform="matrix(1 0 0 1 102.0195 77.89)" class="st9 st10"> </text>
	<text transform="matrix(1 0 0 1 105.3535 77.89)" class="st9 st10"> </text>
	<text transform="matrix(1 0 0 1 108.6875 77.89)" class="st9 st10"> </text>
	<text transform="matrix(1 0 0 1 14 77.89)" class="st9 st10">         </text>
	<path id="C" class="st8" d="M406.8,332.2h33.3"/>
	<text transform="matrix(1 0 0 1 14 77.89)" class="st9 st10">             </text>
	<text transform="matrix(1 0 0 1 14 77.89)" class="st9 st10"> </text>
	<text transform="matrix(1 0 0 1 17.334 77.89)" class="st9 st10"> </text>
	<text transform="matrix(1 0 0 1 20.668 77.89)" class="st9 st10"> </text>
	<text transform="matrix(1 0 0 1 24.002 77.89)" class="st9 st10"> </text>
	<text transform="matrix(1 0 0 1 27.3359 77.89)" class="st9 st10"> </text>
	<text transform="matrix(1 0 0 1 30.6699 77.89)" class="st9 st10"> </text>
	<text transform="matrix(1 0 0 1 34.0039 77.89)" class="st9 st10"> </text>
	<text transform="matrix(1 0 0 1 37.3379 77.89)" class="st9 st10"> </text>
	<text transform="matrix(1 0 0 1 40.6719 77.89)" class="st9 st10"> </text>
	<text transform="matrix(1 0 0 1 44.0059 77.89)" class="st9 st10"> </text>
	<text transform="matrix(1 0 0 1 47.3398 77.89)" class="st9 st10"> </text>
	<text transform="matrix(1 0 0 1 50.6738 77.89)" class="st9 st10"> </text>
	<text transform="matrix(1 0 0 1 54.0078 77.89)" class="st9 st10"> </text>
	<text transform="matrix(1 0 0 1 57.3418 77.89)" class="st9 st10"> </text>
	<text transform="matrix(1 0 0 1 60.6758 77.89)" class="st9 st10">C</text>
	<text transform="matrix(1 0 0 1 69.3418 77.89)" class="st9 st10"> </text>
	<text transform="matrix(1 0 0 1 72.6758 77.89)" class="st9 st10"> </text>
	<text transform="matrix(1 0 0 1 76.0098 77.89)" class="st9 st10"> </text>
	<text transform="matrix(1 0 0 1 79.3438 77.89)" class="st9 st10"> </text>
	<text transform="matrix(1 0 0 1 82.6777 77.89)" class="st9 st10"> </text>
	<text transform="matrix(1 0 0 1 86.0117 77.89)" class="st9 st10"> </text>
	<text transform="matrix(1 0 0 1 89.3457 77.89)" class="st9 st10"> </text>
	<text transform="matrix(1 0 0 1 92.6797 77.89)" class="st9 st10"> </text>
	<text transform="matrix(1 0 0 1 96.0137 77.89)" class="st9 st10"> </text>
	<text transform="matrix(1 0 0 1 99.3477 77.89)" class="st9 st10"> </text>
	<text transform="matrix(1 0 0 1 102.6816 77.89)" class="st9 st10"> </text>
	<text transform="matrix(1 0 0 1 106.0156 77.89)" class="st9 st10"> </text>
	<text transform="matrix(1 0 0 1 109.3496 77.89)" class="st9 st10"> </text>
	<text transform="matrix(1 0 0 1 14 77.89)" class="st9 st10">         </text>
	<path id="D" class="st8" d="M430.3,418h47.3h39.1"/>
	<text transform="matrix(1 0 0 1 14 77.89)" class="st9 st10">             </text>
	<text transform="matrix(1 0 0 1 14 77.89)" class="st9 st10"> </text>
	<text transform="matrix(1 0 0 1 17.334 77.89)" class="st9 st10"> </text>
	<text transform="matrix(1 0 0 1 20.668 77.89)" class="st9 st10"> </text>
	<text transform="matrix(1 0 0 1 24.002 77.89)" class="st9 st10"> </text>
	<text transform="matrix(1 0 0 1 27.3359 77.89)" class="st9 st10"> </text>
	<text transform="matrix(1 0 0 1 30.6699 77.89)" class="st9 st10"> </text>
	<text transform="matrix(1 0 0 1 34.0039 77.89)" class="st9 st10"> </text>
	<text transform="matrix(1 0 0 1 37.3379 77.89)" class="st9 st10"> </text>
	<text transform="matrix(1 0 0 1 40.6719 77.89)" class="st9 st10"> </text>
	<text transform="matrix(1 0 0 1 44.0059 77.89)" class="st9 st10"> </text>
	<text transform="matrix(1 0 0 1 47.3398 77.89)" class="st9 st10"> </text>
	<text transform="matrix(1 0 0 1 50.6738 77.89)" class="st9 st10"> </text>
	<text transform="matrix(1 0 0 1 54.0078 77.89)" class="st9 st10"> </text>
	<text transform="matrix(1 0 0 1 57.3418 77.89)" class="st9 st10"> </text>
	<text transform="matrix(1 0 0 1 60.6758 77.89)" class="st9 st10">D</text>
	<text transform="matrix(1 0 0 1 69.3418 77.89)" class="st9 st10"> </text>
	<text transform="matrix(1 0 0 1 72.6758 77.89)" class="st9 st10"> </text>
	<text transform="matrix(1 0 0 1 76.0098 77.89)" class="st9 st10"> </text>
	<text transform="matrix(1 0 0 1 79.3438 77.89)" class="st9 st10"> </text>
	<text transform="matrix(1 0 0 1 82.6777 77.89)" class="st9 st10"> </text>
	<text transform="matrix(1 0 0 1 86.0117 77.89)" class="st9 st10"> </text>
	<text transform="matrix(1 0 0 1 89.3457 77.89)" class="st9 st10"> </text>
	<text transform="matrix(1 0 0 1 92.6797 77.89)" class="st9 st10"> </text>
	<text transform="matrix(1 0 0 1 96.0137 77.89)" class="st9 st10"> </text>
	<text transform="matrix(1 0 0 1 99.3477 77.89)" class="st9 st10"> </text>
	<text transform="matrix(1 0 0 1 102.6816 77.89)" class="st9 st10"> </text>
	<text transform="matrix(1 0 0 1 106.0156 77.89)" class="st9 st10"> </text>
	<text transform="matrix(1 0 0 1 109.3496 77.89)" class="st9 st10"> </text>
	<text transform="matrix(1 0 0 1 14 77.89)" class="st9 st10">         </text>
	<path id="E" class="st8" d="M430.3,463.1h86.4"/>
	<text transform="matrix(1 0 0 1 14 77.89)" class="st9 st10">             </text>
	<text transform="matrix(1 0 0 1 14 77.89)" class="st9 st10"> </text>
	<text transform="matrix(1 0 0 1 17.334 77.89)" class="st9 st10"> </text>
	<text transform="matrix(1 0 0 1 20.668 77.89)" class="st9 st10"> </text>
	<text transform="matrix(1 0 0 1 24.002 77.89)" class="st9 st10"> </text>
	<text transform="matrix(1 0 0 1 27.3359 77.89)" class="st9 st10"> </text>
	<text transform="matrix(1 0 0 1 30.6699 77.89)" class="st9 st10"> </text>
	<text transform="matrix(1 0 0 1 34.0039 77.89)" class="st9 st10"> </text>
	<text transform="matrix(1 0 0 1 37.3379 77.89)" class="st9 st10"> </text>
	<text transform="matrix(1 0 0 1 40.6719 77.89)" class="st9 st10"> </text>
	<text transform="matrix(1 0 0 1 44.0059 77.89)" class="st9 st10"> </text>
	<text transform="matrix(1 0 0 1 47.3398 77.89)" class="st9 st10"> </text>
	<text transform="matrix(1 0 0 1 50.6738 77.89)" class="st9 st10"> </text>
	<text transform="matrix(1 0 0 1 54.0078 77.89)" class="st9 st10"> </text>
	<text transform="matrix(1 0 0 1 57.3418 77.89)" class="st9 st10"> </text>
	<text transform="matrix(1 0 0 1 60.6758 77.89)" class="st9 st10">E</text>
	<text transform="matrix(1 0 0 1 68.6797 77.89)" class="st9 st10"> </text>
	<text transform="matrix(1 0 0 1 72.0137 77.89)" class="st9 st10"> </text>
	<text transform="matrix(1 0 0 1 75.3477 77.89)" class="st9 st10"> </text>
	<text transform="matrix(1 0 0 1 78.6816 77.89)" class="st9 st10"> </text>
	<text transform="matrix(1 0 0 1 82.0156 77.89)" class="st9 st10"> </text>
	<text transform="matrix(1 0 0 1 85.3496 77.89)" class="st9 st10"> </text>
	<text transform="matrix(1 0 0 1 88.6836 77.89)" class="st9 st10"> </text>
	<text transform="matrix(1 0 0 1 92.0176 77.89)" class="st9 st10"> </text>
	<text transform="matrix(1 0 0 1 95.3516 77.89)" class="st9 st10"> </text>
	<text transform="matrix(1 0 0 1 98.6855 77.89)" class="st9 st10"> </text>
	<text transform="matrix(1 0 0 1 102.0195 77.89)" class="st9 st10"> </text>
	<text transform="matrix(1 0 0 1 105.3535 77.89)" class="st9 st10"> </text>
	<text transform="matrix(1 0 0 1 108.6875 77.89)" class="st9 st10"> </text>
	<text transform="matrix(1 0 0 1 14 77.89)" class="st9 st10">         </text>
	<path id="F" class="st8" d="M430.3,505.8h86.4"/>
	<text transform="matrix(1 0 0 1 14 77.89)" class="st9 st10">             </text>
	<text transform="matrix(1 0 0 1 14 77.89)" class="st9 st10"> </text>
	<text transform="matrix(1 0 0 1 17.334 77.89)" class="st9 st10"> </text>
	<text transform="matrix(1 0 0 1 20.668 77.89)" class="st9 st10"> </text>
	<text transform="matrix(1 0 0 1 24.002 77.89)" class="st9 st10"> </text>
	<text transform="matrix(1 0 0 1 27.3359 77.89)" class="st9 st10"> </text>
	<text transform="matrix(1 0 0 1 30.6699 77.89)" class="st9 st10"> </text>
	<text transform="matrix(1 0 0 1 34.0039 77.89)" class="st9 st10"> </text>
	<text transform="matrix(1 0 0 1 37.3379 77.89)" class="st9 st10"> </text>
	<text transform="matrix(1 0 0 1 40.6719 77.89)" class="st9 st10"> </text>
	<text transform="matrix(1 0 0 1 44.0059 77.89)" class="st9 st10"> </text>
	<text transform="matrix(1 0 0 1 47.3398 77.89)" class="st9 st10"> </text>
	<text transform="matrix(1 0 0 1 50.6738 77.89)" class="st9 st10"> </text>
	<text transform="matrix(1 0 0 1 54.0078 77.89)" class="st9 st10"> </text>
	<text transform="matrix(1 0 0 1 57.3418 77.89)" class="st9 st10"> </text>
	<text transform="matrix(1 0 0 1 60.6758 77.89)" class="st9 st10">F</text>
	<text transform="matrix(1 0 0 1 68.0059 77.89)" class="st9 st10"> </text>
	<text transform="matrix(1 0 0 1 71.3398 77.89)" class="st9 st10"> </text>
	<text transform="matrix(1 0 0 1 74.6738 77.89)" class="st9 st10"> </text>
	<text transform="matrix(1 0 0 1 78.0078 77.89)" class="st9 st10"> </text>
	<text transform="matrix(1 0 0 1 81.3418 77.89)" class="st9 st10"> </text>
	<text transform="matrix(1 0 0 1 84.6758 77.89)" class="st9 st10"> </text>
	<text transform="matrix(1 0 0 1 88.0098 77.89)" class="st9 st10"> </text>
	<text transform="matrix(1 0 0 1 91.3438 77.89)" class="st9 st10"> </text>
	<text transform="matrix(1 0 0 1 94.6777 77.89)" class="st9 st10"> </text>
	<text transform="matrix(1 0 0 1 98.0117 77.89)" class="st9 st10"> </text>
	<text transform="matrix(1 0 0 1 101.3457 77.89)" class="st9 st10"> </text>
	<text transform="matrix(1 0 0 1 104.6797 77.89)" class="st9 st10"> </text>
	<text transform="matrix(1 0 0 1 108.0137 77.89)" class="st9 st10"> </text>
	<text transform="matrix(1 0 0 1 14 77.89)" class="st9 st10">         </text>
	<path id="G" class="st8" d="M430.3,550.8h86.4"/>
	<text transform="matrix(1 0 0 1 14 77.89)" class="st9 st10">             </text>
	<text transform="matrix(1 0 0 1 14 77.89)" class="st9 st10"> </text>
	<text transform="matrix(1 0 0 1 17.334 77.89)" class="st9 st10"> </text>
	<text transform="matrix(1 0 0 1 20.668 77.89)" class="st9 st10"> </text>
	<text transform="matrix(1 0 0 1 24.002 77.89)" class="st9 st10"> </text>
	<text transform="matrix(1 0 0 1 27.3359 77.89)" class="st9 st10"> </text>
	<text transform="matrix(1 0 0 1 30.6699 77.89)" class="st9 st10"> </text>
	<text transform="matrix(1 0 0 1 34.0039 77.89)" class="st9 st10"> </text>
	<text transform="matrix(1 0 0 1 37.3379 77.89)" class="st9 st10"> </text>
	<text transform="matrix(1 0 0 1 40.6719 77.89)" class="st9 st10"> </text>
	<text transform="matrix(1 0 0 1 44.0059 77.89)" class="st9 st10"> </text>
	<text transform="matrix(1 0 0 1 47.3398 77.89)" class="st9 st10"> </text>
	<text transform="matrix(1 0 0 1 50.6738 77.89)" class="st9 st10"> </text>
	<text transform="matrix(1 0 0 1 54.0078 77.89)" class="st9 st10"> </text>
	<text transform="matrix(1 0 0 1 57.3418 77.89)" class="st9 st10"> </text>
	<text transform="matrix(1 0 0 1 60.6758 77.89)" class="st9 st10">G</text>
	<text transform="matrix(1 0 0 1 70.0098 77.89)" class="st9 st10"> </text>
	<text transform="matrix(1 0 0 1 73.3438 77.89)" class="st9 st10"> </text>
	<text transform="matrix(1 0 0 1 76.6777 77.89)" class="st9 st10"> </text>
	<text transform="matrix(1 0 0 1 80.0117 77.89)" class="st9 st10"> </text>
	<text transform="matrix(1 0 0 1 83.3457 77.89)" class="st9 st10"> </text>
	<text transform="matrix(1 0 0 1 86.6797 77.89)" class="st9 st10"> </text>
	<text transform="matrix(1 0 0 1 90.0137 77.89)" class="st9 st10"> </text>
	<text transform="matrix(1 0 0 1 93.3477 77.89)" class="st9 st10"> </text>
	<text transform="matrix(1 0 0 1 96.6816 77.89)" class="st9 st10"> </text>
	<text transform="matrix(1 0 0 1 100.0156 77.89)" class="st9 st10"> </text>
	<text transform="matrix(1 0 0 1 103.3496 77.89)" class="st9 st10"> </text>
	<text transform="matrix(1 0 0 1 106.6836 77.89)" class="st9 st10"> </text>
	<text transform="matrix(1 0 0 1 110.0176 77.89)" class="st9 st10"> </text>
	<text transform="matrix(1 0 0 1 14 77.89)" class="st9 st10">         </text>
	<path id="H" class="st8" d="M430.3,591.8h86.4"/>
	<text transform="matrix(1 0 0 1 14 77.89)" class="st9 st10">             </text>
	<text transform="matrix(1 0 0 1 14 77.89)" class="st9 st10"> </text>
	<text transform="matrix(1 0 0 1 17.334 77.89)" class="st9 st10"> </text>
	<text transform="matrix(1 0 0 1 20.668 77.89)" class="st9 st10"> </text>
	<text transform="matrix(1 0 0 1 24.002 77.89)" class="st9 st10"> </text>
	<text transform="matrix(1 0 0 1 27.3359 77.89)" class="st9 st10"> </text>
	<text transform="matrix(1 0 0 1 30.6699 77.89)" class="st9 st10"> </text>
	<text transform="matrix(1 0 0 1 34.0039 77.89)" class="st9 st10"> </text>
	<text transform="matrix(1 0 0 1 37.3379 77.89)" class="st9 st10"> </text>
	<text transform="matrix(1 0 0 1 40.6719 77.89)" class="st9 st10"> </text>
	<text transform="matrix(1 0 0 1 44.0059 77.89)" class="st9 st10"> </text>
	<text transform="matrix(1 0 0 1 47.3398 77.89)" class="st9 st10"> </text>
	<text transform="matrix(1 0 0 1 50.6738 77.89)" class="st9 st10"> </text>
	<text transform="matrix(1 0 0 1 54.0078 77.89)" class="st9 st10"> </text>
	<text transform="matrix(1 0 0 1 57.3418 77.89)" class="st9 st10"> </text>
	<text transform="matrix(1 0 0 1 60.6758 77.89)" class="st9 st10">H</text>
	<text transform="matrix(1 0 0 1 69.3418 77.89)" class="st9 st10"> </text>
	<text transform="matrix(1 0 0 1 72.6758 77.89)" class="st9 st10"> </text>
	<text transform="matrix(1 0 0 1 76.0098 77.89)" class="st9 st10"> </text>
	<text transform="matrix(1 0 0 1 79.3438 77.89)" class="st9 st10"> </text>
	<text transform="matrix(1 0 0 1 82.6777 77.89)" class="st9 st10"> </text>
	<text transform="matrix(1 0 0 1 86.0117 77.89)" class="st9 st10"> </text>
	<text transform="matrix(1 0 0 1 89.3457 77.89)" class="st9 st10"> </text>
	<text transform="matrix(1 0 0 1 92.6797 77.89)" class="st9 st10"> </text>
	<text transform="matrix(1 0 0 1 96.0137 77.89)" class="st9 st10"> </text>
	<text transform="matrix(1 0 0 1 99.3477 77.89)" class="st9 st10"> </text>
	<text transform="matrix(1 0 0 1 102.6816 77.89)" class="st9 st10"> </text>
	<text transform="matrix(1 0 0 1 106.0156 77.89)" class="st9 st10"> </text>
	<text transform="matrix(1 0 0 1 109.3496 77.89)" class="st9 st10"> </text>
	<text transform="matrix(1 0 0 1 14 77.89)" class="st9 st10">         </text>
	<path id="I" class="st8" d="M408.9,677.2h39.5"/>
	<text transform="matrix(1 0 0 1 14 77.89)" class="st9 st10">             </text>
	<text transform="matrix(1 0 0 1 14 77.89)" class="st9 st10"> </text>
	<text transform="matrix(1 0 0 1 17.334 77.89)" class="st9 st10"> </text>
	<text transform="matrix(1 0 0 1 20.668 77.89)" class="st9 st10"> </text>
	<text transform="matrix(1 0 0 1 24.002 77.89)" class="st9 st10"> </text>
	<text transform="matrix(1 0 0 1 27.3359 77.89)" class="st9 st10"> </text>
	<text transform="matrix(1 0 0 1 30.6699 77.89)" class="st9 st10"> </text>
	<text transform="matrix(1 0 0 1 34.0039 77.89)" class="st9 st10"> </text>
	<text transform="matrix(1 0 0 1 37.3379 77.89)" class="st9 st10"> </text>
	<text transform="matrix(1 0 0 1 40.6719 77.89)" class="st9 st10"> </text>
	<text transform="matrix(1 0 0 1 44.0059 77.89)" class="st9 st10"> </text>
	<text transform="matrix(1 0 0 1 47.3398 77.89)" class="st9 st10"> </text>
	<text transform="matrix(1 0 0 1 50.6738 77.89)" class="st9 st10"> </text>
	<text transform="matrix(1 0 0 1 54.0078 77.89)" class="st9 st10"> </text>
	<text transform="matrix(1 0 0 1 57.3418 77.89)" class="st9 st10"> </text>
	<text transform="matrix(1 0 0 1 60.6758 77.89)" class="st9 st10">I</text>
	<text transform="matrix(1 0 0 1 64.0098 77.89)" class="st9 st10"> </text>
	<text transform="matrix(1 0 0 1 67.3438 77.89)" class="st9 st10"> </text>
	<text transform="matrix(1 0 0 1 70.6777 77.89)" class="st9 st10"> </text>
	<text transform="matrix(1 0 0 1 74.0117 77.89)" class="st9 st10"> </text>
	<text transform="matrix(1 0 0 1 77.3457 77.89)" class="st9 st10"> </text>
	<text transform="matrix(1 0 0 1 80.6797 77.89)" class="st9 st10"> </text>
	<text transform="matrix(1 0 0 1 84.0137 77.89)" class="st9 st10"> </text>
	<text transform="matrix(1 0 0 1 87.3477 77.89)" class="st9 st10"> </text>
	<text transform="matrix(1 0 0 1 90.6816 77.89)" class="st9 st10"> </text>
	<text transform="matrix(1 0 0 1 94.0156 77.89)" class="st9 st10"> </text>
	<text transform="matrix(1 0 0 1 97.3496 77.89)" class="st9 st10"> </text>
	<text transform="matrix(1 0 0 1 100.6836 77.89)" class="st9 st10"> </text>
	<text transform="matrix(1 0 0 1 104.0176 77.89)" class="st9 st10"> </text>
	<text transform="matrix(1 0 0 1 14 77.89)" class="st9 st10">         </text>
	<path id="J" class="st8" d="M361.1,683.7h42.7"/>
	<text transform="matrix(1 0 0 1 14 77.89)" class="st9 st10">             </text>
	<text transform="matrix(1 0 0 1 14 77.89)" class="st9 st10"> </text>
	<text transform="matrix(1 0 0 1 17.334 77.89)" class="st9 st10"> </text>
	<text transform="matrix(1 0 0 1 20.668 77.89)" class="st9 st10"> </text>
	<text transform="matrix(1 0 0 1 24.002 77.89)" class="st9 st10"> </text>
	<text transform="matrix(1 0 0 1 27.3359 77.89)" class="st9 st10"> </text>
	<text transform="matrix(1 0 0 1 30.6699 77.89)" class="st9 st10"> </text>
	<text transform="matrix(1 0 0 1 34.0039 77.89)" class="st9 st10"> </text>
	<text transform="matrix(1 0 0 1 37.3379 77.89)" class="st9 st10"> </text>
	<text transform="matrix(1 0 0 1 40.6719 77.89)" class="st9 st10"> </text>
	<text transform="matrix(1 0 0 1 44.0059 77.89)" class="st9 st10"> </text>
	<text transform="matrix(1 0 0 1 47.3398 77.89)" class="st9 st10"> </text>
	<text transform="matrix(1 0 0 1 50.6738 77.89)" class="st9 st10"> </text>
	<text transform="matrix(1 0 0 1 54.0078 77.89)" class="st9 st10"> </text>
	<text transform="matrix(1 0 0 1 57.3418 77.89)" class="st9 st10"> </text>
	<text transform="matrix(1 0 0 1 60.6758 77.89)" class="st9 st10">J</text>
	<text transform="matrix(1 0 0 1 66.6758 77.89)" class="st9 st10"> </text>
	<text transform="matrix(1 0 0 1 70.0098 77.89)" class="st9 st10"> </text>
	<text transform="matrix(1 0 0 1 73.3438 77.89)" class="st9 st10"> </text>
	<text transform="matrix(1 0 0 1 76.6777 77.89)" class="st9 st10"> </text>
	<text transform="matrix(1 0 0 1 80.0117 77.89)" class="st9 st10"> </text>
	<text transform="matrix(1 0 0 1 83.3457 77.89)" class="st9 st10"> </text>
	<text transform="matrix(1 0 0 1 86.6797 77.89)" class="st9 st10"> </text>
	<text transform="matrix(1 0 0 1 90.0137 77.89)" class="st9 st10"> </text>
	<text transform="matrix(1 0 0 1 93.3477 77.89)" class="st9 st10"> </text>
	<text transform="matrix(1 0 0 1 96.6816 77.89)" class="st9 st10"> </text>
	<text transform="matrix(1 0 0 1 100.0156 77.89)" class="st9 st10"> </text>
	<text transform="matrix(1 0 0 1 103.3496 77.89)" class="st9 st10"> </text>
	<text transform="matrix(1 0 0 1 106.6836 77.89)" class="st9 st10"> </text>
	<text transform="matrix(1 0 0 1 14 77.89)" class="st9 st10">         </text>
	<path id="K" class="st8" d="M319.6,683.7h34.5"/>
	<text transform="matrix(1 0 0 1 14 77.89)" class="st9 st10">             </text>
	<text transform="matrix(1 0 0 1 14 77.89)" class="st9 st10"> </text>
	<text transform="matrix(1 0 0 1 17.334 77.89)" class="st9 st10"> </text>
	<text transform="matrix(1 0 0 1 20.668 77.89)" class="st9 st10"> </text>
	<text transform="matrix(1 0 0 1 24.002 77.89)" class="st9 st10"> </text>
	<text transform="matrix(1 0 0 1 27.3359 77.89)" class="st9 st10"> </text>
	<text transform="matrix(1 0 0 1 30.6699 77.89)" class="st9 st10"> </text>
	<text transform="matrix(1 0 0 1 34.0039 77.89)" class="st9 st10"> </text>
	<text transform="matrix(1 0 0 1 37.3379 77.89)" class="st9 st10"> </text>
	<text transform="matrix(1 0 0 1 40.6719 77.89)" class="st9 st10"> </text>
	<text transform="matrix(1 0 0 1 44.0059 77.89)" class="st9 st10"> </text>
	<text transform="matrix(1 0 0 1 47.3398 77.89)" class="st9 st10"> </text>
	<text transform="matrix(1 0 0 1 50.6738 77.89)" class="st9 st10"> </text>
	<text transform="matrix(1 0 0 1 54.0078 77.89)" class="st9 st10"> </text>
	<text transform="matrix(1 0 0 1 57.3418 77.89)" class="st9 st10"> </text>
	<text transform="matrix(1 0 0 1 60.6758 77.89)" class="st9 st10">K</text>
	<text transform="matrix(1 0 0 1 68.6797 77.89)" class="st9 st10"> </text>
	<text transform="matrix(1 0 0 1 72.0137 77.89)" class="st9 st10"> </text>
	<text transform="matrix(1 0 0 1 75.3477 77.89)" class="st9 st10"> </text>
	<text transform="matrix(1 0 0 1 78.6816 77.89)" class="st9 st10"> </text>
	<text transform="matrix(1 0 0 1 82.0156 77.89)" class="st9 st10"> </text>
	<text transform="matrix(1 0 0 1 85.3496 77.89)" class="st9 st10"> </text>
	<text transform="matrix(1 0 0 1 88.6836 77.89)" class="st9 st10"> </text>
	<text transform="matrix(1 0 0 1 92.0176 77.89)" class="st9 st10"> </text>
	<text transform="matrix(1 0 0 1 95.3516 77.89)" class="st9 st10"> </text>
	<text transform="matrix(1 0 0 1 98.6855 77.89)" class="st9 st10"> </text>
	<text transform="matrix(1 0 0 1 102.0195 77.89)" class="st9 st10"> </text>
	<text transform="matrix(1 0 0 1 105.3535 77.89)" class="st9 st10"> </text>
	<text transform="matrix(1 0 0 1 108.6875 77.89)" class="st9 st10"> </text>
	<text transform="matrix(1 0 0 1 14 77.89)" class="st9 st10">         </text>
	<path id="L" class="st8" d="M269.2,683.7H314"/>
	<text transform="matrix(1 0 0 1 14 77.89)" class="st9 st10">             </text>
	<text transform="matrix(1 0 0 1 14 77.89)" class="st9 st10"> </text>
	<text transform="matrix(1 0 0 1 17.334 77.89)" class="st9 st10"> </text>
	<text transform="matrix(1 0 0 1 20.668 77.89)" class="st9 st10"> </text>
	<text transform="matrix(1 0 0 1 24.002 77.89)" class="st9 st10"> </text>
	<text transform="matrix(1 0 0 1 27.3359 77.89)" class="st9 st10"> </text>
	<text transform="matrix(1 0 0 1 30.6699 77.89)" class="st9 st10"> </text>
	<text transform="matrix(1 0 0 1 34.0039 77.89)" class="st9 st10"> </text>
	<text transform="matrix(1 0 0 1 37.3379 77.89)" class="st9 st10"> </text>
	<text transform="matrix(1 0 0 1 40.6719 77.89)" class="st9 st10"> </text>
	<text transform="matrix(1 0 0 1 44.0059 77.89)" class="st9 st10"> </text>
	<text transform="matrix(1 0 0 1 47.3398 77.89)" class="st9 st10"> </text>
	<text transform="matrix(1 0 0 1 50.6738 77.89)" class="st9 st10"> </text>
	<text transform="matrix(1 0 0 1 54.0078 77.89)" class="st9 st10"> </text>
	<text transform="matrix(1 0 0 1 57.3418 77.89)" class="st9 st10"> </text>
	<text transform="matrix(1 0 0 1 60.6758 77.89)" class="st9 st10">L</text>
	<text transform="matrix(1 0 0 1 67.3496 77.89)" class="st9 st10"> </text>
	<text transform="matrix(1 0 0 1 70.6836 77.89)" class="st9 st10"> </text>
	<text transform="matrix(1 0 0 1 74.0176 77.89)" class="st9 st10"> </text>
	<text transform="matrix(1 0 0 1 77.3516 77.89)" class="st9 st10"> </text>
	<text transform="matrix(1 0 0 1 80.6855 77.89)" class="st9 st10"> </text>
	<text transform="matrix(1 0 0 1 84.0195 77.89)" class="st9 st10"> </text>
	<text transform="matrix(1 0 0 1 87.3535 77.89)" class="st9 st10"> </text>
	<text transform="matrix(1 0 0 1 90.6875 77.89)" class="st9 st10"> </text>
	<text transform="matrix(1 0 0 1 94.0215 77.89)" class="st9 st10"> </text>
	<text transform="matrix(1 0 0 1 97.3555 77.89)" class="st9 st10"> </text>
	<text transform="matrix(1 0 0 1 100.6895 77.89)" class="st9 st10"> </text>
	<text transform="matrix(1 0 0 1 104.0234 77.89)" class="st9 st10"> </text>
	<text transform="matrix(1 0 0 1 107.3574 77.89)" class="st9 st10"> </text>
	<text transform="matrix(1 0 0 1 14 77.89)" class="st9 st10">         </text>
	<path id="M" class="st8" d="M227.6,677.2h38"/>
	<text transform="matrix(1 0 0 1 14 77.89)" class="st9 st10">             </text>
	<text transform="matrix(1 0 0 1 14 77.89)" class="st9 st10"> </text>
	<text transform="matrix(1 0 0 1 17.334 77.89)" class="st9 st10"> </text>
	<text transform="matrix(1 0 0 1 20.668 77.89)" class="st9 st10"> </text>
	<text transform="matrix(1 0 0 1 24.002 77.89)" class="st9 st10"> </text>
	<text transform="matrix(1 0 0 1 27.3359 77.89)" class="st9 st10"> </text>
	<text transform="matrix(1 0 0 1 30.6699 77.89)" class="st9 st10"> </text>
	<text transform="matrix(1 0 0 1 34.0039 77.89)" class="st9 st10"> </text>
	<text transform="matrix(1 0 0 1 37.3379 77.89)" class="st9 st10"> </text>
	<text transform="matrix(1 0 0 1 40.6719 77.89)" class="st9 st10"> </text>
	<text transform="matrix(1 0 0 1 44.0059 77.89)" class="st9 st10"> </text>
	<text transform="matrix(1 0 0 1 47.3398 77.89)" class="st9 st10"> </text>
	<text transform="matrix(1 0 0 1 50.6738 77.89)" class="st9 st10"> </text>
	<text transform="matrix(1 0 0 1 54.0078 77.89)" class="st9 st10"> </text>
	<text transform="matrix(1 0 0 1 57.3418 77.89)" class="st9 st10"> </text>
	<text transform="matrix(1 0 0 1 60.6758 77.89)" class="st9 st10">M</text>
	<text transform="matrix(1 0 0 1 70.6719 77.89)" class="st9 st10"> </text>
	<text transform="matrix(1 0 0 1 74.0059 77.89)" class="st9 st10"> </text>
	<text transform="matrix(1 0 0 1 77.3398 77.89)" class="st9 st10"> </text>
	<text transform="matrix(1 0 0 1 80.6738 77.89)" class="st9 st10"> </text>
	<text transform="matrix(1 0 0 1 84.0078 77.89)" class="st9 st10"> </text>
	<text transform="matrix(1 0 0 1 87.3418 77.89)" class="st9 st10"> </text>
	<text transform="matrix(1 0 0 1 90.6758 77.89)" class="st9 st10"> </text>
	<text transform="matrix(1 0 0 1 94.0098 77.89)" class="st9 st10"> </text>
	<text transform="matrix(1 0 0 1 97.3438 77.89)" class="st9 st10"> </text>
	<text transform="matrix(1 0 0 1 100.6777 77.89)" class="st9 st10"> </text>
	<text transform="matrix(1 0 0 1 104.0117 77.89)" class="st9 st10"> </text>
	<text transform="matrix(1 0 0 1 107.3457 77.89)" class="st9 st10"> </text>
	<text transform="matrix(1 0 0 1 110.6797 77.89)" class="st9 st10"> </text>
	<text transform="matrix(1 0 0 1 14 77.89)" class="st9 st10">         </text>
	<path id="N" class="st8" d="M157.8,591.6H246"/>
	<text transform="matrix(1 0 0 1 14 77.89)" class="st9 st10">             </text>
	<text transform="matrix(1 0 0 1 14 77.89)" class="st9 st10"> </text>
	<text transform="matrix(1 0 0 1 17.334 77.89)" class="st9 st10"> </text>
	<text transform="matrix(1 0 0 1 20.668 77.89)" class="st9 st10"> </text>
	<text transform="matrix(1 0 0 1 24.002 77.89)" class="st9 st10"> </text>
	<text transform="matrix(1 0 0 1 27.3359 77.89)" class="st9 st10"> </text>
	<text transform="matrix(1 0 0 1 30.6699 77.89)" class="st9 st10"> </text>
	<text transform="matrix(1 0 0 1 34.0039 77.89)" class="st9 st10"> </text>
	<text transform="matrix(1 0 0 1 37.3379 77.89)" class="st9 st10"> </text>
	<text transform="matrix(1 0 0 1 40.6719 77.89)" class="st9 st10"> </text>
	<text transform="matrix(1 0 0 1 44.0059 77.89)" class="st9 st10"> </text>
	<text transform="matrix(1 0 0 1 47.3398 77.89)" class="st9 st10"> </text>
	<text transform="matrix(1 0 0 1 50.6738 77.89)" class="st9 st10"> </text>
	<text transform="matrix(1 0 0 1 54.0078 77.89)" class="st9 st10"> </text>
	<text transform="matrix(1 0 0 1 57.3418 77.89)" class="st9 st10"> </text>
	<text transform="matrix(1 0 0 1 60.6758 77.89)" class="st9 st10">N</text>
	<text transform="matrix(1 0 0 1 69.3418 77.89)" class="st9 st10"> </text>
	<text transform="matrix(1 0 0 1 72.6758 77.89)" class="st9 st10"> </text>
	<text transform="matrix(1 0 0 1 76.0098 77.89)" class="st9 st10"> </text>
	<text transform="matrix(1 0 0 1 79.3438 77.89)" class="st9 st10"> </text>
	<text transform="matrix(1 0 0 1 82.6777 77.89)" class="st9 st10"> </text>
	<text transform="matrix(1 0 0 1 86.0117 77.89)" class="st9 st10"> </text>
	<text transform="matrix(1 0 0 1 89.3457 77.89)" class="st9 st10"> </text>
	<text transform="matrix(1 0 0 1 92.6797 77.89)" class="st9 st10"> </text>
	<text transform="matrix(1 0 0 1 96.0137 77.89)" class="st9 st10"> </text>
	<text transform="matrix(1 0 0 1 99.3477 77.89)" class="st9 st10"> </text>
	<text transform="matrix(1 0 0 1 102.6816 77.89)" class="st9 st10"> </text>
	<text transform="matrix(1 0 0 1 106.0156 77.89)" class="st9 st10"> </text>
	<text transform="matrix(1 0 0 1 109.3496 77.89)" class="st9 st10"> </text>
	<text transform="matrix(1 0 0 1 14 77.89)" class="st9 st10">         </text>
	<path id="O" class="st8" d="M156.3,547.3h87.5"/>
	<text transform="matrix(1 0 0 1 14 77.89)" class="st9 st10">             </text>
	<text transform="matrix(1 0 0 1 14 77.89)" class="st9 st10"> </text>
	<text transform="matrix(1 0 0 1 17.334 77.89)" class="st9 st10"> </text>
	<text transform="matrix(1 0 0 1 20.668 77.89)" class="st9 st10"> </text>
	<text transform="matrix(1 0 0 1 24.002 77.89)" class="st9 st10"> </text>
	<text transform="matrix(1 0 0 1 27.3359 77.89)" class="st9 st10"> </text>
	<text transform="matrix(1 0 0 1 30.6699 77.89)" class="st9 st10"> </text>
	<text transform="matrix(1 0 0 1 34.0039 77.89)" class="st9 st10"> </text>
	<text transform="matrix(1 0 0 1 37.3379 77.89)" class="st9 st10"> </text>
	<text transform="matrix(1 0 0 1 40.6719 77.89)" class="st9 st10"> </text>
	<text transform="matrix(1 0 0 1 44.0059 77.89)" class="st9 st10"> </text>
	<text transform="matrix(1 0 0 1 47.3398 77.89)" class="st9 st10"> </text>
	<text transform="matrix(1 0 0 1 50.6738 77.89)" class="st9 st10"> </text>
	<text transform="matrix(1 0 0 1 54.0078 77.89)" class="st9 st10"> </text>
	<text transform="matrix(1 0 0 1 57.3418 77.89)" class="st9 st10"> </text>
	<text transform="matrix(1 0 0 1 60.6758 77.89)" class="st9 st10">O</text>
	<text transform="matrix(1 0 0 1 70.0098 77.89)" class="st9 st10"> </text>
	<text transform="matrix(1 0 0 1 73.3438 77.89)" class="st9 st10"> </text>
	<text transform="matrix(1 0 0 1 76.6777 77.89)" class="st9 st10"> </text>
	<text transform="matrix(1 0 0 1 80.0117 77.89)" class="st9 st10"> </text>
	<text transform="matrix(1 0 0 1 83.3457 77.89)" class="st9 st10"> </text>
	<text transform="matrix(1 0 0 1 86.6797 77.89)" class="st9 st10"> </text>
	<text transform="matrix(1 0 0 1 90.0137 77.89)" class="st9 st10"> </text>
	<text transform="matrix(1 0 0 1 93.3477 77.89)" class="st9 st10"> </text>
	<text transform="matrix(1 0 0 1 96.6816 77.89)" class="st9 st10"> </text>
	<text transform="matrix(1 0 0 1 100.0156 77.89)" class="st9 st10"> </text>
	<text transform="matrix(1 0 0 1 103.3496 77.89)" class="st9 st10"> </text>
	<text transform="matrix(1 0 0 1 106.6836 77.89)" class="st9 st10"> </text>
	<text transform="matrix(1 0 0 1 110.0176 77.89)" class="st9 st10"> </text>
	<text transform="matrix(1 0 0 1 14 77.89)" class="st9 st10">         </text>
	<path id="P" class="st8" d="M156.3,506.4h87.5"/>
	<text transform="matrix(1 0 0 1 14 77.89)" class="st9 st10">             </text>
	<text transform="matrix(1 0 0 1 14 77.89)" class="st9 st10"> </text>
	<text transform="matrix(1 0 0 1 17.334 77.89)" class="st9 st10"> </text>
	<text transform="matrix(1 0 0 1 20.668 77.89)" class="st9 st10"> </text>
	<text transform="matrix(1 0 0 1 24.002 77.89)" class="st9 st10"> </text>
	<text transform="matrix(1 0 0 1 27.3359 77.89)" class="st9 st10"> </text>
	<text transform="matrix(1 0 0 1 30.6699 77.89)" class="st9 st10"> </text>
	<text transform="matrix(1 0 0 1 34.0039 77.89)" class="st9 st10"> </text>
	<text transform="matrix(1 0 0 1 37.3379 77.89)" class="st9 st10"> </text>
	<text transform="matrix(1 0 0 1 40.6719 77.89)" class="st9 st10"> </text>
	<text transform="matrix(1 0 0 1 44.0059 77.89)" class="st9 st10"> </text>
	<text transform="matrix(1 0 0 1 47.3398 77.89)" class="st9 st10"> </text>
	<text transform="matrix(1 0 0 1 50.6738 77.89)" class="st9 st10"> </text>
	<text transform="matrix(1 0 0 1 54.0078 77.89)" class="st9 st10"> </text>
	<text transform="matrix(1 0 0 1 57.3418 77.89)" class="st9 st10"> </text>
	<text transform="matrix(1 0 0 1 60.6758 77.89)" class="st9 st10">P</text>
	<text transform="matrix(1 0 0 1 68.6797 77.89)" class="st9 st10"> </text>
	<text transform="matrix(1 0 0 1 72.0137 77.89)" class="st9 st10"> </text>
	<text transform="matrix(1 0 0 1 75.3477 77.89)" class="st9 st10"> </text>
	<text transform="matrix(1 0 0 1 78.6816 77.89)" class="st9 st10"> </text>
	<text transform="matrix(1 0 0 1 82.0156 77.89)" class="st9 st10"> </text>
	<text transform="matrix(1 0 0 1 85.3496 77.89)" class="st9 st10"> </text>
	<text transform="matrix(1 0 0 1 88.6836 77.89)" class="st9 st10"> </text>
	<text transform="matrix(1 0 0 1 92.0176 77.89)" class="st9 st10"> </text>
	<text transform="matrix(1 0 0 1 95.3516 77.89)" class="st9 st10"> </text>
	<text transform="matrix(1 0 0 1 98.6855 77.89)" class="st9 st10"> </text>
	<text transform="matrix(1 0 0 1 102.0195 77.89)" class="st9 st10"> </text>
	<text transform="matrix(1 0 0 1 105.3535 77.89)" class="st9 st10"> </text>
	<text transform="matrix(1 0 0 1 108.6875 77.89)" class="st9 st10"> </text>
	<text transform="matrix(1 0 0 1 14 77.89)" class="st9 st10">         </text>
	<path id="Q" class="st8" d="M156.3,463.4h87.5"/>
	<text transform="matrix(1 0 0 1 14 77.89)" class="st9 st10">             </text>
	<text transform="matrix(1 0 0 1 14 77.89)" class="st9 st10"> </text>
	<text transform="matrix(1 0 0 1 17.334 77.89)" class="st9 st10"> </text>
	<text transform="matrix(1 0 0 1 20.668 77.89)" class="st9 st10"> </text>
	<text transform="matrix(1 0 0 1 24.002 77.89)" class="st9 st10"> </text>
	<text transform="matrix(1 0 0 1 27.3359 77.89)" class="st9 st10"> </text>
	<text transform="matrix(1 0 0 1 30.6699 77.89)" class="st9 st10"> </text>
	<text transform="matrix(1 0 0 1 34.0039 77.89)" class="st9 st10"> </text>
	<text transform="matrix(1 0 0 1 37.3379 77.89)" class="st9 st10"> </text>
	<text transform="matrix(1 0 0 1 40.6719 77.89)" class="st9 st10"> </text>
	<text transform="matrix(1 0 0 1 44.0059 77.89)" class="st9 st10"> </text>
	<text transform="matrix(1 0 0 1 47.3398 77.89)" class="st9 st10"> </text>
	<text transform="matrix(1 0 0 1 50.6738 77.89)" class="st9 st10"> </text>
	<text transform="matrix(1 0 0 1 54.0078 77.89)" class="st9 st10"> </text>
	<text transform="matrix(1 0 0 1 57.3418 77.89)" class="st9 st10"> </text>
	<text transform="matrix(1 0 0 1 60.6758 77.89)" class="st9 st10">Q</text>
	<text transform="matrix(1 0 0 1 70.0098 77.89)" class="st9 st10"> </text>
	<text transform="matrix(1 0 0 1 73.3438 77.89)" class="st9 st10"> </text>
	<text transform="matrix(1 0 0 1 76.6777 77.89)" class="st9 st10"> </text>
	<text transform="matrix(1 0 0 1 80.0117 77.89)" class="st9 st10"> </text>
	<text transform="matrix(1 0 0 1 83.3457 77.89)" class="st9 st10"> </text>
	<text transform="matrix(1 0 0 1 86.6797 77.89)" class="st9 st10"> </text>
	<text transform="matrix(1 0 0 1 90.0137 77.89)" class="st9 st10"> </text>
	<text transform="matrix(1 0 0 1 93.3477 77.89)" class="st9 st10"> </text>
	<text transform="matrix(1 0 0 1 96.6816 77.89)" class="st9 st10"> </text>
	<text transform="matrix(1 0 0 1 100.0156 77.89)" class="st9 st10"> </text>
	<text transform="matrix(1 0 0 1 103.3496 77.89)" class="st9 st10"> </text>
	<text transform="matrix(1 0 0 1 106.6836 77.89)" class="st9 st10"> </text>
	<text transform="matrix(1 0 0 1 110.0176 77.89)" class="st9 st10"> </text>
	<text transform="matrix(1 0 0 1 14 77.89)" class="st9 st10">         </text>
	<path id="R" class="st8" d="M156.3,418.4h87.5"/>
	<text transform="matrix(1 0 0 1 14 77.89)" class="st9 st10">             </text>
	<text transform="matrix(1 0 0 1 14 77.89)" class="st9 st10"> </text>
	<text transform="matrix(1 0 0 1 17.334 77.89)" class="st9 st10"> </text>
	<text transform="matrix(1 0 0 1 20.668 77.89)" class="st9 st10"> </text>
	<text transform="matrix(1 0 0 1 24.002 77.89)" class="st9 st10"> </text>
	<text transform="matrix(1 0 0 1 27.3359 77.89)" class="st9 st10"> </text>
	<text transform="matrix(1 0 0 1 30.6699 77.89)" class="st9 st10"> </text>
	<text transform="matrix(1 0 0 1 34.0039 77.89)" class="st9 st10"> </text>
	<text transform="matrix(1 0 0 1 37.3379 77.89)" class="st9 st10"> </text>
	<text transform="matrix(1 0 0 1 40.6719 77.89)" class="st9 st10"> </text>
	<text transform="matrix(1 0 0 1 44.0059 77.89)" class="st9 st10"> </text>
	<text transform="matrix(1 0 0 1 47.3398 77.89)" class="st9 st10"> </text>
	<text transform="matrix(1 0 0 1 50.6738 77.89)" class="st9 st10"> </text>
	<text transform="matrix(1 0 0 1 54.0078 77.89)" class="st9 st10"> </text>
	<text transform="matrix(1 0 0 1 57.3418 77.89)" class="st9 st10"> </text>
	<text transform="matrix(1 0 0 1 60.6758 77.89)" class="st9 st10">R</text>
	<text transform="matrix(1 0 0 1 69.3418 77.89)" class="st9 st10"> </text>
	<text transform="matrix(1 0 0 1 72.6758 77.89)" class="st9 st10"> </text>
	<text transform="matrix(1 0 0 1 76.0098 77.89)" class="st9 st10"> </text>
	<text transform="matrix(1 0 0 1 79.3438 77.89)" class="st9 st10"> </text>
	<text transform="matrix(1 0 0 1 82.6777 77.89)" class="st9 st10"> </text>
	<text transform="matrix(1 0 0 1 86.0117 77.89)" class="st9 st10"> </text>
	<text transform="matrix(1 0 0 1 89.3457 77.89)" class="st9 st10"> </text>
	<text transform="matrix(1 0 0 1 92.6797 77.89)" class="st9 st10"> </text>
	<text transform="matrix(1 0 0 1 96.0137 77.89)" class="st9 st10"> </text>
	<text transform="matrix(1 0 0 1 99.3477 77.89)" class="st9 st10"> </text>
	<text transform="matrix(1 0 0 1 102.6816 77.89)" class="st9 st10"> </text>
	<text transform="matrix(1 0 0 1 106.0156 77.89)" class="st9 st10"> </text>
	<text transform="matrix(1 0 0 1 109.3496 77.89)" class="st9 st10"> </text>
	<text transform="matrix(1 0 0 1 14 77.89)" class="st9 st10">         </text>
	<path id="S" class="st8" d="M235.3,332.7h32.4"/>
	<text transform="matrix(1 0 0 1 14 77.89)" class="st9 st10">             </text>
	<text transform="matrix(1 0 0 1 14 77.89)" class="st9 st10"> </text>
	<text transform="matrix(1 0 0 1 17.334 77.89)" class="st9 st10"> </text>
	<text transform="matrix(1 0 0 1 20.668 77.89)" class="st9 st10"> </text>
	<text transform="matrix(1 0 0 1 24.002 77.89)" class="st9 st10"> </text>
	<text transform="matrix(1 0 0 1 27.3359 77.89)" class="st9 st10"> </text>
	<text transform="matrix(1 0 0 1 30.6699 77.89)" class="st9 st10"> </text>
	<text transform="matrix(1 0 0 1 34.0039 77.89)" class="st9 st10"> </text>
	<text transform="matrix(1 0 0 1 37.3379 77.89)" class="st9 st10"> </text>
	<text transform="matrix(1 0 0 1 40.6719 77.89)" class="st9 st10"> </text>
	<text transform="matrix(1 0 0 1 44.0059 77.89)" class="st9 st10"> </text>
	<text transform="matrix(1 0 0 1 47.3398 77.89)" class="st9 st10"> </text>
	<text transform="matrix(1 0 0 1 50.6738 77.89)" class="st9 st10"> </text>
	<text transform="matrix(1 0 0 1 54.0078 77.89)" class="st9 st10"> </text>
	<text transform="matrix(1 0 0 1 57.3418 77.89)" class="st9 st10"> </text>
	<text transform="matrix(1 0 0 1 60.6758 77.89)" class="st9 st10">S</text>
	<text transform="matrix(1 0 0 1 68.6797 77.89)" class="st9 st10"> </text>
	<text transform="matrix(1 0 0 1 72.0137 77.89)" class="st9 st10"> </text>
	<text transform="matrix(1 0 0 1 75.3477 77.89)" class="st9 st10"> </text>
	<text transform="matrix(1 0 0 1 78.6816 77.89)" class="st9 st10"> </text>
	<text transform="matrix(1 0 0 1 82.0156 77.89)" class="st9 st10"> </text>
	<text transform="matrix(1 0 0 1 85.3496 77.89)" class="st9 st10"> </text>
	<text transform="matrix(1 0 0 1 88.6836 77.89)" class="st9 st10"> </text>
	<text transform="matrix(1 0 0 1 92.0176 77.89)" class="st9 st10"> </text>
	<text transform="matrix(1 0 0 1 95.3516 77.89)" class="st9 st10"> </text>
	<text transform="matrix(1 0 0 1 98.6855 77.89)" class="st9 st10"> </text>
	<text transform="matrix(1 0 0 1 102.0195 77.89)" class="st9 st10"> </text>
	<text transform="matrix(1 0 0 1 105.3535 77.89)" class="st9 st10"> </text>
	<text transform="matrix(1 0 0 1 108.6875 77.89)" class="st9 st10"> </text>
	<text transform="matrix(1 0 0 1 14 77.89)" class="st9 st10">         </text>
	<path id="T" class="st8" d="M272.5,328.1h42"/>
	<text transform="matrix(1 0 0 1 14 77.89)" class="st9 st10">             </text>
	<text transform="matrix(1 0 0 1 14 77.89)" class="st9 st10"> </text>
	<text transform="matrix(1 0 0 1 17.334 77.89)" class="st9 st10"> </text>
	<text transform="matrix(1 0 0 1 20.668 77.89)" class="st9 st10"> </text>
	<text transform="matrix(1 0 0 1 24.002 77.89)" class="st9 st10"> </text>
	<text transform="matrix(1 0 0 1 27.3359 77.89)" class="st9 st10"> </text>
	<text transform="matrix(1 0 0 1 30.6699 77.89)" class="st9 st10"> </text>
	<text transform="matrix(1 0 0 1 34.0039 77.89)" class="st9 st10"> </text>
	<text transform="matrix(1 0 0 1 37.3379 77.89)" class="st9 st10"> </text>
	<text transform="matrix(1 0 0 1 40.6719 77.89)" class="st9 st10"> </text>
	<text transform="matrix(1 0 0 1 44.0059 77.89)" class="st9 st10"> </text>
	<text transform="matrix(1 0 0 1 47.3398 77.89)" class="st9 st10"> </text>
	<text transform="matrix(1 0 0 1 50.6738 77.89)" class="st9 st10"> </text>
	<text transform="matrix(1 0 0 1 54.0078 77.89)" class="st9 st10"> </text>
	<text transform="matrix(1 0 0 1 57.3418 77.89)" class="st9 st10"> </text>
	<text transform="matrix(1 0 0 1 60.6758 77.89)" class="st9 st10">T</text>
	<text transform="matrix(1 0 0 1 68.0059 77.89)" class="st9 st10"> </text>
	<text transform="matrix(1 0 0 1 71.3398 77.89)" class="st9 st10"> </text>
	<text transform="matrix(1 0 0 1 74.6738 77.89)" class="st9 st10"> </text>
	<text transform="matrix(1 0 0 1 78.0078 77.89)" class="st9 st10"> </text>
	<text transform="matrix(1 0 0 1 81.3418 77.89)" class="st9 st10"> </text>
	<text transform="matrix(1 0 0 1 84.6758 77.89)" class="st9 st10"> </text>
	<text transform="matrix(1 0 0 1 88.0098 77.89)" class="st9 st10"> </text>
	<text transform="matrix(1 0 0 1 91.3438 77.89)" class="st9 st10"> </text>
	<text transform="matrix(1 0 0 1 94.6777 77.89)" class="st9 st10"> </text>
	<text transform="matrix(1 0 0 1 98.0117 77.89)" class="st9 st10"> </text>
	<text transform="matrix(1 0 0 1 101.3457 77.89)" class="st9 st10"> </text>
	<text transform="matrix(1 0 0 1 104.6797 77.89)" class="st9 st10"> </text>
	<text transform="matrix(1 0 0 1 108.0137 77.89)" class="st9 st10"> </text>
	<text transform="matrix(1 0 0 1 14 77.89)" class="st9 st10">         </text>
</g>
</svg>
