<?xml version="1.0" encoding="utf-8"?>
<!-- Generator: Adobe Illustrator 19.0.0, SVG Export Plug-In . SVG Version: 6.00 Build 0)  -->
<svg version="1.1" xmlns="http://www.w3.org/2000/svg" xmlns:xlink="http://www.w3.org/1999/xlink" x="0px" y="0px"
	 viewBox="6 54 623 686" style="enable-background:new 6 54 623 686;" xml:space="preserve">
<style type="text/css">
	.st0{fill:#6F6E66;}
	.st1{fill:#FBC213;}
	.st2{fill:#C9D535;}
	.st3{fill:#E71A83;}
	.st4{fill:none;stroke:#CAD0D0;stroke-width:2;stroke-miterlimit:10;}
	.st5{fill:#CDD735;}
	.st6{fill:#169BD8;}
	.st7{fill:none;stroke:#CCCCCC;stroke-width:0.5;stroke-miterlimit:10;}
	.st8{fill:#92D4F3;}
	.st9{fill:#FF0000;}
</style>
<g id="Layer_1">
	<path class="st0" d="M85.8,180.4l-3.9-2.9c-9.8,13.6-17.9,28.1-24.4,43.3l4.6,1.9C68.5,207.7,76.4,193.5,85.8,180.4z"/>
	<path class="st0" d="M59.9,228.2l-4.6-1.9c-6.6,16.9-11.2,34.6-13.5,52.8l5,0.5C49,261.7,53.5,244.5,59.9,228.2z"/>
	<path class="st0" d="M228.3,91.4l-0.8-4.9c-18.5,3.1-36.5,8.5-53.6,16l2.1,4.5C192.5,99.7,210,94.4,228.3,91.4z"/>
	<path class="st0" d="M170.6,109.5l-2.1-4.5c-15.4,7.3-30,16.5-43.6,27.3l3,3.8C141,125.7,155.3,116.7,170.6,109.5z"/>
	<path class="st0" d="M44.9,307.9c0-7.5,0.4-15,1.1-22.3l-5-0.5c-0.8,7.6-1.2,15.2-1.2,22.9v20.8h5v-20.9H44.9z"/>
	<path class="st0" d="M123.3,139.9l-3-3.8c-5,4.2-9.8,8.6-14.4,13.2c-7.4,7.4-14.2,15.2-20.4,23.3l3.9,2.9
		C99.3,162.5,110.7,150.5,123.3,139.9z"/>
	<path class="st0" d="M44.9,373.5h-5v-38.8h5V373.5z"/>
	<path class="st0" d="M44.9,485.9v-20.8h-5v20.8c0,7.7,0.4,15.3,1.2,22.9l5-0.5C45.3,500.9,44.9,493.4,44.9,485.9z"/>
	<path class="st0" d="M46.7,514.2l-5,0.5c2.3,18.2,6.9,35.9,13.5,52.8l4.6-1.9C53.5,549.3,49,532.1,46.7,514.2z"/>
	<path class="st0" d="M44.9,414.3h-5v-34.9h5V414.3z"/>
	<path class="st0" d="M44.9,459.1h-5v-38.8h5V459.1z"/>
	<path class="st0" d="M368.4,88.4c10.2,0,20.3,0.7,30.1,2.1l0.8-4.9c-10.2-1.4-20.5-2.1-31-2.1H340v5L368.4,88.4L368.4,88.4z"/>
	<path class="st0" d="M587.9,334.7h5v38.8h-5V334.7z"/>
	<path class="st0" d="M570.7,222.7l4.6-1.9c-6.4-15.2-14.6-29.7-24.4-43.3l-3.9,2.9C556.4,193.5,564.3,207.7,570.7,222.7z"/>
	<path class="st0" d="M587.9,379.5h5v34.9h-5V379.5z"/>
	<path class="st0" d="M586.1,279.6l5-0.5c-2.3-18.2-6.9-35.9-13.5-52.8l-4.6,1.9C579.3,244.5,583.8,261.7,586.1,279.6z"/>
	<path class="st0" d="M587.9,485.9c0,7.5-0.4,15-1.1,22.3l5,0.5c0.8-7.6,1.2-15.2,1.2-22.9V465h-5v20.9H587.9z"/>
	<path class="st0" d="M587.9,420.3h5v38.8h-5V420.3z"/>
	<path class="st0" d="M298.8,88.4v-5H334v5H298.8z"/>
	<path class="st0" d="M62.1,571.1l-4.6,1.9c6.4,15.2,14.6,29.7,24.4,43.3l3.9-2.9C76.4,600.3,68.5,586.1,62.1,571.1z"/>
	<path class="st0" d="M543.4,175.6l3.9-2.9c-6.2-8.2-13-16-20.4-23.3c-4.7-4.7-9.5-9.1-14.4-13.2l-3,3.8
		C522.1,150.5,533.5,162.5,543.4,175.6z"/>
	<path class="st0" d="M264.4,88.4h28.4v-5h-28.4c-10.4,0-20.8,0.7-31,2.1l0.8,4.9C244.1,89.1,254.2,88.4,264.4,88.4z"/>
	<path class="st0" d="M504.8,136.1l3-3.8c-13.6-10.8-28.2-20-43.6-27.3l-2.1,4.5C477.5,116.7,491.7,125.7,504.8,136.1z"/>
	<path class="st0" d="M456.7,107l2.1-4.5c-17.1-7.6-35-12.9-53.6-16l-0.8,4.9C422.8,94.4,440.3,99.7,456.7,107z"/>
	<path class="st0" d="M587.9,307.9v20.8h5v-20.8c0-7.7-0.4-15.3-1.2-22.9l-5,0.5C587.5,292.9,587.9,300.4,587.9,307.9z"/>
	<path class="st0" d="M128,657.7l-3,3.8c13.6,10.8,28.2,20,43.6,27.3l2.1-4.5C155.3,677.1,141,668.1,128,657.7z"/>
	<path class="st0" d="M368.4,705.4H340v5h28.4c10.4,0,20.8-0.7,31-2.1l-0.8-4.9C388.7,704.7,378.6,705.4,368.4,705.4z"/>
	<path class="st0" d="M572.9,565.5l4.6,1.9c6.6-16.9,11.2-34.6,13.5-52.8l-5-0.5C583.8,532.1,579.3,549.3,572.9,565.5z"/>
	<path class="st0" d="M334,705.4v5h-35.2v-5H334z"/>
	<path class="st0" d="M264.4,705.4c-10.2,0-20.3-0.7-30.1-2.1l-0.8,4.9c10.2,1.4,20.5,2.1,31,2.1h28.4v-5L264.4,705.4L264.4,705.4z"
		/>
	<path class="st0" d="M462.2,684.3l2.1,4.5c15.4-7.3,30-16.5,43.6-27.3l-3-3.8C491.7,668.1,477.5,677.1,462.2,684.3z"/>
	<path class="st0" d="M547,613.4l3.9,2.9c9.8-13.6,17.9-28.1,24.4-43.3l-4.6-1.9C564.3,586.1,556.4,600.3,547,613.4z"/>
	<path class="st0" d="M176,686.8l-2.1,4.5c17.1,7.6,35,12.9,53.6,16l0.8-4.9C210,699.4,192.5,694.1,176,686.8z"/>
	<path class="st0" d="M89.4,618.2l-3.9,2.9c6.2,8.2,13,16,20.4,23.3c4.7,4.7,9.5,9.1,14.4,13.2l3-3.8
		C110.7,643.3,99.3,631.3,89.4,618.2z"/>
	<path class="st0" d="M404.5,702.4l0.8,4.9c18.5-3.1,36.5-8.5,53.6-16l-2.1-4.5C440.3,694.1,422.8,699.4,404.5,702.4z"/>
	<path class="st0" d="M509.5,653.9l3,3.8c5-4.2,9.8-8.6,14.4-13.2c7.4-7.4,14.2-15.2,20.4-23.3l-3.9-2.9
		C533.5,631.3,522.1,643.3,509.5,653.9z"/>
	<path class="st1" d="M298.8,147.4v-59H334v59H298.8z"/>
	<path class="st1" d="M264.4,642.4c-6.6,0-13.2-0.4-19.7-1.2l-10.4,62.2c9.9,1.4,19.9,2.1,30.1,2.1h28.4v-63L264.4,642.4
		L264.4,642.4z"/>
	<path class="st1" d="M264.3,151.4h28.4v-63h-28.4c-10.2,0-20.3,0.7-30.1,2.1l10.4,62.2C251,151.8,257.6,151.4,264.3,151.4z"/>
	<path class="st1" d="M334,642.4v63h-35.2v-63H334z"/>
	<path class="st1" d="M238.7,153.5l-10.4-62.1c-18.3,3-35.8,8.3-52.3,15.6l26.7,57.1C214.3,159.1,226.3,155.6,238.7,153.5z"/>
	<path class="st2" d="M514.8,541.2l58.2,24.4c6.4-16.3,10.8-33.5,13.1-51.4l-62.7-6.8C521.8,519,518.9,530.3,514.8,541.2z"/>
	<path class="st2" d="M496.5,575.4l50.5,38c9.4-13.1,17.3-27.2,23.7-42.3l-58.2-24.4C508.2,556.8,502.9,566.4,496.5,575.4z"/>
	<path class="st1" d="M368.4,642.4H340v63h28.4c10.2,0,20.3-0.7,30.1-2.1l-10.4-62.2C381.6,642,375,642.4,368.4,642.4z"/>
	<path class="st1" d="M136.3,218.4l-50.5-38c-9.4,13.1-17.3,27.2-23.7,42.3l58.2,24.4C124.5,237,129.9,227.4,136.3,218.4z"/>
	<path class="st2" d="M587.9,465.1h-63v20.8c0,5.2-0.3,10.4-0.8,15.5l62.6,6.8c0.7-7.3,1.1-14.8,1.1-22.3v-20.8H587.9z"/>
	<path class="st1" d="M197.3,166.6l-26.7-57.1c-15.3,7.2-29.6,16.2-42.6,26.6l39.5,49.2C176.8,177.9,186.8,171.6,197.3,166.6z"/>
	<path class="st1" d="M153.9,197.4c2.9-2.9,5.9-5.6,8.9-8.3l-39.5-49.3c-12.6,10.6-24,22.6-34,35.7l50.5,37.9
		C144.1,207.9,148.8,202.5,153.9,197.4z"/>
	<path class="st1" d="M394.1,640.3l10.4,62.1c18.3-3,35.8-8.3,52.3-15.6L430,629.7C418.5,634.6,406.5,638.2,394.1,640.3z"/>
	<path class="st1" d="M435.5,627.2l26.7,57.1c15.3-7.2,29.5-16.2,42.6-26.6l-39.5-49.2C456,615.9,446,622.1,435.5,627.2z"/>
	<path class="st2" d="M524.9,420.3h63v38.8h-63V420.3z"/>
	<path class="st2" d="M524.9,334.7h63v38.8h-63V334.7z"/>
	<path class="st2" d="M524.9,307.9v20.8h63v-20.8c0-7.5-0.4-15-1.1-22.3l-62.6,6.8C524.6,297.5,524.9,302.7,524.9,307.9z"/>
	<path class="st1" d="M153.9,596.4c-5.1-5.1-9.8-10.5-14.1-16.1l-50.5,37.9c10,13.1,21.4,25.1,34,35.7l39.5-49.3
		C159.8,602,156.8,599.3,153.9,596.4z"/>
	<path class="st1" d="M478.9,596.4c-2.9,2.9-5.9,5.6-8.9,8.3l39.5,49.3c12.6-10.6,24-22.6,34-35.7L493,580.2
		C488.7,585.9,484,591.3,478.9,596.4z"/>
	<path class="st2" d="M523.4,286.4l62.7-6.8c-2.3-17.9-6.8-35.1-13.1-51.4l-58.2,24.4C518.9,263.5,521.8,274.8,523.4,286.4z"/>
	<path class="st2" d="M524.9,379.5h63v34.9h-63V379.5z"/>
	<path class="st1" d="M120.3,546.7l-58.2,24.4c6.3,15,14.3,29.2,23.7,42.3l50.5-37.9C129.9,566.4,124.5,556.8,120.3,546.7z"/>
	<path class="st2" d="M512.5,247.1l58.2-24.4c-6.3-15-14.3-29.2-23.7-42.3l-50.5,38C502.9,227.4,508.2,237,512.5,247.1z"/>
	<path class="st1" d="M465.3,185.3l39.5-49.2c-13.1-10.4-27.4-19.4-42.6-26.6l-26.7,57.1C446,171.6,456,177.9,465.3,185.3z"/>
	<path class="st1" d="M202.8,629.7L176,686.8c16.5,7.3,34,12.6,52.3,15.6l10.4-62.1C226.3,638.2,214.3,634.6,202.8,629.7z"/>
	<path class="st1" d="M430,164.1l26.7-57.1c-16.5-7.3-34-12.6-52.3-15.6L394,153.5C406.5,155.6,418.5,159.1,430,164.1z"/>
	<path class="st1" d="M478.9,197.4c5.1,5.1,9.8,10.5,14.1,16.1l50.5-37.9c-10-13.1-21.4-25.1-34-35.7L470,189.2
		C473,191.8,476,194.5,478.9,197.4z"/>
	<path class="st1" d="M167.5,608.5L128,657.7c13.1,10.4,27.4,19.4,42.6,26.6l26.7-57.1C186.8,622.1,176.8,615.9,167.5,608.5z"/>
	<path class="st1" d="M368.4,151.4c6.6,0,13.2,0.4,19.7,1.2l10.4-62.2c-9.9-1.4-19.9-2.1-30.1-2.1H340v63L368.4,151.4L368.4,151.4z"
		/>
	<path class="st3" d="M264.4,156.4h28.4v-5h-28.4c-6.6,0-13.2,0.4-19.7,1.2l0.8,4.9C251.7,156.8,258,156.4,264.4,156.4z"/>
	<path class="st3" d="M239.5,158.4l-0.8-4.9c-12.4,2.1-24.5,5.6-35.9,10.6l2.1,4.5C216,163.9,227.6,160.4,239.5,158.4z"/>
	<path class="st3" d="M199.4,171.1l-2.1-4.5c-10.5,5.1-20.5,11.3-29.8,18.7l3.1,3.9C179.6,182.1,189.3,176,199.4,171.1z"/>
	<path class="st3" d="M298.8,156.4v-9H334v9H298.8z"/>
	<path class="st3" d="M393.2,635.3l0.8,4.9c12.4-2.1,24.5-5.6,35.9-10.6l-2.1-4.5C416.8,629.9,405.2,633.3,393.2,635.3z"/>
	<path class="st3" d="M157.5,592.8c-4.9-4.9-9.5-10.1-13.6-15.6l-4,3c4.3,5.6,9,11,14.1,16.1c2.9,2.9,5.9,5.6,8.9,8.3l3.1-3.9
		C163.1,598.2,160.2,595.6,157.5,592.8z"/>
	<path class="st3" d="M492.5,572.4l4,3c6.4-9,11.7-18.6,16-28.7l-4.6-1.9C503.8,554.4,498.6,563.7,492.5,572.4z"/>
	<path class="st3" d="M170.6,604.6l-3.1,3.9c9.3,7.4,19.3,13.7,29.8,18.7l2.1-4.5C189.3,617.8,179.6,611.7,170.6,604.6z"/>
	<path class="st3" d="M510.2,539.2l4.6,1.9c4.1-10.8,7-22.2,8.6-33.8l-5-0.5C516.9,518,514.1,528.8,510.2,539.2z"/>
	<path class="st3" d="M475.3,592.8c-2.8,2.8-5.6,5.4-8.5,7.9l3.1,3.9c3.1-2.6,6-5.4,8.9-8.3c5.1-5.1,9.8-10.5,14.1-16.1l-4-3
		C484.8,582.7,480.3,587.9,475.3,592.8z"/>
	<path class="st3" d="M157.5,201c2.8-2.8,5.6-5.4,8.5-7.9l-3.1-3.9c-3.1,2.6-6,5.4-8.9,8.3c-5.1,5.1-9.8,10.5-14.1,16.1l4,3
		C148,211.1,152.5,205.9,157.5,201z"/>
	<path class="st3" d="M114.4,506.8l-5,0.5c1.6,11.6,4.5,22.9,8.6,33.8l4.6-1.9C118.7,528.8,115.9,518,114.4,506.8z"/>
	<path class="st3" d="M368.4,637.4H340v5h28.4c6.6,0,13.2-0.4,19.7-1.2l-0.8-4.9C381.1,637,374.8,637.4,368.4,637.4z"/>
	<path class="st3" d="M519.9,485.9c0,5-0.2,10-0.7,15l5,0.5c0.5-5.1,0.8-10.3,0.8-15.5v-20.8h-5L519.9,485.9L519.9,485.9z"/>
	<path class="st3" d="M124.9,544.8l-4.6,1.9c4.3,10,9.6,19.7,16,28.7l4-3C134.1,563.7,129,554.4,124.9,544.8z"/>
	<path class="st3" d="M204.9,625.1l-2.1,4.5c11.5,5,23.5,8.5,35.9,10.6l0.8-4.9C227.6,633.3,216,629.9,204.9,625.1z"/>
	<path class="st3" d="M264.4,637.4c-6.4,0-12.7-0.4-18.9-1.2l-0.8,4.9c6.5,0.8,13.1,1.2,19.7,1.2h28.4v-5L264.4,637.4L264.4,637.4z"
		/>
	<path class="st3" d="M112.9,485.9v-20.8h-5v20.8c0,5.2,0.3,10.4,0.8,15.5l5-0.5C113.1,495.9,112.9,490.9,112.9,485.9z"/>
	<path class="st3" d="M122.6,254.6l-4.6-1.9c-4.1,10.8-7,22.2-8.6,33.8l5,0.5C115.9,275.8,118.7,265,122.6,254.6z"/>
	<path class="st3" d="M140.3,221.4l-4-3c-6.4,9-11.7,18.6-16,28.7l4.6,1.9C129,239.3,134.1,230.1,140.3,221.4z"/>
	<path class="st3" d="M334,637.4v5h-35.2v-5H334z"/>
	<path class="st3" d="M433.3,622.7l2.1,4.5c10.5-5.1,20.5-11.3,29.8-18.7l-3.1-3.9C453.2,611.7,443.5,617.8,433.3,622.7z"/>
	<path class="st3" d="M112.9,414.3h-5v-34.9h5V414.3z"/>
	<path class="st3" d="M112.9,373.5h-5v-38.8h5V373.5z"/>
	<path class="st3" d="M368.4,156.4c6.4,0,12.7,0.4,18.9,1.2l0.8-4.9c-6.5-0.8-13.1-1.2-19.7-1.2H340v5h28.4V156.4z"/>
	<path class="st3" d="M112.9,307.9c0-5,0.2-10,0.7-15l-5-0.5c-0.5,5.1-0.8,10.3-0.8,15.5v20.8h5v-20.8H112.9z"/>
	<path class="st3" d="M112.9,459.1h-5v-38.8h5V459.1z"/>
	<path class="st3" d="M518.4,286.9l5-0.5c-1.6-11.6-4.5-22.9-8.6-33.8l-4.6,1.9C514.1,265,516.9,275.8,518.4,286.9z"/>
	<path class="st3" d="M507.9,249l4.6-1.9c-4.3-10-9.6-19.7-16-28.7l-4,3C498.6,230.1,503.8,239.3,507.9,249z"/>
	<path class="st3" d="M475.3,201c4.9,4.9,9.5,10.1,13.6,15.6l4-3c-4.3-5.6-9-11-14.1-16.1c-2.9-2.9-5.9-5.6-8.9-8.3l-3.1,3.9
		C469.7,195.6,472.6,198.2,475.3,201z"/>
	<path class="st3" d="M519.9,307.9v20.8h5v-20.8c0-5.2-0.3-10.4-0.8-15.5l-5,0.5C519.6,297.9,519.9,302.9,519.9,307.9z"/>
	<path class="st3" d="M519.9,420.3h5v38.8h-5V420.3z"/>
	<path class="st3" d="M519.9,334.7h5v38.8h-5V334.7z"/>
	<path class="st3" d="M519.9,379.5h5v34.9h-5V379.5z"/>
	<path class="st3" d="M427.9,168.6l2.1-4.5c-11.5-5-23.5-8.5-35.9-10.6l-0.8,4.9C405.2,160.4,416.8,163.9,427.9,168.6z"/>
	<path class="st3" d="M462.2,189.2l3.1-3.9c-9.3-7.4-19.3-13.7-29.8-18.7l-2.1,4.5C443.5,176,453.2,182.1,462.2,189.2z"/>
	<path class="st4" d="M371,55H264C122.7,55,7,170.7,7,312v170c0,141.4,115.7,257,257,257h107c141.3,0,257-115.6,257-257V312
		C628,170.7,512.3,55,371,55z"/>
	<path d="M294.5,361.1v-28.2h43.4v28.2H294.5z"/>
	<path d="M292.5,396.7h-5.1v-63.8h5.1V396.7z"/>
	<path d="M315.2,432.3h-20.7v-33.6h20.7V432.3z"/>
	<path d="M292.5,398.7v63.9h-5.1v-63.9H292.5z"/>
	<path d="M339.9,361.1v-28.2h5.2v63.8h-5.2v-33.6V361.1z"/>
	<path d="M317.2,398.7h20.7v33.6h-20.7V398.7z"/>
	<path d="M317.2,363.1h20.7v33.6h-20.7V363.1z"/>
	<path d="M315.2,396.7h-20.7v-33.6h20.7V396.7z"/>
	<path d="M339.9,398.7h5.2v63.9h-5.2v-28.3v-2V398.7z"/>
	<path d="M337.9,434.3v28.3h-43.4v-28.3H337.9z"/>
	<path class="st5" d="M408.9,414.9h87.6v-34h-87.8"/>
	<path class="st6" d="M389,272.5l51.8-71.3c-13.2-8.9-28.1-15.3-44.2-18.7l-17.4,85.4C382.7,268.9,385.9,270.5,389,272.5z"/>
	<path class="st5" d="M223.5,489.6l-0.1-22.7H136V491c0,6.7,0.5,13.3,1.6,19.8l86.2-17C223.6,492.5,223.5,491.1,223.5,489.6z"/>
	<path class="st5" d="M408.7,374.9h87.8v-40h-88"/>
	<path class="st5" d="M409.1,460.9h87.4v-40h-87.6"/>
	<path class="st5" d="M408.3,307l0.1,21.8h88.1v-23.1c0-7.1-0.6-14-1.7-20.8L408,302.1C408.2,303.7,408.3,305.4,408.3,307z"/>
	<path class="st6" d="M263.5,266.1h29v-86.3H262c-6.9,0-13.6,0.6-20.2,1.6l17.3,85C260.6,266.2,262,266.1,263.5,266.1z"/>
	<path class="st7" d="M298.5,266.1v-86.3H334v86.3H298.5z"/>
	<path class="st6" d="M367.4,266.1c2,0,4,0.1,6,0.4l17.4-85.2c-6.6-1.1-13.3-1.6-20.2-1.6H340V266h27.4V266.1z"/>
	<path class="st5" d="M222.6,307c0-1.8,0.1-3.5,0.4-5.3L137.7,285c-1.1,6.8-1.7,13.7-1.7,20.8v23.1h86.7L222.6,307z"/>
	<path class="st6" d="M253.2,267.4l-17.3-85c-16.1,3.4-31,9.8-44.2,18.7l51.3,70.6C246.2,269.9,249.6,268.4,253.2,267.4z"/>
	<path class="st5" d="M409.3,489.6c0,1.5-0.1,2.9-0.2,4.3l85.9,16.9c1-6.4,1.6-13.1,1.6-19.8v-24.1h-87.4L409.3,489.6z"/>
	<path class="st6" d="M334,530.6v86.5h-35.5v-86.5H334L334,530.6z"/>
	<path class="st6" d="M264.5,530.6c-1.9,0-3.7-0.1-5.5-0.4l-17.4,85.2c6.6,1.1,13.5,1.7,20.4,1.7h30.5v-86.5L264.5,530.6
		L264.5,530.6z"/>
	<path class="st6" d="M368.3,530.6H340v86.5h30.5c7,0,13.8-0.6,20.4-1.7l-17.4-85.2C371.8,530.5,370.1,530.6,368.3,530.6z"/>
	<path class="st6" d="M379.4,529l17.4,85.3c16.2-3.4,31.2-10,44.5-19l-51.6-71C386.5,526.4,383.1,528,379.4,529z"/>
	<path class="st6" d="M242.8,524.2l-51.7,71.1c13.2,9,28.3,15.6,44.5,19l17.4-85.4C249.5,527.9,246.1,526.3,242.8,524.2z"/>
	<path class="st5" d="M405.1,291.3c0.7,1.6,1.3,3.2,1.8,4.9l86.9-17.1c-1.2-5.4-2.7-10.8-4.6-15.9L405.1,291.3z"/>
	<path class="st8" d="M477.8,239.7l-46.6,29l-3.2-5.1l46.5-28.9c-7.9-11.5-17.6-21.7-28.8-30l-51.9,71.5c0.8,0.7,1.6,1.4,2.3,2.2
		c3.9,3.9,6.9,8.3,8.9,13l84-28.1C486.2,254.9,482.4,247.1,477.8,239.7z"/>
	<path class="st5" d="M144,261.6c-2.1,5.6-3.9,11.5-5.1,17.5l85.3,16.8c0.7-2.3,1.6-4.6,2.7-6.8L144,261.6z"/>
	<path class="st8" d="M234.7,278.3c1.1-1.1,2.2-2.1,3.3-3l-51.3-70.6c-11.1,8.3-20.8,18.4-28.7,29.8l46.4,30.2l-3.3,5l-46.4-30.2
		c-4.3,6.9-7.9,14.4-10.8,22.1l82.9,27.5C228.8,285.2,231.4,281.6,234.7,278.3z"/>
	<path class="st5" d="M224.8,499.8l-86.2,17c1.2,5.9,2.9,11.7,4.9,17.3l83.9-27.3C226.3,504.5,225.4,502.2,224.8,499.8z"/>
	<path class="st8" d="M227.4,506.8l-83.9,27.3c2.9,8,6.6,15.6,10.9,22.7l45.1-28.7l3.2,5.1l-45.1,28.7c7.8,11.5,17.5,21.7,28.6,30
		l51.7-71.2c-0.8-0.7-1.6-1.4-2.4-2.2C232.2,514.9,229.4,511,227.4,506.8z"/>
	<path class="st5" d="M493.9,516.8L408,499.9c-0.7,2.8-1.8,5.5-3.2,8.1l83.4,28.1C490.6,529.9,492.5,523.4,493.9,516.8z"/>
	<path class="st8" d="M478.2,556.5c3.9-6.5,7.3-13.3,10-20.4L404.8,508c-2,3.7-4.5,7.2-7.7,10.4c-0.8,0.8-1.7,1.6-2.5,2.3l51.6,71.1
		c11.2-8.4,20.9-18.7,28.8-30.3l-46.5-29.9l3.2-5.1L478.2,556.5z"/>
	<path class="st5" d="M176.4,380.9V415H136v-34.1H176.4z"/>
	<path class="st6" d="M222.9,380.9h-46.5v34h46.7"/>
	<path class="st5" d="M176.4,334.9v40H136v-40H176.4z"/>
	<path class="st6" d="M222.7,334.9h-46.3v40h46.5"/>
	<path class="st5" d="M176.4,420.9v40H136v-40H176.4z"/>
	<path class="st6" d="M223.1,420.9h-46.7v40h47"/>
	<path class="st1" d="M59.9,228.2c-6.4,16.3-10.8,33.5-13.1,51.4l42.5,4.6c1.6-13.6,4.9-26.8,10-39.5L59.9,228.2z"/>
	<path class="st1" d="M88.7,290.2L46,285.6c-0.7,7.3-1.1,14.8-1.1,22.3v20.8h43.3V302C88.2,298.1,88.4,294.1,88.7,290.2z"/>
	<path class="st1" d="M88.2,420.3v38.8H44.9v-38.8H88.2z"/>
	<path class="st1" d="M46.7,514.2c2.3,17.9,6.8,35.1,13.1,51.4l40.2-16.9c-5.2-12.5-8.8-25.6-10.5-39.1L46.7,514.2z"/>
	<path class="st1" d="M88.2,465.1H44.9v20.8c0,7.5,0.4,15,1.1,22.3l42.9-4.7c-0.4-4.7-0.7-9.4-0.7-14.1
		C88.2,489.4,88.2,465.1,88.2,465.1z"/>
	<path class="st1" d="M88.2,379.5v34.9H44.9v-34.9H88.2z"/>
	<path class="st8" d="M118,252.6l-18.8-7.9c-5.1,12.6-8.4,25.9-10,39.5l20.1,2.2C111,274.8,113.9,263.5,118,252.6z"/>
	<path class="st8" d="M107.9,307.9c0-5.2,0.3-10.4,0.8-15.5l-20-2.2c-0.3,3.9-0.5,7.9-0.5,11.8v26.7h19.7
		C107.9,328.7,107.9,307.9,107.9,307.9z"/>
	<path class="st8" d="M107.9,459.1H88.2v-38.8h19.7C107.9,420.3,107.9,459.1,107.9,459.1z"/>
	<path class="st8" d="M109.4,507.4l-19.9,2.2c1.8,13.5,5.3,26.6,10.5,39.1l18-7.5C113.9,530.3,111,519,109.4,507.4z"/>
	<path class="st8" d="M107.9,485.9v-20.8H88.2v24.4c0,4.7,0.2,9.4,0.7,14.1l19.8-2.1C108.2,496.3,107.9,491.1,107.9,485.9z"/>
	<path class="st8" d="M107.9,414.3H88.2v-34.9h19.7C107.9,379.4,107.9,414.3,107.9,414.3z"/>
	<path class="st1" d="M88.2,334.7v38.8H44.9v-38.8H88.2z"/>
	<path class="st8" d="M107.9,373.5H88.2v-38.8h19.7C107.9,334.7,107.9,373.5,107.9,373.5z"/>
	<g>
		<path class="st0" d="M236.6,358.7v-8.8l-4.5,4.4"/>
		<path class="st0" d="M244.1,350.7c-0.1-0.2-0.3-0.3-0.5-0.5s-0.4-0.2-0.6-0.3c-0.2-0.1-0.3-0.1-0.5-0.1s-0.3,0-0.5,0h-1.6
			c-0.1,0-0.2,0.1-0.3,0.1s-0.1,0.1-0.1,0.3v7c0,0,0,0,0,0.1s0,0.1,0.1,0.1s0.2,0,0.2,0s0.1,0,0.2,0c0.1,0,0.1,0,0.2,0
			s0.1,0.1,0.2,0c0.1-0.1,0.1-0.1,0.1-0.1v-0.1v-2.7h0.9c0.5,0,0.8-0.1,1.2-0.2s0.7-0.3,0.9-0.5s0.4-0.5,0.5-0.8s0.2-0.6,0.2-1
			c0-0.3-0.3-0.5-0.3-0.7S244.2,350.9,244.1,350.7z M243.7,352.7c-0.1,0.2-0.2,0.4-0.3,0.5s-0.3,0.2-0.5,0.3
			c-0.2,0.1-0.5,0.1-0.8,0.1h-0.9v-3h0.9c0.1,0,0.3,0,0.5,0s0.4,0.1,0.5,0.2s0.3,0.3,0.4,0.5s0.2,0.5,0.2,0.8
			C243.7,352.3,243.8,352.5,243.7,352.7z"/>
		<path class="st0" d="M247,349.1L247,349.1c-0.1,0-0.2,0-0.3,0s-0.2,0-0.2,0s0-0.1-0.1,0s-0.1,0.1-0.1,0.1v0.1v7.8c0,0.1,0,0,0,0.1
			s0.1,0.1,0.1,0.1h0.1c0,0,0.1,0,0.2,0c0.1,0,0.2,0,0.2,0h0.1c0,0,0.1,0,0.1-0.1v-7.9c0,0,0,0,0-0.1S247,349.1,247,349.1z"/>
		<path class="st0" d="M252.4,352.1c-0.1-0.2-0.3-0.3-0.6-0.4s-0.6-0.1-1-0.1c-0.2,0-0.4,0.1-0.6,0.1s-0.5,0-0.6,0.1
			s-0.2,0.1-0.4,0.2s-0.2,0.1-0.3,0.2s-0.1,0.2-0.1,0.2s0,0.1,0,0.2s0,0.2,0,0.2s-0.1,0,0,0.1s0.1,0.1,0.1,0.1h0.1
			c0,0,0.1,0.2,0.2,0.1c0.1-0.1,0.3-0.1,0.4-0.2c0.1-0.1,0.4-0.1,0.5-0.2s0.4-0.1,0.6-0.1c0.3,0,0.4,0.1,0.6,0.1s0.3,0.1,0.4,0.2
			c0.1,0.1,0.1,0.3,0.2,0.4c0.1,0.1,0.1,0.3,0.1,0.5v0.4h-0.7c-0.4,0-0.8,0.1-1.1,0.1s-0.6,0.2-0.8,0.3c-0.2,0.1-0.4,0.3-0.5,0.5
			s-0.2,0.5-0.2,0.8s0,0.5,0.1,0.7s0.2,0.4,0.4,0.5s0.3,0.2,0.6,0.3c0.3,0.1,0.5,0.1,0.8,0.1s0.6,0,0.9-0.2s0.6-0.4,0.8-0.6v0.5
			c0,0,0,0,0,0.1s0.1,0.1,0.1,0.1s0.1,0,0.2,0c0.1,0,0.2,0.1,0.2,0s0.1-0.1,0.1-0.1v-0.1v-3.6c0-0.4,0-0.7-0.1-0.9
			C252.7,352.5,252.5,352.3,252.4,352.1z M251.9,355.9c-0.3,0.3-0.5,0.5-0.7,0.6s-0.4,0.2-0.7,0.2s-0.5,0-0.7-0.2s-0.3-0.4-0.3-0.7
			c0-0.1,0-0.3,0.1-0.4s0.2-0.2,0.3-0.3c0.1-0.1,0.3-0.1,0.5-0.2s0.4-0.1,0.7-0.1h0.8L251.9,355.9L251.9,355.9z"/>
		<path class="st0" d="M258.7,351.8c-0.1,0-0.2,0-0.3,0s-0.3,0-0.3,0H258c0,0-0.1,0-0.1,0.1l-1.5,4.3l-1.5-4.2c-0.1,0-0.1,0-0.1-0.1
			s0-0.1-0.1-0.1s-0.1,0-0.2,0c-0.1,0-0.2,0-0.3,0s-0.2-0.1-0.3,0s-0.2,0.1-0.2,0.1s0,0,0,0.1s0,0.1,0,0.2l1.9,5c0,0,0.1,0,0.1,0.1
			s0.1,0.1,0.1,0.1l-0.7,1.8v0.1l0.1,0.1h0.1c0,0,0.1,0,0.2,0c0.2,0,0.3,0,0.4,0s0.2,0,0.2-0.1l0.7-1.9l2.1-5.2c0-0.1,0-0.2,0-0.2
			s0.1,0,0-0.1C258.8,351.8,258.8,351.8,258.7,351.8z"/>
		<path class="st0" d="M263.7,352.3c-0.2-0.2-0.4-0.4-0.7-0.5s-0.7-0.2-1.1-0.2c-0.3,0-0.7,0-1,0.2s-0.6,0.4-0.8,0.6
			c-0.2,0.2-0.4,0.6-0.5,0.9c-0.1,0.3-0.2,0.7-0.2,1.2s0.1,0.9,0.2,1.3c0.1,0.4,0.3,0.7,0.5,0.9c0.2,0.2,0.5,0.4,0.8,0.5
			s0.7,0.2,1.1,0.2c0.2,0,0.5-0.1,0.7-0.1s0.4-0.1,0.6-0.1s0.3-0.1,0.4-0.1s0.1,0,0.2-0.1s0.1-0.1,0.1-0.1v-0.1v-0.1c0,0,0,0,0-0.1
			s0-0.2,0-0.2v-0.1c-0.1-0.1-0.1-0.1-0.1-0.1h-0.1c0,0-0.1,0.1-0.2,0.1s-0.3,0-0.4,0.1c-0.1,0-0.3,0-0.5,0.1s-0.4,0.1-0.7,0.1
			s-0.6,0-0.8-0.1c-0.2-0.1-0.4-0.2-0.5-0.4c-0.1-0.2-0.2-0.4-0.3-0.6s-0.1-0.5-0.1-0.8h3.5c0.1,0,0.2-0.1,0.3-0.1
			c0.1,0,0.1-0.1,0.1-0.3v-0.2c0-0.4,0-0.7-0.1-1C264,352.8,263.9,352.5,263.7,352.3z M263.2,354.1h-2.9c0-0.2,0-0.4,0.1-0.6
			s0.2-0.4,0.3-0.5c0.2-0.2,0.3-0.3,0.5-0.4c0.1-0.1,0.4-0.1,0.6-0.1c0.5,0,0.9,0.1,1.1,0.4C263.1,353.2,263.2,353.6,263.2,354.1
			L263.2,354.1z"/>
		<path class="st0" d="M268.7,351.9c-0.1-0.1-0.1-0.1-0.2-0.1s-0.1,0-0.2,0s-0.1,0-0.2,0s-0.2-0.1-0.3,0c-0.1,0.1-0.1,0.1-0.3,0.2
			c-0.2,0.1-0.3,0.2-0.4,0.3c-0.1,0.1-0.3,0.3-0.4,0.5V352c0-0.1,0,0,0-0.1s-0.1-0.1-0.1-0.1h-0.1c0,0-0.1,0-0.2,0s-0.2,0-0.2,0
			s0-0.1-0.1,0s-0.1,0.1-0.1,0.1v0.1v5.3c0,0.1,0,0,0,0.1s0.1,0.1,0.1,0.1h0.1c0,0,0.1,0,0.2,0s0.2,0,0.2,0s0,0.1,0.1,0
			s0.1-0.1,0.1-0.1v-0.1v-3.5c0.2-0.2,0.3-0.3,0.4-0.5s0.2-0.3,0.3-0.4c0.1-0.1,0.2-0.1,0.3-0.2c0.1-0.1,0.2-0.1,0.3-0.1
			c0.1,0,0.1,0,0.2,0s0.1-0.1,0.2,0s0.2,0.1,0.2,0.1s0,0,0.1,0s0.1,0,0.1,0v-0.1v-0.1c0,0,0-0.1,0-0.2l0,0l0,0c0,0,0,0,0-0.1
			s0,0,0-0.1C268.8,352,268.8,352.1,268.7,351.9C268.8,351.9,268.8,352,268.7,351.9z"/>
		<path class="st0" d="M276.7,350.5L276.7,350.5c0.2,0,0.2-0.1,0.2-0.1s0,0,0-0.1s0-0.1,0-0.2s0-0.2,0-0.2s0.1,0,0-0.1
			s-0.1-0.1-0.1-0.1h-0.1h-3.6c-0.1,0-0.2,0.1-0.3,0.1c-0.1,0-0.1,0.1-0.1,0.3v6.8c0,0.1,0,0.2,0.1,0.3c0.1,0.1,0.2,0.1,0.3,0.1h3.6
			c0,0,0,0,0.1,0s0.1-0.1,0.1-0.1s0,0,0-0.1s0-0.1,0-0.2v-0.3c0,0,0.1,0,0-0.1s-0.1-0.1-0.1-0.1h-0.1h-3v-2.7h2.5c0,0,0,0,0.1,0
			s0.1-0.1,0.1-0.1s0,0,0-0.1s0-0.1,0-0.2s0-0.2,0-0.2s0.1,0,0-0.1s-0.1-0.1-0.1-0.1h-0.1h-2.5v-2.4L276.7,350.5L276.7,350.5z"/>
		<path class="st0" d="M282.9,352.4c-0.2-0.2-0.3-0.4-0.6-0.5s-0.5-0.2-0.9-0.2c-0.3,0-0.6,0.1-0.9,0.2s-0.6,0.4-0.9,0.7v-0.7
			c0-0.1,0,0,0-0.1s-0.1-0.1-0.1-0.1h-0.1c0,0-0.1,0-0.2,0s-0.2,0-0.2,0s0-0.1-0.1,0s-0.1,0.1-0.1,0.1v0.1v5.3c0,0.1,0,0,0,0.1
			s0.1,0.1,0.1,0.1h0.1c0,0,0.1,0,0.2,0s0.2,0,0.2,0s0,0.1,0.1,0s0.1-0.1,0.1-0.1v-0.1v-3.7c0.3-0.4,0.6-0.6,0.8-0.8
			c0.2-0.2,0.5-0.3,0.7-0.3s0.4,0,0.5,0.1s0.2,0.1,0.3,0.3c0.1,0.2,0.1,0.3,0.2,0.5s0.1,0.4,0.1,0.7v3.1c0,0.1,0,0,0,0.1
			s0.1,0.1,0.1,0.1h0.1c0,0,0.1,0,0.2,0s0.2,0,0.2,0h0.1c0,0,0.1,0,0.1-0.1h0.3v-3.1c0-0.4-0.1-0.7-0.1-1S283.1,352.6,282.9,352.4z"
			/>
		<path class="st0" d="M287.1,356.4C287.1,356.3,287.2,356.3,287.1,356.4C287,356.3,287,356.3,287.1,356.4c-0.1-0.1-0.2-0.2-0.2-0.1
			s0,0-0.1,0.1s-0.2,0.1-0.2,0.1s-0.1,0-0.2,0c-0.3,0-0.5-0.1-0.6-0.3c-0.1-0.2-0.2-0.4-0.2-0.8v-2.9h1.4c0,0,0,0,0.1-0.1
			s0.1-0.2,0.1-0.3c0-0.1,0-0.2,0-0.2s0.1,0,0-0.1s-0.1-0.1-0.1-0.1H287h-1.4v-1.3c0-0.1,0,0,0-0.1s-0.1-0.1-0.1-0.1h-0.1
			c0,0-0.1,0-0.2,0s-0.2,0-0.2,0s0-0.1-0.1,0s-0.1,0.1-0.1,0.1v0.1v1.3h-0.7c0,0,0,0-0.1,0s-0.1,0.1-0.1,0.1s0,0,0,0.1s0,0.1,0,0.2
			s0.1,0.2,0.1,0.3c0,0.1,0,0.1,0.1,0.1h0.7v3.1c0,0.3,0,0.5,0.1,0.8s0.2,0.5,0.3,0.6c0.1,0.1,0.3,0.2,0.5,0.3
			c0.2,0.1,0.4,0.1,0.7,0.1c0.1,0,0.2,0,0.3,0s0.2,0.1,0.3,0c0.1-0.1,0.2-0.1,0.2-0.1s0-0.1,0.1-0.1s0.1,0,0.1-0.1s0-0.2,0-0.3
			l-0.3-0.3C287.1,356.5,287.1,356.5,287.1,356.4z"/>
		<path class="st0" d="M291.6,351.9c-0.1-0.1-0.1-0.1-0.2-0.1s-0.1,0-0.2,0s-0.1,0-0.2,0s-0.2-0.1-0.3,0s-0.1,0.1-0.3,0.2
			c-0.2,0.1-0.3,0.2-0.4,0.3c-0.1,0.1-0.3,0.3-0.4,0.5V352c0-0.1,0,0,0-0.1s-0.1-0.1-0.1-0.1h-0.1c0,0-0.1,0-0.2,0s-0.2,0-0.2,0
			s0-0.1-0.1,0s-0.1,0.1-0.1,0.1v0.1v5.3c0,0.1,0,0,0,0.1s0.1,0.1,0.1,0.1h0.1c0,0,0.1,0,0.2,0s0.2,0,0.2,0s0,0.1,0.1,0
			s0.1-0.1,0.1-0.1v-0.1v-3.5c0.2-0.2,0.3-0.3,0.4-0.5s0.2-0.3,0.3-0.4c0.1-0.1,0.2-0.1,0.3-0.2c0.1-0.1,0.2-0.1,0.3-0.1
			c0.1,0,0.1,0,0.2,0s0.1-0.1,0.2,0s0.2,0.1,0.2,0.1s0,0,0.1,0s0.1,0,0.1,0v-0.1v-0.1c0,0,0-0.1,0-0.2l0,0l0,0c0,0,0,0,0-0.1
			s0,0,0-0.1C291.7,352,291.7,352.1,291.6,351.9C291.7,351.9,291.7,352,291.6,351.9z"/>
		<path class="st0" d="M296.6,353.8c0-0.4,0-0.7-0.1-0.9c-0.1-0.2-0.3-0.4-0.4-0.6s-0.3-0.3-0.6-0.4c-0.3-0.1-0.6-0.1-1-0.1
			c-0.2,0-0.4,0.1-0.6,0.1s-0.5,0-0.6,0.1s-0.2,0.1-0.4,0.2c-0.2,0.1-0.2,0.1-0.3,0.2c-0.1,0.1-0.1,0.2-0.1,0.2s0,0.1,0,0.2
			s0,0.2,0,0.2s-0.1,0,0,0.1s0.1,0.1,0.1,0.1h0.1c0,0,0.1,0,0.2-0.1s0.3-0.1,0.4-0.2s0.4-0.1,0.5-0.2s0.4-0.1,0.6-0.1
			c0.3,0,0.4,0.1,0.6,0.1s0.3,0.1,0.4,0.2s0.1,0.3,0.2,0.4s0.1,0.3,0.1,0.5v0.4H295c-0.4,0-0.8,0.1-1.1,0.1s-0.6,0.2-0.8,0.3
			c-0.2,0.1-0.4,0.3-0.5,0.5s-0.2,0.5-0.2,0.8s0,0.5,0.1,0.7s0.2,0.4,0.4,0.5c0.2,0.1,0.3,0.2,0.6,0.3c0.3,0.1,0.5,0.1,0.8,0.1
			s0.6,0,0.9-0.2s0.6-0.4,0.8-0.6v0.5c0,0,0,0,0,0.1s0.1,0.1,0.1,0.1s0.1,0,0.2,0s0.2,0.1,0.2,0s0.1-0.1,0.1-0.1v-0.1l0,0V353.8z
			 M295.6,355.9c-0.3,0.3-0.5,0.5-0.7,0.6s-0.4,0.2-0.7,0.2s-0.5,0-0.7-0.2s-0.3-0.4-0.3-0.7c0-0.1,0-0.3,0.1-0.4s0.2-0.2,0.3-0.3
			c0.1-0.1,0.3-0.1,0.5-0.2s0.4-0.1,0.7-0.1h0.8L295.6,355.9L295.6,355.9z"/>
		<path class="st0" d="M302.8,352.4c-0.2-0.2-0.3-0.4-0.6-0.5s-0.5-0.2-0.9-0.2c-0.3,0-0.6,0.1-0.9,0.2s-0.6,0.4-0.9,0.7v-0.7
			c0-0.1,0,0,0-0.1s-0.1-0.1-0.1-0.1h-0.1c0,0-0.1,0-0.2,0s-0.2,0-0.2,0s0-0.1-0.1,0s-0.1,0.1-0.1,0.1v0.1v5.3c0,0.1,0,0,0,0.1
			s0.1,0.1,0.1,0.1h0.1c0,0,0.1,0,0.2,0s0.2,0,0.2,0s0,0.1,0.1,0s0.1-0.1,0.1-0.1v-0.1v-3.7c0.3-0.4,0.6-0.6,0.8-0.8
			c0.2-0.2,0.5-0.3,0.7-0.3s0.4,0,0.5,0.1s0.2,0.1,0.3,0.3c0.1,0.2,0.1,0.3,0.2,0.5s0.1,0.4,0.1,0.7v3.1c0,0.1,0,0,0,0.1
			s0.1,0.1,0.1,0.1h0.1c0,0,0.1,0,0.2,0s0.2,0,0.2,0h0.1c0,0,0.1,0,0.1-0.1h0.3v-3.1c0-0.4-0.1-0.7-0.1-1S303,352.6,302.8,352.4z"/>
		<path class="st0" d="M308.3,356.3L308.3,356.3c0-0.2,0-0.2,0-0.2h-0.1c-0.1,0-0.1,0.1-0.2,0.1s-0.2,0.1-0.3,0.2
			c-0.1,0.1-0.2,0.1-0.4,0.2c-0.2,0.1-0.4,0.1-0.6,0.1s-0.4,0-0.6-0.1s-0.4-0.3-0.5-0.4s-0.2-0.3-0.3-0.6c-0.1-0.3-0.1-0.6-0.1-0.9
			c0-0.7,0.1-1.3,0.4-1.6c0.3-0.3,0.6-0.5,1.1-0.5c0.2,0,0.5,0,0.6,0.1s0.3,0.1,0.4,0.2s0.2,0.1,0.3,0.2c0.1,0.1,0.1,0.1,0.2,0.1
			c0,0,0-0.1,0.1-0.1s0.1-0.1,0.1-0.3c0-0.1,0-0.2,0-0.2v-0.1v-0.1c0,0-0.1,0-0.1-0.1s-0.1-0.1-0.2-0.2s-0.3-0.2-0.4-0.2
			s-0.2-0.1-0.4-0.1s-0.3,0-0.5,0c-0.4,0-0.7,0.1-1,0.2s-0.6,0.3-0.8,0.5c-0.2,0.2-0.4,0.6-0.5,0.9s-0.2,0.8-0.2,1.3
			c0,0.4,0,0.8,0.2,1.2c0.2,0.4,0.3,0.7,0.5,0.9c0.2,0.2,0.4,0.4,0.7,0.5c0.3,0.1,0.6,0.2,1,0.2c0.2,0,0.3-0.1,0.5-0.1
			s0.3,0,0.5-0.1s0.3-0.1,0.4-0.2s0.1-0.2,0.2-0.2s0.1-0.1,0.1-0.1v-0.1c0,0,0,0,0-0.1s0-0.1,0-0.2
			C308.4,356.3,308.3,356.3,308.3,356.3z"/>
		<path class="st0" d="M314.1,353.1c-0.1-0.3-0.2-0.6-0.4-0.8s-0.4-0.4-0.7-0.5c-0.3-0.1-0.7-0.2-1.1-0.2c-0.3,0-0.7,0-1,0.2
			s-0.6,0.4-0.8,0.6c-0.2,0.2-0.4,0.6-0.5,0.9s-0.2,0.7-0.2,1.2s0.1,0.9,0.2,1.3s0.3,0.7,0.5,0.9c0.2,0.2,0.5,0.4,0.8,0.5
			s0.7,0.2,1.1,0.2c0.2,0,0.5-0.1,0.7-0.1s0.4-0.1,0.6-0.1s0.3-0.1,0.4-0.1s0.1,0,0.2-0.1s0.1-0.1,0.1-0.1v-0.1v-0.1c0,0,0,0,0-0.1
			s0-0.2,0-0.2v-0.1c-0.1-0.1-0.1-0.1-0.1-0.1h-0.1c0,0-0.1,0.1-0.2,0.1s-0.3,0-0.4,0.1c-0.1,0-0.3,0-0.5,0.1s-0.4,0.1-0.7,0.1
			s-0.6,0-0.8-0.1s-0.4-0.2-0.5-0.4c-0.1-0.2-0.2-0.4-0.3-0.6c-0.1-0.2-0.1-0.5-0.1-0.8h3.5c0.1,0,0.2-0.1,0.3-0.1
			c0.1,0,0.1-0.1,0.1-0.3v-0.2C314.2,353.7,314.2,353.4,314.1,353.1z M313.2,354.1h-2.9c0-0.2,0-0.4,0.1-0.6s0.2-0.4,0.3-0.5
			c0.2-0.2,0.3-0.3,0.5-0.4c0.1-0.1,0.4-0.1,0.6-0.1c0.5,0,0.9,0.1,1.1,0.4C313.1,353.2,313.2,353.6,313.2,354.1L313.2,354.1z"/>
	</g>
</g>
<g id="Layer_2">
	<circle class="st9" cx="293.9" cy="210" r="0.6"/>
	<circle class="st9" cx="295.5" cy="210" r="0.6"/>
	<circle class="st9" cx="297" cy="210" r="0.6"/>
	<circle class="st9" cx="298.6" cy="210" r="0.6"/>
	<circle class="st9" cx="300.1" cy="210" r="0.6"/>
	<circle class="st9" cx="301.7" cy="210" r="0.6"/>
	<circle class="st9" cx="303.2" cy="210" r="0.6"/>
	<circle class="st9" cx="304.8" cy="210" r="0.6"/>
	<circle class="st9" cx="306.4" cy="210" r="0.6"/>
	<circle class="st9" cx="307.9" cy="210" r="0.6"/>
	<circle class="st9" cx="309.5" cy="210" r="0.6"/>
	<circle class="st9" cx="311" cy="210" r="0.6"/>
	<circle class="st9" cx="312.6" cy="210" r="0.6"/>
	<circle class="st9" cx="314.1" cy="210" r="0.6"/>
	<circle class="st9" cx="315.7" cy="210" r="0.6"/>
	<circle class="st9" cx="317.3" cy="210" r="0.6"/>
	<circle class="st9" cx="318.8" cy="210" r="0.6"/>
	<circle class="st9" cx="320.4" cy="210" r="0.6"/>
	<circle class="st9" cx="321.9" cy="210" r="0.6"/>
	<circle class="st9" cx="323.5" cy="210" r="0.6"/>
	<circle class="st9" cx="325" cy="210" r="0.6"/>
	<circle class="st9" cx="326.6" cy="210" r="0.6"/>
	<circle class="st9" cx="293.9" cy="208.5" r="0.6"/>
	<circle class="st9" cx="295.5" cy="208.5" r="0.6"/>
	<circle class="st9" cx="297" cy="208.5" r="0.6"/>
	<circle class="st9" cx="298.6" cy="208.5" r="0.6"/>
	<circle class="st9" cx="300.1" cy="208.5" r="0.6"/>
	<circle class="st9" cx="301.7" cy="208.5" r="0.6"/>
	<circle class="st9" cx="303.2" cy="208.5" r="0.6"/>
	<circle class="st9" cx="304.8" cy="208.5" r="0.6"/>
	<circle class="st9" cx="306.4" cy="208.5" r="0.6"/>
	<circle class="st9" cx="307.9" cy="208.5" r="0.6"/>
	<circle class="st9" cx="309.5" cy="208.5" r="0.6"/>
	<circle class="st9" cx="311" cy="208.5" r="0.6"/>
	<circle class="st9" cx="312.6" cy="208.5" r="0.6"/>
	<circle class="st9" cx="314.1" cy="208.5" r="0.6"/>
	<circle class="st9" cx="315.7" cy="208.5" r="0.6"/>
	<circle class="st9" cx="317.3" cy="208.5" r="0.6"/>
	<circle class="st9" cx="318.8" cy="208.5" r="0.6"/>
	<circle class="st9" cx="320.4" cy="208.5" r="0.6"/>
	<circle class="st9" cx="321.9" cy="208.5" r="0.6"/>
	<circle class="st9" cx="323.5" cy="208.5" r="0.6"/>
	<circle class="st9" cx="325" cy="208.5" r="0.6"/>
	<circle class="st9" cx="326.6" cy="208.5" r="0.6"/>
	<circle class="st9" cx="293.9" cy="207.1" r="0.6"/>
	<circle class="st9" cx="295.5" cy="207.1" r="0.6"/>
	<circle class="st9" cx="297" cy="207.1" r="0.6"/>
	<circle class="st9" cx="298.6" cy="207.1" r="0.6"/>
	<circle class="st9" cx="300.1" cy="207.1" r="0.6"/>
	<circle class="st9" cx="301.7" cy="207.1" r="0.6"/>
	<circle class="st9" cx="303.2" cy="207.1" r="0.6"/>
	<circle class="st9" cx="304.8" cy="207.1" r="0.6"/>
	<circle class="st9" cx="306.4" cy="207.1" r="0.6"/>
	<circle class="st9" cx="307.9" cy="207.1" r="0.6"/>
	<circle class="st9" cx="309.5" cy="207.1" r="0.6"/>
	<circle class="st9" cx="311" cy="207.1" r="0.6"/>
	<circle class="st9" cx="312.6" cy="207.1" r="0.6"/>
	<circle class="st9" cx="314.1" cy="207.1" r="0.6"/>
	<circle class="st9" cx="315.7" cy="207.1" r="0.6"/>
	<circle class="st9" cx="317.3" cy="207.1" r="0.6"/>
	<circle class="st9" cx="318.8" cy="207.1" r="0.6"/>
	<circle class="st9" cx="320.4" cy="207.1" r="0.6"/>
	<circle class="st9" cx="321.9" cy="207.1" r="0.6"/>
	<circle class="st9" cx="323.5" cy="207.1" r="0.6"/>
	<circle class="st9" cx="325" cy="207.1" r="0.6"/>
	<circle class="st9" cx="326.6" cy="207.1" r="0.6"/>
	<circle class="st9" cx="293.9" cy="205.7" r="0.6"/>
	<circle class="st9" cx="295.5" cy="205.7" r="0.6"/>
	<circle class="st9" cx="297" cy="205.7" r="0.6"/>
	<circle class="st9" cx="298.6" cy="205.7" r="0.6"/>
	<circle class="st9" cx="300.1" cy="205.7" r="0.6"/>
	<circle class="st9" cx="301.7" cy="205.7" r="0.6"/>
	<circle class="st9" cx="303.2" cy="205.7" r="0.6"/>
	<circle class="st9" cx="304.8" cy="205.7" r="0.6"/>
	<circle class="st9" cx="306.4" cy="205.7" r="0.6"/>
	<circle class="st9" cx="307.9" cy="205.7" r="0.6"/>
	<circle class="st9" cx="309.5" cy="205.7" r="0.6"/>
	<circle class="st9" cx="311" cy="205.7" r="0.6"/>
	<circle class="st9" cx="312.6" cy="205.7" r="0.6"/>
	<circle class="st9" cx="314.1" cy="205.7" r="0.6"/>
	<circle class="st9" cx="315.7" cy="205.7" r="0.6"/>
	<circle class="st9" cx="317.3" cy="205.7" r="0.6"/>
	<circle class="st9" cx="318.8" cy="205.7" r="0.6"/>
	<circle class="st9" cx="320.4" cy="205.7" r="0.6"/>
	<circle class="st9" cx="321.9" cy="205.7" r="0.6"/>
	<circle class="st9" cx="323.5" cy="205.7" r="0.6"/>
	<circle class="st9" cx="325" cy="205.7" r="0.6"/>
	<circle class="st9" cx="326.6" cy="205.7" r="0.6"/>
	<circle class="st9" cx="293.9" cy="204.2" r="0.6"/>
	<circle class="st9" cx="295.5" cy="204.2" r="0.6"/>
	<circle class="st9" cx="297" cy="204.2" r="0.6"/>
	<circle class="st9" cx="298.6" cy="204.2" r="0.6"/>
	<circle class="st9" cx="300.1" cy="204.2" r="0.6"/>
	<circle class="st9" cx="301.7" cy="204.2" r="0.6"/>
	<circle class="st9" cx="303.2" cy="204.2" r="0.6"/>
	<circle class="st9" cx="304.8" cy="204.2" r="0.6"/>
	<circle class="st9" cx="306.4" cy="204.2" r="0.6"/>
	<circle class="st9" cx="307.9" cy="204.2" r="0.6"/>
	<circle class="st9" cx="309.5" cy="204.2" r="0.6"/>
	<circle class="st9" cx="311" cy="204.2" r="0.6"/>
	<circle class="st9" cx="312.6" cy="204.2" r="0.6"/>
	<circle class="st9" cx="314.1" cy="204.2" r="0.6"/>
	<circle class="st9" cx="315.7" cy="204.2" r="0.6"/>
	<circle class="st9" cx="317.3" cy="204.2" r="0.6"/>
	<circle class="st9" cx="318.8" cy="204.2" r="0.6"/>
	<circle class="st9" cx="320.4" cy="204.2" r="0.6"/>
	<circle class="st9" cx="321.9" cy="204.2" r="0.6"/>
	<circle class="st9" cx="323.5" cy="204.2" r="0.6"/>
	<circle class="st9" cx="325" cy="204.2" r="0.6"/>
	<circle class="st9" cx="326.6" cy="204.2" r="0.6"/>
	<circle class="st9" cx="293.9" cy="202.8" r="0.6"/>
	<circle class="st9" cx="295.5" cy="202.8" r="0.6"/>
	<circle class="st9" cx="297" cy="202.8" r="0.6"/>
	<circle class="st9" cx="298.6" cy="202.8" r="0.6"/>
	<circle class="st9" cx="300.1" cy="202.8" r="0.6"/>
	<circle class="st9" cx="301.7" cy="202.8" r="0.6"/>
	<circle class="st9" cx="303.2" cy="202.8" r="0.6"/>
	<circle class="st9" cx="304.8" cy="202.8" r="0.6"/>
	<circle class="st9" cx="306.4" cy="202.8" r="0.6"/>
	<circle class="st9" cx="307.9" cy="202.8" r="0.6"/>
	<circle class="st9" cx="309.5" cy="202.8" r="0.6"/>
	<circle class="st9" cx="311" cy="202.8" r="0.6"/>
	<circle class="st9" cx="312.6" cy="202.8" r="0.6"/>
	<circle class="st9" cx="314.1" cy="202.8" r="0.6"/>
	<circle class="st9" cx="315.7" cy="202.8" r="0.6"/>
	<circle class="st9" cx="317.3" cy="202.8" r="0.6"/>
	<circle class="st9" cx="318.8" cy="202.8" r="0.6"/>
	<circle class="st9" cx="320.4" cy="202.8" r="0.6"/>
	<circle class="st9" cx="321.9" cy="202.8" r="0.6"/>
	<circle class="st9" cx="323.5" cy="202.8" r="0.6"/>
	<circle class="st9" cx="325" cy="202.8" r="0.6"/>
	<circle class="st9" cx="326.6" cy="202.8" r="0.6"/>
	<circle class="st9" cx="293.9" cy="201.3" r="0.6"/>
	<circle class="st9" cx="295.5" cy="201.3" r="0.6"/>
	<circle class="st9" cx="297" cy="201.3" r="0.6"/>
	<circle class="st9" cx="298.6" cy="201.3" r="0.6"/>
	<circle class="st9" cx="300.1" cy="201.3" r="0.6"/>
	<circle class="st9" cx="301.7" cy="201.3" r="0.6"/>
	<circle class="st9" cx="303.2" cy="201.3" r="0.6"/>
	<circle class="st9" cx="304.8" cy="201.3" r="0.6"/>
	<circle class="st9" cx="306.4" cy="201.3" r="0.6"/>
	<circle class="st9" cx="307.9" cy="201.3" r="0.6"/>
	<circle class="st9" cx="309.5" cy="201.3" r="0.6"/>
	<circle class="st9" cx="311" cy="201.3" r="0.6"/>
	<circle class="st9" cx="312.6" cy="201.3" r="0.6"/>
	<circle class="st9" cx="314.1" cy="201.3" r="0.6"/>
	<circle class="st9" cx="315.7" cy="201.3" r="0.6"/>
	<circle class="st9" cx="317.3" cy="201.3" r="0.6"/>
	<circle class="st9" cx="318.8" cy="201.3" r="0.6"/>
	<circle class="st9" cx="320.4" cy="201.3" r="0.6"/>
	<circle class="st9" cx="321.9" cy="201.3" r="0.6"/>
	<circle class="st9" cx="323.5" cy="201.3" r="0.6"/>
	<circle class="st9" cx="325" cy="201.3" r="0.6"/>
	<circle class="st9" cx="326.6" cy="201.3" r="0.6"/>
	<circle class="st9" cx="293.9" cy="199.9" r="0.6"/>
	<circle class="st9" cx="295.5" cy="199.9" r="0.6"/>
	<circle class="st9" cx="297" cy="199.9" r="0.6"/>
	<circle class="st9" cx="298.6" cy="199.9" r="0.6"/>
	<circle class="st9" cx="300.1" cy="199.9" r="0.6"/>
	<circle class="st9" cx="301.7" cy="199.9" r="0.6"/>
	<circle class="st9" cx="303.2" cy="199.9" r="0.6"/>
	<circle class="st9" cx="304.8" cy="199.9" r="0.6"/>
	<circle class="st9" cx="306.4" cy="199.9" r="0.6"/>
	<circle class="st9" cx="307.9" cy="199.9" r="0.6"/>
	<circle class="st9" cx="309.5" cy="199.9" r="0.6"/>
	<circle class="st9" cx="311" cy="199.9" r="0.6"/>
	<circle class="st9" cx="312.6" cy="199.9" r="0.6"/>
	<circle class="st9" cx="314.1" cy="199.9" r="0.6"/>
	<circle class="st9" cx="315.7" cy="199.9" r="0.6"/>
	<circle class="st9" cx="317.3" cy="199.9" r="0.6"/>
	<circle class="st9" cx="318.8" cy="199.9" r="0.6"/>
	<circle class="st9" cx="320.4" cy="199.9" r="0.6"/>
	<circle class="st9" cx="321.9" cy="199.9" r="0.6"/>
	<circle class="st9" cx="323.5" cy="199.9" r="0.6"/>
	<circle class="st9" cx="325" cy="199.9" r="0.6"/>
	<circle class="st9" cx="326.6" cy="199.9" r="0.6"/>
	<circle class="st9" cx="293.9" cy="198.5" r="0.6"/>
	<circle class="st9" cx="295.5" cy="198.5" r="0.6"/>
	<circle class="st9" cx="297" cy="198.5" r="0.6"/>
	<circle class="st9" cx="298.6" cy="198.5" r="0.6"/>
	<circle class="st9" cx="300.1" cy="198.5" r="0.6"/>
	<circle class="st9" cx="301.7" cy="198.5" r="0.6"/>
	<circle class="st9" cx="303.2" cy="198.5" r="0.6"/>
	<circle class="st9" cx="304.8" cy="198.5" r="0.6"/>
	<circle class="st9" cx="306.4" cy="198.5" r="0.6"/>
	<circle class="st9" cx="307.9" cy="198.5" r="0.6"/>
	<circle class="st9" cx="309.5" cy="198.5" r="0.6"/>
	<circle class="st9" cx="311" cy="198.5" r="0.6"/>
	<circle class="st9" cx="312.6" cy="198.5" r="0.6"/>
	<circle class="st9" cx="314.1" cy="198.5" r="0.6"/>
	<circle class="st9" cx="315.7" cy="198.5" r="0.6"/>
	<circle class="st9" cx="317.3" cy="198.5" r="0.6"/>
	<circle class="st9" cx="318.8" cy="198.5" r="0.6"/>
	<circle class="st9" cx="320.4" cy="198.5" r="0.6"/>
	<circle class="st9" cx="321.9" cy="198.5" r="0.6"/>
	<circle class="st9" cx="323.5" cy="198.5" r="0.6"/>
	<circle class="st9" cx="325" cy="198.5" r="0.6"/>
	<circle class="st9" cx="326.6" cy="198.5" r="0.6"/>
	<circle class="st9" cx="293.9" cy="197" r="0.6"/>
	<circle class="st9" cx="295.5" cy="197" r="0.6"/>
	<circle class="st9" cx="297" cy="197" r="0.6"/>
	<circle class="st9" cx="298.6" cy="197" r="0.6"/>
	<circle class="st9" cx="300.1" cy="197" r="0.6"/>
	<circle class="st9" cx="301.7" cy="197" r="0.6"/>
	<circle class="st9" cx="303.2" cy="197" r="0.6"/>
	<circle class="st9" cx="304.8" cy="197" r="0.6"/>
	<circle class="st9" cx="306.4" cy="197" r="0.6"/>
	<circle class="st9" cx="307.9" cy="197" r="0.6"/>
	<circle class="st9" cx="309.5" cy="197" r="0.6"/>
	<circle class="st9" cx="311" cy="197" r="0.6"/>
	<circle class="st9" cx="312.6" cy="197" r="0.6"/>
	<circle class="st9" cx="314.1" cy="197" r="0.6"/>
	<circle class="st9" cx="315.7" cy="197" r="0.6"/>
	<circle class="st9" cx="317.3" cy="197" r="0.6"/>
	<circle class="st9" cx="318.8" cy="197" r="0.6"/>
	<circle class="st9" cx="320.4" cy="197" r="0.6"/>
	<circle class="st9" cx="321.9" cy="197" r="0.6"/>
	<circle class="st9" cx="323.5" cy="197" r="0.6"/>
	<circle class="st9" cx="325" cy="197" r="0.6"/>
	<circle class="st9" cx="326.6" cy="197" r="0.6"/>
	<circle class="st9" cx="293.9" cy="195.6" r="0.6"/>
	<circle class="st9" cx="295.5" cy="195.6" r="0.6"/>
	<circle class="st9" cx="297" cy="195.6" r="0.6"/>
	<circle class="st9" cx="298.6" cy="195.6" r="0.6"/>
	<circle class="st9" cx="300.1" cy="195.6" r="0.6"/>
	<circle class="st9" cx="301.7" cy="195.6" r="0.6"/>
	<circle class="st9" cx="303.2" cy="195.6" r="0.6"/>
	<circle class="st9" cx="304.8" cy="195.6" r="0.6"/>
	<circle class="st9" cx="306.4" cy="195.6" r="0.6"/>
	<circle class="st9" cx="307.9" cy="195.6" r="0.6"/>
	<circle class="st9" cx="309.5" cy="195.6" r="0.6"/>
	<circle class="st9" cx="311" cy="195.6" r="0.6"/>
	<circle class="st9" cx="312.6" cy="195.6" r="0.6"/>
	<circle class="st9" cx="314.1" cy="195.6" r="0.6"/>
	<circle class="st9" cx="315.7" cy="195.6" r="0.6"/>
	<circle class="st9" cx="317.3" cy="195.6" r="0.6"/>
	<circle class="st9" cx="318.8" cy="195.6" r="0.6"/>
	<circle class="st9" cx="320.4" cy="195.6" r="0.6"/>
	<circle class="st9" cx="321.9" cy="195.6" r="0.6"/>
	<circle class="st9" cx="323.5" cy="195.6" r="0.6"/>
	<circle class="st9" cx="325" cy="195.6" r="0.6"/>
	<circle class="st9" cx="326.6" cy="195.6" r="0.6"/>
	<circle class="st9" cx="293.9" cy="194.1" r="0.6"/>
	<circle class="st9" cx="295.5" cy="194.1" r="0.6"/>
	<circle class="st9" cx="297" cy="194.1" r="0.6"/>
	<circle class="st9" cx="298.6" cy="194.1" r="0.6"/>
	<circle class="st9" cx="300.1" cy="194.1" r="0.6"/>
	<circle class="st9" cx="301.7" cy="194.1" r="0.6"/>
	<circle class="st9" cx="303.2" cy="194.1" r="0.6"/>
	<circle class="st9" cx="304.8" cy="194.1" r="0.6"/>
	<circle class="st9" cx="306.4" cy="194.1" r="0.6"/>
	<circle class="st9" cx="307.9" cy="194.1" r="0.6"/>
	<circle class="st9" cx="309.5" cy="194.1" r="0.6"/>
	<circle class="st9" cx="311" cy="194.1" r="0.6"/>
	<circle class="st9" cx="312.6" cy="194.1" r="0.6"/>
	<circle class="st9" cx="314.1" cy="194.1" r="0.6"/>
	<circle class="st9" cx="315.7" cy="194.1" r="0.6"/>
	<circle class="st9" cx="317.3" cy="194.1" r="0.6"/>
	<circle class="st9" cx="318.8" cy="194.1" r="0.6"/>
	<circle class="st9" cx="320.4" cy="194.1" r="0.6"/>
	<circle class="st9" cx="321.9" cy="194.1" r="0.6"/>
	<circle class="st9" cx="323.5" cy="194.1" r="0.6"/>
	<circle class="st9" cx="325" cy="194.1" r="0.6"/>
	<circle class="st9" cx="326.6" cy="194.1" r="0.6"/>
	<circle class="st9" cx="293.9" cy="192.7" r="0.6"/>
	<circle class="st9" cx="295.5" cy="192.7" r="0.6"/>
	<circle class="st9" cx="297" cy="192.7" r="0.6"/>
	<circle class="st9" cx="298.6" cy="192.7" r="0.6"/>
	<circle class="st9" cx="300.1" cy="192.7" r="0.6"/>
	<circle class="st9" cx="301.7" cy="192.7" r="0.6"/>
	<circle class="st9" cx="303.2" cy="192.7" r="0.6"/>
	<circle class="st9" cx="304.8" cy="192.7" r="0.6"/>
	<circle class="st9" cx="306.4" cy="192.7" r="0.6"/>
	<circle class="st9" cx="307.9" cy="192.7" r="0.6"/>
	<circle class="st9" cx="309.5" cy="192.7" r="0.6"/>
	<circle class="st9" cx="311" cy="192.7" r="0.6"/>
	<circle class="st9" cx="312.6" cy="192.7" r="0.6"/>
	<circle class="st9" cx="314.1" cy="192.7" r="0.6"/>
	<circle class="st9" cx="315.7" cy="192.7" r="0.6"/>
	<circle class="st9" cx="317.3" cy="192.7" r="0.6"/>
	<circle class="st9" cx="318.8" cy="192.7" r="0.6"/>
	<circle class="st9" cx="320.4" cy="192.7" r="0.6"/>
	<circle class="st9" cx="321.9" cy="192.7" r="0.6"/>
	<circle class="st9" cx="323.5" cy="192.7" r="0.6"/>
	<circle class="st9" cx="325" cy="192.7" r="0.6"/>
	<circle class="st9" cx="326.6" cy="192.7" r="0.6"/>
	<circle class="st9" cx="293.9" cy="191.2" r="0.6"/>
	<circle class="st9" cx="295.5" cy="191.2" r="0.6"/>
	<circle class="st9" cx="297" cy="191.2" r="0.6"/>
	<circle class="st9" cx="298.6" cy="191.2" r="0.6"/>
	<circle class="st9" cx="300.1" cy="191.2" r="0.6"/>
	<circle class="st9" cx="301.7" cy="191.2" r="0.6"/>
	<circle class="st9" cx="303.2" cy="191.2" r="0.6"/>
	<circle class="st9" cx="304.8" cy="191.2" r="0.6"/>
	<circle class="st9" cx="306.4" cy="191.2" r="0.6"/>
	<circle class="st9" cx="307.9" cy="191.2" r="0.6"/>
	<circle class="st9" cx="309.5" cy="191.2" r="0.6"/>
	<circle class="st9" cx="311" cy="191.2" r="0.6"/>
	<circle class="st9" cx="312.6" cy="191.2" r="0.6"/>
	<circle class="st9" cx="314.1" cy="191.2" r="0.6"/>
	<circle class="st9" cx="315.7" cy="191.2" r="0.6"/>
	<circle class="st9" cx="317.3" cy="191.2" r="0.6"/>
	<circle class="st9" cx="318.8" cy="191.2" r="0.6"/>
	<circle class="st9" cx="320.4" cy="191.2" r="0.6"/>
	<circle class="st9" cx="321.9" cy="191.2" r="0.6"/>
	<circle class="st9" cx="323.5" cy="191.2" r="0.6"/>
	<circle class="st9" cx="325" cy="191.2" r="0.6"/>
	<circle class="st9" cx="326.6" cy="191.2" r="0.6"/>
	<circle class="st9" cx="293.9" cy="189.8" r="0.6"/>
	<circle class="st9" cx="295.5" cy="189.8" r="0.6"/>
	<circle class="st9" cx="297" cy="189.8" r="0.6"/>
	<circle class="st9" cx="298.6" cy="189.8" r="0.6"/>
	<circle class="st9" cx="300.1" cy="189.8" r="0.6"/>
	<circle class="st9" cx="301.7" cy="189.8" r="0.6"/>
	<circle class="st9" cx="303.2" cy="189.8" r="0.6"/>
	<circle class="st9" cx="304.8" cy="189.8" r="0.6"/>
	<circle class="st9" cx="306.4" cy="189.8" r="0.6"/>
	<circle class="st9" cx="307.9" cy="189.8" r="0.6"/>
	<circle class="st9" cx="309.5" cy="189.8" r="0.6"/>
	<circle class="st9" cx="311" cy="189.8" r="0.6"/>
	<circle class="st9" cx="312.6" cy="189.8" r="0.6"/>
	<circle class="st9" cx="314.1" cy="189.8" r="0.6"/>
	<circle class="st9" cx="315.7" cy="189.8" r="0.6"/>
	<circle class="st9" cx="317.3" cy="189.8" r="0.6"/>
	<circle class="st9" cx="318.8" cy="189.8" r="0.6"/>
	<circle class="st9" cx="320.4" cy="189.8" r="0.6"/>
	<circle class="st9" cx="321.9" cy="189.8" r="0.6"/>
	<circle class="st9" cx="323.5" cy="189.8" r="0.6"/>
	<circle class="st9" cx="325" cy="189.8" r="0.6"/>
	<circle class="st9" cx="326.6" cy="189.8" r="0.6"/>
	<circle class="st9" cx="293.9" cy="188.4" r="0.6"/>
	<circle class="st9" cx="295.5" cy="188.4" r="0.6"/>
	<circle class="st9" cx="297" cy="188.4" r="0.6"/>
	<circle class="st9" cx="298.6" cy="188.4" r="0.6"/>
	<circle class="st9" cx="300.1" cy="188.4" r="0.6"/>
	<circle class="st9" cx="301.7" cy="188.4" r="0.6"/>
	<circle class="st9" cx="303.2" cy="188.4" r="0.6"/>
	<circle class="st9" cx="304.8" cy="188.4" r="0.6"/>
	<circle class="st9" cx="306.4" cy="188.4" r="0.6"/>
	<circle class="st9" cx="307.9" cy="188.4" r="0.6"/>
	<circle class="st9" cx="309.5" cy="188.4" r="0.6"/>
	<circle class="st9" cx="311" cy="188.4" r="0.6"/>
	<circle class="st9" cx="312.6" cy="188.4" r="0.6"/>
	<circle class="st9" cx="314.1" cy="188.4" r="0.6"/>
	<circle class="st9" cx="315.7" cy="188.4" r="0.6"/>
	<circle class="st9" cx="317.3" cy="188.4" r="0.6"/>
	<circle class="st9" cx="318.8" cy="188.4" r="0.6"/>
	<circle class="st9" cx="320.4" cy="188.4" r="0.6"/>
	<circle class="st9" cx="321.9" cy="188.4" r="0.6"/>
	<circle class="st9" cx="323.5" cy="188.4" r="0.6"/>
	<circle class="st9" cx="325" cy="188.4" r="0.6"/>
	<circle class="st9" cx="326.6" cy="188.4" r="0.6"/>
	<circle class="st9" cx="293.9" cy="186.9" r="0.6"/>
	<circle class="st9" cx="295.5" cy="186.9" r="0.6"/>
	<circle class="st9" cx="297" cy="186.9" r="0.6"/>
	<circle class="st9" cx="298.6" cy="186.9" r="0.6"/>
	<circle class="st9" cx="300.1" cy="186.9" r="0.6"/>
	<circle class="st9" cx="301.7" cy="186.9" r="0.6"/>
	<circle class="st9" cx="303.2" cy="186.9" r="0.6"/>
	<circle class="st9" cx="304.8" cy="186.9" r="0.6"/>
	<circle class="st9" cx="306.4" cy="186.9" r="0.6"/>
	<circle class="st9" cx="307.9" cy="186.9" r="0.6"/>
	<circle class="st9" cx="309.5" cy="186.9" r="0.6"/>
	<circle class="st9" cx="311" cy="186.9" r="0.6"/>
	<circle class="st9" cx="312.6" cy="186.9" r="0.6"/>
	<circle class="st9" cx="314.1" cy="186.9" r="0.6"/>
	<circle class="st9" cx="315.7" cy="186.9" r="0.6"/>
	<circle class="st9" cx="317.3" cy="186.9" r="0.6"/>
	<circle class="st9" cx="318.8" cy="186.9" r="0.6"/>
	<circle class="st9" cx="320.4" cy="186.9" r="0.6"/>
	<circle class="st9" cx="321.9" cy="186.9" r="0.6"/>
	<circle class="st9" cx="323.5" cy="186.9" r="0.6"/>
	<circle class="st9" cx="325" cy="186.9" r="0.6"/>
	<circle class="st9" cx="326.6" cy="186.9" r="0.6"/>
	<circle class="st9" cx="293.9" cy="185.5" r="0.6"/>
	<circle class="st9" cx="295.5" cy="185.5" r="0.6"/>
	<circle class="st9" cx="297" cy="185.5" r="0.6"/>
	<circle class="st9" cx="298.6" cy="185.5" r="0.6"/>
	<circle class="st9" cx="300.1" cy="185.5" r="0.6"/>
	<circle class="st9" cx="301.7" cy="185.5" r="0.6"/>
	<circle class="st9" cx="303.2" cy="185.5" r="0.6"/>
	<circle class="st9" cx="304.8" cy="185.5" r="0.6"/>
	<circle class="st9" cx="306.4" cy="185.5" r="0.6"/>
	<circle class="st9" cx="307.9" cy="185.5" r="0.6"/>
	<circle class="st9" cx="309.5" cy="185.5" r="0.6"/>
	<circle class="st9" cx="311" cy="185.5" r="0.6"/>
	<circle class="st9" cx="312.6" cy="185.5" r="0.6"/>
	<circle class="st9" cx="314.1" cy="185.5" r="0.6"/>
	<circle class="st9" cx="315.7" cy="185.5" r="0.6"/>
	<circle class="st9" cx="317.3" cy="185.5" r="0.6"/>
	<circle class="st9" cx="318.8" cy="185.5" r="0.6"/>
	<circle class="st9" cx="320.4" cy="185.5" r="0.6"/>
	<circle class="st9" cx="321.9" cy="185.5" r="0.6"/>
	<circle class="st9" cx="323.5" cy="185.5" r="0.6"/>
	<circle class="st9" cx="325" cy="185.5" r="0.6"/>
	<circle class="st9" cx="326.6" cy="185.5" r="0.6"/>
	<circle class="st9" cx="293.9" cy="184" r="0.6"/>
	<circle class="st9" cx="295.5" cy="184" r="0.6"/>
	<circle class="st9" cx="297" cy="184" r="0.6"/>
	<circle class="st9" cx="298.6" cy="184" r="0.6"/>
	<circle class="st9" cx="300.1" cy="184" r="0.6"/>
	<circle class="st9" cx="301.7" cy="184" r="0.6"/>
	<circle class="st9" cx="303.2" cy="184" r="0.6"/>
	<circle class="st9" cx="304.8" cy="184" r="0.6"/>
	<circle class="st9" cx="306.4" cy="184" r="0.6"/>
	<circle class="st9" cx="307.9" cy="184" r="0.6"/>
	<circle class="st9" cx="309.5" cy="184" r="0.6"/>
	<circle class="st9" cx="311" cy="184" r="0.6"/>
	<circle class="st9" cx="312.6" cy="184" r="0.6"/>
	<circle class="st9" cx="314.1" cy="184" r="0.6"/>
	<circle class="st9" cx="315.7" cy="184" r="0.6"/>
	<circle class="st9" cx="317.3" cy="184" r="0.6"/>
	<circle class="st9" cx="318.8" cy="184" r="0.6"/>
	<circle class="st9" cx="320.4" cy="184" r="0.6"/>
	<circle class="st9" cx="321.9" cy="184" r="0.6"/>
	<circle class="st9" cx="323.5" cy="184" r="0.6"/>
	<circle class="st9" cx="325" cy="184" r="0.6"/>
	<circle class="st9" cx="326.6" cy="184" r="0.6"/>
	<circle class="st9" cx="293.9" cy="182.6" r="0.6"/>
	<circle class="st9" cx="295.5" cy="182.6" r="0.6"/>
	<circle class="st9" cx="297" cy="182.6" r="0.6"/>
	<circle class="st9" cx="298.6" cy="182.6" r="0.6"/>
	<circle class="st9" cx="300.1" cy="182.6" r="0.6"/>
	<circle class="st9" cx="301.7" cy="182.6" r="0.6"/>
	<circle class="st9" cx="303.2" cy="182.6" r="0.6"/>
	<circle class="st9" cx="304.8" cy="182.6" r="0.6"/>
	<circle class="st9" cx="306.4" cy="182.6" r="0.6"/>
	<circle class="st9" cx="307.9" cy="182.6" r="0.6"/>
	<circle class="st9" cx="309.5" cy="182.6" r="0.6"/>
	<circle class="st9" cx="311" cy="182.6" r="0.6"/>
	<circle class="st9" cx="312.6" cy="182.6" r="0.6"/>
	<circle class="st9" cx="314.1" cy="182.6" r="0.6"/>
	<circle class="st9" cx="315.7" cy="182.6" r="0.6"/>
	<circle class="st9" cx="317.3" cy="182.6" r="0.6"/>
	<circle class="st9" cx="318.8" cy="182.6" r="0.6"/>
	<circle class="st9" cx="320.4" cy="182.6" r="0.6"/>
	<circle class="st9" cx="321.9" cy="182.6" r="0.6"/>
	<circle class="st9" cx="323.5" cy="182.6" r="0.6"/>
	<circle class="st9" cx="325" cy="182.6" r="0.6"/>
	<circle class="st9" cx="326.6" cy="182.6" r="0.6"/>
	<circle class="st9" cx="293.9" cy="181.1" r="0.6"/>
	<circle class="st9" cx="295.5" cy="181.1" r="0.6"/>
	<circle class="st9" cx="297" cy="181.1" r="0.6"/>
	<circle class="st9" cx="298.6" cy="181.1" r="0.6"/>
	<circle class="st9" cx="300.1" cy="181.1" r="0.6"/>
	<circle class="st9" cx="301.7" cy="181.1" r="0.6"/>
	<circle class="st9" cx="303.2" cy="181.1" r="0.6"/>
	<circle class="st9" cx="304.8" cy="181.1" r="0.6"/>
	<circle class="st9" cx="306.4" cy="181.1" r="0.6"/>
	<circle class="st9" cx="307.9" cy="181.1" r="0.6"/>
	<circle class="st9" cx="309.5" cy="181.1" r="0.6"/>
	<circle class="st9" cx="311" cy="181.1" r="0.6"/>
	<circle class="st9" cx="312.6" cy="181.1" r="0.6"/>
	<circle class="st9" cx="314.1" cy="181.1" r="0.6"/>
	<circle class="st9" cx="315.7" cy="181.1" r="0.6"/>
	<circle class="st9" cx="317.3" cy="181.1" r="0.6"/>
	<circle class="st9" cx="318.8" cy="181.1" r="0.6"/>
	<circle class="st9" cx="320.4" cy="181.1" r="0.6"/>
	<circle class="st9" cx="321.9" cy="181.1" r="0.6"/>
	<circle class="st9" cx="323.5" cy="181.1" r="0.6"/>
	<circle class="st9" cx="325" cy="181.1" r="0.6"/>
	<circle class="st9" cx="326.6" cy="181.1" r="0.6"/>
	<circle class="st9" cx="293.9" cy="179.7" r="0.6"/>
	<circle class="st9" cx="295.5" cy="179.7" r="0.6"/>
	<circle class="st9" cx="297" cy="179.7" r="0.6"/>
	<circle class="st9" cx="298.6" cy="179.7" r="0.6"/>
	<circle class="st9" cx="300.1" cy="179.7" r="0.6"/>
	<circle class="st9" cx="301.7" cy="179.7" r="0.6"/>
	<circle class="st9" cx="303.2" cy="179.7" r="0.6"/>
	<circle class="st9" cx="304.8" cy="179.7" r="0.6"/>
	<circle class="st9" cx="306.4" cy="179.7" r="0.6"/>
	<circle class="st9" cx="307.9" cy="179.7" r="0.6"/>
	<circle class="st9" cx="309.5" cy="179.7" r="0.6"/>
	<circle class="st9" cx="311" cy="179.7" r="0.6"/>
	<circle class="st9" cx="312.6" cy="179.7" r="0.6"/>
	<circle class="st9" cx="314.1" cy="179.7" r="0.6"/>
	<circle class="st9" cx="315.7" cy="179.7" r="0.6"/>
	<circle class="st9" cx="317.3" cy="179.7" r="0.6"/>
	<circle class="st9" cx="318.8" cy="179.7" r="0.6"/>
	<circle class="st9" cx="320.4" cy="179.7" r="0.6"/>
	<circle class="st9" cx="321.9" cy="179.7" r="0.6"/>
	<circle class="st9" cx="323.5" cy="179.7" r="0.6"/>
	<circle class="st9" cx="325" cy="179.7" r="0.6"/>
	<circle class="st9" cx="326.6" cy="179.7" r="0.6"/>
	<circle class="st9" cx="293.9" cy="178.3" r="0.6"/>
	<circle class="st9" cx="295.5" cy="178.3" r="0.6"/>
	<circle class="st9" cx="297" cy="178.3" r="0.6"/>
	<circle class="st9" cx="298.6" cy="178.3" r="0.6"/>
	<circle class="st9" cx="300.1" cy="178.3" r="0.6"/>
	<circle class="st9" cx="301.7" cy="178.3" r="0.6"/>
	<circle class="st9" cx="303.2" cy="178.3" r="0.6"/>
	<circle class="st9" cx="304.8" cy="178.3" r="0.6"/>
	<circle class="st9" cx="306.4" cy="178.3" r="0.6"/>
	<circle class="st9" cx="307.9" cy="178.3" r="0.6"/>
	<circle class="st9" cx="309.5" cy="178.3" r="0.6"/>
	<circle class="st9" cx="311" cy="178.3" r="0.6"/>
	<circle class="st9" cx="312.6" cy="178.3" r="0.6"/>
	<circle class="st9" cx="314.1" cy="178.3" r="0.6"/>
	<circle class="st9" cx="315.7" cy="178.3" r="0.6"/>
	<circle class="st9" cx="317.3" cy="178.3" r="0.6"/>
	<circle class="st9" cx="318.8" cy="178.3" r="0.6"/>
	<circle class="st9" cx="320.4" cy="178.3" r="0.6"/>
	<circle class="st9" cx="321.9" cy="178.3" r="0.6"/>
	<circle class="st9" cx="323.5" cy="178.3" r="0.6"/>
	<circle class="st9" cx="325" cy="178.3" r="0.6"/>
	<circle class="st9" cx="326.6" cy="178.3" r="0.6"/>
	<circle class="st9" cx="293.9" cy="176.8" r="0.6"/>
	<circle class="st9" cx="295.5" cy="176.8" r="0.6"/>
	<circle class="st9" cx="297" cy="176.8" r="0.6"/>
	<circle class="st9" cx="298.6" cy="176.8" r="0.6"/>
	<circle class="st9" cx="300.1" cy="176.8" r="0.6"/>
	<circle class="st9" cx="301.7" cy="176.8" r="0.6"/>
	<circle class="st9" cx="303.2" cy="176.8" r="0.6"/>
	<circle class="st9" cx="304.8" cy="176.8" r="0.6"/>
	<circle class="st9" cx="306.4" cy="176.8" r="0.6"/>
	<circle class="st9" cx="307.9" cy="176.8" r="0.6"/>
	<circle class="st9" cx="309.5" cy="176.8" r="0.6"/>
	<circle class="st9" cx="311" cy="176.8" r="0.6"/>
	<circle class="st9" cx="312.6" cy="176.8" r="0.6"/>
	<circle class="st9" cx="314.1" cy="176.8" r="0.6"/>
	<circle class="st9" cx="315.7" cy="176.8" r="0.6"/>
	<circle class="st9" cx="317.3" cy="176.8" r="0.6"/>
	<circle class="st9" cx="318.8" cy="176.8" r="0.6"/>
	<circle class="st9" cx="320.4" cy="176.8" r="0.6"/>
	<circle class="st9" cx="321.9" cy="176.8" r="0.6"/>
	<circle class="st9" cx="323.5" cy="176.8" r="0.6"/>
	<circle class="st9" cx="325" cy="176.8" r="0.6"/>
	<circle class="st9" cx="326.6" cy="176.8" r="0.6"/>
	<circle class="st9" cx="293.9" cy="175.4" r="0.6"/>
	<circle class="st9" cx="295.5" cy="175.4" r="0.6"/>
	<circle class="st9" cx="297" cy="175.4" r="0.6"/>
	<circle class="st9" cx="298.6" cy="175.4" r="0.6"/>
	<circle class="st9" cx="300.1" cy="175.4" r="0.6"/>
	<circle class="st9" cx="301.7" cy="175.4" r="0.6"/>
	<circle class="st9" cx="303.2" cy="175.4" r="0.6"/>
	<circle class="st9" cx="304.8" cy="175.4" r="0.6"/>
	<circle class="st9" cx="306.4" cy="175.4" r="0.6"/>
	<circle class="st9" cx="307.9" cy="175.4" r="0.6"/>
	<circle class="st9" cx="309.5" cy="175.4" r="0.6"/>
	<circle class="st9" cx="311" cy="175.4" r="0.6"/>
	<circle class="st9" cx="312.6" cy="175.4" r="0.6"/>
	<circle class="st9" cx="314.1" cy="175.4" r="0.6"/>
	<circle class="st9" cx="315.7" cy="175.4" r="0.6"/>
	<circle class="st9" cx="317.3" cy="175.4" r="0.6"/>
	<circle class="st9" cx="318.8" cy="175.4" r="0.6"/>
	<circle class="st9" cx="320.4" cy="175.4" r="0.6"/>
	<circle class="st9" cx="321.9" cy="175.4" r="0.6"/>
	<circle class="st9" cx="323.5" cy="175.4" r="0.6"/>
	<circle class="st9" cx="325" cy="175.4" r="0.6"/>
	<circle class="st9" cx="326.6" cy="175.4" r="0.6"/>
	<circle class="st9" cx="293.9" cy="173.9" r="0.6"/>
	<circle class="st9" cx="295.5" cy="173.9" r="0.6"/>
	<circle class="st9" cx="297" cy="173.9" r="0.6"/>
	<circle class="st9" cx="298.6" cy="173.9" r="0.6"/>
	<circle class="st9" cx="300.1" cy="173.9" r="0.6"/>
	<circle class="st9" cx="301.7" cy="173.9" r="0.6"/>
	<circle class="st9" cx="303.2" cy="173.9" r="0.6"/>
	<circle class="st9" cx="304.8" cy="173.9" r="0.6"/>
	<circle class="st9" cx="306.4" cy="173.9" r="0.6"/>
	<circle class="st9" cx="307.9" cy="173.9" r="0.6"/>
	<circle class="st9" cx="309.5" cy="173.9" r="0.6"/>
	<circle class="st9" cx="311" cy="173.9" r="0.6"/>
	<circle class="st9" cx="312.6" cy="173.9" r="0.6"/>
	<circle class="st9" cx="314.1" cy="173.9" r="0.6"/>
	<circle class="st9" cx="315.7" cy="173.9" r="0.6"/>
	<circle class="st9" cx="317.3" cy="173.9" r="0.6"/>
	<circle class="st9" cx="318.8" cy="173.9" r="0.6"/>
	<circle class="st9" cx="320.4" cy="173.9" r="0.6"/>
	<circle class="st9" cx="321.9" cy="173.9" r="0.6"/>
	<circle class="st9" cx="323.5" cy="173.9" r="0.6"/>
	<circle class="st9" cx="325" cy="173.9" r="0.6"/>
	<circle class="st9" cx="326.6" cy="173.9" r="0.6"/>
	<circle class="st9" cx="293.9" cy="172.5" r="0.6"/>
	<circle class="st9" cx="295.5" cy="172.5" r="0.6"/>
	<circle class="st9" cx="297" cy="172.5" r="0.6"/>
	<circle class="st9" cx="298.6" cy="172.5" r="0.6"/>
	<circle class="st9" cx="300.1" cy="172.5" r="0.6"/>
	<circle class="st9" cx="301.7" cy="172.5" r="0.6"/>
	<circle class="st9" cx="303.2" cy="172.5" r="0.6"/>
	<circle class="st9" cx="304.8" cy="172.5" r="0.6"/>
	<circle class="st9" cx="306.4" cy="172.5" r="0.6"/>
	<circle class="st9" cx="307.9" cy="172.5" r="0.6"/>
	<circle class="st9" cx="309.5" cy="172.5" r="0.6"/>
	<circle class="st9" cx="311" cy="172.5" r="0.6"/>
	<circle class="st9" cx="312.6" cy="172.5" r="0.6"/>
	<circle class="st9" cx="314.1" cy="172.5" r="0.6"/>
	<circle class="st9" cx="315.7" cy="172.5" r="0.6"/>
	<circle class="st9" cx="317.3" cy="172.5" r="0.6"/>
	<circle class="st9" cx="318.8" cy="172.5" r="0.6"/>
	<circle class="st9" cx="320.4" cy="172.5" r="0.6"/>
	<circle class="st9" cx="321.9" cy="172.5" r="0.6"/>
	<circle class="st9" cx="323.5" cy="172.5" r="0.6"/>
	<circle class="st9" cx="325" cy="172.5" r="0.6"/>
	<circle class="st9" cx="326.6" cy="172.5" r="0.6"/>
	<circle class="st9" cx="293.9" cy="171.1" r="0.6"/>
	<circle class="st9" cx="295.5" cy="171.1" r="0.6"/>
	<circle class="st9" cx="297" cy="171.1" r="0.6"/>
	<circle class="st9" cx="298.6" cy="171.1" r="0.6"/>
	<circle class="st9" cx="300.1" cy="171.1" r="0.6"/>
	<circle class="st9" cx="301.7" cy="171.1" r="0.6"/>
	<circle class="st9" cx="303.2" cy="171.1" r="0.6"/>
	<circle class="st9" cx="304.8" cy="171.1" r="0.6"/>
	<circle class="st9" cx="306.4" cy="171.1" r="0.6"/>
	<circle class="st9" cx="307.9" cy="171.1" r="0.6"/>
	<circle class="st9" cx="309.5" cy="171.1" r="0.6"/>
	<circle class="st9" cx="311" cy="171.1" r="0.6"/>
	<circle class="st9" cx="312.6" cy="171.1" r="0.6"/>
	<circle class="st9" cx="314.1" cy="171.1" r="0.6"/>
	<circle class="st9" cx="315.7" cy="171.1" r="0.6"/>
	<circle class="st9" cx="317.3" cy="171.1" r="0.6"/>
	<circle class="st9" cx="318.8" cy="171.1" r="0.6"/>
	<circle class="st9" cx="320.4" cy="171.1" r="0.6"/>
	<circle class="st9" cx="321.9" cy="171.1" r="0.6"/>
	<circle class="st9" cx="323.5" cy="171.1" r="0.6"/>
	<circle class="st9" cx="325" cy="171.1" r="0.6"/>
	<circle class="st9" cx="326.6" cy="171.1" r="0.6"/>
	<circle class="st9" cx="293.9" cy="169.6" r="0.6"/>
	<circle class="st9" cx="295.5" cy="169.6" r="0.6"/>
	<circle class="st9" cx="297" cy="169.6" r="0.6"/>
	<circle class="st9" cx="298.6" cy="169.6" r="0.6"/>
	<circle class="st9" cx="300.1" cy="169.6" r="0.6"/>
	<circle class="st9" cx="301.7" cy="169.6" r="0.6"/>
	<circle class="st9" cx="303.2" cy="169.6" r="0.6"/>
	<circle class="st9" cx="304.8" cy="169.6" r="0.6"/>
	<circle class="st9" cx="306.4" cy="169.6" r="0.6"/>
	<circle class="st9" cx="307.9" cy="169.6" r="0.6"/>
	<circle class="st9" cx="309.5" cy="169.6" r="0.6"/>
	<circle class="st9" cx="311" cy="169.6" r="0.6"/>
	<circle class="st9" cx="312.6" cy="169.6" r="0.6"/>
	<circle class="st9" cx="314.1" cy="169.6" r="0.6"/>
	<circle class="st9" cx="315.7" cy="169.6" r="0.6"/>
	<circle class="st9" cx="317.3" cy="169.6" r="0.6"/>
	<circle class="st9" cx="318.8" cy="169.6" r="0.6"/>
	<circle class="st9" cx="320.4" cy="169.6" r="0.6"/>
	<circle class="st9" cx="321.9" cy="169.6" r="0.6"/>
	<circle class="st9" cx="323.5" cy="169.6" r="0.6"/>
	<circle class="st9" cx="325" cy="169.6" r="0.6"/>
	<circle class="st9" cx="326.6" cy="169.6" r="0.6"/>
	<circle class="st9" cx="293.9" cy="168.2" r="0.6"/>
	<circle class="st9" cx="295.5" cy="168.2" r="0.6"/>
	<circle class="st9" cx="297" cy="168.2" r="0.6"/>
	<circle class="st9" cx="298.6" cy="168.2" r="0.6"/>
	<circle class="st9" cx="300.1" cy="168.2" r="0.6"/>
	<circle class="st9" cx="301.7" cy="168.2" r="0.6"/>
	<circle class="st9" cx="303.2" cy="168.2" r="0.6"/>
	<circle class="st9" cx="304.8" cy="168.2" r="0.6"/>
	<circle class="st9" cx="306.4" cy="168.2" r="0.6"/>
	<circle class="st9" cx="307.9" cy="168.2" r="0.6"/>
	<circle class="st9" cx="309.5" cy="168.2" r="0.6"/>
	<circle class="st9" cx="311" cy="168.2" r="0.6"/>
	<circle class="st9" cx="312.6" cy="168.2" r="0.6"/>
	<circle class="st9" cx="314.1" cy="168.2" r="0.6"/>
	<circle class="st9" cx="315.7" cy="168.2" r="0.6"/>
	<circle class="st9" cx="317.3" cy="168.2" r="0.6"/>
	<circle class="st9" cx="318.8" cy="168.2" r="0.6"/>
	<circle class="st9" cx="320.4" cy="168.2" r="0.6"/>
	<circle class="st9" cx="321.9" cy="168.2" r="0.6"/>
	<circle class="st9" cx="323.5" cy="168.2" r="0.6"/>
	<circle class="st9" cx="325" cy="168.2" r="0.6"/>
	<circle class="st9" cx="326.6" cy="168.2" r="0.6"/>
	<circle class="st9" cx="293.9" cy="166.7" r="0.6"/>
	<circle class="st9" cx="295.5" cy="166.7" r="0.6"/>
	<circle class="st9" cx="297" cy="166.7" r="0.6"/>
	<circle class="st9" cx="298.6" cy="166.7" r="0.6"/>
	<circle class="st9" cx="300.1" cy="166.7" r="0.6"/>
	<circle class="st9" cx="301.7" cy="166.7" r="0.6"/>
	<circle class="st9" cx="303.2" cy="166.7" r="0.6"/>
	<circle class="st9" cx="304.8" cy="166.7" r="0.6"/>
	<circle class="st9" cx="306.4" cy="166.7" r="0.6"/>
	<circle class="st9" cx="307.9" cy="166.7" r="0.6"/>
	<circle class="st9" cx="309.5" cy="166.7" r="0.6"/>
	<circle class="st9" cx="311" cy="166.7" r="0.6"/>
	<circle class="st9" cx="312.6" cy="166.7" r="0.6"/>
	<circle class="st9" cx="314.1" cy="166.7" r="0.6"/>
	<circle class="st9" cx="315.7" cy="166.7" r="0.6"/>
	<circle class="st9" cx="317.3" cy="166.7" r="0.6"/>
	<circle class="st9" cx="318.8" cy="166.7" r="0.6"/>
	<circle class="st9" cx="320.4" cy="166.7" r="0.6"/>
	<circle class="st9" cx="321.9" cy="166.7" r="0.6"/>
	<circle class="st9" cx="323.5" cy="166.7" r="0.6"/>
	<circle class="st9" cx="325" cy="166.7" r="0.6"/>
	<circle class="st9" cx="326.6" cy="166.7" r="0.6"/>
	<circle class="st9" cx="293.9" cy="165.3" r="0.6"/>
	<circle class="st9" cx="295.5" cy="165.3" r="0.6"/>
	<circle class="st9" cx="297" cy="165.3" r="0.6"/>
	<circle class="st9" cx="298.6" cy="165.3" r="0.6"/>
	<circle class="st9" cx="300.1" cy="165.3" r="0.6"/>
	<circle class="st9" cx="301.7" cy="165.3" r="0.6"/>
	<circle class="st9" cx="303.2" cy="165.3" r="0.6"/>
	<circle class="st9" cx="304.8" cy="165.3" r="0.6"/>
	<circle class="st9" cx="306.4" cy="165.3" r="0.6"/>
	<circle class="st9" cx="307.9" cy="165.3" r="0.6"/>
	<circle class="st9" cx="309.5" cy="165.3" r="0.6"/>
	<circle class="st9" cx="311" cy="165.3" r="0.6"/>
	<circle class="st9" cx="312.6" cy="165.3" r="0.6"/>
	<circle class="st9" cx="314.1" cy="165.3" r="0.6"/>
	<circle class="st9" cx="315.7" cy="165.3" r="0.6"/>
	<circle class="st9" cx="317.3" cy="165.3" r="0.6"/>
	<circle class="st9" cx="318.8" cy="165.3" r="0.6"/>
	<circle class="st9" cx="320.4" cy="165.3" r="0.6"/>
	<circle class="st9" cx="321.9" cy="165.3" r="0.6"/>
	<circle class="st9" cx="323.5" cy="165.3" r="0.6"/>
	<circle class="st9" cx="325" cy="165.3" r="0.6"/>
	<circle class="st9" cx="326.6" cy="165.3" r="0.6"/>
	<circle class="st9" cx="293.9" cy="163.8" r="0.6"/>
	<circle class="st9" cx="295.5" cy="163.8" r="0.6"/>
	<circle class="st9" cx="297" cy="163.8" r="0.6"/>
	<circle class="st9" cx="298.6" cy="163.8" r="0.6"/>
	<circle class="st9" cx="300.1" cy="163.8" r="0.6"/>
	<circle class="st9" cx="301.7" cy="163.8" r="0.6"/>
	<circle class="st9" cx="303.2" cy="163.8" r="0.6"/>
	<circle class="st9" cx="304.8" cy="163.8" r="0.6"/>
	<circle class="st9" cx="306.4" cy="163.8" r="0.6"/>
	<circle class="st9" cx="307.9" cy="163.8" r="0.6"/>
	<circle class="st9" cx="309.5" cy="163.8" r="0.6"/>
	<circle class="st9" cx="311" cy="163.8" r="0.6"/>
	<circle class="st9" cx="312.6" cy="163.8" r="0.6"/>
	<circle class="st9" cx="314.1" cy="163.8" r="0.6"/>
	<circle class="st9" cx="315.7" cy="163.8" r="0.6"/>
	<circle class="st9" cx="317.3" cy="163.8" r="0.6"/>
	<circle class="st9" cx="318.8" cy="163.8" r="0.6"/>
	<circle class="st9" cx="320.4" cy="163.8" r="0.6"/>
	<circle class="st9" cx="321.9" cy="163.8" r="0.6"/>
	<circle class="st9" cx="323.5" cy="163.8" r="0.6"/>
	<circle class="st9" cx="325" cy="163.8" r="0.6"/>
	<circle class="st9" cx="326.6" cy="163.8" r="0.6"/>
	<circle class="st9" cx="293.9" cy="162.4" r="0.6"/>
	<circle class="st9" cx="295.5" cy="162.4" r="0.6"/>
	<circle class="st9" cx="297" cy="162.4" r="0.6"/>
	<circle class="st9" cx="298.6" cy="162.4" r="0.6"/>
	<circle class="st9" cx="300.1" cy="162.4" r="0.6"/>
	<circle class="st9" cx="301.7" cy="162.4" r="0.6"/>
	<circle class="st9" cx="303.2" cy="162.4" r="0.6"/>
	<circle class="st9" cx="304.8" cy="162.4" r="0.6"/>
	<circle class="st9" cx="306.4" cy="162.4" r="0.6"/>
	<circle class="st9" cx="307.9" cy="162.4" r="0.6"/>
	<circle class="st9" cx="309.5" cy="162.4" r="0.6"/>
	<circle class="st9" cx="311" cy="162.4" r="0.6"/>
	<circle class="st9" cx="312.6" cy="162.4" r="0.6"/>
	<circle class="st9" cx="314.1" cy="162.4" r="0.6"/>
	<circle class="st9" cx="315.7" cy="162.4" r="0.6"/>
	<circle class="st9" cx="317.3" cy="162.4" r="0.6"/>
	<circle class="st9" cx="318.8" cy="162.4" r="0.6"/>
	<circle class="st9" cx="320.4" cy="162.4" r="0.6"/>
	<circle class="st9" cx="321.9" cy="162.4" r="0.6"/>
	<circle class="st9" cx="323.5" cy="162.4" r="0.6"/>
	<circle class="st9" cx="325" cy="162.4" r="0.6"/>
	<circle class="st9" cx="326.6" cy="162.4" r="0.6"/>
	<circle class="st9" cx="293.9" cy="161" r="0.6"/>
	<circle class="st9" cx="295.5" cy="161" r="0.6"/>
	<circle class="st9" cx="297" cy="161" r="0.6"/>
	<circle class="st9" cx="298.6" cy="161" r="0.6"/>
	<circle class="st9" cx="300.1" cy="161" r="0.6"/>
	<circle class="st9" cx="301.7" cy="161" r="0.6"/>
	<circle class="st9" cx="303.2" cy="161" r="0.6"/>
	<circle class="st9" cx="304.8" cy="161" r="0.6"/>
	<circle class="st9" cx="306.4" cy="161" r="0.6"/>
	<circle class="st9" cx="307.9" cy="161" r="0.6"/>
	<circle class="st9" cx="309.5" cy="161" r="0.6"/>
	<circle class="st9" cx="311" cy="161" r="0.6"/>
	<circle class="st9" cx="312.6" cy="161" r="0.6"/>
	<circle class="st9" cx="314.1" cy="161" r="0.6"/>
	<circle class="st9" cx="315.7" cy="161" r="0.6"/>
	<circle class="st9" cx="317.3" cy="161" r="0.6"/>
	<circle class="st9" cx="318.8" cy="161" r="0.6"/>
	<circle class="st9" cx="320.4" cy="161" r="0.6"/>
	<circle class="st9" cx="321.9" cy="161" r="0.6"/>
	<circle class="st9" cx="323.5" cy="161" r="0.6"/>
	<circle class="st9" cx="325" cy="161" r="0.6"/>
	<circle class="st9" cx="326.6" cy="161" r="0.6"/>
	<circle class="st9" cx="293.9" cy="159.5" r="0.6"/>
	<circle class="st9" cx="295.5" cy="159.5" r="0.6"/>
	<circle class="st9" cx="297" cy="159.5" r="0.6"/>
	<circle class="st9" cx="298.6" cy="159.5" r="0.6"/>
	<circle class="st9" cx="300.1" cy="159.5" r="0.6"/>
	<circle class="st9" cx="301.7" cy="159.5" r="0.6"/>
	<circle class="st9" cx="303.2" cy="159.5" r="0.6"/>
	<circle class="st9" cx="304.8" cy="159.5" r="0.6"/>
	<circle class="st9" cx="306.4" cy="159.5" r="0.6"/>
	<circle class="st9" cx="307.9" cy="159.5" r="0.6"/>
	<circle class="st9" cx="309.5" cy="159.5" r="0.6"/>
	<circle class="st9" cx="311" cy="159.5" r="0.6"/>
	<circle class="st9" cx="312.6" cy="159.5" r="0.6"/>
	<circle class="st9" cx="314.1" cy="159.5" r="0.6"/>
	<circle class="st9" cx="315.7" cy="159.5" r="0.6"/>
	<circle class="st9" cx="317.3" cy="159.5" r="0.6"/>
	<circle class="st9" cx="318.8" cy="159.5" r="0.6"/>
	<circle class="st9" cx="320.4" cy="159.5" r="0.6"/>
	<circle class="st9" cx="321.9" cy="159.5" r="0.6"/>
	<circle class="st9" cx="323.5" cy="159.5" r="0.6"/>
	<circle class="st9" cx="325" cy="159.5" r="0.6"/>
	<circle class="st9" cx="326.6" cy="159.5" r="0.6"/>
	<circle class="st9" cx="293.9" cy="158.1" r="0.6"/>
	<circle class="st9" cx="295.5" cy="158.1" r="0.6"/>
	<circle class="st9" cx="297" cy="158.1" r="0.6"/>
	<circle class="st9" cx="298.6" cy="158.1" r="0.6"/>
	<circle class="st9" cx="300.1" cy="158.1" r="0.6"/>
	<circle class="st9" cx="301.7" cy="158.1" r="0.6"/>
	<circle class="st9" cx="303.2" cy="158.1" r="0.6"/>
	<circle class="st9" cx="304.8" cy="158.1" r="0.6"/>
	<circle class="st9" cx="306.4" cy="158.1" r="0.6"/>
	<circle class="st9" cx="307.9" cy="158.1" r="0.6"/>
	<circle class="st9" cx="309.5" cy="158.1" r="0.6"/>
	<circle class="st9" cx="311" cy="158.1" r="0.6"/>
	<circle class="st9" cx="312.6" cy="158.1" r="0.6"/>
	<circle class="st9" cx="314.1" cy="158.1" r="0.6"/>
	<circle class="st9" cx="315.7" cy="158.1" r="0.6"/>
	<circle class="st9" cx="317.3" cy="158.1" r="0.6"/>
	<circle class="st9" cx="318.8" cy="158.1" r="0.6"/>
	<circle class="st9" cx="320.4" cy="158.1" r="0.6"/>
	<circle class="st9" cx="321.9" cy="158.1" r="0.6"/>
	<circle class="st9" cx="323.5" cy="158.1" r="0.6"/>
	<circle class="st9" cx="325" cy="158.1" r="0.6"/>
	<circle class="st9" cx="326.6" cy="158.1" r="0.6"/>
	<circle class="st9" cx="293.9" cy="156.6" r="0.6"/>
	<circle class="st9" cx="295.5" cy="156.6" r="0.6"/>
	<circle class="st9" cx="297" cy="156.6" r="0.6"/>
	<circle class="st9" cx="298.6" cy="156.6" r="0.6"/>
	<circle class="st9" cx="300.1" cy="156.6" r="0.6"/>
	<circle class="st9" cx="301.7" cy="156.6" r="0.6"/>
	<circle class="st9" cx="303.2" cy="156.6" r="0.6"/>
	<circle class="st9" cx="304.8" cy="156.6" r="0.6"/>
	<circle class="st9" cx="306.4" cy="156.6" r="0.6"/>
	<circle class="st9" cx="307.9" cy="156.6" r="0.6"/>
	<circle class="st9" cx="309.5" cy="156.6" r="0.6"/>
	<circle class="st9" cx="311" cy="156.6" r="0.6"/>
	<circle class="st9" cx="312.6" cy="156.6" r="0.6"/>
	<circle class="st9" cx="314.1" cy="156.6" r="0.6"/>
	<circle class="st9" cx="315.7" cy="156.6" r="0.6"/>
	<circle class="st9" cx="317.3" cy="156.6" r="0.6"/>
	<circle class="st9" cx="318.8" cy="156.6" r="0.6"/>
	<circle class="st9" cx="320.4" cy="156.6" r="0.6"/>
	<circle class="st9" cx="321.9" cy="156.6" r="0.6"/>
	<circle class="st9" cx="323.5" cy="156.6" r="0.6"/>
	<circle class="st9" cx="325" cy="156.6" r="0.6"/>
	<circle class="st9" cx="326.6" cy="156.6" r="0.6"/>
	<circle class="st9" cx="293.9" cy="155.2" r="0.6"/>
	<circle class="st9" cx="295.5" cy="155.2" r="0.6"/>
	<circle class="st9" cx="297" cy="155.2" r="0.6"/>
	<circle class="st9" cx="298.6" cy="155.2" r="0.6"/>
	<circle class="st9" cx="300.1" cy="155.2" r="0.6"/>
	<circle class="st9" cx="301.7" cy="155.2" r="0.6"/>
	<circle class="st9" cx="303.2" cy="155.2" r="0.6"/>
	<circle class="st9" cx="304.8" cy="155.2" r="0.6"/>
	<circle class="st9" cx="306.4" cy="155.2" r="0.6"/>
	<circle class="st9" cx="307.9" cy="155.2" r="0.6"/>
	<circle class="st9" cx="309.5" cy="155.2" r="0.6"/>
	<circle class="st9" cx="311" cy="155.2" r="0.6"/>
	<circle class="st9" cx="312.6" cy="155.2" r="0.6"/>
	<circle class="st9" cx="314.1" cy="155.2" r="0.6"/>
	<circle class="st9" cx="315.7" cy="155.2" r="0.6"/>
	<circle class="st9" cx="317.3" cy="155.2" r="0.6"/>
	<circle class="st9" cx="318.8" cy="155.2" r="0.6"/>
	<circle class="st9" cx="320.4" cy="155.2" r="0.6"/>
	<circle class="st9" cx="321.9" cy="155.2" r="0.6"/>
	<circle class="st9" cx="323.5" cy="155.2" r="0.6"/>
	<circle class="st9" cx="325" cy="155.2" r="0.6"/>
	<circle class="st9" cx="326.6" cy="155.2" r="0.6"/>
	<circle class="st9" cx="293.9" cy="153.8" r="0.6"/>
	<circle class="st9" cx="295.5" cy="153.8" r="0.6"/>
	<circle class="st9" cx="297" cy="153.8" r="0.6"/>
	<circle class="st9" cx="298.6" cy="153.8" r="0.6"/>
	<circle class="st9" cx="300.1" cy="153.8" r="0.6"/>
	<circle class="st9" cx="301.7" cy="153.8" r="0.6"/>
	<circle class="st9" cx="303.2" cy="153.8" r="0.6"/>
	<circle class="st9" cx="304.8" cy="153.8" r="0.6"/>
	<circle class="st9" cx="306.4" cy="153.8" r="0.6"/>
	<circle class="st9" cx="307.9" cy="153.8" r="0.6"/>
	<circle class="st9" cx="309.5" cy="153.8" r="0.6"/>
	<circle class="st9" cx="311" cy="153.8" r="0.6"/>
	<circle class="st9" cx="312.6" cy="153.8" r="0.6"/>
	<circle class="st9" cx="314.1" cy="153.8" r="0.6"/>
	<circle class="st9" cx="315.7" cy="153.8" r="0.6"/>
	<circle class="st9" cx="317.3" cy="153.8" r="0.6"/>
	<circle class="st9" cx="318.8" cy="153.8" r="0.6"/>
	<circle class="st9" cx="320.4" cy="153.8" r="0.6"/>
	<circle class="st9" cx="321.9" cy="153.8" r="0.6"/>
	<circle class="st9" cx="323.5" cy="153.8" r="0.6"/>
	<circle class="st9" cx="325" cy="153.8" r="0.6"/>
	<circle class="st9" cx="326.6" cy="153.8" r="0.6"/>
	<circle class="st9" cx="293.9" cy="152.3" r="0.6"/>
	<circle class="st9" cx="295.5" cy="152.3" r="0.6"/>
	<circle class="st9" cx="297" cy="152.3" r="0.6"/>
	<circle class="st9" cx="298.6" cy="152.3" r="0.6"/>
	<circle class="st9" cx="300.1" cy="152.3" r="0.6"/>
	<circle class="st9" cx="301.7" cy="152.3" r="0.6"/>
	<circle class="st9" cx="303.2" cy="152.3" r="0.6"/>
	<circle class="st9" cx="304.8" cy="152.3" r="0.6"/>
	<circle class="st9" cx="306.4" cy="152.3" r="0.6"/>
	<circle class="st9" cx="307.9" cy="152.3" r="0.6"/>
	<circle class="st9" cx="309.5" cy="152.3" r="0.6"/>
	<circle class="st9" cx="311" cy="152.3" r="0.6"/>
	<circle class="st9" cx="312.6" cy="152.3" r="0.6"/>
	<circle class="st9" cx="314.1" cy="152.3" r="0.6"/>
	<circle class="st9" cx="315.7" cy="152.3" r="0.6"/>
	<circle class="st9" cx="317.3" cy="152.3" r="0.6"/>
	<circle class="st9" cx="318.8" cy="152.3" r="0.6"/>
	<circle class="st9" cx="320.4" cy="152.3" r="0.6"/>
	<circle class="st9" cx="321.9" cy="152.3" r="0.6"/>
	<circle class="st9" cx="323.5" cy="152.3" r="0.6"/>
	<circle class="st9" cx="325" cy="152.3" r="0.6"/>
	<circle class="st9" cx="326.6" cy="152.3" r="0.6"/>
	<circle class="st9" cx="293.9" cy="150.9" r="0.6"/>
	<circle class="st9" cx="295.5" cy="150.9" r="0.6"/>
	<circle class="st9" cx="297" cy="150.9" r="0.6"/>
	<circle class="st9" cx="298.6" cy="150.9" r="0.6"/>
	<circle class="st9" cx="300.1" cy="150.9" r="0.6"/>
	<circle class="st9" cx="301.7" cy="150.9" r="0.6"/>
	<circle class="st9" cx="303.2" cy="150.9" r="0.6"/>
	<circle class="st9" cx="304.8" cy="150.9" r="0.6"/>
	<circle class="st9" cx="306.4" cy="150.9" r="0.6"/>
	<circle class="st9" cx="307.9" cy="150.9" r="0.6"/>
	<circle class="st9" cx="309.5" cy="150.9" r="0.6"/>
	<circle class="st9" cx="311" cy="150.9" r="0.6"/>
	<circle class="st9" cx="312.6" cy="150.9" r="0.6"/>
	<circle class="st9" cx="314.1" cy="150.9" r="0.6"/>
	<circle class="st9" cx="315.7" cy="150.9" r="0.6"/>
	<circle class="st9" cx="317.3" cy="150.9" r="0.6"/>
	<circle class="st9" cx="318.8" cy="150.9" r="0.6"/>
	<circle class="st9" cx="320.4" cy="150.9" r="0.6"/>
	<circle class="st9" cx="321.9" cy="150.9" r="0.6"/>
	<circle class="st9" cx="323.5" cy="150.9" r="0.6"/>
	<circle class="st9" cx="325" cy="150.9" r="0.6"/>
	<circle class="st9" cx="326.6" cy="150.9" r="0.6"/>
	<circle class="st9" cx="293.9" cy="149.4" r="0.6"/>
	<circle class="st9" cx="295.5" cy="149.4" r="0.6"/>
	<circle class="st9" cx="297" cy="149.4" r="0.6"/>
	<circle class="st9" cx="298.6" cy="149.4" r="0.6"/>
	<circle class="st9" cx="300.1" cy="149.4" r="0.6"/>
	<circle class="st9" cx="301.7" cy="149.4" r="0.6"/>
	<circle class="st9" cx="303.2" cy="149.4" r="0.6"/>
	<circle class="st9" cx="304.8" cy="149.4" r="0.6"/>
	<circle class="st9" cx="306.4" cy="149.4" r="0.6"/>
	<circle class="st9" cx="307.9" cy="149.4" r="0.6"/>
	<circle class="st9" cx="309.5" cy="149.4" r="0.6"/>
	<circle class="st9" cx="311" cy="149.4" r="0.6"/>
	<circle class="st9" cx="312.6" cy="149.4" r="0.6"/>
	<circle class="st9" cx="314.1" cy="149.4" r="0.6"/>
	<circle class="st9" cx="315.7" cy="149.4" r="0.6"/>
	<circle class="st9" cx="317.3" cy="149.4" r="0.6"/>
	<circle class="st9" cx="318.8" cy="149.4" r="0.6"/>
	<circle class="st9" cx="320.4" cy="149.4" r="0.6"/>
	<circle class="st9" cx="321.9" cy="149.4" r="0.6"/>
	<circle class="st9" cx="323.5" cy="149.4" r="0.6"/>
	<circle class="st9" cx="325" cy="149.4" r="0.6"/>
	<circle class="st9" cx="326.6" cy="149.4" r="0.6"/>
	<circle class="st9" cx="293.9" cy="148" r="0.6"/>
	<circle class="st9" cx="295.5" cy="148" r="0.6"/>
	<circle class="st9" cx="297" cy="148" r="0.6"/>
	<circle class="st9" cx="298.6" cy="148" r="0.6"/>
	<circle class="st9" cx="300.1" cy="148" r="0.6"/>
	<circle class="st9" cx="301.7" cy="148" r="0.6"/>
	<circle class="st9" cx="303.2" cy="148" r="0.6"/>
	<circle class="st9" cx="304.8" cy="148" r="0.6"/>
	<circle class="st9" cx="306.4" cy="148" r="0.6"/>
	<circle class="st9" cx="307.9" cy="148" r="0.6"/>
	<circle class="st9" cx="309.5" cy="148" r="0.6"/>
	<circle class="st9" cx="311" cy="148" r="0.6"/>
	<circle class="st9" cx="312.6" cy="148" r="0.6"/>
	<circle class="st9" cx="314.1" cy="148" r="0.6"/>
	<circle class="st9" cx="315.7" cy="148" r="0.6"/>
	<circle class="st9" cx="317.3" cy="148" r="0.6"/>
	<circle class="st9" cx="318.8" cy="148" r="0.6"/>
	<circle class="st9" cx="320.4" cy="148" r="0.6"/>
	<circle class="st9" cx="321.9" cy="148" r="0.6"/>
	<circle class="st9" cx="323.5" cy="148" r="0.6"/>
	<circle class="st9" cx="325" cy="148" r="0.6"/>
	<circle class="st9" cx="326.6" cy="148" r="0.6"/>
	<circle class="st9" cx="293.9" cy="146.5" r="0.6"/>
	<circle class="st9" cx="295.5" cy="146.5" r="0.6"/>
	<circle class="st9" cx="297" cy="146.5" r="0.6"/>
	<circle class="st9" cx="298.6" cy="146.5" r="0.6"/>
	<circle class="st9" cx="300.1" cy="146.5" r="0.6"/>
	<circle class="st9" cx="301.7" cy="146.5" r="0.6"/>
	<circle class="st9" cx="303.2" cy="146.5" r="0.6"/>
	<circle class="st9" cx="304.8" cy="146.5" r="0.6"/>
	<circle class="st9" cx="306.4" cy="146.5" r="0.6"/>
	<circle class="st9" cx="307.9" cy="146.5" r="0.6"/>
	<circle class="st9" cx="309.5" cy="146.5" r="0.6"/>
	<circle class="st9" cx="311" cy="146.5" r="0.6"/>
	<circle class="st9" cx="312.6" cy="146.5" r="0.6"/>
	<circle class="st9" cx="314.1" cy="146.5" r="0.6"/>
	<circle class="st9" cx="315.7" cy="146.5" r="0.6"/>
	<circle class="st9" cx="317.3" cy="146.5" r="0.6"/>
	<circle class="st9" cx="318.8" cy="146.5" r="0.6"/>
	<circle class="st9" cx="320.4" cy="146.5" r="0.6"/>
	<circle class="st9" cx="321.9" cy="146.5" r="0.6"/>
	<circle class="st9" cx="323.5" cy="146.5" r="0.6"/>
	<circle class="st9" cx="325" cy="146.5" r="0.6"/>
	<circle class="st9" cx="326.6" cy="146.5" r="0.6"/>
	<circle class="st9" cx="293.9" cy="145.1" r="0.6"/>
	<circle class="st9" cx="295.5" cy="145.1" r="0.6"/>
	<circle class="st9" cx="297" cy="145.1" r="0.6"/>
	<circle class="st9" cx="298.6" cy="145.1" r="0.6"/>
	<circle class="st9" cx="300.1" cy="145.1" r="0.6"/>
	<circle class="st9" cx="301.7" cy="145.1" r="0.6"/>
	<circle class="st9" cx="303.2" cy="145.1" r="0.6"/>
	<circle class="st9" cx="304.8" cy="145.1" r="0.6"/>
	<circle class="st9" cx="306.4" cy="145.1" r="0.6"/>
	<circle class="st9" cx="307.9" cy="145.1" r="0.6"/>
	<circle class="st9" cx="309.5" cy="145.1" r="0.6"/>
	<circle class="st9" cx="311" cy="145.1" r="0.6"/>
	<circle class="st9" cx="312.6" cy="145.1" r="0.6"/>
	<circle class="st9" cx="314.1" cy="145.1" r="0.6"/>
	<circle class="st9" cx="315.7" cy="145.1" r="0.6"/>
	<circle class="st9" cx="317.3" cy="145.1" r="0.6"/>
	<circle class="st9" cx="318.8" cy="145.1" r="0.6"/>
	<circle class="st9" cx="320.4" cy="145.1" r="0.6"/>
	<circle class="st9" cx="321.9" cy="145.1" r="0.6"/>
	<circle class="st9" cx="323.5" cy="145.1" r="0.6"/>
	<circle class="st9" cx="325" cy="145.1" r="0.6"/>
	<circle class="st9" cx="326.6" cy="145.1" r="0.6"/>
	<circle class="st9" cx="293.9" cy="143.7" r="0.6"/>
	<circle class="st9" cx="295.5" cy="143.7" r="0.6"/>
	<circle class="st9" cx="297" cy="143.7" r="0.6"/>
	<circle class="st9" cx="298.6" cy="143.7" r="0.6"/>
	<circle class="st9" cx="300.1" cy="143.7" r="0.6"/>
	<circle class="st9" cx="301.7" cy="143.7" r="0.6"/>
	<circle class="st9" cx="303.2" cy="143.7" r="0.6"/>
	<circle class="st9" cx="304.8" cy="143.7" r="0.6"/>
	<circle class="st9" cx="306.4" cy="143.7" r="0.6"/>
	<circle class="st9" cx="307.9" cy="143.7" r="0.6"/>
	<circle class="st9" cx="309.5" cy="143.7" r="0.6"/>
	<circle class="st9" cx="311" cy="143.7" r="0.6"/>
	<circle class="st9" cx="312.6" cy="143.7" r="0.6"/>
	<circle class="st9" cx="314.1" cy="143.7" r="0.6"/>
	<circle class="st9" cx="315.7" cy="143.7" r="0.6"/>
	<circle class="st9" cx="317.3" cy="143.7" r="0.6"/>
	<circle class="st9" cx="318.8" cy="143.7" r="0.6"/>
	<circle class="st9" cx="320.4" cy="143.7" r="0.6"/>
	<circle class="st9" cx="321.9" cy="143.7" r="0.6"/>
	<circle class="st9" cx="323.5" cy="143.7" r="0.6"/>
	<circle class="st9" cx="325" cy="143.7" r="0.6"/>
	<circle class="st9" cx="326.6" cy="143.7" r="0.6"/>
	<circle class="st9" cx="293.9" cy="142.2" r="0.6"/>
	<circle class="st9" cx="295.5" cy="142.2" r="0.6"/>
	<circle class="st9" cx="297" cy="142.2" r="0.6"/>
	<circle class="st9" cx="298.6" cy="142.2" r="0.6"/>
	<circle class="st9" cx="300.1" cy="142.2" r="0.6"/>
	<circle class="st9" cx="301.7" cy="142.2" r="0.6"/>
	<circle class="st9" cx="303.2" cy="142.2" r="0.6"/>
	<circle class="st9" cx="304.8" cy="142.2" r="0.6"/>
	<circle class="st9" cx="306.4" cy="142.2" r="0.6"/>
	<circle class="st9" cx="307.9" cy="142.2" r="0.6"/>
	<circle class="st9" cx="309.5" cy="142.2" r="0.6"/>
	<circle class="st9" cx="311" cy="142.2" r="0.6"/>
	<circle class="st9" cx="312.6" cy="142.2" r="0.6"/>
	<circle class="st9" cx="314.1" cy="142.2" r="0.6"/>
	<circle class="st9" cx="315.7" cy="142.2" r="0.6"/>
	<circle class="st9" cx="317.3" cy="142.2" r="0.6"/>
	<circle class="st9" cx="318.8" cy="142.2" r="0.6"/>
	<circle class="st9" cx="320.4" cy="142.2" r="0.6"/>
	<circle class="st9" cx="321.9" cy="142.2" r="0.6"/>
	<circle class="st9" cx="323.5" cy="142.2" r="0.6"/>
	<circle class="st9" cx="325" cy="142.2" r="0.6"/>
	<circle class="st9" cx="326.6" cy="142.2" r="0.6"/>
	<circle class="st9" cx="293.9" cy="140.8" r="0.6"/>
	<circle class="st9" cx="295.5" cy="140.8" r="0.6"/>
	<circle class="st9" cx="297" cy="140.8" r="0.6"/>
	<circle class="st9" cx="298.6" cy="140.8" r="0.6"/>
	<circle class="st9" cx="300.1" cy="140.8" r="0.6"/>
	<circle class="st9" cx="301.7" cy="140.8" r="0.6"/>
	<circle class="st9" cx="303.2" cy="140.8" r="0.6"/>
	<circle class="st9" cx="304.8" cy="140.8" r="0.6"/>
	<circle class="st9" cx="306.4" cy="140.8" r="0.6"/>
	<circle class="st9" cx="307.9" cy="140.8" r="0.6"/>
	<circle class="st9" cx="309.5" cy="140.8" r="0.6"/>
	<circle class="st9" cx="311" cy="140.8" r="0.6"/>
	<circle class="st9" cx="312.6" cy="140.8" r="0.6"/>
	<circle class="st9" cx="314.1" cy="140.8" r="0.6"/>
	<circle class="st9" cx="315.7" cy="140.8" r="0.6"/>
	<circle class="st9" cx="317.3" cy="140.8" r="0.6"/>
	<circle class="st9" cx="318.8" cy="140.8" r="0.6"/>
	<circle class="st9" cx="320.4" cy="140.8" r="0.6"/>
	<circle class="st9" cx="321.9" cy="140.8" r="0.6"/>
	<circle class="st9" cx="323.5" cy="140.8" r="0.6"/>
	<circle class="st9" cx="325" cy="140.8" r="0.6"/>
	<circle class="st9" cx="326.6" cy="140.8" r="0.6"/>
	<circle class="st9" cx="293.9" cy="139.3" r="0.6"/>
	<circle class="st9" cx="295.5" cy="139.3" r="0.6"/>
	<circle class="st9" cx="297" cy="139.3" r="0.6"/>
	<circle class="st9" cx="298.6" cy="139.3" r="0.6"/>
	<circle class="st9" cx="300.1" cy="139.3" r="0.6"/>
	<circle class="st9" cx="301.7" cy="139.3" r="0.6"/>
	<circle class="st9" cx="303.2" cy="139.3" r="0.6"/>
	<circle class="st9" cx="304.8" cy="139.3" r="0.6"/>
	<circle class="st9" cx="306.4" cy="139.3" r="0.6"/>
	<circle class="st9" cx="307.9" cy="139.3" r="0.6"/>
	<circle class="st9" cx="309.5" cy="139.3" r="0.6"/>
	<circle class="st9" cx="311" cy="139.3" r="0.6"/>
	<circle class="st9" cx="312.6" cy="139.3" r="0.6"/>
	<circle class="st9" cx="314.1" cy="139.3" r="0.6"/>
	<circle class="st9" cx="315.7" cy="139.3" r="0.6"/>
	<circle class="st9" cx="317.3" cy="139.3" r="0.6"/>
	<circle class="st9" cx="318.8" cy="139.3" r="0.6"/>
	<circle class="st9" cx="320.4" cy="139.3" r="0.6"/>
	<circle class="st9" cx="321.9" cy="139.3" r="0.6"/>
	<circle class="st9" cx="323.5" cy="139.3" r="0.6"/>
	<circle class="st9" cx="325" cy="139.3" r="0.6"/>
	<circle class="st9" cx="326.6" cy="139.3" r="0.6"/>
	<circle class="st9" cx="293.9" cy="137.9" r="0.6"/>
	<circle class="st9" cx="295.5" cy="137.9" r="0.6"/>
	<circle class="st9" cx="297" cy="137.9" r="0.6"/>
	<circle class="st9" cx="298.6" cy="137.9" r="0.6"/>
	<circle class="st9" cx="300.1" cy="137.9" r="0.6"/>
	<circle class="st9" cx="301.7" cy="137.9" r="0.6"/>
	<circle class="st9" cx="303.2" cy="137.9" r="0.6"/>
	<circle class="st9" cx="304.8" cy="137.9" r="0.6"/>
	<circle class="st9" cx="306.4" cy="137.9" r="0.6"/>
	<circle class="st9" cx="307.9" cy="137.9" r="0.6"/>
	<circle class="st9" cx="309.5" cy="137.9" r="0.6"/>
	<circle class="st9" cx="311" cy="137.9" r="0.6"/>
	<circle class="st9" cx="312.6" cy="137.9" r="0.6"/>
	<circle class="st9" cx="314.1" cy="137.9" r="0.6"/>
	<circle class="st9" cx="315.7" cy="137.9" r="0.6"/>
	<circle class="st9" cx="317.3" cy="137.9" r="0.6"/>
	<circle class="st9" cx="318.8" cy="137.9" r="0.6"/>
	<circle class="st9" cx="320.4" cy="137.9" r="0.6"/>
	<circle class="st9" cx="321.9" cy="137.9" r="0.6"/>
	<circle class="st9" cx="323.5" cy="137.9" r="0.6"/>
	<circle class="st9" cx="325" cy="137.9" r="0.6"/>
	<circle class="st9" cx="326.6" cy="137.9" r="0.6"/>
	<circle class="st9" cx="293.9" cy="136.5" r="0.6"/>
	<circle class="st9" cx="295.5" cy="136.5" r="0.6"/>
	<circle class="st9" cx="297" cy="136.5" r="0.6"/>
	<circle class="st9" cx="298.6" cy="136.5" r="0.6"/>
	<circle class="st9" cx="300.1" cy="136.5" r="0.6"/>
	<circle class="st9" cx="301.7" cy="136.5" r="0.6"/>
	<circle class="st9" cx="303.2" cy="136.5" r="0.6"/>
	<circle class="st9" cx="304.8" cy="136.5" r="0.6"/>
	<circle class="st9" cx="306.4" cy="136.5" r="0.6"/>
	<circle class="st9" cx="307.9" cy="136.5" r="0.6"/>
	<circle class="st9" cx="309.5" cy="136.5" r="0.6"/>
	<circle class="st9" cx="311" cy="136.5" r="0.6"/>
	<circle class="st9" cx="312.6" cy="136.5" r="0.6"/>
	<circle class="st9" cx="314.1" cy="136.5" r="0.6"/>
	<circle class="st9" cx="315.7" cy="136.5" r="0.6"/>
	<circle class="st9" cx="317.3" cy="136.5" r="0.6"/>
	<circle class="st9" cx="318.8" cy="136.5" r="0.6"/>
	<circle class="st9" cx="320.4" cy="136.5" r="0.6"/>
	<circle class="st9" cx="321.9" cy="136.5" r="0.6"/>
	<circle class="st9" cx="323.5" cy="136.5" r="0.6"/>
	<circle class="st9" cx="325" cy="136.5" r="0.6"/>
	<circle class="st9" cx="326.6" cy="136.5" r="0.6"/>
	<circle class="st9" cx="293.9" cy="135" r="0.6"/>
	<circle class="st9" cx="295.5" cy="135" r="0.6"/>
	<circle class="st9" cx="297" cy="135" r="0.6"/>
	<circle class="st9" cx="298.6" cy="135" r="0.6"/>
	<circle class="st9" cx="300.1" cy="135" r="0.6"/>
	<circle class="st9" cx="301.7" cy="135" r="0.6"/>
	<circle class="st9" cx="303.2" cy="135" r="0.6"/>
	<circle class="st9" cx="304.8" cy="135" r="0.6"/>
	<circle class="st9" cx="306.4" cy="135" r="0.6"/>
	<circle class="st9" cx="307.9" cy="135" r="0.6"/>
	<circle class="st9" cx="309.5" cy="135" r="0.6"/>
	<circle class="st9" cx="311" cy="135" r="0.6"/>
	<circle class="st9" cx="312.6" cy="135" r="0.6"/>
	<circle class="st9" cx="314.1" cy="135" r="0.6"/>
	<circle class="st9" cx="315.7" cy="135" r="0.6"/>
	<circle class="st9" cx="317.3" cy="135" r="0.6"/>
	<circle class="st9" cx="318.8" cy="135" r="0.6"/>
	<circle class="st9" cx="320.4" cy="135" r="0.6"/>
	<circle class="st9" cx="321.9" cy="135" r="0.6"/>
	<circle class="st9" cx="323.5" cy="135" r="0.6"/>
	<circle class="st9" cx="325" cy="135" r="0.6"/>
	<circle class="st9" cx="326.6" cy="135" r="0.6"/>
	<circle class="st9" cx="293.9" cy="133.6" r="0.6"/>
	<circle class="st9" cx="295.5" cy="133.6" r="0.6"/>
	<circle class="st9" cx="297" cy="133.6" r="0.6"/>
	<circle class="st9" cx="298.6" cy="133.6" r="0.6"/>
	<circle class="st9" cx="300.1" cy="133.6" r="0.6"/>
	<circle class="st9" cx="301.7" cy="133.6" r="0.6"/>
	<circle class="st9" cx="303.2" cy="133.6" r="0.6"/>
	<circle class="st9" cx="304.8" cy="133.6" r="0.6"/>
	<circle class="st9" cx="306.4" cy="133.6" r="0.6"/>
	<circle class="st9" cx="307.9" cy="133.6" r="0.6"/>
	<circle class="st9" cx="309.5" cy="133.6" r="0.6"/>
	<circle class="st9" cx="311" cy="133.6" r="0.6"/>
	<circle class="st9" cx="312.6" cy="133.6" r="0.6"/>
	<circle class="st9" cx="314.1" cy="133.6" r="0.6"/>
	<circle class="st9" cx="315.7" cy="133.6" r="0.6"/>
	<circle class="st9" cx="317.3" cy="133.6" r="0.6"/>
	<circle class="st9" cx="318.8" cy="133.6" r="0.6"/>
	<circle class="st9" cx="320.4" cy="133.6" r="0.6"/>
	<circle class="st9" cx="321.9" cy="133.6" r="0.6"/>
	<circle class="st9" cx="323.5" cy="133.6" r="0.6"/>
	<circle class="st9" cx="325" cy="133.6" r="0.6"/>
	<circle class="st9" cx="326.6" cy="133.6" r="0.6"/>
	<circle class="st9" cx="293.9" cy="132.1" r="0.6"/>
	<circle class="st9" cx="295.5" cy="132.1" r="0.6"/>
	<circle class="st9" cx="297" cy="132.1" r="0.6"/>
	<circle class="st9" cx="298.6" cy="132.1" r="0.6"/>
	<circle class="st9" cx="300.1" cy="132.1" r="0.6"/>
	<circle class="st9" cx="301.7" cy="132.1" r="0.6"/>
	<circle class="st9" cx="303.2" cy="132.1" r="0.6"/>
	<circle class="st9" cx="304.8" cy="132.1" r="0.6"/>
	<circle class="st9" cx="306.4" cy="132.1" r="0.6"/>
	<circle class="st9" cx="307.9" cy="132.1" r="0.6"/>
	<circle class="st9" cx="309.5" cy="132.1" r="0.6"/>
	<circle class="st9" cx="311" cy="132.1" r="0.6"/>
	<circle class="st9" cx="312.6" cy="132.1" r="0.6"/>
	<circle class="st9" cx="314.1" cy="132.1" r="0.6"/>
	<circle class="st9" cx="315.7" cy="132.1" r="0.6"/>
	<circle class="st9" cx="317.3" cy="132.1" r="0.6"/>
	<circle class="st9" cx="318.8" cy="132.1" r="0.6"/>
	<circle class="st9" cx="320.4" cy="132.1" r="0.6"/>
	<circle class="st9" cx="321.9" cy="132.1" r="0.6"/>
	<circle class="st9" cx="323.5" cy="132.1" r="0.6"/>
	<circle class="st9" cx="325" cy="132.1" r="0.6"/>
	<circle class="st9" cx="326.6" cy="132.1" r="0.6"/>
	<circle class="st9" cx="293.9" cy="130.7" r="0.6"/>
	<circle class="st9" cx="295.5" cy="130.7" r="0.6"/>
	<circle class="st9" cx="297" cy="130.7" r="0.6"/>
	<circle class="st9" cx="298.6" cy="130.7" r="0.6"/>
	<circle class="st9" cx="300.1" cy="130.7" r="0.6"/>
	<circle class="st9" cx="301.7" cy="130.7" r="0.6"/>
	<circle class="st9" cx="303.2" cy="130.7" r="0.6"/>
	<circle class="st9" cx="304.8" cy="130.7" r="0.6"/>
	<circle class="st9" cx="306.4" cy="130.7" r="0.6"/>
	<circle class="st9" cx="307.9" cy="130.7" r="0.6"/>
	<circle class="st9" cx="309.5" cy="130.7" r="0.6"/>
	<circle class="st9" cx="311" cy="130.7" r="0.6"/>
	<circle class="st9" cx="312.6" cy="130.7" r="0.6"/>
	<circle class="st9" cx="314.1" cy="130.7" r="0.6"/>
	<circle class="st9" cx="315.7" cy="130.7" r="0.6"/>
	<circle class="st9" cx="317.3" cy="130.7" r="0.6"/>
	<circle class="st9" cx="318.8" cy="130.7" r="0.6"/>
	<circle class="st9" cx="320.4" cy="130.7" r="0.6"/>
	<circle class="st9" cx="321.9" cy="130.7" r="0.6"/>
	<circle class="st9" cx="323.5" cy="130.7" r="0.6"/>
	<circle class="st9" cx="325" cy="130.7" r="0.6"/>
	<circle class="st9" cx="326.6" cy="130.7" r="0.6"/>
	<circle class="st9" cx="293.9" cy="129.2" r="0.6"/>
	<circle class="st9" cx="295.5" cy="129.2" r="0.6"/>
	<circle class="st9" cx="297" cy="129.2" r="0.6"/>
	<circle class="st9" cx="298.6" cy="129.2" r="0.6"/>
	<circle class="st9" cx="300.1" cy="129.2" r="0.6"/>
	<circle class="st9" cx="301.7" cy="129.2" r="0.6"/>
	<circle class="st9" cx="303.2" cy="129.2" r="0.6"/>
	<circle class="st9" cx="304.8" cy="129.2" r="0.6"/>
	<circle class="st9" cx="306.4" cy="129.2" r="0.6"/>
	<circle class="st9" cx="307.9" cy="129.2" r="0.6"/>
	<circle class="st9" cx="309.5" cy="129.2" r="0.6"/>
	<circle class="st9" cx="311" cy="129.2" r="0.6"/>
	<circle class="st9" cx="312.6" cy="129.2" r="0.6"/>
	<circle class="st9" cx="314.1" cy="129.2" r="0.6"/>
	<circle class="st9" cx="315.7" cy="129.2" r="0.6"/>
	<circle class="st9" cx="317.3" cy="129.2" r="0.6"/>
	<circle class="st9" cx="318.8" cy="129.2" r="0.6"/>
	<circle class="st9" cx="320.4" cy="129.2" r="0.6"/>
	<circle class="st9" cx="321.9" cy="129.2" r="0.6"/>
	<circle class="st9" cx="323.5" cy="129.2" r="0.6"/>
	<circle class="st9" cx="325" cy="129.2" r="0.6"/>
	<circle class="st9" cx="326.6" cy="129.2" r="0.6"/>
	<circle class="st9" cx="293.9" cy="127.8" r="0.6"/>
	<circle class="st9" cx="295.5" cy="127.8" r="0.6"/>
	<circle class="st9" cx="297" cy="127.8" r="0.6"/>
	<circle class="st9" cx="298.6" cy="127.8" r="0.6"/>
	<circle class="st9" cx="300.1" cy="127.8" r="0.6"/>
	<circle class="st9" cx="301.7" cy="127.8" r="0.6"/>
	<circle class="st9" cx="303.2" cy="127.8" r="0.6"/>
	<circle class="st9" cx="304.8" cy="127.8" r="0.6"/>
	<circle class="st9" cx="306.4" cy="127.8" r="0.6"/>
	<circle class="st9" cx="307.9" cy="127.8" r="0.6"/>
	<circle class="st9" cx="309.5" cy="127.8" r="0.6"/>
	<circle class="st9" cx="311" cy="127.8" r="0.6"/>
	<circle class="st9" cx="312.6" cy="127.8" r="0.6"/>
	<circle class="st9" cx="314.1" cy="127.8" r="0.6"/>
	<circle class="st9" cx="315.7" cy="127.8" r="0.6"/>
	<circle class="st9" cx="317.3" cy="127.8" r="0.6"/>
	<circle class="st9" cx="318.8" cy="127.8" r="0.6"/>
	<circle class="st9" cx="320.4" cy="127.8" r="0.6"/>
	<circle class="st9" cx="321.9" cy="127.8" r="0.6"/>
	<circle class="st9" cx="323.5" cy="127.8" r="0.6"/>
	<circle class="st9" cx="325" cy="127.8" r="0.6"/>
	<circle class="st9" cx="326.6" cy="127.8" r="0.6"/>
</g>
</svg>
