<?xml version="1.0" encoding="utf-8"?>
<!-- Generator: Adobe Illustrator 19.0.0, SVG Export Plug-In . SVG Version: 6.00 Build 0)  -->
<svg version="1.1" xmlns="http://www.w3.org/2000/svg" xmlns:xlink="http://www.w3.org/1999/xlink" x="0px" y="0px" width="903px"
	 height="758px" viewBox="0 0 903 758" style="enable-background:new 0 0 903 758;" xml:space="preserve">
<style type="text/css">
	.st0{display:none;}
	.st1{display:inline;fill:none;stroke:#6E6D65;stroke-width:5;stroke-miterlimit:10;}
	.st2{display:inline;fill:none;stroke:#EF0083;stroke-width:5;stroke-miterlimit:10;}
	.st3{display:inline;fill:none;stroke:#605D5A;stroke-width:5;stroke-miterlimit:10;}
	.st4{display:inline;fill:none;stroke:#CAD0D0;stroke-width:2;stroke-miterlimit:10;}
	.st5{display:inline;}
	.st6{fill:none;stroke:#605D5A;stroke-width:6;stroke-miterlimit:10;}
	.st7{fill:none;stroke:#EF0083;stroke-width:5;stroke-miterlimit:10;}
	.st8{fill:none;stroke:#6E6D65;stroke-width:6;stroke-miterlimit:10;}
	.st9{display:inline;fill:#009CDE;}
	.st10{display:inline;fill:#FFFFFF;}
	.st11{fill:#6E6D65;}
	.st12{fill:#FCC211;}
	.st13{fill:#CBDC2A;}
	.st14{fill:#EF0083;}
	.st15{fill:none;stroke:#CAD0D0;stroke-width:2;stroke-miterlimit:10;}
	.st16{fill:#009CDE;}
	.st17{fill:#CFDD29;}
	.st18{fill:#C9DB2B;}
	.st19{fill:#8ED7FA;}
	.st20{fill:#CFDE29;}
	.st21{fill:#D1DF28;}
	.st22{fill:#90D8F7;}
	.st23{fill:#8ED9FA;}
	.st24{fill:#8DD8FA;}
	.st25{fill:#8DD8FC;}
	.st26{fill:#8FD9F7;}
	.st27{fill:#0A030B;}
</style>
<g id="Layer_2" class="st0">
	<path class="st1" d="M568,692H464c-122.1,0-222-99.9-222-222V292c0-122.1,99.9-222,222-222h104c122.1,0,222,99.9,222,222v178
		C790,592.1,690.1,692,568,692z"/>
	<path class="st2" d="M464,624c-40.9,0-79.5-16.1-108.7-45.3S310,510.9,310,470V292c0-40.9,16.1-79.5,45.3-108.7S423.1,138,464,138
		h104c40.9,0,79.5,16.1,108.7,45.3S722,251.1,722,292v178c0,40.9-16.1,79.5-45.3,108.7C647.5,607.9,608.9,624,568,624H464z"/>
	<path class="st3" d="M464.1,514.7c-10.8,0-20.8-4.2-28.8-12.2c-8-8-12.2-17.9-12.2-28.8l-1-182.6c0-10.8,4.2-20.8,12.2-28.8
		c8-8,17.9-12.2,28.8-12.2H567c10.8,0,20.8,4.2,28.8,12.2c8,8,12.2,17.9,12.2,28.8l1,182.6c0,10.8-4.2,20.8-12.2,28.8
		c-8,8-17.9,12.2-28.8,12.2H464.1z"/>
	<path class="st4" d="M570.6,723.1h-107c-141.3,0-257-115.6-257-257v-170c0-141.4,115.7-257,257-257h107c141.3,0,257,115.6,257,257
		v170C827.6,607.4,711.9,723.1,570.6,723.1z"/>
	<g class="st5">
		<line class="st6" x1="536.6" y1="169.7" x2="536.6" y2="60"/>
		<line class="st6" x1="585.4" y1="169.1" x2="603.6" y2="60"/>
		<line class="st6" x1="623.1" y1="169.1" x2="667" y2="75.5"/>
		<line class="st6" x1="658.5" y1="182.3" x2="722" y2="103.1"/>
		<line class="st6" x1="681.6" y1="209.7" x2="762.8" y2="148.6"/>
		<line class="st6" x1="697" y1="240.8" x2="790" y2="201.8"/>
		<line class="st6" x1="703.1" y1="275.7" x2="807.9" y2="264.3"/>
		<line class="st6" x1="703.1" y1="315.8" x2="807.9" y2="315.8"/>
		<line class="st6" x1="703.1" y1="360.6" x2="807.9" y2="360.6"/>
	</g>
	<g class="st5">
		<line class="st6" x1="495.4" y1="169.7" x2="495.4" y2="60"/>
		<line class="st6" x1="446.6" y1="169.1" x2="428.4" y2="60"/>
		<line class="st6" x1="408.9" y1="169.1" x2="365" y2="75.5"/>
		<line class="st6" x1="373.5" y1="182.3" x2="310" y2="103.1"/>
		<line class="st6" x1="350.4" y1="209.7" x2="269.2" y2="148.6"/>
		<line class="st6" x1="335" y1="240.8" x2="242" y2="201.8"/>
		<line class="st6" x1="328.9" y1="275.7" x2="224.1" y2="264.3"/>
		<line class="st6" x1="328.9" y1="315.8" x2="224.1" y2="315.8"/>
		<line class="st6" x1="328.9" y1="360.6" x2="224.1" y2="360.6"/>
	</g>
	<g class="st5">
		<line class="st6" x1="495.4" y1="592.3" x2="495.4" y2="702"/>
		<line class="st6" x1="446.6" y1="592.9" x2="428.4" y2="702"/>
		<line class="st6" x1="408.9" y1="592.9" x2="365" y2="686.5"/>
		<line class="st6" x1="373.5" y1="579.7" x2="310" y2="658.9"/>
		<line class="st6" x1="350.4" y1="552.3" x2="269.2" y2="613.4"/>
		<line class="st6" x1="335" y1="521.2" x2="242" y2="560.2"/>
		<line class="st6" x1="328.9" y1="486.3" x2="224.1" y2="497.7"/>
		<line class="st6" x1="328.9" y1="446.2" x2="224.1" y2="446.2"/>
		<line class="st6" x1="328.9" y1="401.4" x2="224.1" y2="401.4"/>
	</g>
	<g class="st5">
		<line class="st6" x1="536.6" y1="592.3" x2="536.6" y2="702"/>
		<line class="st6" x1="585.4" y1="592.9" x2="603.6" y2="702"/>
		<line class="st6" x1="623.1" y1="592.9" x2="667" y2="686.5"/>
		<line class="st6" x1="658.5" y1="579.7" x2="722" y2="658.9"/>
		<line class="st6" x1="681.6" y1="552.3" x2="762.8" y2="613.4"/>
		<line class="st6" x1="697" y1="521.2" x2="790" y2="560.2"/>
		<line class="st6" x1="703.1" y1="486.3" x2="807.9" y2="497.7"/>
		<line class="st6" x1="703.1" y1="446.2" x2="807.9" y2="446.2"/>
		<line class="st6" x1="703.1" y1="401.4" x2="807.9" y2="401.4"/>
	</g>
	<g class="st5">
		<path class="st7" d="M570.1,601.2H461.6c-69.6,0-126-56.4-126-126V289.9c0-69.6,56.4-126,126-126h108.5c69.6,0,126,56.4,126,126
			v185.3C696.1,544.8,639.7,601.2,570.1,601.2z"/>
		<g>
			<line class="st8" x1="536.6" y1="152.7" x2="536.6" y2="265.5"/>
			<line class="st8" x1="595.8" y1="153.9" x2="573.2" y2="264.4"/>
			<line class="st8" x1="653.2" y1="172.8" x2="586.9" y2="264"/>
			<line class="st8" x1="709.5" y1="263.1" x2="598.8" y2="284.9"/>
			<line class="st8" x1="598.8" y1="316" x2="706.3" y2="316"/>
			<line class="st8" x1="598.8" y1="362" x2="706.3" y2="362"/>
		</g>
		<g>
			<line class="st8" x1="495.1" y1="152.7" x2="495.1" y2="265.5"/>
			<line class="st8" x1="435.9" y1="153.9" x2="458.5" y2="264.4"/>
			<line class="st8" x1="378.5" y1="172.8" x2="444.8" y2="264"/>
			<line class="st8" x1="322.2" y1="263.1" x2="432.9" y2="284.9"/>
			<line class="st8" x1="432.9" y1="316" x2="325.4" y2="316"/>
			<line class="st8" x1="432.9" y1="362" x2="325.4" y2="362"/>
		</g>
		<g>
			<line class="st8" x1="536.6" y1="611.3" x2="536.6" y2="498.6"/>
			<line class="st8" x1="595.8" y1="610.2" x2="573.2" y2="499.7"/>
			<line class="st8" x1="653.2" y1="591.2" x2="586.9" y2="500"/>
			<line class="st8" x1="709.5" y1="501" x2="598.8" y2="479.2"/>
			<line class="st8" x1="598.8" y1="448.1" x2="706.3" y2="448.1"/>
			<line class="st8" x1="598.8" y1="402.1" x2="706.3" y2="402.1"/>
		</g>
		<g>
			<line class="st8" x1="495.1" y1="611.3" x2="495.1" y2="498.6"/>
			<line class="st8" x1="435.9" y1="610.2" x2="458.5" y2="499.7"/>
			<line class="st8" x1="378.5" y1="591.2" x2="444.8" y2="500"/>
			<line class="st8" x1="322.2" y1="501" x2="432.9" y2="479.2"/>
			<line class="st8" x1="432.9" y1="448.1" x2="325.4" y2="448.1"/>
			<line class="st8" x1="432.9" y1="402.1" x2="325.4" y2="402.1"/>
		</g>
	</g>
	<path class="st4" d="M570.6,723.1h-107c-141.3,0-257-115.6-257-257v-170c0-141.4,115.7-257,257-257h107c141.3,0,257,115.6,257,257
		v170C827.6,607.4,711.9,723.1,570.6,723.1z"/>
	<rect x="487" y="317.1" class="st9" width="57.7" height="129.6"/>
	<rect x="537.6" y="312.2" class="st10" width="2" height="144.2"/>
	<rect x="514.8" y="346.2" class="st10" width="2" height="71.2"/>
	<rect x="480.2" y="380.8" class="st10" width="71.2" height="2"/>
	<rect x="492.1" y="345.2" class="st10" width="47.4" height="2"/>
	<rect x="492.1" y="416.4" class="st10" width="47.4" height="2"/>
	<rect x="492.1" y="312.2" class="st10" width="2" height="144.2"/>
</g>
<g id="Layer_3">
	<path class="st11" d="M285.4,164.5l-3.9-2.9c-9.8,13.6-17.9,28.1-24.4,43.3l4.6,1.9C268.1,191.8,276,177.6,285.4,164.5z"/>
	<path class="st11" d="M259.5,212.3l-4.6-1.9c-6.6,16.9-11.2,34.6-13.5,52.8l5,0.5C248.6,245.8,253.1,228.6,259.5,212.3z"/>
	<path class="st11" d="M427.9,75.5l-0.8-4.9c-18.5,3.1-36.5,8.5-53.6,16l2.1,4.5C392.1,83.8,409.6,78.5,427.9,75.5z"/>
	<path class="st11" d="M370.2,93.6l-2.1-4.5c-15.4,7.3-30,16.5-43.6,27.3l3,3.8C340.6,109.8,354.9,100.8,370.2,93.6z"/>
	<path class="st11" d="M244.5,292c0-7.5,0.4-15,1.1-22.3l-5-0.5c-0.8,7.6-1.2,15.2-1.2,22.9v20.8h5V292z"/>
	<path class="st11" d="M322.9,124l-3-3.8c-5,4.2-9.8,8.6-14.4,13.2c-7.4,7.4-14.2,15.2-20.4,23.3l3.9,2.9
		C298.9,146.6,310.3,134.6,322.9,124z"/>
	<rect x="239.5" y="318.8" class="st11" width="5" height="38.8"/>
	<path class="st11" d="M244.5,470v-20.8h-5V470c0,7.7,0.4,15.3,1.2,22.9l5-0.5C244.9,485,244.5,477.5,244.5,470z"/>
	<path class="st11" d="M246.3,498.3l-5,0.5c2.3,18.2,6.9,35.9,13.5,52.8l4.6-1.9C253.1,533.4,248.6,516.2,246.3,498.3z"/>
	<rect x="239.5" y="363.6" class="st11" width="5" height="34.9"/>
	<rect x="239.5" y="404.4" class="st11" width="5" height="38.8"/>
	<path class="st11" d="M568,72.5c10.2,0,20.3,0.7,30.1,2.1l0.8-4.9c-10.2-1.4-20.5-2.1-31-2.1h-28.4v5H568z"/>
	<rect x="787.5" y="318.8" class="st11" width="5" height="38.8"/>
	<path class="st11" d="M770.3,206.8l4.6-1.9c-6.4-15.2-14.6-29.7-24.4-43.3l-3.9,2.9C756,177.6,763.9,191.8,770.3,206.8z"/>
	<rect x="787.5" y="363.6" class="st11" width="5" height="34.9"/>
	<path class="st11" d="M785.7,263.7l5-0.5c-2.3-18.2-6.9-35.9-13.5-52.8l-4.6,1.9C778.9,228.6,783.4,245.8,785.7,263.7z"/>
	<path class="st11" d="M787.5,470c0,7.5-0.4,15-1.1,22.3l5,0.5c0.8-7.6,1.2-15.2,1.2-22.9v-20.8h-5V470z"/>
	<rect x="787.5" y="404.4" class="st11" width="5" height="38.8"/>
	<rect x="498.4" y="67.5" class="st11" width="35.2" height="5"/>
	<path class="st11" d="M261.7,555.2l-4.6,1.9c6.4,15.2,14.6,29.7,24.4,43.3l3.9-2.9C276,584.4,268.1,570.2,261.7,555.2z"/>
	<path class="st11" d="M743,159.7l3.9-2.9c-6.2-8.2-13-16-20.4-23.3c-4.7-4.7-9.5-9.1-14.4-13.2l-3,3.8
		C721.7,134.6,733.1,146.6,743,159.7z"/>
	<path class="st11" d="M464,72.5h28.4v-5H464c-10.4,0-20.8,0.7-31,2.1l0.8,4.9C443.7,73.2,453.8,72.5,464,72.5z"/>
	<path class="st11" d="M704.4,120.2l3-3.8c-13.6-10.8-28.2-20-43.6-27.3l-2.1,4.5C677.1,100.8,691.4,109.8,704.4,120.2z"/>
	<path class="st11" d="M656.4,91.1l2.1-4.5c-17.1-7.6-35-12.9-53.6-16l-0.8,4.9C622.4,78.5,639.9,83.8,656.4,91.1z"/>
	<path class="st11" d="M787.5,292v20.8h5V292c0-7.7-0.4-15.3-1.2-22.9l-5,0.5C787.1,277,787.5,284.5,787.5,292z"/>
	<path class="st11" d="M327.6,641.8l-3,3.8c13.6,10.8,28.2,20,43.6,27.3l2.1-4.5C354.9,661.2,340.6,652.2,327.6,641.8z"/>
	<path class="st11" d="M568,689.5h-28.4v5H568c10.4,0,20.8-0.7,31-2.1l-0.8-4.9C588.3,688.8,578.2,689.5,568,689.5z"/>
	<path class="st11" d="M772.5,549.7l4.6,1.9c6.6-16.9,11.2-34.6,13.5-52.8l-5-0.5C783.4,516.2,778.9,533.4,772.5,549.7z"/>
	<rect x="498.4" y="689.5" class="st11" width="35.2" height="5"/>
	<path class="st11" d="M464,689.5c-10.2,0-20.3-0.7-30.1-2.1l-0.8,4.9c10.2,1.4,20.5,2.1,31,2.1h28.4v-5H464z"/>
	<path class="st11" d="M661.8,668.4l2.1,4.5c15.4-7.3,30-16.5,43.6-27.3l-3-3.8C691.4,652.2,677.1,661.2,661.8,668.4z"/>
	<path class="st11" d="M746.6,597.5l3.9,2.9c9.8-13.6,17.9-28.1,24.4-43.3l-4.6-1.9C763.9,570.2,756,584.4,746.6,597.5z"/>
	<path class="st11" d="M375.6,670.9l-2.1,4.5c17.1,7.6,35,12.9,53.6,16l0.8-4.9C409.6,683.5,392.1,678.2,375.6,670.9z"/>
	<path class="st11" d="M289,602.3l-3.9,2.9c6.2,8.2,13,16,20.4,23.3c4.7,4.7,9.5,9.1,14.4,13.2l3-3.8
		C310.3,627.4,298.9,615.4,289,602.3z"/>
	<path class="st11" d="M604.1,686.5l0.8,4.9c18.5-3.1,36.5-8.5,53.6-16l-2.1-4.5C639.9,678.2,622.4,683.5,604.1,686.5z"/>
	<path class="st11" d="M709.1,638l3,3.8c5-4.2,9.8-8.6,14.4-13.2c7.4-7.4,14.2-15.2,20.4-23.3l-3.9-2.9
		C733.1,615.4,721.7,627.4,709.1,638z"/>
	<rect x="498.4" y="72.5" class="st12" width="35.2" height="59"/>
	<path class="st12" d="M464,626.5c-6.6,0-13.2-0.4-19.7-1.2l-10.4,62.2c9.9,1.4,19.9,2.1,30.1,2.1h28.4v-63H464z"/>
	<path class="st12" d="M464,135.5h28.4v-63H464c-10.2,0-20.3,0.7-30.1,2.1l10.4,62.2C450.8,135.9,457.4,135.5,464,135.5z"/>
	<rect x="498.4" y="626.5" class="st12" width="35.2" height="63"/>
	<path class="st12" d="M438.3,137.6l-10.4-62.1c-18.3,3-35.8,8.3-52.3,15.6l26.7,57.1C413.9,143.2,425.9,139.7,438.3,137.6z"/>
	<path class="st13" d="M714.4,525.3l58.2,24.4c6.4-16.3,10.8-33.5,13.1-51.4l-62.7-6.8C721.4,503.1,718.5,514.4,714.4,525.3z"/>
	<path class="st13" d="M696.1,559.5l50.5,38c9.4-13.1,17.3-27.2,23.7-42.3l-58.2-24.4C707.8,540.9,702.5,550.5,696.1,559.5z"/>
	<path class="st12" d="M568,626.5h-28.4v63H568c10.2,0,20.3-0.7,30.1-2.1l-10.4-62.2C581.2,626.1,574.6,626.5,568,626.5z"/>
	<path class="st12" d="M335.9,202.5l-50.5-38c-9.4,13.1-17.3,27.2-23.7,42.3l58.2,24.4C324.2,221.1,329.5,211.5,335.9,202.5z"/>
	<path class="st13" d="M787.5,449.2h-63V470c0,5.2-0.3,10.4-0.8,15.5l62.6,6.8c0.7-7.3,1.1-14.8,1.1-22.3V449.2z"/>
	<path class="st12" d="M396.9,150.7l-26.7-57.1c-15.3,7.2-29.5,16.2-42.6,26.6l39.5,49.2C376.4,162,386.4,155.7,396.9,150.7z"/>
	<path class="st12" d="M353.5,181.5c2.9-2.9,5.9-5.6,8.9-8.3L322.9,124c-12.6,10.6-24,22.6-34,35.7l50.5,37.9
		C343.7,192,348.4,186.6,353.5,181.5z"/>
	<path class="st12" d="M593.7,624.4l10.4,62.1c18.3-3,35.8-8.3,52.3-15.6l-26.7-57.1C618.1,618.8,606.1,622.3,593.7,624.4z"/>
	<path class="st12" d="M635.1,611.3l26.7,57.1c15.3-7.2,29.5-16.2,42.6-26.6l-39.5-49.2C655.6,600,645.6,606.3,635.1,611.3z"/>
	<rect x="724.5" y="404.4" class="st13" width="63" height="38.8"/>
	<rect x="724.5" y="318.8" class="st13" width="63" height="38.8"/>
	<path class="st13" d="M724.5,292v20.8h63V292c0-7.5-0.4-15-1.1-22.3l-62.6,6.8C724.2,281.6,724.5,286.8,724.5,292z"/>
	<path class="st12" d="M353.5,580.5c-5.1-5.1-9.8-10.5-14.1-16.1L289,602.3c10,13.1,21.4,25.1,34,35.7l39.5-49.3
		C359.4,586.1,356.4,583.4,353.5,580.5z"/>
	<path class="st12" d="M678.5,580.5c-2.9,2.9-5.9,5.6-8.9,8.3l39.5,49.3c12.6-10.6,24-22.6,34-35.7l-50.5-37.9
		C688.3,570,683.6,575.4,678.5,580.5z"/>
	<path class="st13" d="M723,270.5l62.7-6.8c-2.3-17.9-6.8-35.1-13.1-51.4l-58.2,24.4C718.5,247.6,721.4,258.9,723,270.5z"/>
	<rect x="724.5" y="363.6" class="st13" width="63" height="34.9"/>
	<path class="st12" d="M319.9,530.8l-58.2,24.4c6.3,15,14.3,29.2,23.7,42.3l50.5-37.9C329.5,550.5,324.2,540.9,319.9,530.8z"/>
	<path class="st13" d="M712.1,231.2l58.2-24.4c-6.3-15-14.3-29.2-23.7-42.3l-50.5,38C702.5,211.5,707.8,221.1,712.1,231.2z"/>
	<path class="st12" d="M664.9,169.4l39.5-49.2c-13.1-10.4-27.4-19.4-42.6-26.6l-26.7,57.1C645.6,155.7,655.6,162,664.9,169.4z"/>
	<path class="st12" d="M402.4,613.8l-26.7,57.1c16.5,7.3,34,12.6,52.3,15.6l10.4-62.1C425.9,622.3,413.9,618.8,402.4,613.8z"/>
	<path class="st12" d="M629.6,148.2l26.7-57.1c-16.5-7.3-34-12.6-52.3-15.6l-10.4,62.1C606.1,139.7,618.1,143.2,629.6,148.2z"/>
	<path class="st12" d="M678.5,181.5c5.1,5.1,9.8,10.5,14.1,16.1l50.5-37.9c-10-13.1-21.4-25.1-34-35.7l-39.5,49.3
		C672.6,175.9,675.6,178.6,678.5,181.5z"/>
	<path class="st12" d="M367.1,592.6l-39.5,49.2c13.1,10.4,27.4,19.4,42.6,26.6l26.7-57.1C386.4,606.3,376.4,600,367.1,592.6z"/>
	<path class="st12" d="M568,135.5c6.6,0,13.2,0.4,19.7,1.2l10.4-62.2c-9.9-1.4-19.9-2.1-30.1-2.1h-28.4v63H568z"/>
	<path class="st14" d="M464,140.5h28.4v-5H464c-6.6,0-13.2,0.4-19.7,1.2l0.8,4.9C451.3,140.9,457.6,140.5,464,140.5z"/>
	<path class="st14" d="M439.2,142.6l-0.8-4.9c-12.4,2.1-24.5,5.6-35.9,10.6l2.1,4.5C415.6,148,427.2,144.5,439.2,142.6z"/>
	<path class="st14" d="M399,155.2l-2.1-4.5c-10.5,5.1-20.5,11.3-29.8,18.7l3.1,3.9C379.2,166.2,388.9,160.1,399,155.2z"/>
	<rect x="498.4" y="131.5" class="st14" width="35.2" height="9"/>
	<path class="st14" d="M592.8,619.4l0.8,4.9c12.4-2.1,24.5-5.6,35.9-10.6l-2.1-4.5C616.4,614,604.8,617.5,592.8,619.4z"/>
	<path class="st14" d="M357.1,576.9c-4.9-4.9-9.5-10.1-13.6-15.6l-4,3c4.3,5.6,9,11,14.1,16.1c2.9,2.9,5.9,5.6,8.9,8.3l3.1-3.9
		C362.7,582.3,359.8,579.7,357.1,576.9z"/>
	<path class="st14" d="M692.1,556.5l4,3c6.4-9,11.7-18.6,16-28.7l-4.6-1.9C703.4,538.6,698.2,547.8,692.1,556.5z"/>
	<path class="st14" d="M370.2,588.7l-3.1,3.9c9.3,7.4,19.3,13.7,29.8,18.7l2.1-4.5C388.9,601.9,379.2,595.8,370.2,588.7z"/>
	<path class="st14" d="M709.8,523.3l4.6,1.9c4.1-10.8,7-22.2,8.6-33.8l-5-0.5C716.5,502.1,713.7,512.9,709.8,523.3z"/>
	<path class="st14" d="M674.9,576.9c-2.8,2.8-5.6,5.4-8.5,7.9l3.1,3.9c3.1-2.6,6-5.4,8.9-8.3c5.1-5.1,9.8-10.5,14.1-16.1l-4-3
		C684.4,566.8,679.9,572,674.9,576.9z"/>
	<path class="st14" d="M357.1,185.1c2.8-2.8,5.6-5.4,8.5-7.9l-3.1-3.9c-3.1,2.6-6,5.4-8.9,8.3c-5.1,5.1-9.8,10.5-14.1,16.1l4,3
		C347.6,195.2,352.1,190,357.1,185.1z"/>
	<path class="st14" d="M314,490.9l-5,0.5c1.6,11.6,4.5,22.9,8.6,33.8l4.6-1.9C318.3,512.9,315.5,502.1,314,490.9z"/>
	<path class="st14" d="M568,621.5h-28.4v5H568c6.6,0,13.2-0.4,19.7-1.2l-0.8-4.9C580.7,621.1,574.4,621.5,568,621.5z"/>
	<path class="st14" d="M719.5,470c0,5-0.2,10-0.7,15l5,0.5c0.5-5.1,0.8-10.3,0.8-15.5v-20.8h-5V470z"/>
	<path class="st14" d="M324.5,528.9l-4.6,1.9c4.3,10,9.6,19.7,16,28.7l4-3C333.8,547.8,328.6,538.6,324.5,528.9z"/>
	<path class="st14" d="M404.5,609.3l-2.1,4.5c11.5,5,23.5,8.5,35.9,10.6l0.8-4.9C427.2,617.5,415.6,614,404.5,609.3z"/>
	<path class="st14" d="M464,621.5c-6.4,0-12.7-0.4-18.9-1.2l-0.8,4.9c6.5,0.8,13.1,1.2,19.7,1.2h28.4v-5H464z"/>
	<path class="st14" d="M312.5,470v-20.8h-5V470c0,5.2,0.3,10.4,0.8,15.5l5-0.5C312.7,480,312.5,475,312.5,470z"/>
	<path class="st14" d="M322.2,238.7l-4.6-1.9c-4.1,10.8-7,22.2-8.6,33.8l5,0.5C315.5,259.9,318.3,249.1,322.2,238.7z"/>
	<path class="st14" d="M339.9,205.5l-4-3c-6.4,9-11.7,18.6-16,28.7l4.6,1.9C328.6,223.4,333.8,214.2,339.9,205.5z"/>
	<rect x="498.4" y="621.5" class="st14" width="35.2" height="5"/>
	<path class="st14" d="M633,606.8l2.1,4.5c10.5-5.1,20.5-11.3,29.8-18.7l-3.1-3.9C652.8,595.8,643.1,601.9,633,606.8z"/>
	<rect x="307.5" y="363.6" class="st14" width="5" height="34.9"/>
	<rect x="307.5" y="318.8" class="st14" width="5" height="38.8"/>
	<path class="st14" d="M568,140.5c6.4,0,12.7,0.4,18.9,1.2l0.8-4.9c-6.5-0.8-13.1-1.2-19.7-1.2h-28.4v5H568z"/>
	<path class="st14" d="M312.5,292c0-5,0.2-10,0.7-15l-5-0.5c-0.5,5.1-0.8,10.3-0.8,15.5v20.8h5V292z"/>
	<rect x="307.5" y="404.4" class="st14" width="5" height="38.8"/>
	<path class="st14" d="M718,271.1l5-0.5c-1.6-11.6-4.5-22.9-8.6-33.8l-4.6,1.9C713.7,249.1,716.5,259.9,718,271.1z"/>
	<path class="st14" d="M707.5,233.1l4.6-1.9c-4.3-10-9.6-19.7-16-28.7l-4,3C698.2,214.2,703.4,223.4,707.5,233.1z"/>
	<path class="st14" d="M674.9,185.1c4.9,4.9,9.5,10.1,13.6,15.6l4-3c-4.3-5.6-9-11-14.1-16.1c-2.9-2.9-5.9-5.6-8.9-8.3l-3.1,3.9
		C669.3,179.7,672.2,182.3,674.9,185.1z"/>
	<path class="st14" d="M719.5,292v20.8h5V292c0-5.2-0.3-10.4-0.8-15.5l-5,0.5C719.3,282,719.5,287,719.5,292z"/>
	<rect x="719.5" y="404.4" class="st14" width="5" height="38.8"/>
	<rect x="719.5" y="318.8" class="st14" width="5" height="38.8"/>
	<rect x="719.5" y="363.6" class="st14" width="5" height="34.9"/>
	<path class="st14" d="M627.5,152.7l2.1-4.5c-11.5-5-23.5-8.5-35.9-10.6l-0.8,4.9C604.8,144.5,616.4,148,627.5,152.7z"/>
	<path class="st14" d="M661.8,173.3l3.1-3.9c-9.3-7.4-19.3-13.7-29.8-18.7l-2.1,4.5C643.1,160.1,652.8,166.2,661.8,173.3z"/>
	<path class="st15" d="M570.6,39.1h-107c-141.3,0-257,115.7-257,257v170c0,141.4,115.7,257,257,257h107c141.3,0,257-115.6,257-257
		v-170C827.6,154.8,711.9,39.1,570.6,39.1z"/>
	<rect x="494.1" y="317.1" class="st16" width="43.4" height="28.2"/>
	<rect x="487" y="317.1" class="st16" width="5.1" height="63.8"/>
	<rect x="494.1" y="382.8" class="st16" width="20.7" height="33.6"/>
	<rect x="487" y="382.8" class="st16" width="5.1" height="63.9"/>
	<polygon class="st16" points="539.6,347.2 539.6,380.8 544.7,380.8 544.7,317.1 539.6,317.1 539.6,345.2 	"/>
	<rect x="516.8" y="382.8" class="st16" width="20.7" height="33.6"/>
	<rect x="516.8" y="347.2" class="st16" width="20.7" height="33.6"/>
	<rect x="494.1" y="347.2" class="st16" width="20.7" height="33.6"/>
	<polygon class="st16" points="539.6,416.4 539.6,418.4 539.6,446.7 544.7,446.7 544.7,382.8 539.6,382.8 	"/>
	<rect x="494.1" y="418.4" class="st16" width="43.4" height="28.3"/>
	<polygon class="st17" points="608.5,399.1 696.1,399.1 696.1,365 608.3,365 	"/>
	<path class="st16" d="M588.6,256.6l51.8-71.3c-13.2-8.9-28.1-15.3-44.2-18.7L578.8,252C582.3,253.1,585.5,254.6,588.6,256.6z"/>
	<path class="st17" d="M423.1,473.7l-0.1-22.7h-87.4v24.1c0,6.7,0.5,13.3,1.6,19.8l86.2-17C423.2,476.6,423.1,475.2,423.1,473.7z"/>
	<polygon class="st17" points="608.3,359 696.1,359 696.1,319 608.1,319 	"/>
	<polygon class="st17" points="608.7,445.1 696.1,445.1 696.1,405.1 608.5,405.1 	"/>
	<path class="st17" d="M607.9,291.2L608,313h88.1v-23.1c0-7.1-0.6-14-1.7-20.8l-86.8,17.1C607.8,287.8,607.9,289.5,607.9,291.2z"/>
	<path class="st16" d="M463.1,250.2h29v-86.3h-30.5c-6.9,0-13.6,0.6-20.2,1.6l17.3,85C460.2,250.3,461.6,250.2,463.1,250.2z"/>
	<rect x="498.1" y="163.9" class="st16" width="35.5" height="86.3"/>
	<path class="st16" d="M567,250.2c2,0,4,0.1,6,0.4l17.4-85.2c-6.6-1.1-13.3-1.6-20.2-1.6h-30.5v86.3H567z"/>
	<path class="st17" d="M422.2,291.2c0-1.8,0.1-3.5,0.4-5.3l-85.2-16.8c-1.1,6.8-1.7,13.7-1.7,20.8V313h86.7L422.2,291.2z"/>
	<path class="st16" d="M452.8,251.5l-17.3-85c-16.1,3.4-31,9.8-44.2,18.7l51.3,70.6C445.8,254,449.2,252.5,452.8,251.5z"/>
	<path class="st17" d="M608.9,473.7c0,1.5-0.1,2.9-0.2,4.3l85.9,16.9c1-6.4,1.6-13.1,1.6-19.8v-24.1h-87.4L608.9,473.7z"/>
	<rect x="498.1" y="514.7" class="st16" width="35.5" height="86.5"/>
	<path class="st16" d="M464.1,514.7c-1.9,0-3.7-0.1-5.5-0.4l-17.4,85.2c6.6,1.1,13.5,1.7,20.4,1.7h30.5v-86.5H464.1z"/>
	<path class="st16" d="M567.9,514.7h-28.3v86.5h30.5c7,0,13.8-0.6,20.4-1.7l-17.4-85.2C571.4,514.6,569.7,514.7,567.9,514.7z"/>
	<path class="st16" d="M579,513.1l17.4,85.3c16.2-3.4,31.2-10,44.5-19l-51.6-71C586.1,510.5,582.7,512.1,579,513.1z"/>
	<path class="st16" d="M442.4,508.3l-51.7,71.1c13.2,9,28.3,15.6,44.5,19l17.4-85.4C449.1,512,445.7,510.4,442.4,508.3z"/>
	<path class="st18" d="M604.7,275.4c0.7,1.6,1.3,3.2,1.8,4.9l86.9-17.1c-1.2-5.4-2.7-10.8-4.6-15.9L604.7,275.4z"/>
	<path class="st19" d="M677.4,223.8l-46.6,29l-3.2-5.1l46.5-28.9c-7.9-11.5-17.6-21.7-28.8-30l-51.9,71.5c0.8,0.7,1.6,1.4,2.3,2.2
		c3.9,3.9,6.9,8.3,8.9,13l84-28.1C685.8,239,682,231.2,677.4,223.8z"/>
	<path class="st17" d="M343.6,245.7c-2.1,5.6-3.9,11.5-5.1,17.5l85.3,16.8c0.7-2.3,1.6-4.6,2.7-6.8L343.6,245.7z"/>
	<path class="st19" d="M434.3,262.4c1.1-1.1,2.2-2.1,3.3-3l-51.3-70.6c-11.1,8.3-20.8,18.4-28.7,29.8l46.4,30.2l-3.3,5l-46.4-30.2
		c-4.3,6.9-7.9,14.4-10.8,22.1l82.9,27.5C428.4,269.3,431.1,265.7,434.3,262.4z"/>
	<path class="st20" d="M424.4,483.9l-86.2,17c1.2,5.9,2.9,11.7,4.9,17.3l83.9-27.3C425.9,488.6,425,486.3,424.4,483.9z"/>
	<path class="st19" d="M427,490.9l-83.9,27.3c2.9,8,6.6,15.6,10.9,22.7l45.1-28.7l3.2,5.1l-45.1,28.7c7.8,11.5,17.5,21.7,28.6,30
		l51.7-71.2c-0.8-0.7-1.6-1.4-2.4-2.2C431.8,499,429,495.1,427,490.9z"/>
	<path class="st21" d="M693.5,500.9L607.6,484c-0.7,2.8-1.8,5.5-3.2,8.1l83.4,28.1C690.2,514,692.1,507.5,693.5,500.9z"/>
	<path class="st19" d="M677.8,540.6c3.9-6.5,7.3-13.3,10-20.4l-83.4-28.1c-2,3.7-4.5,7.2-7.7,10.4c-0.8,0.8-1.7,1.6-2.5,2.3
		l51.6,71.1c11.2-8.4,20.9-18.7,28.8-30.3L628,515.8l3.2-5.1L677.8,540.6z"/>
	<g>
		<rect x="335.6" y="365" class="st17" width="40.4" height="34.1"/>
		<polygon class="st16" points="422.5,365 376,365 376,399.1 422.7,399.1 		"/>
		<rect x="335.6" y="319" class="st17" width="40.4" height="40"/>
		<polygon class="st16" points="422.3,319 376,319 376,359 422.5,359 		"/>
		<rect x="335.6" y="405.1" class="st17" width="40.4" height="40"/>
		<polygon class="st16" points="422.8,405.1 376,405.1 376,445.1 423,445.1 		"/>
	</g>
	<g>
		<path class="st12" d="M259.5,212.3c-6.4,16.3-10.8,33.5-13.1,51.4l42.5,4.6c1.6-13.6,4.9-26.8,10-39.5L259.5,212.3z"/>
		<path class="st12" d="M288.3,274.3l-42.7-4.6c-0.7,7.3-1.1,14.8-1.1,22.3v20.8h43.3v-26.7C287.8,282.2,288,278.2,288.3,274.3z"/>
		<rect x="244.5" y="404.4" class="st12" width="43.3" height="38.8"/>
		<path class="st12" d="M246.3,498.3c2.3,17.9,6.8,35.1,13.1,51.4l40.2-16.9c-5.2-12.5-8.8-25.6-10.5-39.1L246.3,498.3z"/>
		<path class="st12" d="M287.8,449.2h-43.3V470c0,7.5,0.4,15,1.1,22.3l42.9-4.7c-0.4-4.7-0.7-9.4-0.7-14.1V449.2z"/>
		<rect x="244.5" y="363.6" class="st12" width="43.3" height="34.9"/>
		<path class="st19" d="M317.6,236.7l-18.8-7.9c-5.1,12.6-8.4,25.9-10,39.5l20.1,2.2C310.6,258.9,313.5,247.6,317.6,236.7z"/>
		<path class="st22" d="M307.5,292c0-5.2,0.3-10.4,0.8-15.5l-20-2.2c-0.3,3.9-0.5,7.9-0.5,11.8v26.7h19.7V292z"/>
		<rect x="287.8" y="404.4" class="st23" width="19.7" height="38.8"/>
		<path class="st24" d="M309,491.5l-19.9,2.2c1.8,13.5,5.3,26.6,10.5,39.1l18-7.5C313.5,514.4,310.6,503.1,309,491.5z"/>
		<path class="st25" d="M307.5,470v-20.8h-19.7v24.4c0,4.7,0.2,9.4,0.7,14.1l19.8-2.1C307.8,480.4,307.5,475.2,307.5,470z"/>
		<rect x="287.8" y="363.6" class="st26" width="19.7" height="34.9"/>
	</g>
	<g>
		<rect x="244.5" y="318.8" class="st12" width="43.3" height="38.8"/>
		<rect x="287.8" y="318.8" class="st22" width="19.7" height="38.8"/>
	</g>
	<g>
		<polygon class="st27" points="432.4,280.1 432.4,288.9 427.9,284.5 		"/>
		<g>
			<path d="M440.5,282.2c0,0.4-0.1,0.7-0.2,1s-0.3,0.6-0.5,0.8s-0.5,0.4-0.9,0.5s-0.7,0.2-1.2,0.2h-0.9v2.7c0,0,0,0.1,0,0.1
				s0,0-0.1,0.1s-0.1,0-0.2,0s-0.1,0-0.2,0s-0.2,0-0.2,0s-0.1,0-0.2,0s-0.1,0-0.1-0.1s0-0.1,0-0.1v-7c0-0.2,0-0.3,0.1-0.3
				s0.2-0.1,0.3-0.1h1.6c0.2,0,0.3,0,0.5,0s0.3,0,0.5,0.1s0.4,0.1,0.6,0.3s0.4,0.3,0.5,0.5s0.3,0.4,0.3,0.6S440.5,281.9,440.5,282.2
				z M439.5,282.3c0-0.3-0.1-0.6-0.2-0.8s-0.3-0.4-0.4-0.5s-0.3-0.2-0.5-0.2s-0.4,0-0.5,0h-0.9v3h0.9c0.3,0,0.6,0,0.8-0.1
				s0.4-0.2,0.5-0.3s0.2-0.3,0.3-0.5S439.5,282.5,439.5,282.3z"/>
			<path d="M442.9,287.4C442.9,287.4,442.9,287.5,442.9,287.4c0,0.1-0.1,0.1-0.1,0.1s-0.1,0-0.1,0s-0.1,0-0.2,0c-0.1,0-0.2,0-0.2,0
				s-0.1,0-0.1,0s-0.1,0-0.1-0.1s0,0,0-0.1v-7.8c0,0,0-0.1,0-0.1s0,0,0.1-0.1s0.1,0,0.1,0s0.1,0,0.2,0c0.1,0,0.2,0,0.2,0
				s0.1,0,0.1,0s0.1,0,0.1,0.1s0,0.1,0,0.1V287.4z"/>
			<path d="M448.7,287.4c0,0,0,0.1,0,0.1s-0.1,0-0.1,0.1s-0.1,0-0.2,0c-0.1,0-0.2,0-0.2,0s-0.1,0-0.1-0.1s0-0.1,0-0.1v-0.5
				c-0.2,0.2-0.5,0.4-0.8,0.6s-0.6,0.2-0.9,0.2c-0.3,0-0.5,0-0.8-0.1s-0.4-0.2-0.6-0.3s-0.3-0.3-0.4-0.5s-0.1-0.4-0.1-0.7
				c0-0.3,0.1-0.6,0.2-0.8s0.3-0.4,0.5-0.5s0.5-0.3,0.8-0.3s0.7-0.1,1.1-0.1h0.7v-0.4c0-0.2,0-0.4-0.1-0.5s-0.1-0.3-0.2-0.4
				s-0.2-0.2-0.4-0.2s-0.3-0.1-0.6-0.1c-0.2,0-0.5,0-0.6,0.1s-0.4,0.1-0.5,0.2s-0.3,0.1-0.4,0.2s-0.2,0.1-0.2,0.1c0,0-0.1,0-0.1,0
				s0,0-0.1-0.1s0-0.1,0-0.1s0-0.1,0-0.2c0-0.1,0-0.2,0-0.2s0-0.1,0.1-0.2s0.1-0.1,0.3-0.2s0.3-0.1,0.4-0.2s0.4-0.1,0.6-0.1
				s0.4-0.1,0.6-0.1c0.4,0,0.7,0,1,0.1s0.5,0.2,0.6,0.4s0.3,0.4,0.4,0.6s0.1,0.5,0.1,0.9V287.4z M447.7,285h-0.8
				c-0.3,0-0.5,0-0.7,0.1s-0.4,0.1-0.5,0.2s-0.2,0.2-0.3,0.3s-0.1,0.3-0.1,0.4c0,0.3,0.1,0.5,0.3,0.7s0.4,0.2,0.7,0.2
				c0.3,0,0.5-0.1,0.7-0.2s0.4-0.3,0.7-0.6V285z"/>
			<path d="M452.6,287.5l-0.7,1.9c0,0.1-0.1,0.1-0.2,0.1s-0.2,0-0.4,0c-0.1,0-0.2,0-0.2,0s-0.1,0-0.1,0s-0.1-0.1-0.1-0.1
				s0-0.1,0-0.1l0.7-1.8c0,0-0.1,0-0.1-0.1s-0.1-0.1-0.1-0.1l-1.9-5c0-0.1,0-0.1,0-0.2s0-0.1,0-0.1s0.1,0,0.2-0.1s0.2,0,0.3,0
				s0.2,0,0.3,0s0.1,0,0.2,0s0.1,0,0.1,0.1s0,0.1,0.1,0.1l1.5,4.2h0l1.5-4.3c0-0.1,0.1-0.1,0.1-0.1s0.1,0,0.1,0s0.2,0,0.3,0
				c0.1,0,0.2,0,0.3,0s0.1,0,0.2,0.1s0,0.1,0,0.1s0,0.1,0,0.2L452.6,287.5z"/>
			<path d="M460,284.5c0,0.2,0,0.3-0.1,0.3s-0.2,0.1-0.3,0.1h-3.5c0,0.3,0,0.6,0.1,0.8c0.1,0.2,0.2,0.4,0.3,0.6
				c0.1,0.2,0.3,0.3,0.5,0.4s0.5,0.1,0.8,0.1c0.3,0,0.5,0,0.7-0.1s0.4-0.1,0.5-0.1c0.1-0.1,0.3-0.1,0.4-0.1s0.2-0.1,0.2-0.1
				c0,0,0.1,0,0.1,0s0,0,0.1,0.1c0,0,0,0.1,0,0.1s0,0.1,0,0.2c0,0.1,0,0.1,0,0.1s0,0.1,0,0.1s0,0.1,0,0.1s0,0-0.1,0.1
				s-0.1,0.1-0.2,0.1s-0.2,0.1-0.4,0.1s-0.4,0.1-0.6,0.1s-0.5,0.1-0.7,0.1c-0.4,0-0.8-0.1-1.1-0.2s-0.6-0.3-0.8-0.5
				s-0.4-0.5-0.5-0.9s-0.2-0.8-0.2-1.3c0-0.5,0.1-0.9,0.2-1.2s0.3-0.7,0.5-0.9s0.5-0.4,0.8-0.6s0.7-0.2,1-0.2c0.4,0,0.8,0.1,1.1,0.2
				s0.5,0.3,0.7,0.5s0.3,0.5,0.4,0.8s0.1,0.6,0.1,1V284.5z M459.1,284.2c0-0.5-0.1-0.9-0.3-1.2c-0.2-0.3-0.6-0.4-1.1-0.4
				c-0.2,0-0.5,0-0.6,0.1c-0.2,0.1-0.3,0.2-0.5,0.4c-0.1,0.1-0.2,0.3-0.3,0.5s-0.1,0.4-0.1,0.6H459.1z"/>
			<path d="M464.6,282.5c0,0.1,0,0.2,0,0.2s0,0.1,0,0.1s0,0.1,0,0.1s0,0-0.1,0s-0.1,0-0.1,0s-0.1,0-0.2-0.1s-0.1,0-0.2,0
				s-0.1,0-0.2,0c-0.1,0-0.2,0-0.3,0.1s-0.2,0.1-0.3,0.2s-0.2,0.2-0.3,0.4s-0.2,0.3-0.4,0.5v3.5c0,0,0,0.1,0,0.1s0,0-0.1,0.1
				s-0.1,0-0.1,0s-0.1,0-0.2,0c-0.1,0-0.2,0-0.2,0s-0.1,0-0.1,0s-0.1,0-0.1-0.1s0,0,0-0.1v-5.3c0,0,0-0.1,0-0.1s0,0,0.1-0.1
				s0.1,0,0.1,0s0.1,0,0.2,0c0.1,0,0.2,0,0.2,0s0.1,0,0.1,0s0.1,0,0.1,0.1s0,0,0,0.1v0.8c0.1-0.2,0.3-0.4,0.4-0.5s0.2-0.2,0.4-0.3
				s0.2-0.1,0.3-0.2s0.2,0,0.3,0c0.1,0,0.1,0,0.2,0s0.1,0,0.2,0s0.1,0,0.2,0.1s0.1,0,0.1,0.1s0,0,0,0.1s0,0,0,0.1s0,0.1,0,0.1
				S464.6,282.4,464.6,282.5z"/>
			<path d="M472.7,287.1c0,0.1,0,0.1,0,0.2s0,0.1,0,0.1s0,0.1-0.1,0.1s-0.1,0-0.1,0h-3.6c-0.1,0-0.2,0-0.3-0.1s-0.1-0.2-0.1-0.3
				v-6.8c0-0.2,0-0.3,0.1-0.3s0.2-0.1,0.3-0.1h3.6c0,0,0.1,0,0.1,0s0,0,0.1,0.1s0,0.1,0,0.1s0,0.1,0,0.2c0,0.1,0,0.1,0,0.2
				s0,0.1,0,0.1s0,0.1-0.1,0.1s-0.1,0-0.1,0h-3v2.4h2.5c0,0,0.1,0,0.1,0s0,0,0.1,0.1s0,0.1,0,0.1s0,0.1,0,0.2c0,0.1,0,0.1,0,0.2
				s0,0.1,0,0.1s0,0.1-0.1,0.1s-0.1,0-0.1,0h-2.5v2.7h3c0,0,0.1,0,0.1,0s0,0,0.1,0.1s0,0.1,0,0.1S472.7,287,472.7,287.1z"/>
			<path d="M478.8,287.4C478.8,287.4,478.8,287.5,478.8,287.4c0,0.1-0.1,0.1-0.1,0.1s-0.1,0-0.1,0s-0.1,0-0.2,0c-0.1,0-0.2,0-0.2,0
				s-0.1,0-0.1,0s-0.1,0-0.1-0.1s0,0,0-0.1v-3.1c0-0.3,0-0.5-0.1-0.7s-0.1-0.3-0.2-0.5s-0.2-0.2-0.3-0.3s-0.3-0.1-0.5-0.1
				c-0.2,0-0.5,0.1-0.7,0.3s-0.5,0.4-0.8,0.8v3.7c0,0,0,0.1,0,0.1s0,0-0.1,0.1s-0.1,0-0.1,0s-0.1,0-0.2,0c-0.1,0-0.2,0-0.2,0
				s-0.1,0-0.1,0s-0.1,0-0.1-0.1s0,0,0-0.1v-5.3c0,0,0-0.1,0-0.1s0,0,0.1-0.1s0.1,0,0.1,0s0.1,0,0.2,0c0.1,0,0.2,0,0.2,0
				s0.1,0,0.1,0s0.1,0,0.1,0.1s0,0,0,0.1v0.7c0.3-0.3,0.6-0.6,0.9-0.7s0.6-0.2,0.9-0.2c0.4,0,0.6,0.1,0.9,0.2s0.4,0.3,0.6,0.5
				s0.3,0.4,0.3,0.7s0.1,0.6,0.1,1V287.4z"/>
			<path d="M483.2,287c0,0.1,0,0.2,0,0.3s0,0.1-0.1,0.1s-0.1,0.1-0.1,0.1s-0.1,0-0.2,0.1s-0.2,0-0.3,0s-0.2,0-0.3,0
				c-0.3,0-0.5,0-0.7-0.1s-0.4-0.2-0.5-0.3s-0.2-0.3-0.3-0.6s-0.1-0.5-0.1-0.8v-3.1h-0.7c-0.1,0-0.1,0-0.1-0.1s-0.1-0.2-0.1-0.3
				c0-0.1,0-0.1,0-0.2s0-0.1,0-0.1s0-0.1,0.1-0.1s0.1,0,0.1,0h0.7v-1.3c0,0,0-0.1,0-0.1s0,0,0.1-0.1s0.1,0,0.1,0s0.1,0,0.2,0
				c0.1,0,0.2,0,0.2,0s0.1,0,0.1,0s0.1,0,0.1,0.1s0,0,0,0.1v1.3h1.4c0,0,0.1,0,0.1,0s0,0,0.1,0.1s0,0.1,0,0.1s0,0.1,0,0.2
				c0,0.1,0,0.2-0.1,0.3s-0.1,0.1-0.1,0.1h-1.4v2.9c0,0.4,0.1,0.6,0.2,0.8s0.3,0.3,0.6,0.3c0.1,0,0.2,0,0.2,0s0.1,0,0.2-0.1
				s0.1,0,0.1-0.1s0.1,0,0.1,0c0,0,0,0,0.1,0s0,0,0,0.1s0,0.1,0,0.1S483.2,286.9,483.2,287z"/>
			<path d="M487.5,282.5c0,0.1,0,0.2,0,0.2s0,0.1,0,0.1s0,0.1,0,0.1s0,0-0.1,0s-0.1,0-0.1,0s-0.1,0-0.2-0.1s-0.1,0-0.2,0
				s-0.1,0-0.2,0c-0.1,0-0.2,0-0.3,0.1s-0.2,0.1-0.3,0.2s-0.2,0.2-0.3,0.4s-0.2,0.3-0.4,0.5v3.5c0,0,0,0.1,0,0.1s0,0-0.1,0.1
				s-0.1,0-0.1,0s-0.1,0-0.2,0c-0.1,0-0.2,0-0.2,0s-0.1,0-0.1,0s-0.1,0-0.1-0.1s0,0,0-0.1v-5.3c0,0,0-0.1,0-0.1s0,0,0.1-0.1
				s0.1,0,0.1,0s0.1,0,0.2,0c0.1,0,0.2,0,0.2,0s0.1,0,0.1,0s0.1,0,0.1,0.1s0,0,0,0.1v0.8c0.1-0.2,0.3-0.4,0.4-0.5s0.2-0.2,0.4-0.3
				s0.2-0.1,0.3-0.2s0.2,0,0.3,0c0.1,0,0.1,0,0.2,0s0.1,0,0.2,0s0.1,0,0.2,0.1s0.1,0,0.1,0.1s0,0,0,0.1s0,0,0,0.1s0,0.1,0,0.1
				S487.5,282.4,487.5,282.5z"/>
			<path d="M492.4,287.4c0,0,0,0.1,0,0.1s-0.1,0-0.1,0.1s-0.1,0-0.2,0c-0.1,0-0.2,0-0.2,0s-0.1,0-0.1-0.1s0-0.1,0-0.1v-0.5
				c-0.2,0.2-0.5,0.4-0.8,0.6s-0.6,0.2-0.9,0.2c-0.3,0-0.5,0-0.8-0.1s-0.4-0.2-0.6-0.3s-0.3-0.3-0.4-0.5s-0.1-0.4-0.1-0.7
				c0-0.3,0.1-0.6,0.2-0.8s0.3-0.4,0.5-0.5s0.5-0.3,0.8-0.3s0.7-0.1,1.1-0.1h0.7v-0.4c0-0.2,0-0.4-0.1-0.5s-0.1-0.3-0.2-0.4
				s-0.2-0.2-0.4-0.2s-0.3-0.1-0.6-0.1c-0.2,0-0.5,0-0.6,0.1s-0.4,0.1-0.5,0.2s-0.3,0.1-0.4,0.2s-0.2,0.1-0.2,0.1c0,0-0.1,0-0.1,0
				s0,0-0.1-0.1s0-0.1,0-0.1s0-0.1,0-0.2c0-0.1,0-0.2,0-0.2s0-0.1,0.1-0.2s0.1-0.1,0.3-0.2s0.3-0.1,0.4-0.2s0.4-0.1,0.6-0.1
				s0.4-0.1,0.6-0.1c0.4,0,0.7,0,1,0.1s0.5,0.2,0.6,0.4s0.3,0.4,0.4,0.6s0.1,0.5,0.1,0.9V287.4z M491.4,285h-0.8
				c-0.3,0-0.5,0-0.7,0.1s-0.4,0.1-0.5,0.2s-0.2,0.2-0.3,0.3s-0.1,0.3-0.1,0.4c0,0.3,0.1,0.5,0.3,0.7s0.4,0.2,0.7,0.2
				c0.3,0,0.5-0.1,0.7-0.2s0.4-0.3,0.7-0.6V285z"/>
			<path d="M498.7,287.4C498.7,287.4,498.7,287.5,498.7,287.4c0,0.1-0.1,0.1-0.1,0.1s-0.1,0-0.1,0s-0.1,0-0.2,0c-0.1,0-0.2,0-0.2,0
				s-0.1,0-0.1,0s-0.1,0-0.1-0.1s0,0,0-0.1v-3.1c0-0.3,0-0.5-0.1-0.7s-0.1-0.3-0.2-0.5s-0.2-0.2-0.3-0.3s-0.3-0.1-0.5-0.1
				c-0.2,0-0.5,0.1-0.7,0.3s-0.5,0.4-0.8,0.8v3.7c0,0,0,0.1,0,0.1s0,0-0.1,0.1s-0.1,0-0.1,0s-0.1,0-0.2,0c-0.1,0-0.2,0-0.2,0
				s-0.1,0-0.1,0s-0.1,0-0.1-0.1s0,0,0-0.1v-5.3c0,0,0-0.1,0-0.1s0,0,0.1-0.1s0.1,0,0.1,0s0.1,0,0.2,0c0.1,0,0.2,0,0.2,0
				s0.1,0,0.1,0s0.1,0,0.1,0.1s0,0,0,0.1v0.7c0.3-0.3,0.6-0.6,0.9-0.7s0.6-0.2,0.9-0.2c0.4,0,0.6,0.1,0.9,0.2s0.4,0.3,0.6,0.5
				s0.3,0.4,0.3,0.7s0.1,0.6,0.1,1V287.4z"/>
			<path d="M504.2,286.6c0,0.1,0,0.1,0,0.2s0,0.1,0,0.1s0,0.1,0,0.1s0,0.1-0.1,0.1s-0.1,0.1-0.2,0.2s-0.2,0.1-0.4,0.2
				s-0.3,0.1-0.5,0.1s-0.3,0.1-0.5,0.1c-0.4,0-0.7-0.1-1-0.2s-0.5-0.3-0.7-0.5s-0.3-0.5-0.5-0.9s-0.2-0.8-0.2-1.2
				c0-0.5,0.1-1,0.2-1.3s0.3-0.7,0.5-0.9s0.5-0.4,0.8-0.5s0.6-0.2,1-0.2c0.2,0,0.3,0,0.5,0s0.3,0.1,0.4,0.1s0.3,0.1,0.4,0.2
				s0.2,0.1,0.2,0.2s0.1,0.1,0.1,0.1s0,0.1,0,0.1s0,0.1,0,0.1s0,0.1,0,0.2c0,0.2,0,0.3-0.1,0.3s-0.1,0.1-0.1,0.1
				c-0.1,0-0.1,0-0.2-0.1s-0.2-0.1-0.3-0.2s-0.3-0.1-0.4-0.2s-0.4-0.1-0.6-0.1c-0.5,0-0.8,0.2-1.1,0.5s-0.4,0.9-0.4,1.6
				c0,0.3,0,0.6,0.1,0.9s0.2,0.5,0.3,0.6s0.3,0.3,0.5,0.4s0.4,0.1,0.6,0.1c0.2,0,0.4,0,0.6-0.1s0.3-0.1,0.4-0.2s0.2-0.2,0.3-0.2
				s0.1-0.1,0.2-0.1c0,0,0.1,0,0.1,0s0,0,0,0.1s0,0.1,0,0.1S504.2,286.5,504.2,286.6z"/>
			<path d="M510,284.5c0,0.2,0,0.3-0.1,0.3s-0.2,0.1-0.3,0.1h-3.5c0,0.3,0,0.6,0.1,0.8c0.1,0.2,0.2,0.4,0.3,0.6
				c0.1,0.2,0.3,0.3,0.5,0.4s0.5,0.1,0.8,0.1c0.3,0,0.5,0,0.7-0.1s0.4-0.1,0.5-0.1c0.1-0.1,0.3-0.1,0.4-0.1s0.2-0.1,0.2-0.1
				c0,0,0.1,0,0.1,0s0,0,0.1,0.1c0,0,0,0.1,0,0.1s0,0.1,0,0.2c0,0.1,0,0.1,0,0.1s0,0.1,0,0.1s0,0.1,0,0.1s0,0-0.1,0.1
				s-0.1,0.1-0.2,0.1s-0.2,0.1-0.4,0.1s-0.4,0.1-0.6,0.1s-0.5,0.1-0.7,0.1c-0.4,0-0.8-0.1-1.1-0.2s-0.6-0.3-0.8-0.5
				s-0.4-0.5-0.5-0.9s-0.2-0.8-0.2-1.3c0-0.5,0.1-0.9,0.2-1.2s0.3-0.7,0.5-0.9s0.5-0.4,0.8-0.6s0.7-0.2,1-0.2c0.4,0,0.8,0.1,1.1,0.2
				s0.5,0.3,0.7,0.5s0.3,0.5,0.4,0.8s0.1,0.6,0.1,1V284.5z M509.1,284.2c0-0.5-0.1-0.9-0.3-1.2c-0.2-0.3-0.6-0.4-1.1-0.4
				c-0.2,0-0.5,0-0.6,0.1c-0.2,0.1-0.3,0.2-0.5,0.4c-0.1,0.1-0.2,0.3-0.3,0.5s-0.1,0.4-0.1,0.6H509.1z"/>
		</g>
	</g>
</g>
</svg>
