<?xml version="1.0" encoding="utf-8"?>
<!-- Generator: Adobe Illustrator 19.0.0, SVG Export Plug-In . SVG Version: 6.00 Build 0)  -->
<svg version="1.1" id="Layer_3" xmlns="http://www.w3.org/2000/svg" xmlns:xlink="http://www.w3.org/1999/xlink" x="0px" y="0px"
	 viewBox="6 54 623 686" style="enable-background:new 6 54 623 686;" xml:space="preserve">
<style type="text/css">
	.st0{fill:none;stroke:#000000;stroke-miterlimit:10;}
	.st1{font-family:'ArialMT';}
	.st2{font-size:12px;}
</style>
<path id="A" class="st0" d="M311.2,304.2H348"/>
<text transform="matrix(1 0 0 1 6 54)" class="st1 st2">             </text>
<text transform="matrix(1 0 0 1 6 54)" class="st1 st2"> </text>
<text transform="matrix(1 0 0 1 9.334 54)" class="st1 st2"> </text>
<text transform="matrix(1 0 0 1 12.668 54)" class="st1 st2"> </text>
<text transform="matrix(1 0 0 1 16.002 54)" class="st1 st2"> </text>
<text transform="matrix(1 0 0 1 19.3359 54)" class="st1 st2"> </text>
<text transform="matrix(1 0 0 1 22.6699 54)" class="st1 st2"> </text>
<text transform="matrix(1 0 0 1 26.0039 54)" class="st1 st2"> </text>
<text transform="matrix(1 0 0 1 29.3379 54)" class="st1 st2"> </text>
<text transform="matrix(1 0 0 1 32.6719 54)" class="st1 st2"> </text>
<text transform="matrix(1 0 0 1 36.0059 54)" class="st1 st2"> </text>
<text transform="matrix(1 0 0 1 39.3398 54)" class="st1 st2"> </text>
<text transform="matrix(1 0 0 1 42.6738 54)" class="st1 st2"> </text>
<text transform="matrix(1 0 0 1 46.0078 54)" class="st1 st2"> </text>
<text transform="matrix(1 0 0 1 49.3418 54)" class="st1 st2"> </text>
<text transform="matrix(1 0 0 1 52.6758 54)" class="st1 st2">A</text>
<text transform="matrix(1 0 0 1 60.6797 54)" class="st1 st2"> </text>
<text transform="matrix(1 0 0 1 64.0137 54)" class="st1 st2"> </text>
<text transform="matrix(1 0 0 1 67.3477 54)" class="st1 st2"> </text>
<text transform="matrix(1 0 0 1 70.6816 54)" class="st1 st2"> </text>
<text transform="matrix(1 0 0 1 74.0156 54)" class="st1 st2"> </text>
<text transform="matrix(1 0 0 1 77.3496 54)" class="st1 st2"> </text>
<text transform="matrix(1 0 0 1 80.6836 54)" class="st1 st2"> </text>
<text transform="matrix(1 0 0 1 84.0176 54)" class="st1 st2"> </text>
<text transform="matrix(1 0 0 1 87.3516 54)" class="st1 st2"> </text>
<text transform="matrix(1 0 0 1 90.6855 54)" class="st1 st2"> </text>
<text transform="matrix(1 0 0 1 94.0195 54)" class="st1 st2"> </text>
<text transform="matrix(1 0 0 1 97.3535 54)" class="st1 st2"> </text>
<text transform="matrix(1 0 0 1 100.6875 54)" class="st1 st2"> </text>
<text transform="matrix(1 0 0 1 6 54)" class="st1 st2">         </text>
<path id="B" class="st0" d="M354,304.2h41.2"/>
<text transform="matrix(1 0 0 1 6 54)" class="st1 st2">             </text>
<text transform="matrix(1 0 0 1 6 54)" class="st1 st2"> </text>
<text transform="matrix(1 0 0 1 9.334 54)" class="st1 st2"> </text>
<text transform="matrix(1 0 0 1 12.668 54)" class="st1 st2"> </text>
<text transform="matrix(1 0 0 1 16.002 54)" class="st1 st2"> </text>
<text transform="matrix(1 0 0 1 19.3359 54)" class="st1 st2"> </text>
<text transform="matrix(1 0 0 1 22.6699 54)" class="st1 st2"> </text>
<text transform="matrix(1 0 0 1 26.0039 54)" class="st1 st2"> </text>
<text transform="matrix(1 0 0 1 29.3379 54)" class="st1 st2"> </text>
<text transform="matrix(1 0 0 1 32.6719 54)" class="st1 st2"> </text>
<text transform="matrix(1 0 0 1 36.0059 54)" class="st1 st2"> </text>
<text transform="matrix(1 0 0 1 39.3398 54)" class="st1 st2"> </text>
<text transform="matrix(1 0 0 1 42.6738 54)" class="st1 st2"> </text>
<text transform="matrix(1 0 0 1 46.0078 54)" class="st1 st2"> </text>
<text transform="matrix(1 0 0 1 49.3418 54)" class="st1 st2"> </text>
<text transform="matrix(1 0 0 1 52.6758 54)" class="st1 st2">B</text>
<text transform="matrix(1 0 0 1 60.6797 54)" class="st1 st2"> </text>
<text transform="matrix(1 0 0 1 64.0137 54)" class="st1 st2"> </text>
<text transform="matrix(1 0 0 1 67.3477 54)" class="st1 st2"> </text>
<text transform="matrix(1 0 0 1 70.6816 54)" class="st1 st2"> </text>
<text transform="matrix(1 0 0 1 74.0156 54)" class="st1 st2"> </text>
<text transform="matrix(1 0 0 1 77.3496 54)" class="st1 st2"> </text>
<text transform="matrix(1 0 0 1 80.6836 54)" class="st1 st2"> </text>
<text transform="matrix(1 0 0 1 84.0176 54)" class="st1 st2"> </text>
<text transform="matrix(1 0 0 1 87.3516 54)" class="st1 st2"> </text>
<text transform="matrix(1 0 0 1 90.6855 54)" class="st1 st2"> </text>
<text transform="matrix(1 0 0 1 94.0195 54)" class="st1 st2"> </text>
<text transform="matrix(1 0 0 1 97.3535 54)" class="st1 st2"> </text>
<text transform="matrix(1 0 0 1 100.6875 54)" class="st1 st2"> </text>
<text transform="matrix(1 0 0 1 6 54)" class="st1 st2">         </text>
<path id="C" class="st0" d="M398.8,308.3h33.3"/>
<text transform="matrix(1 0 0 1 6 54)" class="st1 st2">             </text>
<text transform="matrix(1 0 0 1 6 54)" class="st1 st2"> </text>
<text transform="matrix(1 0 0 1 9.334 54)" class="st1 st2"> </text>
<text transform="matrix(1 0 0 1 12.668 54)" class="st1 st2"> </text>
<text transform="matrix(1 0 0 1 16.002 54)" class="st1 st2"> </text>
<text transform="matrix(1 0 0 1 19.3359 54)" class="st1 st2"> </text>
<text transform="matrix(1 0 0 1 22.6699 54)" class="st1 st2"> </text>
<text transform="matrix(1 0 0 1 26.0039 54)" class="st1 st2"> </text>
<text transform="matrix(1 0 0 1 29.3379 54)" class="st1 st2"> </text>
<text transform="matrix(1 0 0 1 32.6719 54)" class="st1 st2"> </text>
<text transform="matrix(1 0 0 1 36.0059 54)" class="st1 st2"> </text>
<text transform="matrix(1 0 0 1 39.3398 54)" class="st1 st2"> </text>
<text transform="matrix(1 0 0 1 42.6738 54)" class="st1 st2"> </text>
<text transform="matrix(1 0 0 1 46.0078 54)" class="st1 st2"> </text>
<text transform="matrix(1 0 0 1 49.3418 54)" class="st1 st2"> </text>
<text transform="matrix(1 0 0 1 52.6758 54)" class="st1 st2">C</text>
<text transform="matrix(1 0 0 1 61.3418 54)" class="st1 st2"> </text>
<text transform="matrix(1 0 0 1 64.6758 54)" class="st1 st2"> </text>
<text transform="matrix(1 0 0 1 68.0098 54)" class="st1 st2"> </text>
<text transform="matrix(1 0 0 1 71.3438 54)" class="st1 st2"> </text>
<text transform="matrix(1 0 0 1 74.6777 54)" class="st1 st2"> </text>
<text transform="matrix(1 0 0 1 78.0117 54)" class="st1 st2"> </text>
<text transform="matrix(1 0 0 1 81.3457 54)" class="st1 st2"> </text>
<text transform="matrix(1 0 0 1 84.6797 54)" class="st1 st2"> </text>
<text transform="matrix(1 0 0 1 88.0137 54)" class="st1 st2"> </text>
<text transform="matrix(1 0 0 1 91.3477 54)" class="st1 st2"> </text>
<text transform="matrix(1 0 0 1 94.6816 54)" class="st1 st2"> </text>
<text transform="matrix(1 0 0 1 98.0156 54)" class="st1 st2"> </text>
<text transform="matrix(1 0 0 1 101.3496 54)" class="st1 st2"> </text>
<text transform="matrix(1 0 0 1 6 54)" class="st1 st2">         </text>
<path id="D" class="st0" d="M422.3,394.1h47.3h39.1"/>
<text transform="matrix(1 0 0 1 6 54)" class="st1 st2">             </text>
<text transform="matrix(1 0 0 1 6 54)" class="st1 st2"> </text>
<text transform="matrix(1 0 0 1 9.334 54)" class="st1 st2"> </text>
<text transform="matrix(1 0 0 1 12.668 54)" class="st1 st2"> </text>
<text transform="matrix(1 0 0 1 16.002 54)" class="st1 st2"> </text>
<text transform="matrix(1 0 0 1 19.3359 54)" class="st1 st2"> </text>
<text transform="matrix(1 0 0 1 22.6699 54)" class="st1 st2"> </text>
<text transform="matrix(1 0 0 1 26.0039 54)" class="st1 st2"> </text>
<text transform="matrix(1 0 0 1 29.3379 54)" class="st1 st2"> </text>
<text transform="matrix(1 0 0 1 32.6719 54)" class="st1 st2"> </text>
<text transform="matrix(1 0 0 1 36.0059 54)" class="st1 st2"> </text>
<text transform="matrix(1 0 0 1 39.3398 54)" class="st1 st2"> </text>
<text transform="matrix(1 0 0 1 42.6738 54)" class="st1 st2"> </text>
<text transform="matrix(1 0 0 1 46.0078 54)" class="st1 st2"> </text>
<text transform="matrix(1 0 0 1 49.3418 54)" class="st1 st2"> </text>
<text transform="matrix(1 0 0 1 52.6758 54)" class="st1 st2">D</text>
<text transform="matrix(1 0 0 1 61.3418 54)" class="st1 st2"> </text>
<text transform="matrix(1 0 0 1 64.6758 54)" class="st1 st2"> </text>
<text transform="matrix(1 0 0 1 68.0098 54)" class="st1 st2"> </text>
<text transform="matrix(1 0 0 1 71.3438 54)" class="st1 st2"> </text>
<text transform="matrix(1 0 0 1 74.6777 54)" class="st1 st2"> </text>
<text transform="matrix(1 0 0 1 78.0117 54)" class="st1 st2"> </text>
<text transform="matrix(1 0 0 1 81.3457 54)" class="st1 st2"> </text>
<text transform="matrix(1 0 0 1 84.6797 54)" class="st1 st2"> </text>
<text transform="matrix(1 0 0 1 88.0137 54)" class="st1 st2"> </text>
<text transform="matrix(1 0 0 1 91.3477 54)" class="st1 st2"> </text>
<text transform="matrix(1 0 0 1 94.6816 54)" class="st1 st2"> </text>
<text transform="matrix(1 0 0 1 98.0156 54)" class="st1 st2"> </text>
<text transform="matrix(1 0 0 1 101.3496 54)" class="st1 st2"> </text>
<text transform="matrix(1 0 0 1 6 54)" class="st1 st2">         </text>
<path id="E" class="st0" d="M422.3,439.2h86.4"/>
<text transform="matrix(1 0 0 1 6 54)" class="st1 st2">             </text>
<text transform="matrix(1 0 0 1 6 54)" class="st1 st2"> </text>
<text transform="matrix(1 0 0 1 9.334 54)" class="st1 st2"> </text>
<text transform="matrix(1 0 0 1 12.668 54)" class="st1 st2"> </text>
<text transform="matrix(1 0 0 1 16.002 54)" class="st1 st2"> </text>
<text transform="matrix(1 0 0 1 19.3359 54)" class="st1 st2"> </text>
<text transform="matrix(1 0 0 1 22.6699 54)" class="st1 st2"> </text>
<text transform="matrix(1 0 0 1 26.0039 54)" class="st1 st2"> </text>
<text transform="matrix(1 0 0 1 29.3379 54)" class="st1 st2"> </text>
<text transform="matrix(1 0 0 1 32.6719 54)" class="st1 st2"> </text>
<text transform="matrix(1 0 0 1 36.0059 54)" class="st1 st2"> </text>
<text transform="matrix(1 0 0 1 39.3398 54)" class="st1 st2"> </text>
<text transform="matrix(1 0 0 1 42.6738 54)" class="st1 st2"> </text>
<text transform="matrix(1 0 0 1 46.0078 54)" class="st1 st2"> </text>
<text transform="matrix(1 0 0 1 49.3418 54)" class="st1 st2"> </text>
<text transform="matrix(1 0 0 1 52.6758 54)" class="st1 st2">E</text>
<text transform="matrix(1 0 0 1 60.6797 54)" class="st1 st2"> </text>
<text transform="matrix(1 0 0 1 64.0137 54)" class="st1 st2"> </text>
<text transform="matrix(1 0 0 1 67.3477 54)" class="st1 st2"> </text>
<text transform="matrix(1 0 0 1 70.6816 54)" class="st1 st2"> </text>
<text transform="matrix(1 0 0 1 74.0156 54)" class="st1 st2"> </text>
<text transform="matrix(1 0 0 1 77.3496 54)" class="st1 st2"> </text>
<text transform="matrix(1 0 0 1 80.6836 54)" class="st1 st2"> </text>
<text transform="matrix(1 0 0 1 84.0176 54)" class="st1 st2"> </text>
<text transform="matrix(1 0 0 1 87.3516 54)" class="st1 st2"> </text>
<text transform="matrix(1 0 0 1 90.6855 54)" class="st1 st2"> </text>
<text transform="matrix(1 0 0 1 94.0195 54)" class="st1 st2"> </text>
<text transform="matrix(1 0 0 1 97.3535 54)" class="st1 st2"> </text>
<text transform="matrix(1 0 0 1 100.6875 54)" class="st1 st2"> </text>
<text transform="matrix(1 0 0 1 6 54)" class="st1 st2">         </text>
<path id="F" class="st0" d="M422.3,481.9h86.4"/>
<text transform="matrix(1 0 0 1 6 54)" class="st1 st2">             </text>
<text transform="matrix(1 0 0 1 6 54)" class="st1 st2"> </text>
<text transform="matrix(1 0 0 1 9.334 54)" class="st1 st2"> </text>
<text transform="matrix(1 0 0 1 12.668 54)" class="st1 st2"> </text>
<text transform="matrix(1 0 0 1 16.002 54)" class="st1 st2"> </text>
<text transform="matrix(1 0 0 1 19.3359 54)" class="st1 st2"> </text>
<text transform="matrix(1 0 0 1 22.6699 54)" class="st1 st2"> </text>
<text transform="matrix(1 0 0 1 26.0039 54)" class="st1 st2"> </text>
<text transform="matrix(1 0 0 1 29.3379 54)" class="st1 st2"> </text>
<text transform="matrix(1 0 0 1 32.6719 54)" class="st1 st2"> </text>
<text transform="matrix(1 0 0 1 36.0059 54)" class="st1 st2"> </text>
<text transform="matrix(1 0 0 1 39.3398 54)" class="st1 st2"> </text>
<text transform="matrix(1 0 0 1 42.6738 54)" class="st1 st2"> </text>
<text transform="matrix(1 0 0 1 46.0078 54)" class="st1 st2"> </text>
<text transform="matrix(1 0 0 1 49.3418 54)" class="st1 st2"> </text>
<text transform="matrix(1 0 0 1 52.6758 54)" class="st1 st2">F</text>
<text transform="matrix(1 0 0 1 60.0059 54)" class="st1 st2"> </text>
<text transform="matrix(1 0 0 1 63.3398 54)" class="st1 st2"> </text>
<text transform="matrix(1 0 0 1 66.6738 54)" class="st1 st2"> </text>
<text transform="matrix(1 0 0 1 70.0078 54)" class="st1 st2"> </text>
<text transform="matrix(1 0 0 1 73.3418 54)" class="st1 st2"> </text>
<text transform="matrix(1 0 0 1 76.6758 54)" class="st1 st2"> </text>
<text transform="matrix(1 0 0 1 80.0098 54)" class="st1 st2"> </text>
<text transform="matrix(1 0 0 1 83.3438 54)" class="st1 st2"> </text>
<text transform="matrix(1 0 0 1 86.6777 54)" class="st1 st2"> </text>
<text transform="matrix(1 0 0 1 90.0117 54)" class="st1 st2"> </text>
<text transform="matrix(1 0 0 1 93.3457 54)" class="st1 st2"> </text>
<text transform="matrix(1 0 0 1 96.6797 54)" class="st1 st2"> </text>
<text transform="matrix(1 0 0 1 100.0137 54)" class="st1 st2"> </text>
<text transform="matrix(1 0 0 1 6 54)" class="st1 st2">         </text>
<path id="G" class="st0" d="M422.3,526.9h86.4"/>
<text transform="matrix(1 0 0 1 6 54)" class="st1 st2">             </text>
<text transform="matrix(1 0 0 1 6 54)" class="st1 st2"> </text>
<text transform="matrix(1 0 0 1 9.334 54)" class="st1 st2"> </text>
<text transform="matrix(1 0 0 1 12.668 54)" class="st1 st2"> </text>
<text transform="matrix(1 0 0 1 16.002 54)" class="st1 st2"> </text>
<text transform="matrix(1 0 0 1 19.3359 54)" class="st1 st2"> </text>
<text transform="matrix(1 0 0 1 22.6699 54)" class="st1 st2"> </text>
<text transform="matrix(1 0 0 1 26.0039 54)" class="st1 st2"> </text>
<text transform="matrix(1 0 0 1 29.3379 54)" class="st1 st2"> </text>
<text transform="matrix(1 0 0 1 32.6719 54)" class="st1 st2"> </text>
<text transform="matrix(1 0 0 1 36.0059 54)" class="st1 st2"> </text>
<text transform="matrix(1 0 0 1 39.3398 54)" class="st1 st2"> </text>
<text transform="matrix(1 0 0 1 42.6738 54)" class="st1 st2"> </text>
<text transform="matrix(1 0 0 1 46.0078 54)" class="st1 st2"> </text>
<text transform="matrix(1 0 0 1 49.3418 54)" class="st1 st2"> </text>
<text transform="matrix(1 0 0 1 52.6758 54)" class="st1 st2">G</text>
<text transform="matrix(1 0 0 1 62.0098 54)" class="st1 st2"> </text>
<text transform="matrix(1 0 0 1 65.3438 54)" class="st1 st2"> </text>
<text transform="matrix(1 0 0 1 68.6777 54)" class="st1 st2"> </text>
<text transform="matrix(1 0 0 1 72.0117 54)" class="st1 st2"> </text>
<text transform="matrix(1 0 0 1 75.3457 54)" class="st1 st2"> </text>
<text transform="matrix(1 0 0 1 78.6797 54)" class="st1 st2"> </text>
<text transform="matrix(1 0 0 1 82.0137 54)" class="st1 st2"> </text>
<text transform="matrix(1 0 0 1 85.3477 54)" class="st1 st2"> </text>
<text transform="matrix(1 0 0 1 88.6816 54)" class="st1 st2"> </text>
<text transform="matrix(1 0 0 1 92.0156 54)" class="st1 st2"> </text>
<text transform="matrix(1 0 0 1 95.3496 54)" class="st1 st2"> </text>
<text transform="matrix(1 0 0 1 98.6836 54)" class="st1 st2"> </text>
<text transform="matrix(1 0 0 1 102.0176 54)" class="st1 st2"> </text>
<text transform="matrix(1 0 0 1 6 54)" class="st1 st2">         </text>
<path id="H" class="st0" d="M422.3,567.9h86.4"/>
<text transform="matrix(1 0 0 1 6 54)" class="st1 st2">             </text>
<text transform="matrix(1 0 0 1 6 54)" class="st1 st2"> </text>
<text transform="matrix(1 0 0 1 9.334 54)" class="st1 st2"> </text>
<text transform="matrix(1 0 0 1 12.668 54)" class="st1 st2"> </text>
<text transform="matrix(1 0 0 1 16.002 54)" class="st1 st2"> </text>
<text transform="matrix(1 0 0 1 19.3359 54)" class="st1 st2"> </text>
<text transform="matrix(1 0 0 1 22.6699 54)" class="st1 st2"> </text>
<text transform="matrix(1 0 0 1 26.0039 54)" class="st1 st2"> </text>
<text transform="matrix(1 0 0 1 29.3379 54)" class="st1 st2"> </text>
<text transform="matrix(1 0 0 1 32.6719 54)" class="st1 st2"> </text>
<text transform="matrix(1 0 0 1 36.0059 54)" class="st1 st2"> </text>
<text transform="matrix(1 0 0 1 39.3398 54)" class="st1 st2"> </text>
<text transform="matrix(1 0 0 1 42.6738 54)" class="st1 st2"> </text>
<text transform="matrix(1 0 0 1 46.0078 54)" class="st1 st2"> </text>
<text transform="matrix(1 0 0 1 49.3418 54)" class="st1 st2"> </text>
<text transform="matrix(1 0 0 1 52.6758 54)" class="st1 st2">H</text>
<text transform="matrix(1 0 0 1 61.3418 54)" class="st1 st2"> </text>
<text transform="matrix(1 0 0 1 64.6758 54)" class="st1 st2"> </text>
<text transform="matrix(1 0 0 1 68.0098 54)" class="st1 st2"> </text>
<text transform="matrix(1 0 0 1 71.3438 54)" class="st1 st2"> </text>
<text transform="matrix(1 0 0 1 74.6777 54)" class="st1 st2"> </text>
<text transform="matrix(1 0 0 1 78.0117 54)" class="st1 st2"> </text>
<text transform="matrix(1 0 0 1 81.3457 54)" class="st1 st2"> </text>
<text transform="matrix(1 0 0 1 84.6797 54)" class="st1 st2"> </text>
<text transform="matrix(1 0 0 1 88.0137 54)" class="st1 st2"> </text>
<text transform="matrix(1 0 0 1 91.3477 54)" class="st1 st2"> </text>
<text transform="matrix(1 0 0 1 94.6816 54)" class="st1 st2"> </text>
<text transform="matrix(1 0 0 1 98.0156 54)" class="st1 st2"> </text>
<text transform="matrix(1 0 0 1 101.3496 54)" class="st1 st2"> </text>
<text transform="matrix(1 0 0 1 6 54)" class="st1 st2">         </text>
<path id="I" class="st0" d="M400.9,653.3h39.5"/>
<text transform="matrix(1 0 0 1 6 54)" class="st1 st2">             </text>
<text transform="matrix(1 0 0 1 6 54)" class="st1 st2"> </text>
<text transform="matrix(1 0 0 1 9.334 54)" class="st1 st2"> </text>
<text transform="matrix(1 0 0 1 12.668 54)" class="st1 st2"> </text>
<text transform="matrix(1 0 0 1 16.002 54)" class="st1 st2"> </text>
<text transform="matrix(1 0 0 1 19.3359 54)" class="st1 st2"> </text>
<text transform="matrix(1 0 0 1 22.6699 54)" class="st1 st2"> </text>
<text transform="matrix(1 0 0 1 26.0039 54)" class="st1 st2"> </text>
<text transform="matrix(1 0 0 1 29.3379 54)" class="st1 st2"> </text>
<text transform="matrix(1 0 0 1 32.6719 54)" class="st1 st2"> </text>
<text transform="matrix(1 0 0 1 36.0059 54)" class="st1 st2"> </text>
<text transform="matrix(1 0 0 1 39.3398 54)" class="st1 st2"> </text>
<text transform="matrix(1 0 0 1 42.6738 54)" class="st1 st2"> </text>
<text transform="matrix(1 0 0 1 46.0078 54)" class="st1 st2"> </text>
<text transform="matrix(1 0 0 1 49.3418 54)" class="st1 st2"> </text>
<text transform="matrix(1 0 0 1 52.6758 54)" class="st1 st2">I</text>
<text transform="matrix(1 0 0 1 56.0098 54)" class="st1 st2"> </text>
<text transform="matrix(1 0 0 1 59.3438 54)" class="st1 st2"> </text>
<text transform="matrix(1 0 0 1 62.6777 54)" class="st1 st2"> </text>
<text transform="matrix(1 0 0 1 66.0117 54)" class="st1 st2"> </text>
<text transform="matrix(1 0 0 1 69.3457 54)" class="st1 st2"> </text>
<text transform="matrix(1 0 0 1 72.6797 54)" class="st1 st2"> </text>
<text transform="matrix(1 0 0 1 76.0137 54)" class="st1 st2"> </text>
<text transform="matrix(1 0 0 1 79.3477 54)" class="st1 st2"> </text>
<text transform="matrix(1 0 0 1 82.6816 54)" class="st1 st2"> </text>
<text transform="matrix(1 0 0 1 86.0156 54)" class="st1 st2"> </text>
<text transform="matrix(1 0 0 1 89.3496 54)" class="st1 st2"> </text>
<text transform="matrix(1 0 0 1 92.6836 54)" class="st1 st2"> </text>
<text transform="matrix(1 0 0 1 96.0176 54)" class="st1 st2"> </text>
<text transform="matrix(1 0 0 1 6 54)" class="st1 st2">         </text>
<path id="J" class="st0" d="M353.1,659.8h42.7"/>
<text transform="matrix(1 0 0 1 6 54)" class="st1 st2">             </text>
<text transform="matrix(1 0 0 1 6 54)" class="st1 st2"> </text>
<text transform="matrix(1 0 0 1 9.334 54)" class="st1 st2"> </text>
<text transform="matrix(1 0 0 1 12.668 54)" class="st1 st2"> </text>
<text transform="matrix(1 0 0 1 16.002 54)" class="st1 st2"> </text>
<text transform="matrix(1 0 0 1 19.3359 54)" class="st1 st2"> </text>
<text transform="matrix(1 0 0 1 22.6699 54)" class="st1 st2"> </text>
<text transform="matrix(1 0 0 1 26.0039 54)" class="st1 st2"> </text>
<text transform="matrix(1 0 0 1 29.3379 54)" class="st1 st2"> </text>
<text transform="matrix(1 0 0 1 32.6719 54)" class="st1 st2"> </text>
<text transform="matrix(1 0 0 1 36.0059 54)" class="st1 st2"> </text>
<text transform="matrix(1 0 0 1 39.3398 54)" class="st1 st2"> </text>
<text transform="matrix(1 0 0 1 42.6738 54)" class="st1 st2"> </text>
<text transform="matrix(1 0 0 1 46.0078 54)" class="st1 st2"> </text>
<text transform="matrix(1 0 0 1 49.3418 54)" class="st1 st2"> </text>
<text transform="matrix(1 0 0 1 52.6758 54)" class="st1 st2">J</text>
<text transform="matrix(1 0 0 1 58.6758 54)" class="st1 st2"> </text>
<text transform="matrix(1 0 0 1 62.0098 54)" class="st1 st2"> </text>
<text transform="matrix(1 0 0 1 65.3438 54)" class="st1 st2"> </text>
<text transform="matrix(1 0 0 1 68.6777 54)" class="st1 st2"> </text>
<text transform="matrix(1 0 0 1 72.0117 54)" class="st1 st2"> </text>
<text transform="matrix(1 0 0 1 75.3457 54)" class="st1 st2"> </text>
<text transform="matrix(1 0 0 1 78.6797 54)" class="st1 st2"> </text>
<text transform="matrix(1 0 0 1 82.0137 54)" class="st1 st2"> </text>
<text transform="matrix(1 0 0 1 85.3477 54)" class="st1 st2"> </text>
<text transform="matrix(1 0 0 1 88.6816 54)" class="st1 st2"> </text>
<text transform="matrix(1 0 0 1 92.0156 54)" class="st1 st2"> </text>
<text transform="matrix(1 0 0 1 95.3496 54)" class="st1 st2"> </text>
<text transform="matrix(1 0 0 1 98.6836 54)" class="st1 st2"> </text>
<text transform="matrix(1 0 0 1 6 54)" class="st1 st2">         </text>
<path id="K" class="st0" d="M311.6,659.8h34.5"/>
<text transform="matrix(1 0 0 1 6 54)" class="st1 st2">             </text>
<text transform="matrix(1 0 0 1 6 54)" class="st1 st2"> </text>
<text transform="matrix(1 0 0 1 9.334 54)" class="st1 st2"> </text>
<text transform="matrix(1 0 0 1 12.668 54)" class="st1 st2"> </text>
<text transform="matrix(1 0 0 1 16.002 54)" class="st1 st2"> </text>
<text transform="matrix(1 0 0 1 19.3359 54)" class="st1 st2"> </text>
<text transform="matrix(1 0 0 1 22.6699 54)" class="st1 st2"> </text>
<text transform="matrix(1 0 0 1 26.0039 54)" class="st1 st2"> </text>
<text transform="matrix(1 0 0 1 29.3379 54)" class="st1 st2"> </text>
<text transform="matrix(1 0 0 1 32.6719 54)" class="st1 st2"> </text>
<text transform="matrix(1 0 0 1 36.0059 54)" class="st1 st2"> </text>
<text transform="matrix(1 0 0 1 39.3398 54)" class="st1 st2"> </text>
<text transform="matrix(1 0 0 1 42.6738 54)" class="st1 st2"> </text>
<text transform="matrix(1 0 0 1 46.0078 54)" class="st1 st2"> </text>
<text transform="matrix(1 0 0 1 49.3418 54)" class="st1 st2"> </text>
<text transform="matrix(1 0 0 1 52.6758 54)" class="st1 st2">K</text>
<text transform="matrix(1 0 0 1 60.6797 54)" class="st1 st2"> </text>
<text transform="matrix(1 0 0 1 64.0137 54)" class="st1 st2"> </text>
<text transform="matrix(1 0 0 1 67.3477 54)" class="st1 st2"> </text>
<text transform="matrix(1 0 0 1 70.6816 54)" class="st1 st2"> </text>
<text transform="matrix(1 0 0 1 74.0156 54)" class="st1 st2"> </text>
<text transform="matrix(1 0 0 1 77.3496 54)" class="st1 st2"> </text>
<text transform="matrix(1 0 0 1 80.6836 54)" class="st1 st2"> </text>
<text transform="matrix(1 0 0 1 84.0176 54)" class="st1 st2"> </text>
<text transform="matrix(1 0 0 1 87.3516 54)" class="st1 st2"> </text>
<text transform="matrix(1 0 0 1 90.6855 54)" class="st1 st2"> </text>
<text transform="matrix(1 0 0 1 94.0195 54)" class="st1 st2"> </text>
<text transform="matrix(1 0 0 1 97.3535 54)" class="st1 st2"> </text>
<text transform="matrix(1 0 0 1 100.6875 54)" class="st1 st2"> </text>
<text transform="matrix(1 0 0 1 6 54)" class="st1 st2">         </text>
<path id="L" class="st0" d="M261.2,659.8H306"/>
<text transform="matrix(1 0 0 1 6 54)" class="st1 st2">             </text>
<text transform="matrix(1 0 0 1 6 54)" class="st1 st2"> </text>
<text transform="matrix(1 0 0 1 9.334 54)" class="st1 st2"> </text>
<text transform="matrix(1 0 0 1 12.668 54)" class="st1 st2"> </text>
<text transform="matrix(1 0 0 1 16.002 54)" class="st1 st2"> </text>
<text transform="matrix(1 0 0 1 19.3359 54)" class="st1 st2"> </text>
<text transform="matrix(1 0 0 1 22.6699 54)" class="st1 st2"> </text>
<text transform="matrix(1 0 0 1 26.0039 54)" class="st1 st2"> </text>
<text transform="matrix(1 0 0 1 29.3379 54)" class="st1 st2"> </text>
<text transform="matrix(1 0 0 1 32.6719 54)" class="st1 st2"> </text>
<text transform="matrix(1 0 0 1 36.0059 54)" class="st1 st2"> </text>
<text transform="matrix(1 0 0 1 39.3398 54)" class="st1 st2"> </text>
<text transform="matrix(1 0 0 1 42.6738 54)" class="st1 st2"> </text>
<text transform="matrix(1 0 0 1 46.0078 54)" class="st1 st2"> </text>
<text transform="matrix(1 0 0 1 49.3418 54)" class="st1 st2"> </text>
<text transform="matrix(1 0 0 1 52.6758 54)" class="st1 st2">L</text>
<text transform="matrix(1 0 0 1 59.3496 54)" class="st1 st2"> </text>
<text transform="matrix(1 0 0 1 62.6836 54)" class="st1 st2"> </text>
<text transform="matrix(1 0 0 1 66.0176 54)" class="st1 st2"> </text>
<text transform="matrix(1 0 0 1 69.3516 54)" class="st1 st2"> </text>
<text transform="matrix(1 0 0 1 72.6855 54)" class="st1 st2"> </text>
<text transform="matrix(1 0 0 1 76.0195 54)" class="st1 st2"> </text>
<text transform="matrix(1 0 0 1 79.3535 54)" class="st1 st2"> </text>
<text transform="matrix(1 0 0 1 82.6875 54)" class="st1 st2"> </text>
<text transform="matrix(1 0 0 1 86.0215 54)" class="st1 st2"> </text>
<text transform="matrix(1 0 0 1 89.3555 54)" class="st1 st2"> </text>
<text transform="matrix(1 0 0 1 92.6895 54)" class="st1 st2"> </text>
<text transform="matrix(1 0 0 1 96.0234 54)" class="st1 st2"> </text>
<text transform="matrix(1 0 0 1 99.3574 54)" class="st1 st2"> </text>
<text transform="matrix(1 0 0 1 6 54)" class="st1 st2">         </text>
<path id="M" class="st0" d="M219.6,653.3h38"/>
<text transform="matrix(1 0 0 1 6 54)" class="st1 st2">             </text>
<text transform="matrix(1 0 0 1 6 54)" class="st1 st2"> </text>
<text transform="matrix(1 0 0 1 9.334 54)" class="st1 st2"> </text>
<text transform="matrix(1 0 0 1 12.668 54)" class="st1 st2"> </text>
<text transform="matrix(1 0 0 1 16.002 54)" class="st1 st2"> </text>
<text transform="matrix(1 0 0 1 19.3359 54)" class="st1 st2"> </text>
<text transform="matrix(1 0 0 1 22.6699 54)" class="st1 st2"> </text>
<text transform="matrix(1 0 0 1 26.0039 54)" class="st1 st2"> </text>
<text transform="matrix(1 0 0 1 29.3379 54)" class="st1 st2"> </text>
<text transform="matrix(1 0 0 1 32.6719 54)" class="st1 st2"> </text>
<text transform="matrix(1 0 0 1 36.0059 54)" class="st1 st2"> </text>
<text transform="matrix(1 0 0 1 39.3398 54)" class="st1 st2"> </text>
<text transform="matrix(1 0 0 1 42.6738 54)" class="st1 st2"> </text>
<text transform="matrix(1 0 0 1 46.0078 54)" class="st1 st2"> </text>
<text transform="matrix(1 0 0 1 49.3418 54)" class="st1 st2"> </text>
<text transform="matrix(1 0 0 1 52.6758 54)" class="st1 st2">M</text>
<text transform="matrix(1 0 0 1 62.6719 54)" class="st1 st2"> </text>
<text transform="matrix(1 0 0 1 66.0059 54)" class="st1 st2"> </text>
<text transform="matrix(1 0 0 1 69.3398 54)" class="st1 st2"> </text>
<text transform="matrix(1 0 0 1 72.6738 54)" class="st1 st2"> </text>
<text transform="matrix(1 0 0 1 76.0078 54)" class="st1 st2"> </text>
<text transform="matrix(1 0 0 1 79.3418 54)" class="st1 st2"> </text>
<text transform="matrix(1 0 0 1 82.6758 54)" class="st1 st2"> </text>
<text transform="matrix(1 0 0 1 86.0098 54)" class="st1 st2"> </text>
<text transform="matrix(1 0 0 1 89.3438 54)" class="st1 st2"> </text>
<text transform="matrix(1 0 0 1 92.6777 54)" class="st1 st2"> </text>
<text transform="matrix(1 0 0 1 96.0117 54)" class="st1 st2"> </text>
<text transform="matrix(1 0 0 1 99.3457 54)" class="st1 st2"> </text>
<text transform="matrix(1 0 0 1 102.6797 54)" class="st1 st2"> </text>
<text transform="matrix(1 0 0 1 6 54)" class="st1 st2">         </text>
<path id="N" class="st0" d="M149.8,567.7H238"/>
<text transform="matrix(1 0 0 1 6 54)" class="st1 st2">             </text>
<text transform="matrix(1 0 0 1 6 54)" class="st1 st2"> </text>
<text transform="matrix(1 0 0 1 9.334 54)" class="st1 st2"> </text>
<text transform="matrix(1 0 0 1 12.668 54)" class="st1 st2"> </text>
<text transform="matrix(1 0 0 1 16.002 54)" class="st1 st2"> </text>
<text transform="matrix(1 0 0 1 19.3359 54)" class="st1 st2"> </text>
<text transform="matrix(1 0 0 1 22.6699 54)" class="st1 st2"> </text>
<text transform="matrix(1 0 0 1 26.0039 54)" class="st1 st2"> </text>
<text transform="matrix(1 0 0 1 29.3379 54)" class="st1 st2"> </text>
<text transform="matrix(1 0 0 1 32.6719 54)" class="st1 st2"> </text>
<text transform="matrix(1 0 0 1 36.0059 54)" class="st1 st2"> </text>
<text transform="matrix(1 0 0 1 39.3398 54)" class="st1 st2"> </text>
<text transform="matrix(1 0 0 1 42.6738 54)" class="st1 st2"> </text>
<text transform="matrix(1 0 0 1 46.0078 54)" class="st1 st2"> </text>
<text transform="matrix(1 0 0 1 49.3418 54)" class="st1 st2"> </text>
<text transform="matrix(1 0 0 1 52.6758 54)" class="st1 st2">N</text>
<text transform="matrix(1 0 0 1 61.3418 54)" class="st1 st2"> </text>
<text transform="matrix(1 0 0 1 64.6758 54)" class="st1 st2"> </text>
<text transform="matrix(1 0 0 1 68.0098 54)" class="st1 st2"> </text>
<text transform="matrix(1 0 0 1 71.3438 54)" class="st1 st2"> </text>
<text transform="matrix(1 0 0 1 74.6777 54)" class="st1 st2"> </text>
<text transform="matrix(1 0 0 1 78.0117 54)" class="st1 st2"> </text>
<text transform="matrix(1 0 0 1 81.3457 54)" class="st1 st2"> </text>
<text transform="matrix(1 0 0 1 84.6797 54)" class="st1 st2"> </text>
<text transform="matrix(1 0 0 1 88.0137 54)" class="st1 st2"> </text>
<text transform="matrix(1 0 0 1 91.3477 54)" class="st1 st2"> </text>
<text transform="matrix(1 0 0 1 94.6816 54)" class="st1 st2"> </text>
<text transform="matrix(1 0 0 1 98.0156 54)" class="st1 st2"> </text>
<text transform="matrix(1 0 0 1 101.3496 54)" class="st1 st2"> </text>
<text transform="matrix(1 0 0 1 6 54)" class="st1 st2">         </text>
<path id="O" class="st0" d="M148.3,523.4h87.5"/>
<text transform="matrix(1 0 0 1 6 54)" class="st1 st2">             </text>
<text transform="matrix(1 0 0 1 6 54)" class="st1 st2"> </text>
<text transform="matrix(1 0 0 1 9.334 54)" class="st1 st2"> </text>
<text transform="matrix(1 0 0 1 12.668 54)" class="st1 st2"> </text>
<text transform="matrix(1 0 0 1 16.002 54)" class="st1 st2"> </text>
<text transform="matrix(1 0 0 1 19.3359 54)" class="st1 st2"> </text>
<text transform="matrix(1 0 0 1 22.6699 54)" class="st1 st2"> </text>
<text transform="matrix(1 0 0 1 26.0039 54)" class="st1 st2"> </text>
<text transform="matrix(1 0 0 1 29.3379 54)" class="st1 st2"> </text>
<text transform="matrix(1 0 0 1 32.6719 54)" class="st1 st2"> </text>
<text transform="matrix(1 0 0 1 36.0059 54)" class="st1 st2"> </text>
<text transform="matrix(1 0 0 1 39.3398 54)" class="st1 st2"> </text>
<text transform="matrix(1 0 0 1 42.6738 54)" class="st1 st2"> </text>
<text transform="matrix(1 0 0 1 46.0078 54)" class="st1 st2"> </text>
<text transform="matrix(1 0 0 1 49.3418 54)" class="st1 st2"> </text>
<text transform="matrix(1 0 0 1 52.6758 54)" class="st1 st2">O</text>
<text transform="matrix(1 0 0 1 62.0098 54)" class="st1 st2"> </text>
<text transform="matrix(1 0 0 1 65.3438 54)" class="st1 st2"> </text>
<text transform="matrix(1 0 0 1 68.6777 54)" class="st1 st2"> </text>
<text transform="matrix(1 0 0 1 72.0117 54)" class="st1 st2"> </text>
<text transform="matrix(1 0 0 1 75.3457 54)" class="st1 st2"> </text>
<text transform="matrix(1 0 0 1 78.6797 54)" class="st1 st2"> </text>
<text transform="matrix(1 0 0 1 82.0137 54)" class="st1 st2"> </text>
<text transform="matrix(1 0 0 1 85.3477 54)" class="st1 st2"> </text>
<text transform="matrix(1 0 0 1 88.6816 54)" class="st1 st2"> </text>
<text transform="matrix(1 0 0 1 92.0156 54)" class="st1 st2"> </text>
<text transform="matrix(1 0 0 1 95.3496 54)" class="st1 st2"> </text>
<text transform="matrix(1 0 0 1 98.6836 54)" class="st1 st2"> </text>
<text transform="matrix(1 0 0 1 102.0176 54)" class="st1 st2"> </text>
<text transform="matrix(1 0 0 1 6 54)" class="st1 st2">         </text>
<path id="P" class="st0" d="M148.3,482.5h87.5"/>
<text transform="matrix(1 0 0 1 6 54)" class="st1 st2">             </text>
<text transform="matrix(1 0 0 1 6 54)" class="st1 st2"> </text>
<text transform="matrix(1 0 0 1 9.334 54)" class="st1 st2"> </text>
<text transform="matrix(1 0 0 1 12.668 54)" class="st1 st2"> </text>
<text transform="matrix(1 0 0 1 16.002 54)" class="st1 st2"> </text>
<text transform="matrix(1 0 0 1 19.3359 54)" class="st1 st2"> </text>
<text transform="matrix(1 0 0 1 22.6699 54)" class="st1 st2"> </text>
<text transform="matrix(1 0 0 1 26.0039 54)" class="st1 st2"> </text>
<text transform="matrix(1 0 0 1 29.3379 54)" class="st1 st2"> </text>
<text transform="matrix(1 0 0 1 32.6719 54)" class="st1 st2"> </text>
<text transform="matrix(1 0 0 1 36.0059 54)" class="st1 st2"> </text>
<text transform="matrix(1 0 0 1 39.3398 54)" class="st1 st2"> </text>
<text transform="matrix(1 0 0 1 42.6738 54)" class="st1 st2"> </text>
<text transform="matrix(1 0 0 1 46.0078 54)" class="st1 st2"> </text>
<text transform="matrix(1 0 0 1 49.3418 54)" class="st1 st2"> </text>
<text transform="matrix(1 0 0 1 52.6758 54)" class="st1 st2">P</text>
<text transform="matrix(1 0 0 1 60.6797 54)" class="st1 st2"> </text>
<text transform="matrix(1 0 0 1 64.0137 54)" class="st1 st2"> </text>
<text transform="matrix(1 0 0 1 67.3477 54)" class="st1 st2"> </text>
<text transform="matrix(1 0 0 1 70.6816 54)" class="st1 st2"> </text>
<text transform="matrix(1 0 0 1 74.0156 54)" class="st1 st2"> </text>
<text transform="matrix(1 0 0 1 77.3496 54)" class="st1 st2"> </text>
<text transform="matrix(1 0 0 1 80.6836 54)" class="st1 st2"> </text>
<text transform="matrix(1 0 0 1 84.0176 54)" class="st1 st2"> </text>
<text transform="matrix(1 0 0 1 87.3516 54)" class="st1 st2"> </text>
<text transform="matrix(1 0 0 1 90.6855 54)" class="st1 st2"> </text>
<text transform="matrix(1 0 0 1 94.0195 54)" class="st1 st2"> </text>
<text transform="matrix(1 0 0 1 97.3535 54)" class="st1 st2"> </text>
<text transform="matrix(1 0 0 1 100.6875 54)" class="st1 st2"> </text>
<text transform="matrix(1 0 0 1 6 54)" class="st1 st2">         </text>
<path id="Q" class="st0" d="M148.3,439.5h87.5"/>
<text transform="matrix(1 0 0 1 6 54)" class="st1 st2">             </text>
<text transform="matrix(1 0 0 1 6 54)" class="st1 st2"> </text>
<text transform="matrix(1 0 0 1 9.334 54)" class="st1 st2"> </text>
<text transform="matrix(1 0 0 1 12.668 54)" class="st1 st2"> </text>
<text transform="matrix(1 0 0 1 16.002 54)" class="st1 st2"> </text>
<text transform="matrix(1 0 0 1 19.3359 54)" class="st1 st2"> </text>
<text transform="matrix(1 0 0 1 22.6699 54)" class="st1 st2"> </text>
<text transform="matrix(1 0 0 1 26.0039 54)" class="st1 st2"> </text>
<text transform="matrix(1 0 0 1 29.3379 54)" class="st1 st2"> </text>
<text transform="matrix(1 0 0 1 32.6719 54)" class="st1 st2"> </text>
<text transform="matrix(1 0 0 1 36.0059 54)" class="st1 st2"> </text>
<text transform="matrix(1 0 0 1 39.3398 54)" class="st1 st2"> </text>
<text transform="matrix(1 0 0 1 42.6738 54)" class="st1 st2"> </text>
<text transform="matrix(1 0 0 1 46.0078 54)" class="st1 st2"> </text>
<text transform="matrix(1 0 0 1 49.3418 54)" class="st1 st2"> </text>
<text transform="matrix(1 0 0 1 52.6758 54)" class="st1 st2">Q</text>
<text transform="matrix(1 0 0 1 62.0098 54)" class="st1 st2"> </text>
<text transform="matrix(1 0 0 1 65.3438 54)" class="st1 st2"> </text>
<text transform="matrix(1 0 0 1 68.6777 54)" class="st1 st2"> </text>
<text transform="matrix(1 0 0 1 72.0117 54)" class="st1 st2"> </text>
<text transform="matrix(1 0 0 1 75.3457 54)" class="st1 st2"> </text>
<text transform="matrix(1 0 0 1 78.6797 54)" class="st1 st2"> </text>
<text transform="matrix(1 0 0 1 82.0137 54)" class="st1 st2"> </text>
<text transform="matrix(1 0 0 1 85.3477 54)" class="st1 st2"> </text>
<text transform="matrix(1 0 0 1 88.6816 54)" class="st1 st2"> </text>
<text transform="matrix(1 0 0 1 92.0156 54)" class="st1 st2"> </text>
<text transform="matrix(1 0 0 1 95.3496 54)" class="st1 st2"> </text>
<text transform="matrix(1 0 0 1 98.6836 54)" class="st1 st2"> </text>
<text transform="matrix(1 0 0 1 102.0176 54)" class="st1 st2"> </text>
<text transform="matrix(1 0 0 1 6 54)" class="st1 st2">         </text>
<path id="R" class="st0" d="M148.3,394.5h87.5"/>
<text transform="matrix(1 0 0 1 6 54)" class="st1 st2">             </text>
<text transform="matrix(1 0 0 1 6 54)" class="st1 st2"> </text>
<text transform="matrix(1 0 0 1 9.334 54)" class="st1 st2"> </text>
<text transform="matrix(1 0 0 1 12.668 54)" class="st1 st2"> </text>
<text transform="matrix(1 0 0 1 16.002 54)" class="st1 st2"> </text>
<text transform="matrix(1 0 0 1 19.3359 54)" class="st1 st2"> </text>
<text transform="matrix(1 0 0 1 22.6699 54)" class="st1 st2"> </text>
<text transform="matrix(1 0 0 1 26.0039 54)" class="st1 st2"> </text>
<text transform="matrix(1 0 0 1 29.3379 54)" class="st1 st2"> </text>
<text transform="matrix(1 0 0 1 32.6719 54)" class="st1 st2"> </text>
<text transform="matrix(1 0 0 1 36.0059 54)" class="st1 st2"> </text>
<text transform="matrix(1 0 0 1 39.3398 54)" class="st1 st2"> </text>
<text transform="matrix(1 0 0 1 42.6738 54)" class="st1 st2"> </text>
<text transform="matrix(1 0 0 1 46.0078 54)" class="st1 st2"> </text>
<text transform="matrix(1 0 0 1 49.3418 54)" class="st1 st2"> </text>
<text transform="matrix(1 0 0 1 52.6758 54)" class="st1 st2">R</text>
<text transform="matrix(1 0 0 1 61.3418 54)" class="st1 st2"> </text>
<text transform="matrix(1 0 0 1 64.6758 54)" class="st1 st2"> </text>
<text transform="matrix(1 0 0 1 68.0098 54)" class="st1 st2"> </text>
<text transform="matrix(1 0 0 1 71.3438 54)" class="st1 st2"> </text>
<text transform="matrix(1 0 0 1 74.6777 54)" class="st1 st2"> </text>
<text transform="matrix(1 0 0 1 78.0117 54)" class="st1 st2"> </text>
<text transform="matrix(1 0 0 1 81.3457 54)" class="st1 st2"> </text>
<text transform="matrix(1 0 0 1 84.6797 54)" class="st1 st2"> </text>
<text transform="matrix(1 0 0 1 88.0137 54)" class="st1 st2"> </text>
<text transform="matrix(1 0 0 1 91.3477 54)" class="st1 st2"> </text>
<text transform="matrix(1 0 0 1 94.6816 54)" class="st1 st2"> </text>
<text transform="matrix(1 0 0 1 98.0156 54)" class="st1 st2"> </text>
<text transform="matrix(1 0 0 1 101.3496 54)" class="st1 st2"> </text>
<text transform="matrix(1 0 0 1 6 54)" class="st1 st2">         </text>
<path id="S" class="st0" d="M227.3,308.8h32.4"/>
<text transform="matrix(1 0 0 1 6 54)" class="st1 st2">             </text>
<text transform="matrix(1 0 0 1 6 54)" class="st1 st2"> </text>
<text transform="matrix(1 0 0 1 9.334 54)" class="st1 st2"> </text>
<text transform="matrix(1 0 0 1 12.668 54)" class="st1 st2"> </text>
<text transform="matrix(1 0 0 1 16.002 54)" class="st1 st2"> </text>
<text transform="matrix(1 0 0 1 19.3359 54)" class="st1 st2"> </text>
<text transform="matrix(1 0 0 1 22.6699 54)" class="st1 st2"> </text>
<text transform="matrix(1 0 0 1 26.0039 54)" class="st1 st2"> </text>
<text transform="matrix(1 0 0 1 29.3379 54)" class="st1 st2"> </text>
<text transform="matrix(1 0 0 1 32.6719 54)" class="st1 st2"> </text>
<text transform="matrix(1 0 0 1 36.0059 54)" class="st1 st2"> </text>
<text transform="matrix(1 0 0 1 39.3398 54)" class="st1 st2"> </text>
<text transform="matrix(1 0 0 1 42.6738 54)" class="st1 st2"> </text>
<text transform="matrix(1 0 0 1 46.0078 54)" class="st1 st2"> </text>
<text transform="matrix(1 0 0 1 49.3418 54)" class="st1 st2"> </text>
<text transform="matrix(1 0 0 1 52.6758 54)" class="st1 st2">S</text>
<text transform="matrix(1 0 0 1 60.6797 54)" class="st1 st2"> </text>
<text transform="matrix(1 0 0 1 64.0137 54)" class="st1 st2"> </text>
<text transform="matrix(1 0 0 1 67.3477 54)" class="st1 st2"> </text>
<text transform="matrix(1 0 0 1 70.6816 54)" class="st1 st2"> </text>
<text transform="matrix(1 0 0 1 74.0156 54)" class="st1 st2"> </text>
<text transform="matrix(1 0 0 1 77.3496 54)" class="st1 st2"> </text>
<text transform="matrix(1 0 0 1 80.6836 54)" class="st1 st2"> </text>
<text transform="matrix(1 0 0 1 84.0176 54)" class="st1 st2"> </text>
<text transform="matrix(1 0 0 1 87.3516 54)" class="st1 st2"> </text>
<text transform="matrix(1 0 0 1 90.6855 54)" class="st1 st2"> </text>
<text transform="matrix(1 0 0 1 94.0195 54)" class="st1 st2"> </text>
<text transform="matrix(1 0 0 1 97.3535 54)" class="st1 st2"> </text>
<text transform="matrix(1 0 0 1 100.6875 54)" class="st1 st2"> </text>
<text transform="matrix(1 0 0 1 6 54)" class="st1 st2">         </text>
<path id="T" class="st0" d="M264.5,304.2h42"/>
<text transform="matrix(1 0 0 1 6 54)" class="st1 st2">             </text>
<text transform="matrix(1 0 0 1 6 54)" class="st1 st2"> </text>
<text transform="matrix(1 0 0 1 9.334 54)" class="st1 st2"> </text>
<text transform="matrix(1 0 0 1 12.668 54)" class="st1 st2"> </text>
<text transform="matrix(1 0 0 1 16.002 54)" class="st1 st2"> </text>
<text transform="matrix(1 0 0 1 19.3359 54)" class="st1 st2"> </text>
<text transform="matrix(1 0 0 1 22.6699 54)" class="st1 st2"> </text>
<text transform="matrix(1 0 0 1 26.0039 54)" class="st1 st2"> </text>
<text transform="matrix(1 0 0 1 29.3379 54)" class="st1 st2"> </text>
<text transform="matrix(1 0 0 1 32.6719 54)" class="st1 st2"> </text>
<text transform="matrix(1 0 0 1 36.0059 54)" class="st1 st2"> </text>
<text transform="matrix(1 0 0 1 39.3398 54)" class="st1 st2"> </text>
<text transform="matrix(1 0 0 1 42.6738 54)" class="st1 st2"> </text>
<text transform="matrix(1 0 0 1 46.0078 54)" class="st1 st2"> </text>
<text transform="matrix(1 0 0 1 49.3418 54)" class="st1 st2"> </text>
<text transform="matrix(1 0 0 1 52.6758 54)" class="st1 st2">T</text>
<text transform="matrix(1 0 0 1 60.0059 54)" class="st1 st2"> </text>
<text transform="matrix(1 0 0 1 63.3398 54)" class="st1 st2"> </text>
<text transform="matrix(1 0 0 1 66.6738 54)" class="st1 st2"> </text>
<text transform="matrix(1 0 0 1 70.0078 54)" class="st1 st2"> </text>
<text transform="matrix(1 0 0 1 73.3418 54)" class="st1 st2"> </text>
<text transform="matrix(1 0 0 1 76.6758 54)" class="st1 st2"> </text>
<text transform="matrix(1 0 0 1 80.0098 54)" class="st1 st2"> </text>
<text transform="matrix(1 0 0 1 83.3438 54)" class="st1 st2"> </text>
<text transform="matrix(1 0 0 1 86.6777 54)" class="st1 st2"> </text>
<text transform="matrix(1 0 0 1 90.0117 54)" class="st1 st2"> </text>
<text transform="matrix(1 0 0 1 93.3457 54)" class="st1 st2"> </text>
<text transform="matrix(1 0 0 1 96.6797 54)" class="st1 st2"> </text>
<text transform="matrix(1 0 0 1 100.0137 54)" class="st1 st2"> </text>
<text transform="matrix(1 0 0 1 6 54)" class="st1 st2">         </text>
</svg>
