<?xml version="1.0" encoding="utf-8"?>
<!-- Generator: Adobe Illustrator 19.0.0, SVG Export Plug-In . SVG Version: 6.00 Build 0)  -->
<svg version="1.1" id="Layer_2" xmlns="http://www.w3.org/2000/svg" xmlns:xlink="http://www.w3.org/1999/xlink" x="0px" y="0px"
	 width="700px" height="579px" viewBox="0 0 700 579" style="enable-background:new 0 0 700 579;" xml:space="preserve">
<style type="text/css">
	.st0{fill:#acacac;stroke:#CECECE;stroke-miterlimit:10;}
	.st1{fill:#F72828;stroke:#CECECE;stroke-miterlimit:10;}
	.st2{fill:#acacac;stroke:#CECECE;stroke-miterlimit:10;}
	.st3{fill:#878787;stroke:#CECECE;stroke-miterlimit:10;}
	.st4{fill:#F39637;stroke:#CECECE;stroke-miterlimit:10;}
	.st5{fill:#F383F3;stroke:#CECECE;stroke-miterlimit:10;}
	.st6{fill:none;stroke:#CECECE;stroke-miterlimit:10;}

	.st1:hover, .st4:hover, .st5:hover{ fill: #00d705; cursor:pointer;}
</style>
<path class="st0" d="M201.4,71h39.5v14.2h-39.5V71z"/>
<path class="st0" d="M458.2,72.4h39.9v12.8h-39.9V72.4z"/>
<path class="st1" d="M330,52.3h39.8v11H330V52.3z"/>
<path class="st1" d="M330,72.4h39.8v12.8H330V72.4z"/>
<path class="st1" d="M455.3,52.3h-39.9v32.9h39.9l-0.1-10.5h-4.3V63.2h4.3L455.3,52.3z"/>
<path class="st1" d="M372.7,52.3 372.7,63.2 377.7,63.2 377.7,74.9 372.7,74.9 372.7,85.2 412.4,85.2 412.4,52.3 "/>
<path class="st1" d="M321.1,63.2 327.1,63.2 327.1,52.3 287,52.3 287,85.2 327.1,85.2 327.1,74.8 321.1,74.8 "/>
<path class="st1" d="M243.8,52.3 243.8,63.2 249,63.2 249,74.8 243.8,74.8 243.8,85.2 284.1,85.2 284.1,52.3 "/>
<path class="st1" d="M243.8,105.5h40.3v41h-40.3V105.5z"/>
<path class="st0" d="M458.2,105.5h39.9v41h-39.9V105.5z"/>
<path class="st1" d="M415.3,105.5h39.9v41h-39.9V105.5z"/>
<path class="st2" d="M157.9,105.5h39.9v41h-39.9V105.5z"/>
<path class="st0" d="M201.4,105.5h39.5v41h-39.5V105.5z"/>
<path class="st1" d="M372.7,105.5h39.8v41h-39.8V105.5z"/>
<path class="st1" d="M287,105.5h40.1v41H287V105.5z"/>
<path class="st2" d="M501,105.5h40.3v41H501V105.5z"/>
<path class="st3" d="M565.8,90.8v14.8H132.2V90.8H565.8z"/>
<path class="st1" d="M330,118h39.8v28.4H330V118z"/>
<path class="st0" d="M319.9,12.3 307.7,20.2 302.7,20.2 288.5,12.3 285.4,12.3 285.4,16.3 287,16.3 287,52.3 327.1,52.3 
	327.1,16.3 328.4,16.3 328.4,9.6 "/>
<path class="st0" d="M361,6.4 338.8,6.4 328.4,9.6 328.4,16.3 330,16.3 330,52.3 369.8,52.3 369.8,16.3 371.1,16.3 
	371.1,10.2 "/>
<path class="st0" d="M252.9,12.3 242.3,17.1 242.3,21.3 243.8,21.3 243.8,52.3 284.1,52.3 284.1,16.3 285.4,16.3 285.4,12.3 
	"/>
<path class="st0" d="M231.5,21.9 221,29.9 216,29.9 205.5,25.3 199,25.3 199,28.1 201.4,28.1 201.4,66.1 240.9,66.1 
	240.9,52.3 240.9,21.3 242.3,21.3 242.3,17.1 "/>
<path class="st0" d="M412.1,12.3 394.9,19.8 389.9,19.8 379.8,13.5 371.1,10.2 371.1,16.3 372.7,16.3 372.7,52.3 412.4,52.3 
	412.4,16.3 413.7,16.3 413.7,12.3 "/>
<path class="st0" d="M494.2,25.3 483.3,30.3 475.8,30.3 464.9,21.1 456.8,16.9 456.8,21.3 458.2,21.3 458.2,66.1 498.1,66.1 
	498.1,29.1 500.1,29.1 500.1,25.3 "/>
<path class="st0" d="M447.7,12.3 413.7,12.3 413.7,16.3 415.3,16.3 415.3,52.3 455.3,52.3 455.3,21.3 456.8,21.3 456.8,16.9 
	"/>
<path class="st2" d="M523.1,25.3 500.1,25.3 500.1,29.1 501,29.1 501,63.2 506.3,63.2 506.3,74.8 501,74.8 501,85.2 
	541.3,85.2 541.3,37.3 542.6,37.3 542.6,33.4 "/>
<path class="st2" d="M544.1,34.1 542.6,33.4 542.6,37.3 544.2,37.3 544.2,85.2 565.8,85.2 565.8,50.8 "/>
<path class="st2" d="M154.4,34.1 134.7,50.8 134.7,85.2 154.8,85.2 154.8,36.8 156.2,36.8 156.2,33.3 "/>
<path class="st2" d="M174.1,25.3 156.2,33.3 156.2,36.8 158.1,36.8 158.1,85.2 197.8,85.2 197.8,74.8 193.1,74.8 193.1,63.2 
	197.8,63.2 197.8,28.1 199,28.1 199,25.3 "/>
<path class="st1" d="M201.4,480.1h39.5v14.2h-39.5V480.1z"/>
<path class="st1" d="M458.2,480.1h39.9v12.8h-39.9V480.1z"/>
<path class="st1" d="M330,502.1h39.8v11H330V502.1z"/>
<path class="st1" d="M330,480.1h39.8v12.8H330V480.1z"/>
<path class="st1" d="M455.2,502.1 450.9,502.1 450.9,490.7 455.2,490.7 455.3,480.1 415.3,480.1 415.3,513.1 455.3,513.1 "/>
<path class="st1" d="M372.7,513.1 372.7,502.1 377.7,502.1 377.7,490.4 372.7,490.4 372.7,480.1 412.4,480.1 412.4,513.1 "/>
<path class="st1" d="M321.1,502.1 327.1,502.1 327.1,513.1 287,513.1 287,480.1 327.1,480.1 327.1,490.6 321.1,490.6 "/>
<path class="st1" d="M243.8,513.1 243.8,502.1 249,502.1 249,490.6 243.8,490.6 243.8,480.1 284.1,480.1 284.1,513.1 "/>
<path class="st1" d="M243.8,418.8h40.3v42h-40.3V418.8z"/>
<path class="st1" d="M458.2,418.8h39.9v42h-39.9V418.8z"/>
<path class="st1" d="M415.3,418.8h39.9v42h-39.9V418.8z"/>
<path class="st0" d="M157.9,418.8h39.9v42h-39.9V418.8z"/>
<path class="st1" d="M201.4,418.8h39.5v42h-39.5V418.8z"/>
<path class="st0" d="M501,418.8h40.3v42H501V418.8z"/>
<path class="st0" d="M319.9,553.1 307.7,545.1 302.7,545.1 288.5,553.1 285.4,553.1 285.4,549 287,549 287,513.1 
	327.1,513.1 327.1,549 328.4,549 328.4,555.7 "/>
<path class="st0" d="M361,558.9 338.8,558.9 328.4,555.7 328.4,549 330,549 330,513.1 369.8,513.1 369.8,549 371.1,549 
	371.1,555.1 "/>
<path class="st0" d="M252.9,553.1 242.3,548.3 242.3,544 243.8,544 243.8,513.1 284.1,513.1 284.1,549 285.4,549 
	285.4,553.1 "/>
<path class="st0" d="M231.5,543.4 221,535.5 216,535.5 205.5,540.1 199,540.1 199,537.2 201.4,537.2 201.4,499.2 
	240.9,499.2 240.9,513.1 240.9,544 242.3,544 242.3,548.3 "/>
<path class="st0" d="M412.1,553.1 394.9,545.5 389.9,545.5 379.8,551.8 371.1,555.1 371.1,549 372.7,549 372.7,513.1 
	412.4,513.1 412.4,549 413.7,549 413.7,553.1 "/>
<path class="st0" d="M494.2,540.1 483.3,535 475.8,535 464.9,544.3 456.8,548.4 456.8,544 458.2,544 458.2,499.2 
	498.1,499.2 498.1,536.2 500.1,536.2 500.1,540.1 "/>
<path class="st0" d="M447.7,553.1 413.7,553.1 413.7,549 415.3,549 415.3,513.1 455.3,513.1 455.3,544 456.8,544 
	456.8,548.4 "/>
<path class="st0" d="M523.1,540.1 500.1,540.1 500.1,536.2 501,536.2 501,502.1 506.3,502.1 506.3,490.6 501,490.6 
	501,480.1 541.3,480.1 541.3,528 542.6,528 542.6,531.9 "/>
<path class="st0" d="M544.1,531.3 542.6,531.9 542.6,528 544.2,528 544.2,480.1 565.8,480.1 565.8,514.5 "/>
<path class="st0" d="M154.4,531.3 134.7,514.5 134.7,480.1 154.8,480.1 154.8,528.5 156.2,528.5 156.2,532.1 "/>
<path class="st0" d="M174.1,540.1 156.2,532.1 156.2,528.5 158.1,528.5 158.1,480.1 197.8,480.1 197.8,490.6 193.1,490.6 
	193.1,502.1 197.8,502.1 197.8,537.2 199,537.2 199,540.1 "/>
<path class="st4" d="M616.6,438.7 611.6,443.6 605.8,437.8 592,452.7 593.5,468.7 606,496.6 652.5,450.8 "/>
<path class="st4" d="M592,452.7 558.1,418.8 544.2,418.8 544.2,460.8 565.8,460.8 565.8,468.7 593.5,468.7 "/>
<path class="st2" d="M663.5,391.6 574.1,391.6 574.1,405.9 598.3,430.2 599.7,421.2 611.5,433.4 649.5,433.4 649.5,434.8 
	652.5,434.8 652.5,409.3 662,400.3 667.1,390 663.5,390 "/>
<path class="st4" d="M649.5,436 614,436 616.6,438.7 652.5,450.8 652.5,434.8 649.5,434.8 "/>
<path class="st2" d="M669.4,181.1 666.2,174.8 663.5,174.8 663.5,176.1 573.9,176.1 574,217.4 665.5,217.4 665.5,218.8 
	669.4,218.8 "/>
<path class="st5" d="M574,305.8 574.1,345 623.2,345 623.2,305.8 "/>
<path class="st2" d="M668.5,305.8 632,305.8 632,345 665.5,345 665.5,346.1 669.8,346.1 669.8,344.2 664.6,335.3 
	659.2,327.5 659.2,324.2 666.6,316.2 672.4,305.5 672.4,304.4 668.5,304.4 "/>
<path class="st3" d="M632,305.8V345h-8.8v-39.1H632z"/>
<path class="st5" d="M574,262 574,303.2 623.2,303.2 623.2,262 "/>
<path class="st3" d="M632,303.2h-8.8V262h8.8V303.2z"/>
<path class="st2" d="M668.5,262 632,262 632,303.2 668.5,303.2 668.5,304.4 672.4,304.4 672.4,260.4 668.5,260.4 "/>
<path class="st2" d="M666.3,249.2 658.1,241.1 658.1,237.4 664,231.6 669.4,221.8 669.4,218.8 665.5,218.8 665.5,220.1 
	632,220.1 632,259.4 668.5,259.4 668.5,260.4 672.4,260.4 672.4,260.4 "/>
<path class="st5" d="M574,220.1 574,259.4 623.2,259.4 623.2,220.1 "/>
<path class="st3" d="M632,259.4h-8.8v-39.3h8.8V259.4z"/>
<path class="st3" d="M611,347.6V389h-8.3v-41.4H611z"/>
<path class="st5" d="M574.1,347.6 574.1,389 602.7,389 602.7,347.6 "/>
<path class="st2" d="M665.5,346.1 665.5,347.6 611,347.6 611,389 663.5,389 663.5,390 667.1,390 669.8,384.5 669.8,346.1 "/>
<path class="st2" d="M29.4,181.1 32.6,174.8 35.3,174.8 35.3,176.1 124.9,176.1 124.9,217.4 33.3,217.4 33.3,218.8 
	29.4,218.8 "/>
<path class="st5" d="M124.8,305.8 124.8,345 75.6,345 75.6,305.8 "/>
<path class="st2" d="M30.3,305.8 66.8,305.8 66.8,345 33.3,345 33.3,346.1 29,346.1 29,344.2 34.2,335.3 39.6,327.5 
	39.6,324.2 32.2,316.2 26.4,305.5 26.4,304.4 30.3,304.4 "/>
<path class="st3" d="M75.6,305.8V345h-8.8v-39.1H75.6z"/>
<path class="st5" d="M124.8,262 124.8,303.2 75.6,303.2 75.6,262 "/>
<path class="st3" d="M66.8,262h8.8v41.2h-8.8V262z"/>
<path class="st2" d="M30.3,262 66.8,262 66.8,303.2 30.3,303.2 30.3,304.4 26.4,304.4 26.4,260.4 30.3,260.4 "/>
<path class="st2" d="M32.6,249.2 40.7,241.1 40.7,237.4 34.8,231.6 29.4,221.8 29.4,218.8 33.3,218.8 33.3,220.1 66.8,220.1 
	66.8,259.4 30.3,259.4 30.3,260.4 26.4,260.4 26.4,260.4 "/>
<path class="st5" d="M124.9,220.1 124.8,259.4 75.6,259.4 75.6,220.1 "/>
<path class="st3" d="M66.8,220.1h8.8v39.3h-8.8V220.1z"/>
<path class="st3" d="M96.1,347.6V389h-8.3v-41.4H96.1z"/>
<path class="st5" d="M124.8,347.6 124.7,389 96.1,389 96.1,347.6 "/>
<path class="st2" d="M33.3,346.1 33.3,347.6 87.9,347.6 87.9,389 35.3,389 35.3,390 31.7,390 29,384.5 29,346.1 "/>
<path class="st2" d="M123.1,422.4 123.1,422.4 123.1,422.4 "/>
<path class="st2" d="M124.6,418.6 124.6,418.5 124.6,418.7 "/>
<path class="st2" d="M124.6,418.8 124.6,418.6 124.6,418.7 123.1,422.4 123.1,422.4 123.1,422.4 107.8,461.5 132.2,461.5 
	132.2,460.8 153.8,460.8 153.8,418.8 "/>
<path class="st2" d="M35.3,391.6 35.3,390 31.7,390 36.8,400.3 47.5,409.3 47.5,450.2 85.9,434.5 86.2,434.3 52.6,433.4 
	52.7,430.9 92.2,431.9 124.6,418.7 124.6,418.5 124.7,391.6 "/>
<path class="st2" d="M123.1,422.4 124.6,418.7 92.2,431.9 92.5,431.9 63.5,458 61.8,456.2 85.9,434.5 47.5,450.2 47.5,450.3 
	93,495.5 107.8,461.5 108.3,460.4 87,483.7 85.1,482 110.8,453.9 123.1,422.4 96.1,450.8 93.4,447.6 121.3,420.6 "/>
<path class="st2" d="M666.2,174.8 660.7,164.1 651.3,156.1 651.6,113.2 641.3,103.1 616.6,126.7 613.8,129.6 647.7,129.6 
	647.7,132.1 611.4,132.1 599.7,144.1 598.3,135.1 573.9,159.6 573.9,159.7 573.9,173.4 663.5,173.4 663.5,174.8 "/>
<path class="st2" d="M47.5,156.4 38.1,164.1 32.6,174.8 35.3,174.8 35.3,173.4 124.9,173.4 124.9,156.4 "/>
<path class="st3" d="M307.9,460.8v5.6v8.5l-175.7-0.4v-13.8H287H307.9z"/>
<path class="st3" d="M565.8,460.8v14.8l-173.1-0.4v-8.7v-5.6h19.7H565.8z"/>
<path class="st6" d="M521.2,394.7H176.8V170.2h344.4V394.7z"/>
<path class="st6" d="M176.8,252.5h17.3v60h-17.3"/>
<path class="st6" d="M176.8,294.6h-9.6v-24.4h9.6"/>
<path class="st6" d="M521.2,311.4h-16.6V253h16.6"/>
<path class="st6" d="M521.2,270.8h10.3v23.4h-10.3"/>
<path class="st6" d="M349,375.9v18.8"/>
<path class="st6" d="M349,170.2V189"/>
<path class="st6" d="M521.2,351.6h-52.7V214.9h52.7"/>
<path class="st6" d="M468.5,306.8c-7.9-5.2-13.2-14.1-13.2-24.3c0-10.2,5.3-19.1,13.2-24.3"/>
<path class="st6" d="M176.8,214.9h52.7v136.7h-52.7"/>
<path class="st6" d="M229.5,306.8c7.9-5.2,13.2-14.1,13.2-24.3c0-10.2-5.3-19.1-13.2-24.3"/>
<path class="st6" d="M546.5,414.7h-396v-264h396V414.7z"/>
<path class="st4" d="M606,68.7 591.8,102.9 596.2,106.1 594.7,109.9 592,112.7 605.8,127.5 611.6,121.7 616.6,126.7 
	641.3,103.1 "/>
<path class="st4" d="M565.8,96.6 565.8,105.5 544.2,105.5 544.2,146.5 558.1,146.5 583.3,121.4 577.4,120.2 590.7,107.4 
	591.8,102.9 594.3,96.8 "/>
<path class="st2" d="M153.8,105.5 132.2,105.5 132.2,96.6 105.1,96.6 112.6,113.1 116.4,119.3 115.2,120.1 122.6,140.5 
	123.3,141.2 123,141.6 124.8,146.5 153.8,146.5 "/>
<path class="st2" d="M120.7,144.6l-28.4-27.2l3.9-4.2l26.5,27.4l-7.5-20.3l-0.8,0.5l-5.5-8.8L95,99.1l1.7-1.8l14.2,13.2l1.7,2.7
	L93,69.8l-45.5,45.2v41.3h77.4l-0.3-9.9h0.2l-1.8-4.9L120.7,144.6z M98.5,138.3L87.7,134H51.7v-2.5h36.4l11.3,4.4L98.5,138.3z"/>
<path class="st1" d="M394.2,418.8 394.2,423.4 372.7,423.4 372.7,460.8 371.1,460.8 371.1,466.4 392.7,466.4 392.7,460.8 
	412.4,460.8 412.4,418.8 "/>
<path class="st1" d="M327.1,460.8 327.1,423.4 304.6,423.4 304.6,418.8 287,418.8 287,460.8 307.9,460.8 307.9,466.4 
	328.4,466.4 328.4,460.8 "/>
<path class="st1" d="M369.8,460.8 369.8,418.8 357.4,418.8 357.4,442.1 342.5,442.1 342.5,418.8 330,418.8 330,460.8 
	328.4,460.8 328.4,466.4 340.2,466.4 340.2,460.8 359.2,460.8 359.2,466.4 371.1,466.4 371.1,460.8 "/>
</svg>
