<?xml version="1.0" encoding="utf-8"?>
<!-- Generator: Adobe Illustrator 19.0.0, SVG Export Plug-In . SVG Version: 6.00 Build 0)  -->
<svg version="1.1" xmlns="http://www.w3.org/2000/svg" xmlns:xlink="http://www.w3.org/1999/xlink" x="0px" y="0px"
	 viewBox="349.6 -10 677.8 850.6" style="enable-background:new 349.6 -10 677.8 850.6;" xml:space="preserve">
<style type="text/css">
	.st0{display:none;}
	.st1{display:inline;fill:#8E9497;}
	.st2{fill:#009ADE;}
	.st3{fill:#8E9497;}
	.st4{fill:#F89B33;}
	.st5{fill:#CADB38;}
	.st6{fill:none;stroke:#000000;stroke-width:2.5;stroke-linecap:round;stroke-linejoin:round;stroke-miterlimit:10;}
	.st7{fill:#169BD8;}
	.st8{fill:none;stroke:#000000;stroke-miterlimit:10;}
</style>
<g id="Layer_1">
	<g id="Layer_3" class="st0">
		<path class="st1" d="M759,190.3H618c-36.8,0-66.7,29.9-66.7,66.7v298c0,36.8,29.9,66.7,66.7,66.7h141c36.8,0,66.7-29.9,66.7-66.7
			V257C825.7,220.2,795.8,190.3,759,190.3z"/>
		<path class="st1" d="M820,555c0,33.5-27.5,61-61,61H618c-33.5,0-61-27.5-61-61V257c0-33.5,27.5-61,61-61h141c33.5,0,61,27.5,61,61
			V555z"/>
	</g>
	<path class="st2" d="M530.3,80.6c-5.1,2.8-10.4,5.9-15.7,9l72.1,108.5c9.3-5,20-7.8,31.2-7.8h13V60.5c-6,0-9.5,0-9.5,0
		c-7.5,0-16.6,0.3-25.9,1l-10.8,1c-13.5,1.4-26.1,3.7-33.4,7C546.7,71.6,539,75.8,530.3,80.6"/>
	<path class="st2" d="M696.3,60.5c-4.4,0-8.8,0-13.1,0"/>
	<path class="st2" d="M683.2,60.5c-16.6,0-32.3,0-43.6,0v129.8h98.8V60.5c-12.6,0-27.4,0-42.1,0"/>
	<path class="st3" d="M798.5,203.3l-3.2,4.7c9.4,7,16.7,16.6,20.8,27.7l5.6-1.1C817.3,222,809.1,211.1,798.5,203.3z"/>
	<path class="st3" d="M582.7,207.4l-3.2-4.8c-11,7.8-19.5,18.7-24.2,31.6l5.7,1.1C565.4,224,573,214.3,582.7,207.4z"/>
	<path class="st3" d="M618,190.3c-11.3,0-21.9,2.8-31.2,7.8l3.2,4.8c8.4-4.4,18-6.9,28.1-6.9h13v-5.7L618,190.3L618,190.3z"/>
	<path class="st3" d="M639.5,190.3h98.8v5.7h-98.8V190.3z"/>
	<path class="st4" d="M551.3,69.5c7.4-3.3,20-5.6,33.4-7l-9-45.7l-55.3,11.4l-17.2,12.7l27.1,39.8C539,75.8,546.7,71.6,551.3,69.5z"
		/>
	<path class="st4" d="M944.4,76.6l-53.8-36.3L877.8,59L895,71.6l-20.2,24.2c8.8,5.5,16.7,10.6,19.3,12.6c6.5,5,12.5,10,21,23
		c2.3,3.5,4.7,7.1,7.1,10.8l45.2-29.1L944.4,76.6z"/>
	<path class="st4" d="M483.5,71.7l10.8-7.9l6.4-4.7l-13.1-19.4l-54.1,37.6l-23.4,33.3l45.8,30.7c3.7-5.4,7.3-10.5,9.6-14.3
		c6.5-10.5,10-13.5,18.5-19c3-2,10.6-6.6,19.8-12L483.5,71.7z"/>
	<polygon class="st4" points="848.8,79.6 875.8,39.8 856.6,27.4 803.9,15.4 794.9,61 	"/>
	<path class="st3" d="M759,190.3h-12.1v5.7H759c10.5,0,20.5,2.7,29.2,7.5l3.2-4.7C781.8,193.4,770.7,190.3,759,190.3z"/>
	<path class="st2" d="M851.8,80.6l-3-1L794.9,61l-11.1-0.6c-3.7-0.5-37,0.2-37,0.2v129.8H759c11.7,0,22.8,3.1,32.3,8.4L861,87.3
		L851.8,80.6z"/>
	<path class="st4" d="M586.2,13.6l9.4,47.8c7.5-0.5,22.2-0.9,30.6-1V28.3h20.4v32c10.4,0,23.1,0,36.5,0v-49L586.2,13.6z"/>
	<path class="st4" d="M786.9,11.5h-90.7v49c12.3,0,24.6,0,35.8,0v-32h20.4v31.9c0.2,0,27.7-0.6,31.4-0.1l9.5-47.3L786.9,11.5z"/>
	<g>
		<path class="st4" d="M449.3,150.9l-40.6-25.7l-20.7,31v4.3l25.3,35.5H430c1-14.5,4-19.5,9-29C441.1,163,445,157.1,449.3,150.9z"/>
	</g>
	<g>
		<path class="st4" d="M989.3,156.6L969.5,126l-40.9,25.9c4.2,6.2,8,11.7,10.4,15.1c4.9,6.8,7.9,13.2,10.8,31.7h13.8l25.7-31.9
			V156.6z"/>
	</g>
	<path class="st2" d="M932.3,193.2c-2-10.5-4.7-14.8-8-19.5s-28-43.7-32.7-47.7s-21.3-14-21.3-14l-9.3,13.4l-6.4-5.5l-56.1,83.4
		c10.6,7.8,18.8,18.7,23.3,31.3L936,211.5C934.8,205.8,933.4,198.6,932.3,193.2z"/>
	<path class="st2" d="M524.9,120.4l-7.6,5l-7.9-12.4c0,0-15.1,8.3-18.1,10.9s-5.5,5.3-12.8,15.5c-7.2,10.2-24.9,36-27.7,40
		c-2.8,4-3.2,8-4.7,16.6c-0.8,4.6-1.2,11-1.3,15.8l110.5,22.4c4.7-12.8,13.2-23.8,24.2-31.6L524.9,120.4z"/>
	<path class="st2" d="M530.3,729.6c-5.1-2.8-10.4-5.9-15.7-9l72.1-108.5c9.3,5,20,7.8,31.2,7.8h13v129.8c-6,0-9.5,0-9.5,0
		c-7.5,0-16.6-0.3-25.9-1l-10.8-1c-13.5-1.4-26.1-3.7-33.4-7C546.7,738.6,539,734.4,530.3,729.6"/>
	<path class="st2" d="M696.3,749.7c-4.4,0-8.8,0-13.1,0"/>
	<path class="st2" d="M683.2,749.7c-16.6,0-32.3,0-43.6,0V619.9h98.8v129.8c-12.6,0-27.4,0-42.1,0"/>
	<path class="st3" d="M798.5,606.8l-3.2-4.7c9.4-7,16.7-16.6,20.8-27.7l5.6,1.1C817.3,588.2,809.1,599,798.5,606.8z"/>
	<path class="st3" d="M582.7,602.8l-3.2,4.8c-11-7.8-19.5-18.7-24.2-31.6l5.7-1.1C565.4,586.2,573,595.9,582.7,602.8z"/>
	<path class="st3" d="M618,619.9c-11.3,0-21.9-2.8-31.2-7.8l3.2-4.8c8.4,4.4,18,6.9,28.1,6.9h13v5.7L618,619.9L618,619.9z"/>
	<path class="st3" d="M639.5,614.2h98.8v5.7h-98.8V614.2z"/>
	<path class="st4" d="M483.5,738.5l10.8,7.9l6.4,4.7l-12.4,18.2h-1.7l-0.8-0.5l-52.3-35.9l-23.4-33.3l45.8-30.7
		c3.7,5.4,7.3,10.5,9.6,14.3c6.5,10.5,10,13.5,18.5,19c3,2,10.6,6.6,19.8,12L483.5,738.5z"/>
	<path class="st3" d="M759,619.9h-12.1v-5.7H759c10.5,0,20.5-2.7,29.2-7.5l3.2,4.7C781.8,616.8,770.7,619.9,759,619.9z"/>
	<path class="st2" d="M848.5,730.1l0.3,0.5l-3.4,1.2C846.1,731.4,847.2,730.8,848.5,730.1z"/>
	<path class="st2" d="M851.8,729.6l-3,1l-0.3-0.5c-1.3,0.7-2.4,1.3-3.1,1.7l-5.5,1.9L795,749.2l-11.1-0.4c-3.7,0.5-7.3,0.8-10.8,0.8
		c-2.1,0-26.1,0-26.1,0V619.9h12c11.7,0,22.8-3.1,32.3-8.4l69.6,111.4L851.8,729.6z"/>
	<g>
		<path class="st4" d="M449.3,659.3L408.7,685L388,654v-4.3l25.3-35.5H430c1,14.5,4,19.5,9,29C441.1,647.2,445,653,449.3,659.3z"/>
	</g>
	<path class="st2" d="M517.1,701.5c0,0-22.7-12.6-25.7-15.1c-3-2.6-5.5-5.3-12.8-15.5c-7.2-10.2-24.9-36-27.7-40s-3.2-8-4.7-16.6
		c-0.8-4.6-1.2-11-1.3-15.8L555.4,576c4.7,12.8,13.2,23.8,24.2,31.6L517.1,701.5z"/>
	<path class="st4" d="M922.8,667.8c-3.2,3.9-6.6,6.5-9.6,8.8c-3.4,2.6-15.8,11.8-28.5,20.4c-4.4,3-8.9,5.9-13.1,8.5l23.4,33.1
		l-17.2,12.6l12.5,18.3l54.1-35.8l21.9-34.7L922.8,667.8z"/>
	<path class="st2" d="M936.8,598.5l2.6,0.5"/>
	<path class="st2" d="M939.7,612c0-3.9-0.2-8.4-0.3-13l-2.6-0.5l-115-22.9c-4.5,12.6-12.7,23.5-23.3,31.3l66,99.3l1.6,2.5
		c1.7-1,3.5-2,5.4-3.2c4.1-2.5,8.6-5.5,13.1-8.5c12.7-8.6,25.2-17.8,28.5-20.4c3-2.3,6.4-4.9,9.6-8.8c2.1-2.5,4.1-5.5,5.8-9.3
		c0.7-1.5,1.4-3.2,2-5c4.3-13,7.8-27.4,8.7-31.3c0.3-1.5,0.5-4,0.5-7.2C939.8,614.1,939.8,613.1,939.7,612z"/>
	<path class="st4" d="M882,785.3l-7,4.4l-3.4-5.7l10.9-8.1l-33.6-45.3l-3.4,1.2c-0.4,0.2-0.7,0.3-0.9,0.4c-0.9,0.3-2.5,0.9-4.7,1.5
		L795,749.2l10.6,52.6l10.4-2.1l1.7,8L810,809l1.6,6.9l53.4-10.4l21.4-12.4L882,785.3z"/>
	<path class="st4" d="M671.2,814.2v-8.9h11.9v-55.6c-13.4,0-26.1,0-36.5,0v32h-20.4v-32.1c-8.5-0.1-23.1-0.4-30.6-1L584.4,803
		l8.7,2.2l1,9.1l-8.8-2l1.7,9.3h92.6v-7.5L671.2,814.2L671.2,814.2z"/>
	<path class="st4" d="M773,749.7c-2.1,0-9.5,0-20,0c-0.2,0-0.4,0-0.6,0v32H732v-32c-11.1,0-23.4,0-35.8,0l-1.5,55.6h13.8v9.6h-12.3
		v6.8h90.7l6.6-1.4l-1.5-7.6l-8.3,1.3l-2.3-7.8l12.6-1.5l-10.1-55.8C780.1,749.4,776.6,749.7,773,749.7z"/>
	<g>
		<path class="st4" d="M561.9,807.4l1-8.2l10.4,2l11.4-53.5c-13.5-1.4-26.1-3.7-33.4-7c-4.6-2.1-12.4-6.3-21-11.1l-32.4,47.7l10,7.9
			l-4.1,5.1l-9.9-7.2l-5.6,8.2l23.8,13.2l56.2,11.1l1.2-7.1L561.9,807.4z"/>
	</g>
	<path class="st4" d="M979.3,631l8.4-42.6l-15.6-1.5l-6.3,27.3l-26.1-2.2c0,1.1,0,2.1,0,3c0,3.2-0.2,5.7-0.5,7.2
		c-0.9,3.9-4.3,18.3-8.7,31.3c-0.6,1.8-1.3,3.5-2,5l40.3,25.2l20.5-30.2v-10.3L979.3,631z"/>
	<path class="st2" d="M825.7,371.8h72.8v67.3h-72.8V371.8z"/>
	<path class="st2" d="M825.7,296.7h72.8v67.8h-72.8V296.7z"/>
	<polygon class="st5" points="898.5,583.9 936.8,590.6 943.2,578 944.2,521.7 898.5,521.7 	"/>
	<polygon class="st5" points="898.5,296.7 898.5,364.5 974.3,364.5 974.3,296.7 	"/>
	<polygon class="st5" points="898.5,439.1 974.2,439.1 974.3,371.8 898.5,371.8 	"/>
	<path class="st5" d="M898.5,495.3v19h45.7v-67.9h-45.7V495.3"/>
	<polygon class="st5" points="974.3,289.8 974.3,231 962.5,213.2 898.5,226.9 898.5,289.8 	"/>
	<path class="st3" d="M824.1,569.9l-5.6-1.2c0.9-4.2,1.4-8.5,1.4-13v-18.9h5.7v18.9C825.7,560.6,825.1,565.4,824.1,569.9z"/>
	<path class="st3" d="M820,296.7h5.7v67.8H820V296.7z"/>
	<path class="st3" d="M820,446.4h5.7v48.9H820V446.4z"/>
	<path class="st3" d="M820,371.8h5.7v67.3H820V371.8z"/>
	<path class="st2" d="M825.7,446.4v48.9h54.5v19h18.3v-67.9H825.7z"/>
	<path class="st2" d="M824.1,569.9l74.3,14v-62.2h-18.1v15.2h-54.7v21.5C825.7,561.4,824.5,567.9,824.1,569.9z"/>
	<polygon class="st4" points="1008.1,344.3 998.2,344.3 998.2,353.9 983.5,353.9 983.5,344.3 974.2,344.3 974.2,468.4 983.5,468.4 
		983.5,458.8 998.2,458.8 998.2,468.4 1008.1,468.4 	"/>
	<polygon class="st4" points="1008.1,233.4 998.2,233.4 998.2,243 983.5,243 983.5,233.4 974.2,233.4 974.2,328.4 983.5,328.4 
		983.5,318.8 998.2,318.8 998.2,328.4 1008.1,328.4 	"/>
	<polygon class="st4" points="1008.1,483.4 998.2,483.4 998.2,493 983.5,493 983.5,483.4 974.2,483.4 974.2,562.8 973.2,578 
		982.5,578 983.5,565.9 998.2,567.9 998.2,577.5 1008.1,577.5 	"/>
	<path class="st2" d="M478.6,371.8h72.8v67.3h-72.8V371.8z"/>
	<path class="st2" d="M478.6,296.7h72.8v67.8h-72.8V296.7z"/>
	<polygon class="st5" points="478.6,583.9 440.3,590.6 403.9,578 402.9,562.8 402.9,521.7 478.6,521.7 	"/>
	<path class="st5" d="M478.6,296.7v67.8h-75.7v-67.8H478.6z"/>
	<path class="st5" d="M478.6,439.1h-75.7v-67.3h75.7V439.1z"/>
	<path class="st5" d="M478.6,495.3v19H446v-12h-43.1v-55.9h75.7V495.3"/>
	<path class="st2" d="M551.5,289.8h-72.8v-62.9l74.3,15.9c-1,4.6-1.5,9.3-1.5,14.1V289.8z"/>
	<path class="st5" d="M402.9,289.8V231l11.7-17.8l64,13.7v62.9H402.9z"/>
	<path class="st3" d="M553,242.9l5.6,1.2c-0.9,4.2-1.4,8.5-1.4,13v32.8h-5.7V257C551.5,252.1,552,247.4,553,242.9z"/>
	<path class="st3" d="M553,569.9l5.6-1.2c-0.9-4.2-1.4-8.5-1.4-13v-33.9h-5.7v33.9C551.5,560.6,552,565.4,553,569.9z"/>
	<path class="st3" d="M551.5,296.7h5.7v67.8h-5.7V296.7z"/>
	<path class="st3" d="M551.5,446.4h5.7v37.9h-5.7V446.4z"/>
	<path class="st3" d="M551.5,371.8h5.7v67.3h-5.7V371.8z"/>
	<path class="st2" d="M551.5,446.4v37.9h-13.6v30h-59.3v-67.9H551.5z"/>
	<path class="st2" d="M553,569.9l-74.3,14v-62.2l72.8,0.2v36.5C551.5,561.4,552.7,567.9,553,569.9z"/>
	<polygon class="st4" points="369.1,344.3 378.9,344.3 378.9,353.9 393.7,353.9 393.7,344.3 402.9,344.3 402.9,468.4 393.7,468.4 
		393.7,458.8 378.9,458.8 378.9,468.4 369.1,468.4 	"/>
	<polygon class="st4" points="369.1,233.4 378.9,233.4 378.9,243 393.7,243 393.7,233.4 402.9,233.4 402.9,328.4 393.7,328.4 
		393.7,318.8 378.9,318.8 378.9,328.4 369.1,328.4 	"/>
	<polygon class="st4" points="369.1,483.4 378.9,483.4 378.9,493 393.7,493 393.7,483.4 402.9,483.4 402.9,562.8 403.9,578 
		394.6,578 393.7,565.9 378.9,567.9 378.9,577.5 369.1,577.5 	"/>
	<polygon class="st4" points="369,596 383.6,593.8 385.7,603.2 400.1,599.9 398,590.5 407,588.5 411.8,608.6 381.5,651.2 	"/>
	<polygon class="st4" points="369,212 383.6,214.2 385.7,204.8 400.1,208.1 398,217.5 407,219.5 411.8,199.4 381.5,156.8 	"/>
	<polygon class="st4" points="978.8,184.4 961.6,206.1 971.4,220.4 987.9,220.4 	"/>
	<g>
		<path class="st2" d="M824.1,242.9c1,4.6,1.5,9.3,1.5,14.1v7.3h31.1V284h-31.1v5.8h72.8v-62.9L824.1,242.9z"/>
		<path class="st3" d="M825.7,257c0-4.9-0.5-9.6-1.5-14.1l-5.6,1.2c0.9,4.2,1.4,8.5,1.4,13v7.3h5.7L825.7,257L825.7,257z"/>
		<path class="st3" d="M820,284h5.7v5.8H820V284z"/>
	</g>
	<polygon class="st6" points="694,-8.7 803.9,-8.7 881,5.4 959,57.8 1005,125.2 1025.6,209.8 1026.2,614.2 1005,705.3 962.2,769.4 
		882,821.7 808.6,839.4 688.9,839.4 579.5,839.4 496.8,824.4 418.6,772.5 371.5,706.4 350.9,617 350.9,213.2 372.1,125.2 
		414.9,61.5 496.2,6 572.8,-8.7 	"/>
	<path class="st7" d="M654.3,334.6v-46.8h72v46.8H654.3z"/>
	<path class="st7" d="M651,393.7h-8.5V287.8h8.5V393.7z"/>
	<path class="st7" d="M688.7,452.8h-34.4V397h34.4V452.8z"/>
	<path class="st7" d="M651,397.1v106.1h-8.5V397.1H651z"/>
	<path class="st7" d="M729.7,334.6v-46.8h8.6v105.9h-8.6V338V334.6z"/>
	<path class="st7" d="M692,397.1h34.4v55.8H692V397.1z"/>
	<path class="st7" d="M692,338h34.4v55.8H692V338z"/>
	<path class="st7" d="M688.7,393.7h-34.4V338h34.4V393.7z"/>
	<path class="st7" d="M729.7,397.1h8.6v106.1h-8.6v-47v-3.3V397.1z"/>
	<path class="st7" d="M726.3,456.2v47h-72v-47H726.3z"/>
	<g>
		<g>
			<g>
				<path class="st3" d="M724.5,271.5c0,0.5-0.1,0.9-0.2,1.2s-0.4,0.7-0.6,1c-0.2,0.2-0.6,0.5-1.1,0.6s-0.9,0.2-1.5,0.2H720v3.4v0.1
					c0,0,0,0-0.1,0.1s-0.1,0-0.2,0c-0.1,0-0.1,0-0.2,0c-0.1,0-0.2,0-0.2,0s-0.1,0-0.2,0s-0.1,0-0.1-0.1s0-0.1,0-0.1v-8.7
					c0-0.2,0-0.4,0.1-0.4s0.2-0.1,0.4-0.1h2c0.2,0,0.4,0,0.6,0s0.4,0,0.6,0.1c0.2,0.1,0.5,0.1,0.7,0.4c0.2,0.2,0.5,0.4,0.6,0.6
					s0.4,0.5,0.4,0.7C724.2,270.8,724.5,271.1,724.5,271.5z M723.3,271.6c0-0.4-0.1-0.7-0.2-1c-0.1-0.2-0.4-0.5-0.5-0.6
					s-0.4-0.2-0.6-0.2s-0.5,0-0.6,0h-1.1v3.7h1.1c0.4,0,0.7,0,1-0.1s0.5-0.2,0.6-0.4c0.1-0.1,0.2-0.4,0.4-0.6
					C723.4,272.1,723.3,271.8,723.3,271.6z"/>
				<path class="st3" d="M727.5,277.9C727.5,277.9,727.5,278.1,727.5,277.9C727.5,278,727.4,278,727.5,277.9l-0.2,0.1
					c0,0-0.1,0-0.2,0s-0.2,0-0.2,0h-0.1c0,0-0.1,0-0.1-0.1s0,0,0-0.1v-9.7V268c0,0,0,0,0.1-0.1s0.1,0,0.1,0s0.1,0,0.2,0
					c0.1,0,0.2,0,0.2,0h0.1c0,0,0.1,0,0.1,0.1s0,0.1,0,0.1V277.9z"/>
				<path class="st3" d="M734.8,277.9L734.8,277.9c0,0.1-0.1,0.1-0.1,0.2s-0.1,0-0.2,0s-0.2,0-0.2,0s-0.1,0-0.1-0.1s0-0.1,0-0.1
					v-0.6c-0.2,0.2-0.6,0.5-1,0.7s-0.7,0.2-1.1,0.2s-0.6,0-1-0.1s-0.5-0.2-0.7-0.4s-0.4-0.4-0.5-0.6c-0.1-0.2-0.1-0.5-0.1-0.9
					s0.1-0.7,0.2-1c0.1-0.2,0.4-0.5,0.6-0.6s0.6-0.4,1-0.4s0.9-0.1,1.4-0.1h0.9v-0.5c0-0.2,0-0.5-0.1-0.6s-0.1-0.4-0.2-0.5
					c-0.1-0.1-0.2-0.2-0.5-0.2s-0.4-0.1-0.7-0.1c-0.2,0-0.6,0-0.7,0.1s-0.5,0.1-0.6,0.2c-0.1,0.1-0.4,0.1-0.5,0.2
					c-0.1,0.1-0.2-0.1-0.2-0.1h-0.1c0,0,0,0-0.1-0.1s0-0.1,0-0.1s0-0.1,0-0.2c0-0.1,0-0.2,0-0.2s0-0.1,0.1-0.2s0.1-0.1,0.4-0.2
					c0.2-0.1,0.4-0.1,0.5-0.2c0.1-0.1,0.5-0.1,0.7-0.1s0.5-0.1,0.7-0.1c0.5,0,0.9,0,1.2,0.1s0.6,0.2,0.7,0.5s0.4,0.5,0.5,0.7
					s0.1,0.6,0.1,1.1L734.8,277.9L734.8,277.9z M733.5,274.9h-1c-0.4,0-0.6,0-0.9,0.1s-0.5,0.1-0.6,0.2s-0.2,0.2-0.4,0.4
					s-0.1,0.4-0.1,0.5c0,0.4,0.1,0.6,0.4,0.9s0.5,0.2,0.9,0.2s0.6-0.1,0.9-0.2s0.5-0.4,0.9-0.7L733.5,274.9L733.5,274.9z"/>
				<path class="st3" d="M739.6,278.2l-0.9,2.4c0,0.1-0.1,0.1-0.2,0.1s-0.2,0-0.5,0c-0.1,0-0.2,0-0.2,0h-0.1l-0.1-0.1v-0.1l0.9-2.2
					c0,0-0.1,0-0.1-0.1s-0.1-0.1-0.1-0.1l-2.4-6.2c0-0.1,0-0.1,0-0.2c0-0.1,0-0.1,0-0.1s0.1,0,0.2-0.1s0.2,0,0.4,0s0.2,0,0.4,0
					s0.1,0,0.2,0s0.1,0,0.1,0.1s0,0.1,0.1,0.1l1.9,5.2l0,0l1.9-5.4c0-0.1,0.1-0.1,0.1-0.1h0.1c0,0,0.2,0,0.4,0c0.1,0,0.2,0,0.4,0
					c0.1,0,0.1,0,0.2,0.1c0.1,0.1,0,0.1,0,0.1s0,0.1,0,0.2L739.6,278.2z"/>
				<path class="st3" d="M748.9,274.3c0,0.2,0,0.4-0.1,0.4s-0.2,0.1-0.4,0.1H744c0,0.4,0,0.7,0.1,1s0.2,0.5,0.4,0.7s0.4,0.4,0.6,0.5
					s0.6,0.1,1,0.1s0.6,0,0.9-0.1s0.5-0.1,0.6-0.1c0.1-0.1,0.4-0.1,0.5-0.1s0.2-0.1,0.2-0.1h0.1c0,0,0,0,0.1,0.1v0.1
					c0,0,0,0.1,0,0.2s0,0.1,0,0.1v0.1v0.1c0,0,0,0-0.1,0.1s-0.1,0.1-0.2,0.1c-0.1,0-0.2,0.1-0.5,0.1c-0.2,0-0.5,0.1-0.7,0.1
					s-0.6,0.1-0.9,0.1c-0.5,0-1-0.1-1.4-0.2c-0.4-0.1-0.7-0.4-1-0.6s-0.5-0.6-0.6-1.1s-0.2-1-0.2-1.6s0.1-1.1,0.2-1.5
					c0.1-0.4,0.4-0.9,0.6-1.1s0.6-0.5,1-0.7s0.9-0.2,1.2-0.2c0.5,0,1,0.1,1.4,0.2c0.4,0.1,0.6,0.4,0.9,0.6s0.4,0.6,0.5,1
					s0.1,0.7,0.1,1.2v0.4H748.9z M747.6,274.1c0-0.6-0.1-1.1-0.4-1.5c-0.2-0.4-0.7-0.5-1.4-0.5c-0.2,0-0.6,0-0.7,0.1
					c-0.2,0.1-0.4,0.2-0.6,0.5c-0.1,0.1-0.2,0.4-0.4,0.6s-0.1,0.5-0.1,0.7h3.6V274.1z"/>
				<path class="st3" d="M754.6,271.8c0,0.1,0,0.2,0,0.2v0.1v0.1c0,0,0,0-0.1,0s-0.1,0-0.1,0s-0.1,0-0.2-0.1s-0.1,0-0.2,0
					s-0.1,0-0.2,0s-0.2,0-0.4,0.1s-0.2,0.1-0.4,0.2s-0.2,0.2-0.4,0.5s-0.2,0.4-0.5,0.6v4.4v0.1c0,0,0,0-0.1,0.1s-0.1,0-0.1,0
					s-0.1,0-0.2,0s-0.2,0-0.2,0h-0.1c0,0-0.1,0-0.1-0.1s0,0,0-0.1v-6.6v-0.1c0,0,0,0,0.1-0.1s0.1,0,0.1,0s0.1,0,0.2,0
					c0.1,0,0.2,0,0.2,0h0.1c0,0,0.1,0,0.1,0.1s0,0,0,0.1v1c0.1-0.2,0.4-0.5,0.5-0.6s0.2-0.2,0.5-0.4s0.2-0.1,0.4-0.2s0.2,0,0.4,0
					s0.1,0,0.2,0s0.1,0,0.2,0s0.1,0,0.2,0.1c0.1,0.1,0.1,0,0.1,0.1s0,0,0,0.1s0,0,0,0.1C754.6,271.8,754.6,271.8,754.6,271.8
					S754.6,271.7,754.6,271.8z"/>
				<path class="st3" d="M764.7,277.6c0,0.1,0,0.1,0,0.2c0,0.1,0,0.1,0,0.1s0,0.1-0.1,0.1s-0.1,0-0.1,0H760c-0.1,0-0.2,0-0.4-0.1
					c-0.1-0.1-0.1-0.2-0.1-0.4V269c0-0.2,0-0.4,0.1-0.4s0.2-0.1,0.4-0.1h4.5h0.1c0,0,0,0,0.1,0.1s0,0.1,0,0.1s0,0.1,0,0.2
					c0,0.1,0,0.1,0,0.2c0,0.1,0,0.1,0,0.1s0,0.1-0.1,0.1s-0.1,0-0.1,0h-3.7v3h3.1h0.1c0,0,0,0,0.1,0.1s0,0.1,0,0.1s0,0.1,0,0.2
					s0,0.1,0,0.2c0,0.1,0,0.1,0,0.1s0,0.1-0.1,0.1s-0.1,0-0.1,0h-3.1v3.4h3.7h0.1c0,0,0,0,0.1,0.1s0,0.1,0,0.1L764.7,277.6
					L764.7,277.6z"/>
				<path class="st3" d="M772.3,277.9C772.3,277.9,772.3,278.1,772.3,277.9C772.3,278,772.2,278,772.3,277.9l-0.2,0.1
					c0,0-0.1,0-0.2,0s-0.2,0-0.2,0h-0.1c0,0-0.1,0-0.1-0.1s0,0,0-0.1v-3.9c0-0.4,0-0.6-0.1-0.9c-0.1-0.2-0.1-0.4-0.2-0.6
					c-0.1-0.2-0.2-0.2-0.4-0.4c-0.1-0.1-0.4-0.1-0.6-0.1s-0.6,0.1-0.9,0.4c-0.2,0.2-0.6,0.5-1,1v4.6v0.1c0,0,0,0-0.1,0.1
					s-0.1,0-0.1,0s-0.1,0-0.2,0s-0.2,0-0.2,0h-0.1c0,0-0.1,0-0.1-0.1s0,0,0-0.1v-6.6v-0.1c0,0,0,0,0.1-0.1s0.1,0,0.1,0s0.1,0,0.2,0
					s0.2,0,0.2,0h0.1c0,0,0.1,0,0.1,0.1s0,0,0,0.1v0.9c0.4-0.4,0.7-0.7,1.1-0.9c0.4-0.1,0.7-0.2,1.1-0.2c0.5,0,0.7,0.1,1.1,0.2
					c0.4,0.1,0.5,0.4,0.7,0.6c0.2,0.2,0.4,0.5,0.4,0.9s0.1,0.7,0.1,1.2v3.9L772.3,277.9L772.3,277.9z"/>
				<path class="st3" d="M777.8,277.4c0,0.1,0,0.2,0,0.4s0,0.1-0.1,0.1s-0.1,0.1-0.1,0.1s-0.1,0-0.2,0.1s-0.2,0-0.4,0
					c-0.1,0-0.2,0-0.4,0c-0.4,0-0.6,0-0.9-0.1c-0.2-0.1-0.5-0.2-0.6-0.4s-0.2-0.4-0.4-0.7c-0.1-0.4-0.1-0.6-0.1-1V272h-0.9
					c-0.1,0-0.1,0-0.1-0.1s-0.1-0.2-0.1-0.4s0-0.1,0-0.2s0-0.1,0-0.1s0-0.1,0.1-0.1s0.1,0,0.1,0h0.9v-1.6v-0.1c0,0,0,0,0.1-0.1
					s0.1,0,0.1,0s0.1,0,0.2,0s0.2,0,0.2,0h0.1c0,0,0.1,0,0.1,0.1s0,0,0,0.1v1.6h1.7h0.1c0,0,0,0,0.1,0.1s0,0.1,0,0.1s0,0.1,0,0.2
					s0,0.2-0.1,0.4s-0.1,0.1-0.1,0.1h-1.7v3.6c0,0.5,0.1,0.7,0.2,1s0.4,0.4,0.7,0.4c0.1,0,0.2,0,0.2,0s0.1,0,0.2-0.1s0.1,0,0.1-0.1
					s0.1,0,0.1,0s0,0,0.1,0s0,0,0,0.1s0,0.1,0,0.1L777.8,277.4z"/>
				<path class="st3" d="M783.2,271.8c0,0.1,0,0.2,0,0.2v0.1v0.1c0,0,0,0-0.1,0s-0.1,0-0.1,0s-0.1,0-0.2-0.1s-0.1,0-0.2,0
					s-0.1,0-0.2,0s-0.2,0-0.4,0.1s-0.2,0.1-0.4,0.2c-0.1,0.1-0.2,0.2-0.4,0.5c-0.1,0.2-0.2,0.4-0.5,0.6v4.4v0.1c0,0,0,0-0.1,0.1
					s-0.1,0-0.1,0s-0.1,0-0.2,0c-0.1,0-0.2,0-0.2,0H780c0,0-0.1,0-0.1-0.1s0,0,0-0.1v-6.6v-0.1c0,0,0,0,0.1-0.1s0.1,0,0.1,0
					s0.1,0,0.2,0c0.1,0,0.2,0,0.2,0h0.1c0,0,0.1,0,0.1,0.1s0,0,0,0.1v1c0.1-0.2,0.4-0.5,0.5-0.6s0.2-0.2,0.5-0.4
					c0.2-0.1,0.2-0.1,0.4-0.2c0.1-0.1,0.2,0,0.4,0s0.1,0,0.2,0s0.1,0,0.2,0s0.1,0,0.2,0.1s0.1,0,0.1,0.1s0,0,0,0.1s0,0,0,0.1
					C783.2,271.8,783.2,271.8,783.2,271.8S783.2,271.7,783.2,271.8z"/>
				<path class="st3" d="M789.3,277.9L789.3,277.9c0,0.1-0.1,0.1-0.1,0.2s-0.1,0-0.2,0s-0.2,0-0.2,0s-0.1,0-0.1-0.1s0-0.1,0-0.1
					v-0.6c-0.2,0.2-0.6,0.5-1,0.7s-0.7,0.2-1.1,0.2c-0.4,0-0.6,0-1-0.1s-0.5-0.2-0.7-0.4s-0.4-0.4-0.5-0.6c-0.1-0.2-0.1-0.5-0.1-0.9
					s0.1-0.7,0.2-1s0.4-0.5,0.6-0.6s0.6-0.4,1-0.4s0.9-0.1,1.4-0.1h0.9v-0.5c0-0.2,0-0.5-0.1-0.6s-0.1-0.4-0.2-0.5
					c-0.1-0.1-0.2-0.2-0.5-0.2c-0.2,0-0.4-0.1-0.7-0.1c-0.2,0-0.6,0-0.7,0.1s-0.5,0.1-0.6,0.2c-0.1,0.1-0.4,0.1-0.5,0.2
					c-0.1,0.1-0.2,0.1-0.2,0.1h-0.1c0,0,0,0-0.1-0.1s0-0.1,0-0.1s0-0.1,0-0.2c0-0.1,0-0.2,0-0.2s0-0.1,0.1-0.2
					c0.1-0.1,0.1-0.1,0.4-0.2c0.2-0.1,0.4-0.1,0.5-0.2s0.5-0.1,0.7-0.1s0.5-0.1,0.7-0.1c0.5,0,0.9,0,1.2,0.1
					c0.4,0.1,0.6,0.2,0.7,0.5c0.1,0.2,0.4,0.5,0.5,0.7s0.1,0.6,0.1,1.1L789.3,277.9L789.3,277.9z M788,274.9h-1
					c-0.4,0-0.6,0-0.9,0.1c-0.2,0.1-0.5,0.1-0.6,0.2s-0.2,0.2-0.4,0.4c-0.1,0.1-0.1,0.4-0.1,0.5c0,0.4,0.1,0.6,0.4,0.9
					c0.2,0.2,0.5,0.2,0.9,0.2s0.6-0.1,0.9-0.2s0.5-0.4,0.9-0.7L788,274.9L788,274.9z"/>
				<path class="st3" d="M797.1,277.9C797.1,277.9,797.1,278.1,797.1,277.9C797.1,278,797,278,797.1,277.9l-0.2,0.1c0,0-0.1,0-0.2,0
					s-0.2,0-0.2,0h-0.1c0,0-0.1,0-0.1-0.1s0,0,0-0.1v-3.9c0-0.4,0-0.6-0.1-0.9c-0.1-0.2-0.1-0.4-0.2-0.6c-0.1-0.2-0.2-0.2-0.4-0.4
					c-0.1-0.1-0.4-0.1-0.6-0.1s-0.6,0.1-0.9,0.4c-0.2,0.2-0.6,0.5-1,1v4.6v0.1c0,0,0,0-0.1,0.1s-0.1,0-0.1,0s-0.1,0-0.2,0
					s-0.2,0-0.2,0H792c0,0-0.1,0-0.1-0.1s0,0,0-0.1v-6.6v-0.1c0,0,0,0,0.1-0.1s0.1,0,0.1,0s0.1,0,0.2,0s0.2,0,0.2,0h0.1
					c0,0,0.1,0,0.1,0.1s0,0,0,0.1v0.9c0.4-0.4,0.7-0.7,1.1-0.9c0.4-0.1,0.7-0.2,1.1-0.2c0.5,0,0.7,0.1,1.1,0.2
					c0.4,0.1,0.5,0.4,0.7,0.6c0.2,0.2,0.4,0.5,0.4,0.9s0.1,0.7,0.1,1.2L797.1,277.9L797.1,277.9L797.1,277.9z"/>
				<path class="st3" d="M804,276.9c0,0.1,0,0.1,0,0.2c0,0.1,0,0.1,0,0.1v0.1c0,0,0,0.1-0.1,0.1s-0.1,0.1-0.2,0.2
					c-0.1,0.1-0.2,0.1-0.5,0.2c-0.2,0.1-0.4,0.1-0.6,0.1s-0.4,0.1-0.6,0.1c-0.5,0-0.9-0.1-1.2-0.2c-0.4-0.1-0.6-0.4-0.9-0.6
					c-0.2-0.2-0.4-0.6-0.6-1.1c-0.2-0.5-0.2-1-0.2-1.5c0-0.6,0.1-1.2,0.2-1.6s0.4-0.9,0.6-1.1c0.2-0.2,0.6-0.5,1-0.6
					s0.7-0.2,1.2-0.2c0.2,0,0.4,0,0.6,0s0.4,0.1,0.5,0.1s0.4,0.1,0.5,0.2s0.2,0.1,0.2,0.2c0,0.1,0.1,0.1,0.1,0.1v0.1v0.1
					c0,0,0,0.1,0,0.2c0,0.2,0,0.4-0.1,0.4s-0.1,0.1-0.1,0.1c-0.1,0-0.1,0-0.2-0.1s-0.2-0.1-0.4-0.2c-0.1-0.1-0.4-0.1-0.5-0.2
					s-0.5-0.1-0.7-0.1c-0.6,0-1,0.2-1.4,0.6s-0.5,1.1-0.5,2c0,0.4,0,0.7,0.1,1.1s0.2,0.6,0.4,0.7s0.4,0.4,0.6,0.5s0.5,0.1,0.7,0.1
					s0.5,0,0.7-0.1s0.4-0.1,0.5-0.2c0.1-0.1,0.2-0.2,0.4-0.2c0.1,0,0.1-0.1,0.2-0.1h0.1c0,0,0,0,0,0.1s0,0.1,0,0.1
					S804,276.8,804,276.9z"/>
				<path class="st3" d="M811.2,274.3c0,0.2,0,0.4-0.1,0.4s-0.2,0.1-0.4,0.1h-4.4c0,0.4,0,0.7,0.1,1s0.2,0.5,0.4,0.7
					s0.4,0.4,0.6,0.5s0.6,0.1,1,0.1s0.6,0,0.9-0.1s0.5-0.1,0.6-0.1c0.1-0.1,0.4-0.1,0.5-0.1s0.2-0.1,0.2-0.1h0.1c0,0,0,0,0.1,0.1
					v0.1c0,0,0,0.1,0,0.2s0,0.1,0,0.1v0.1v0.1c0,0,0,0-0.1,0.1s-0.1,0.1-0.2,0.1s-0.2,0.1-0.5,0.1c-0.2,0-0.5,0.1-0.7,0.1
					s-0.6,0.1-0.9,0.1c-0.5,0-1-0.1-1.4-0.2c-0.4-0.1-0.7-0.4-1-0.6c-0.2-0.2-0.5-0.6-0.6-1.1s-0.2-1-0.2-1.6s0.1-1.1,0.2-1.5
					s0.4-0.9,0.6-1.1s0.6-0.5,1-0.7s0.9-0.2,1.2-0.2c0.5,0,1,0.1,1.4,0.2c0.4,0.1,0.6,0.4,0.9,0.6s0.4,0.6,0.5,1s0.1,0.7,0.1,1.2
					v0.4H811.2z M810,274.1c0-0.6-0.1-1.1-0.4-1.5s-0.7-0.5-1.4-0.5c-0.2,0-0.6,0-0.7,0.1c-0.2,0.1-0.4,0.2-0.6,0.5
					c-0.1,0.1-0.2,0.4-0.4,0.6c-0.1,0.2-0.1,0.5-0.1,0.7h3.6V274.1z"/>
			</g>
		</g>
	</g>
	<polygon class="st3" points="815.6,268.8 815.6,280.6 821.5,274.6 	"/>
</g>
<g id="Layer_3_1_">
	<g>
		<path class="st8" d="M639.6,143.5h98.7"/>
		<path class="st8" d="M746.8,148h75.3"/>
		<path class="st8" d="M554.3,149.4h76.6"/>
		<path class="st8" d="M801.6,198.8h131.9"/>
		<path class="st8" d="M825.7,270.9h146.6"/>
		<path class="st8" d="M825.7,344.3h148.5"/>
		<path class="st8" d="M825.7,418.5h148.5"/>
		<path class="st8" d="M825.7,530.7h148.6"/>
		<path class="st8" d="M827.3,650.3h103.2"/>
		<path class="st8" d="M746.9,693.5h95.6"/>
		<path class="st8" d="M639.6,693.5h98.7"/>
		<path class="st8" d="M532.6,693.5h98.3"/>
		<path class="st8" d="M463.8,649.6h86.8"/>
		<path class="st8" d="M403.9,566H553"/>
		<path class="st8" d="M402.9,492h148.5"/>
		<path class="st8" d="M402.9,418.5h148.6"/>
		<path class="st8" d="M402.9,344.3h148.5"/>
		<path class="st8" d="M402.9,271.1h148.6"/>
		<path class="st8" d="M445.8,198.1h130.7"/>
	</g>
</g>
</svg>
