<?xml version="1.0" encoding="utf-8"?>
<!-- Generator: Adobe Illustrator 19.0.0, SVG Export Plug-In . SVG Version: 6.00 Build 0)  -->
<svg version="1.1" id="Layer_1" xmlns="http://www.w3.org/2000/svg" xmlns:xlink="http://www.w3.org/1999/xlink" x="0px" y="0px"
	 viewBox="33 -29.6 677.8 850.6" style="enable-background:new 33 -29.6 677.8 850.6;" xml:space="preserve">
<style type="text/css">
	.st0{fill:#C6C6C6;}
	.st1{fill:#8E9497;}
	.st2{fill:#FFD200;}
	.st3{fill:#CADB38;}
	.st4{fill:none;stroke:#CAD0D0;stroke-width:2.5;stroke-linecap:round;stroke-linejoin:round;stroke-miterlimit:10;}
	.st5{fill:#009ADE;}
</style>
<path class="st0" d="M213.7,61c-5.1,2.8-10.4,5.9-15.7,9l72.1,108.5c9.3-5,20-7.8,31.2-7.8h13V40.9c-6,0-9.5,0-9.5,0
	c-7.5,0-16.6,0.3-25.9,1l-10.8,1c-13.5,1.4-26.1,3.7-33.4,7C230.1,52,222.4,56.2,213.7,61"/>
<path class="st0" d="M379.7,40.9c-4.4,0-8.8,0-13.1,0"/>
<path class="st0" d="M366.6,40.9c-16.6,0-32.3,0-43.6,0v129.8h98.8V40.9c-12.6,0-27.4,0-42.1,0"/>
<path class="st1" d="M481.9,183.7l-3.2,4.7c9.4,7,16.7,16.6,20.8,27.7l5.6-1.1C500.7,202.4,492.5,191.5,481.9,183.7z"/>
<path class="st1" d="M266.1,187.8l-3.2-4.8c-11,7.8-19.5,18.7-24.2,31.6l5.7,1.1C248.8,204.4,256.4,194.7,266.1,187.8z"/>
<path class="st1" d="M301.4,170.7c-11.3,0-21.9,2.8-31.2,7.8l3.2,4.8c8.4-4.4,18-6.9,28.1-6.9h13v-5.7L301.4,170.7L301.4,170.7z"/>
<path class="st1" d="M322.9,170.7h98.8v5.7h-98.8V170.7z"/>
<path class="st0" d="M234.7,49.9c7.4-3.3,20-5.6,33.4-7l-9-45.7L203.8,8.6l-17.2,12.7l27.1,39.8C222.4,56.2,230.1,52,234.7,49.9z"/>
<path class="st0" d="M627.8,57L574,20.7l-12.8,18.7L578.4,52l-20.2,24.2c8.8,5.5,16.7,10.6,19.3,12.6c6.5,5,12.5,10,21,23
	c2.3,3.5,4.7,7.1,7.1,10.8l45.2-29.1L627.8,57z"/>
<path class="st0" d="M166.9,52.1l10.8-7.9l6.4-4.7l-13.1-19.4l-54.1,37.6L93.4,91l45.8,30.7c3.7-5.4,7.3-10.5,9.6-14.3
	c6.5-10.5,10-13.5,18.5-19c3-2,10.6-6.6,19.8-12L166.9,52.1z"/>
<path class="st0" d="M532.2,60l27-39.8L540,7.8l-52.7-12l-9,45.6"/>
<path class="st1" d="M442.4,170.7h-12.1v5.7h12.1c10.5,0,20.5,2.7,29.2,7.5l3.2-4.7C465.2,173.8,454.1,170.7,442.4,170.7z"/>
<path class="st0" d="M535.2,61l-3-1l-53.9-18.6l-11.1-0.6c-3.7-0.5-37,0.2-37,0.2v129.8h12.2c11.7,0,22.8,3.1,32.3,8.4l69.7-111.5
	L535.2,61z"/>
<path class="st0" d="M269.6-6l9.4,47.8c7.5-0.5,22.2-0.9,30.6-1V8.7H330v32c10.4,0,23.1,0,36.5,0v-49L269.6-6z"/>
<path class="st0" d="M470.3-8.1h-90.7v49c12.3,0,24.6,0,35.8,0v-32h20.4v31.9c0.2,0,27.7-0.6,31.4-0.1l9.5-47.3L470.3-8.1z"/>
<path class="st0" d="M132.7,131.3l-40.6-25.7l-20.7,31v4.3l25.3,35.5h16.7c1-14.5,4-19.5,9-29C124.5,143.4,128.4,137.5,132.7,131.3z
	"/>
<path class="st0" d="M672.7,137l-19.8-30.6L612,132.3c4.2,6.2,8,11.7,10.4,15.1c4.9,6.8,7.9,13.2,10.8,31.7H647l25.7-31.9V137z"/>
<path class="st0" d="M615.7,173.6c-2-10.5-4.7-14.8-8-19.5s-28-43.7-32.7-47.7s-21.3-14-21.3-14l-9.3,13.4l-6.4-5.5l-56.1,83.4
	c10.6,7.8,18.8,18.7,23.3,31.3l114.2-23.1C618.2,186.2,616.8,179,615.7,173.6z"/>
<path class="st0" d="M208.3,100.8l-7.6,5l-7.9-12.4c0,0-15.1,8.3-18.1,10.9s-5.5,5.3-12.8,15.5c-7.2,10.2-24.9,36-27.7,40
	c-2.8,4-3.2,8-4.7,16.6c-0.8,4.6-1.2,11-1.3,15.8l110.5,22.4c4.7-12.8,13.2-23.8,24.2-31.6L208.3,100.8z"/>
<path class="st0" d="M213.7,710c-5.1-2.8-10.4-5.9-15.7-9l72.1-108.5c9.3,5,20,7.8,31.2,7.8h13V730c-6,0-9.5,0-9.5,0
	c-7.5,0-16.6-0.3-25.9-1l-10.8-1c-13.5-1.4-26.1-3.7-33.4-7C230.1,719,222.4,714.8,213.7,710"/>
<path class="st0" d="M379.7,730c-4.4,0-8.8,0-13.1,0"/>
<path class="st0" d="M366.6,730c-16.6,0-32.3,0-43.6,0V600.3h98.8V730c-12.6,0-27.4,0-42.1,0"/>
<path class="st1" d="M481.9,587.2l-3.2-4.7c9.4-7,16.7-16.6,20.8-27.7l5.6,1.1C500.7,568.5,492.5,579.4,481.9,587.2z"/>
<path class="st1" d="M266.1,583.2l-3.2,4.8c-11-7.8-19.5-18.7-24.2-31.6l5.7-1.1C248.8,566.5,256.4,576.3,266.1,583.2z"/>
<path class="st1" d="M301.4,600.3c-11.3,0-21.9-2.8-31.2-7.8l3.2-4.8c8.4,4.4,18,6.9,28.1,6.9h13v5.7L301.4,600.3L301.4,600.3z"/>
<path class="st1" d="M322.9,594.5h98.8v5.7h-98.8V594.5z"/>
<path class="st0" d="M166.9,718.9l10.8,7.9l6.4,4.7l-12.4,18.2h-1.7l-0.8-0.5l-52.3-35.9L93.5,680l45.8-30.7
	c3.7,5.4,7.3,10.5,9.6,14.3c6.5,10.5,10,13.5,18.5,19c3,2,10.6,6.6,19.8,12L166.9,718.9z"/>
<path class="st1" d="M442.4,600.3h-12.1v-5.7h12.1c10.5,0,20.5-2.7,29.2-7.5l3.2,4.7C465.2,597.2,454.1,600.3,442.4,600.3z"/>
<path class="st0" d="M531.9,710.5l0.3,0.5l-3.4,1.2C529.5,711.8,530.6,711.2,531.9,710.5z"/>
<path class="st0" d="M535.2,710l-3,1l-0.3-0.5c-1.3,0.7-2.4,1.3-3.1,1.7l-5.5,1.9l-44.9,15.5l-11.1-0.4c-3.7,0.5-7.3,0.8-10.8,0.8
	c-2.1,0-26.1,0-26.1,0V600.3h12c11.7,0,22.8-3.1,32.3-8.4l69.6,111.4L535.2,710z"/>
<path class="st0" d="M132.7,639.7l-40.6,25.7l-20.7-31v-4.3l25.3-35.5h16.7c1,14.5,4,19.5,9,29C124.5,627.5,128.4,633.4,132.7,639.7
	z"/>
<path class="st0" d="M200.4,681.9c0,0-22.7-12.6-25.7-15.1c-3-2.6-5.5-5.3-12.8-15.5c-7.2-10.2-24.9-36-27.7-40s-3.2-8-4.7-16.6
	c-0.8-4.6-1.2-11-1.3-15.8l110.5-22.5c4.7,12.8,13.2,23.8,24.2,31.6L200.4,681.9z"/>
<path class="st0" d="M606.2,648.2c-3.2,3.9-6.6,6.5-9.6,8.8c-3.4,2.6-15.8,11.8-28.5,20.4c-4.4,3-8.9,5.9-13.1,8.5l23.4,33.1
	l-17.2,12.6l12.5,18.3l54.1-35.8l21.9-34.7L606.2,648.2z"/>
<path class="st0" d="M620.2,578.9l2.6,0.5"/>
<path class="st0" d="M623.1,592.4c0-3.9-0.2-8.4-0.3-13l-2.6-0.5l-115-22.9c-4.5,12.6-12.7,23.5-23.3,31.3l66,99.3l1.6,2.5
	c1.7-1,3.5-2,5.4-3.2c4.1-2.5,8.6-5.5,13.1-8.5c12.7-8.6,25.2-17.8,28.5-20.4c3-2.3,6.4-4.9,9.6-8.8c2.1-2.5,4.1-5.5,5.8-9.3
	c0.7-1.5,1.4-3.2,2-5c4.3-13,7.8-27.4,8.7-31.3c0.3-1.5,0.5-4,0.5-7.2C623.2,594.5,623.2,593.5,623.1,592.4z"/>
<path class="st0" d="M565.4,765.7l-7,4.4l-3.4-5.7l10.9-8.1L532.3,711l-3.4,1.2c-0.4,0.2-0.7,0.3-0.9,0.4c-0.9,0.3-2.5,0.9-4.7,1.5
	l-44.9,15.5l10.6,52.6l10.4-2.1l1.7,8l-7.7,1.3l1.6,6.9l53.4-10.4l21.4-12.4L565.4,765.7z"/>
<path class="st0" d="M354.6,794.5v-8.9h11.9V730c-13.4,0-26.1,0-36.5,0v32h-20.4V730c-8.5-0.1-23.1-0.4-30.6-1l-11.2,54.4l8.7,2.2
	l1,9.1l-8.8-2l1.7,9.3H363v-7.5L354.6,794.5L354.6,794.5z"/>
<path class="st0" d="M456.4,730c-2.1,0-9.5,0-20,0c-0.2,0-0.4,0-0.6,0v32h-20.4v-32c-11.1,0-23.4,0-35.8,0l-1.5,55.6h13.8v9.6h-12.3
	v6.8h90.7l6.6-1.4l-1.5-7.6l-8.3,1.3l-2.3-7.8l12.6-1.5l-10.1-55.8C463.5,729.8,460,730,456.4,730z"/>
<path class="st0" d="M245.3,787.8l1-8.2l10.4,2l11.4-53.5c-13.5-1.4-26.1-3.7-33.4-7c-4.6-2.1-12.4-6.3-21-11.1l-32.4,47.7l10,7.9
	l-4.1,5.1l-9.9-7.2l-5.6,8.2l23.8,13.2l56.2,11.1l1.2-7.1L245.3,787.8z"/>
<path class="st0" d="M662.7,611.4l8.4-42.6l-15.6-1.5l-6.3,27.3l-26.1-2.2c0,1.1,0,2.1,0,3c0,3.2-0.2,5.7-0.5,7.2
	c-0.9,3.9-4.3,18.3-8.7,31.3c-0.6,1.8-1.3,3.5-2,5l40.3,25.2l20.5-30.2v-10.3L662.7,611.4z"/>
<path class="st2" d="M509.1,352.2h72.8v67.3h-72.8V352.2z"/>
<path class="st2" d="M509.1,277.1h72.8v67.8h-72.8V277.1z"/>
<path class="st3" d="M581.9,564.3l38.3,6.7l6.4-12.6l1-56.3h-45.7"/>
<path class="st3" d="M581.9,277.1v67.8h75.8v-67.8"/>
<path class="st3" d="M581.9,419.5h75.7l0.1-67.3h-75.8"/>
<path class="st3" d="M581.9,475.7v19h45.7v-67.9h-45.7V475.7"/>
<path class="st3" d="M657.7,270.2v-58.8l-11.8-17.8l-64,13.7v62.9"/>
<path class="st1" d="M507.5,550.3l-5.6-1.2c0.9-4.2,1.4-8.5,1.4-13v-18.9h5.7V536C509.1,541,508.5,545.8,507.5,550.3z"/>
<path class="st1" d="M503.4,277.1h5.7v67.8h-5.7V277.1z"/>
<path class="st1" d="M503.4,426.8h5.7v48.9h-5.7V426.8z"/>
<path class="st1" d="M503.4,352.2h5.7v67.3h-5.7V352.2z"/>
<path class="st2" d="M509.1,426.8v48.9h54.5v19h18.3v-67.9"/>
<path class="st2" d="M507.5,550.3l74.3,14V502h-18.1v15.2H509v21.5C509.1,541.8,507.9,548.3,507.5,550.3z"/>
<path class="st0" d="M691.5,324.7h-9.9v9.6h-14.7v-9.6h-9.3v124.1h9.3v-9.6h14.7v9.6h9.9"/>
<path class="st0" d="M691.5,213.8h-9.9v9.6h-14.7v-9.6h-9.3v95h9.3v-9.6h14.7v9.6h9.9"/>
<path class="st0" d="M691.5,463.8h-9.9v9.6h-14.7v-9.6h-9.3v79.4l-1,15.2h9.3l1-12.1l14.7,2v9.6h9.9"/>
<path class="st2" d="M162,352.2h72.8v67.3H162L162,352.2L162,352.2z"/>
<path class="st2" d="M162,277.1h72.8v67.8H162L162,277.1L162,277.1z"/>
<path class="st3" d="M162,564.3l-38.3,6.7l-36.4-12.6l-1-15.2V502H162"/>
<path class="st3" d="M162,277.1v67.8H86.3v-67.8L162,277.1L162,277.1z"/>
<path class="st3" d="M162,419.5H86.3v-67.3H162L162,419.5L162,419.5z"/>
<path class="st3" d="M162,475.7v19h-32.6v-12H86.3v-55.9h75.7L162,475.7"/>
<path class="st2" d="M234.9,270.2h-72.8v-62.9l74.3,15.9c-1,4.6-1.5,9.3-1.5,14.1V270.2z"/>
<path class="st3" d="M86.3,270.2v-58.8L98,193.6l64,13.7v62.9"/>
<path class="st1" d="M236.4,223.3l5.6,1.2c-0.9,4.2-1.4,8.5-1.4,13v32.8h-5.7v-32.9C234.9,232.5,235.4,227.8,236.4,223.3z"/>
<path class="st1" d="M236.4,550.3l5.6-1.2c-0.9-4.2-1.4-8.5-1.4-13v-33.9h-5.7V536C234.9,541,235.4,545.8,236.4,550.3z"/>
<path class="st1" d="M234.9,277.1h5.7v67.8h-5.7V277.1z"/>
<path class="st1" d="M234.9,426.8h5.7v37.9h-5.7V426.8z"/>
<path class="st1" d="M234.9,352.2h5.7v67.3h-5.7V352.2z"/>
<path class="st2" d="M234.9,426.8v37.9h-13.6v30H162v-67.9"/>
<path class="st2" d="M236.4,550.3l-74.3,14V502l72.8,0.2v36.5C234.9,541.8,236.1,548.3,236.4,550.3z"/>
<path class="st0" d="M52.5,324.7h9.8v9.6h14.8v-9.6h9.2v124.1h-9.2v-9.6H62.3v9.6h-9.8"/>
<path class="st0" d="M52.5,213.8h9.8v9.6h14.8v-9.6h9.2v95h-9.2v-9.6H62.3v9.6h-9.8"/>
<path class="st0" d="M52.5,463.8h9.8v9.6h14.8v-9.6h9.2v79.4l1,15.2H78l-0.9-12.1l-14.8,2v9.6h-9.8"/>
<path class="st0" d="M52.4,576.4l14.6-2.2l2.1,9.4l14.4-3.3l-2.1-9.4l9-2l4.8,20.1l-30.3,42.6"/>
<path class="st0" d="M52.4,192.4l14.6,2.2l2.1-9.4l14.4,3.3l-2.1,9.4l9,2l4.8-20.1l-30.3-42.6"/>
<path class="st0" d="M662.2,164.8L645,186.5l9.8,14.3h16.5"/>
<path class="st2" d="M507.5,223.3c1,4.6,1.5,9.3,1.5,14.1v7.3H540v19.7H509v5.8h72.8v-62.9L507.5,223.3z"/>
<path class="st1" d="M509.1,237.4c0-4.9-0.5-9.6-1.5-14.1l-5.6,1.2c0.9,4.2,1.4,8.5,1.4,13v7.3h5.7L509.1,237.4L509.1,237.4z"/>
<path class="st1" d="M503.4,264.4h5.7v5.8h-5.7V264.4z"/>
<path class="st4" d="M377.4-28.3h109.9l77.1,14.1l78,52.4l46,67.4l20.6,84.6l0.6,404.4l-21.2,91.1l-42.8,64.1L565.4,802L492,819.8
	H372.3H262.9l-82.7-15L102,752.9l-47.1-66.1l-20.6-89.4V193.6l21.2-88l42.8-63.7l81.3-55.5l76.6-14.7H377.4z"/>
<path class="st5" d="M337.7,315v-46.8h72V315H337.7z"/>
<path class="st5" d="M334.4,374.1h-8.5V268.2h8.5V374.1z"/>
<path class="st5" d="M372.1,433.2h-34.4v-55.8h34.4V433.2z"/>
<path class="st5" d="M334.4,377.5v106.1h-8.5V377.5H334.4z"/>
<path class="st5" d="M413.1,315v-46.8h8.6v105.9h-8.6v-55.7V315z"/>
<path class="st5" d="M375.4,377.5h34.4v55.8h-34.4V377.5z"/>
<path class="st5" d="M375.4,318.4h34.4v55.8h-34.4V318.4z"/>
<path class="st5" d="M372.1,374.1h-34.4v-55.7h34.4V374.1z"/>
<path class="st5" d="M413.1,377.5h8.6v106.1h-8.6v-47v-3.3V377.5z"/>
<path class="st5" d="M409.7,436.6v47h-72v-47L409.7,436.6L409.7,436.6z"/>
</svg>
