<?xml version="1.0" encoding="utf-8"?>
<!-- Generator: Adobe Illustrator 19.0.0, SVG Export Plug-In . SVG Version: 6.00 Build 0)  -->
<svg version="1.1" xmlns="http://www.w3.org/2000/svg" xmlns:xlink="http://www.w3.org/1999/xlink" x="0px" y="0px"
	 viewBox="0 0 737 860" style="enable-background:new 0 0 737 860;" xml:space="preserve">
<style type="text/css">
	.st0{fill:#FFC300;}
	.st1{fill:#0092D7;}
	.st2{fill:#D3D700;}
	.st3{fill:#9E9E9E;}
	.st4{fill:none;stroke:#DBDBDC;stroke-width:2;stroke-linecap:round;stroke-linejoin:round;stroke-miterlimit:10;}
</style>
<g id="Layer_2">
	<path class="st0" d="M501.4,113.8h-31.7V59.4h-7.3v54.4h-57.2V59.4h-7.3v54.4h-57.2V59.4h-7.3v54.4h-57.2V59.4h-7.3v54.4h-32.4
		V53.1h265V113.8z"/>
	<path class="st0" d="M332.9,138.5V210h-23.8v-71.5H332.9z"/>
	<path class="st0" d="M428.9,138.5V210h-23.8v-71.5H428.9z"/>
	<path class="st0" d="M268.9,138.5V210h-32.2v-71.5H268.9z"/>
	<path class="st0" d="M300.9,138.5V210h-23.8v-71.5H300.9z"/>
	<path class="st0" d="M501.4,210h-32.3v-71.5h32.3V210z"/>
	<path class="st0" d="M460.9,138.5V210h-23.8v-71.5H460.9z"/>
	<path class="st0" d="M300.9,223.8h-23.8v-10.4h23.8V223.8z"/>
	<path class="st0" d="M332.9,223.8h-23.8v-10.4h23.8V223.8z"/>
	<path class="st1" d="M364.9,223.8h-23.8v-10.4h23.8V223.8z"/>
	<path class="st1" d="M396.9,223.8h-23.8v-10.4h23.8V223.8z"/>
	<path class="st1" d="M428.9,223.8h-23.8v-10.4h23.8V223.8z"/>
	<path class="st0" d="M460.9,223.8h-23.8v-10.4h23.8V223.8z"/>
	<path class="st0" d="M501.4,680.3h-265v-60.7h32.4V674h7.3v-54.4h57.2V674h7.3v-54.4h57.2V674h7.3v-54.4h57.2V674h7.3v-54.4h31.7
		V680.3z"/>
	<path class="st0" d="M341.1,594.8v-71.5h23.8v71.5H341.1z"/>
	<path class="st0" d="M309.1,594.8v-71.5h23.8v71.5H309.1z"/>
	<path class="st0" d="M405.1,594.8v-71.5h23.8v71.5H405.1z"/>
	<path class="st0" d="M373.1,594.8v-71.5h23.8v71.5H373.1z"/>
	<path class="st0" d="M236.6,594.8v-71.5h32.2v71.5H236.6z"/>
	<path class="st0" d="M277.1,594.8v-71.5h23.8v71.5H277.1z"/>
	<path class="st0" d="M501.4,594.8h-32.3v-71.5h32.3V594.8z"/>
	<path class="st0" d="M437.1,594.8v-71.5h23.8v71.5H437.1z"/>
	<path class="st0" d="M300.9,519.9h-23.8v-10.4h23.8V519.9z"/>
	<path class="st1" d="M332.9,519.9h-23.8v-10.4h23.8V519.9z"/>
	<path class="st1" d="M364.9,519.9h-23.8v-10.4h23.8V519.9z"/>
	<path class="st1" d="M396.9,519.9h-23.8v-10.4h23.8V519.9z"/>
	<path class="st1" d="M428.9,519.9h-23.8v-10.4h23.8V519.9z"/>
	<path class="st0" d="M460.9,519.9h-23.8v-10.4h23.8V519.9z"/>
	<path class="st0" d="M46.2,214.8v-7.8h61.6v-35h-5.2v-3h-5.7v-1.7h-5.5v-17.9h-5.5v2.5h-5.7v3h-5v3h-6v1.7h-5.7v2.5h-6v2h-5.5v2.7
		h-4.5v17.9h-6.2v365.3h6.2V566h4.5v3.7h5.5v2h6v2.5h5.7v1.7h6v2h5v3h5.7v2.5h5.5v-16.9h5.5v-1.7h5.7v-3h5.2v-34.5H46.2v-7.9h61.6
		v-70.6H46.2v-7.9h61.6v-70.3H46.2v-8.9h61.6v-69.5H46.2v-7.8h61.6v-69.5H46.2z"/>
	<polygon class="st2" points="141.1,138.5 167.1,149.4 160.3,182.2 132.2,180.8 	"/>
	<path class="st2" d="M132.2,185.5H159v21.6h-26.8V185.5z"/>
	<polygon class="st2" points="141.1,595.2 167.1,584.2 160.3,551.5 132.2,552.9 	"/>
	<path class="st2" d="M132.2,526.5H159v21.6h-26.8V526.5z"/>
	<polygon class="st2" points="132.2,215.3 159,215.3 159,236.7 153.1,236.7 153.1,251.4 159,251.4 159,284.9 132.2,284.9 	"/>
	<path class="st2" d="M132.2,293.2H159v69.3h-26.8V293.2z"/>
	<path class="st2" d="M132.2,371.1H159v68.3h-26.8V371.1z"/>
	<polygon class="st2" points="132.2,448.2 159,448.2 159,480.7 153.6,480.7 153.6,495.4 159,495.4 159,519.2 132.2,519.2 	"/>
	<path class="st2" d="M234.2,287.7h-55.7v-49.3h55.7V287.7z"/>
	<path class="st2" d="M178.5,370h55.7v69.8h-55.7V370z"/>
	<path class="st2" d="M234.2,293.9v69.8h-55.7v-69.8H234.2z"/>
	<path class="st2" d="M178.5,446h55.7v49.3h-55.7V446z"/>
	<path class="st2" d="M247.3,255.1h28.5v29.8h-28.5V255.1z"/>
	<path class="st2" d="M247.3,291.4h28.5v29.8h-28.5V291.4z"/>
	<path class="st2" d="M247.3,327.8h28.5v35.9h-28.5V327.8z"/>
	<path class="st2" d="M247.3,370h28.5v35.9h-28.5V370z"/>
	<path class="st2" d="M247.3,413.4h28.5v28.2h-28.5V413.4z"/>
	<path class="st2" d="M247.3,449.5h28.5v28.2h-28.5V449.5z"/>
	<polygon class="st2" points="141.1,598.6 148.4,607.3 166.1,593.5 162.6,589.4 157.9,593.2 156.4,591.4 152.6,594.6 151.3,593.3 
		147.2,597.2 145.3,595.2 	"/>
	<polygon class="st2" points="141.1,134.4 148.4,125.8 166.1,139.5 162.6,143.6 157.9,139.8 156.4,141.6 152.6,138.4 151.3,139.7 
		147.2,135.8 145.3,137.8 	"/>
	<path class="st0" d="M691.6,214.8v-7.8H630v-35h5.2v-3h5.7v-1.7h5.5v-17.9h5.5v2.5h5.7v3h5v3h6v1.7h5.7v2.5h6v2h5.5v2.7h4.5v17.9
		h6.2v365.3h-6.2V566h-4.5v3.7h-5.5v2h-6v2.5h-5.7v1.7h-6v2h-5v3h-5.7v2.5h-5.5v-16.9H641v-1.7h-5.7v-3H630v-34.5h61.6v-7.9H630
		v-70.6h61.6v-7.9H630v-70.3h61.6v-8.9H630v-69.5h61.6v-7.8H630v-69.5H691.6z"/>
	<polygon class="st2" points="597.6,138.5 571.7,149.4 578.5,182.2 606.5,180.8 	"/>
	<path class="st2" d="M606.5,207.1h-26.8v-21.6h26.8V207.1z"/>
	<polygon class="st2" points="597.6,595.2 571.7,584.2 578.5,551.5 606.5,552.9 	"/>
	<path class="st2" d="M606.5,548.2h-26.8v-21.6h26.8V548.2z"/>
	<polygon class="st2" points="606.5,215.3 579.7,215.3 579.7,236.7 585.6,236.7 585.6,251.4 579.7,251.4 579.7,284.9 606.5,284.9 	
		"/>
	<path class="st2" d="M606.5,362.5h-26.8v-69.3h26.8V362.5z"/>
	<path class="st2" d="M606.5,439.4h-26.8v-68.3h26.8V439.4z"/>
	<polygon class="st2" points="606.5,448.2 579.7,448.2 579.7,480.7 585.1,480.7 585.1,495.4 579.7,495.4 579.7,519.2 606.5,519.2 	
		"/>
	<path class="st2" d="M503.5,238.3h55.7v49.3h-55.7V238.3z"/>
	<path class="st2" d="M559.2,439.7h-55.7V370h55.7V439.7z"/>
	<path class="st2" d="M559.2,293.9v69.8h-55.7v-69.8H559.2z"/>
	<path class="st2" d="M559.2,495.3h-55.7V446h55.7V495.3z"/>
	<path class="st2" d="M490.4,284.9h-28.5v-29.8h28.5V284.9z"/>
	<path class="st2" d="M490.4,321.2h-28.5v-29.8h28.5V321.2z"/>
	<path class="st3" d="M450.9,327.8h39.5v78h-39.5V327.8z"/>
	<path class="st2" d="M490.4,441.6h-28.5v-28.2h28.5V441.6z"/>
	<path class="st2" d="M490.4,477.7h-28.5v-28.2h28.5V477.7z"/>
	<polygon class="st2" points="597.6,598.6 590.4,607.3 572.6,593.5 576.1,589.4 580.8,593.2 582.3,591.4 586.1,594.6 587.4,593.3 
		591.5,597.2 593.4,595.2 	"/>
	<polygon class="st2" points="597.6,134.4 590.4,125.8 572.6,139.5 576.1,143.6 580.8,139.8 582.3,141.6 586.1,138.4 587.4,139.7 
		591.5,135.8 593.4,137.8 	"/>
	<path class="st0" d="M364.9,138.5v33.1h-23.8v-33.1H364.9z"/>
	<path class="st1" d="M341.1,171.6h23.8V210h-23.8V171.6z"/>
	<path class="st1" d="M396.9,171.6V210h-23.8v-38.4H396.9z"/>
	<path class="st0" d="M396.9,171.6h-23.8v-33.1h23.8V171.6z"/>
	<path class="st1" d="M340,358.2h-6.1V283h6.1V358.2z"/>
	<path class="st1" d="M367.1,400.2h-24.8v-39.6h24.8V400.2z"/>
	<path class="st1" d="M340,360.6v75.3h-6.1v-75.3H340z"/>
	<path class="st1" d="M396.7,316.3V283h6.2v75.2h-6.2v-39.6V316.3z"/>
	<path class="st1" d="M369.5,360.6h24.8v39.6h-24.8V360.6z"/>
	<path class="st1" d="M369.5,318.6h24.8v39.6h-24.8V318.6z"/>
	<path class="st1" d="M367.1,358.2h-24.8v-39.6h24.8V358.2z"/>
	<path class="st1" d="M396.7,360.6h6.2v75.3h-6.2v-33.4v-2.4V360.6z"/>
	<polygon class="st1" points="369,283 369,285.3 366.8,285.3 366.8,283 342.4,283 342.4,316.3 394.3,316.3 394.3,283 	"/>
	<polygon class="st1" points="394.3,402.6 342.4,402.6 342.4,435.9 366.8,435.9 366.8,433.3 369,433.3 369,435.9 394.3,435.9 	"/>
	<path class="st4" d="M8.2,582.3C82.2,611,139.5,644,201.9,713H535c62.3-69,119.7-102,193.7-130.7V151.7C654.7,123,597.4,90,535,21
		H201.9C139.5,90,82.2,123,8.2,151.7V582.3z"/>
</g>
<g id="Layer_4">
	<path class="st4" d="M563.6,186.4h45.5"/>
	<path class="st4" d="M563.6,263h45.5"/>
	<path class="st4" d="M563.6,336.6h45.5"/>
	<path class="st4" d="M563.6,412.1h45.5"/>
	<path class="st4" d="M563.6,487.8h45.5"/>
	<path class="st4" d="M564.3,564.4h40.5"/>
	<path class="st4" d="M116.6,186.4h45.5"/>
	<path class="st4" d="M116.6,263h45.5"/>
	<path class="st4" d="M116.6,336.6h45.5"/>
	<path class="st4" d="M116.6,412.1h45.5"/>
	<path class="st4" d="M116.6,487.8h45.5"/>
	<path class="st4" d="M118.3,564.4h45.5"/>
	<path class="st4" d="M495.4,272.3h61.4"/>
	<path class="st4" d="M495.4,336.6h61.4"/>
	<path class="st4" d="M495.4,410.8h61.4"/>
	<path class="st4" d="M495.4,478.8h61.4"/>
	<path class="st4" d="M169.7,272.3H231"/>
	<path class="st4" d="M169.7,336.6H231"/>
	<path class="st4" d="M169.7,410.8H231"/>
	<path class="st4" d="M169.7,478.8H231"/>
	<path class="st4" d="M228.4,278h54.5"/>
	<path class="st4" d="M228.4,314.7h54.5"/>
	<path class="st4" d="M228.4,352.4h54.5"/>
	<path class="st4" d="M228.4,396h54.5"/>
	<path class="st4" d="M228.4,436.7h54.5"/>
	<path class="st4" d="M228.4,471.4h54.5"/>
	<path class="st4" d="M442.9,278h53.5"/>
	<path class="st4" d="M442.9,314.7h53.5"/>
	<path class="st4" d="M442.9,436.7h53.5"/>
	<path class="st4" d="M442.9,471.4h53.5"/>
	<path class="st4" d="M233.4,498.1h44.5"/>
</g>
</svg>
