<?xml version="1.0" encoding="utf-8"?>
<!-- Generator: Adobe Illustrator 19.0.0, SVG Export Plug-In . SVG Version: 6.00 Build 0)  -->
<svg version="1.1" id="Layer_2" xmlns="http://www.w3.org/2000/svg" xmlns:xlink="http://www.w3.org/1999/xlink" x="0px" y="0px"
	 viewBox="63 -34 737 860" style="enable-background:new 63 -34 737 860;" xml:space="preserve">
<style type="text/css">
	.st0{fill:#ACACAC;}
	.st1{fill:#D3D700;}
	.st2{fill:#9E9E9E;}
	.st3{fill:#0092D7;}
	.st4{fill:none;stroke:#DBDBDC;stroke-width:2;stroke-linecap:round;stroke-linejoin:round;stroke-miterlimit:10;}
</style>
<path class="st0" d="M564.4,79.8h-31.7V25.4h-7.3v54.4h-57.2V25.4h-7.3v54.4h-57.2V25.4h-7.3v54.4h-57.2V25.4h-7.3v54.4h-32.4V19.1
	h265L564.4,79.8L564.4,79.8z"/>
<path class="st0" d="M395.9,104.5V176h-23.8v-71.5H395.9z"/>
<path class="st0" d="M491.9,104.5V176h-23.8v-71.5H491.9z"/>
<path class="st0" d="M331.9,104.5V176h-32.2v-71.5H331.9z"/>
<path class="st0" d="M363.9,104.5V176h-23.8v-71.5H363.9z"/>
<path class="st0" d="M564.4,176h-32.3v-71.5h32.3V176z"/>
<path class="st0" d="M523.9,104.5V176h-23.8v-71.5H523.9z"/>
<path class="st0" d="M363.9,189.8h-23.8v-10.4h23.8V189.8z"/>
<path class="st0" d="M395.9,189.8h-23.8v-10.4h23.8V189.8z"/>
<path class="st0" d="M427.9,189.8h-23.8v-10.4h23.8V189.8z"/>
<path class="st0" d="M459.9,189.8h-23.8v-10.4h23.8V189.8z"/>
<path class="st0" d="M491.9,189.8h-23.8v-10.4h23.8V189.8z"/>
<path class="st0" d="M523.9,189.8h-23.8v-10.4h23.8V189.8z"/>
<path class="st0" d="M564.4,646.3h-265v-60.7h32.4V640h7.3v-54.4h57.2V640h7.3v-54.4h57.2V640h7.3v-54.4h57.2V640h7.3v-54.4h31.7
	v60.7H564.4z"/>
<path class="st0" d="M404.1,560.8v-71.5h23.8v71.5H404.1z"/>
<path class="st0" d="M372.1,560.8v-71.5h23.8v71.5H372.1z"/>
<path class="st0" d="M468.1,560.8v-71.5h23.8v71.5H468.1z"/>
<path class="st0" d="M436.1,560.8v-71.5h23.8v71.5H436.1z"/>
<path class="st0" d="M299.6,560.8v-71.5h32.2v71.5H299.6z"/>
<path class="st0" d="M340.1,560.8v-71.5h23.8v71.5H340.1z"/>
<path class="st0" d="M564.4,560.8h-32.3v-71.5h32.3V560.8z"/>
<path class="st0" d="M500.1,560.8v-71.5h23.8v71.5H500.1z"/>
<path class="st0" d="M363.9,485.9h-23.8v-10.4h23.8V485.9z"/>
<path class="st0" d="M395.9,485.9h-23.8v-10.4h23.8V485.9z"/>
<path class="st0" d="M427.9,485.9h-23.8v-10.4h23.8V485.9z"/>
<path class="st0" d="M459.9,485.9h-23.8v-10.4h23.8V485.9z"/>
<path class="st0" d="M491.9,485.9h-23.8v-10.4h23.8V485.9z"/>
<path class="st0" d="M523.9,485.9h-23.8v-10.4h23.8V485.9z"/>
<path class="st0" d="M170.7,180.8v69.5h-61.5v7.8h61.6v69.5h-61.6v8.9h61.6v70.3h-61.6v7.9h61.6v70.6h-61.6v7.9h61.6v34.5h-5.2v3
	h-5.7v1.7h-5.5v16.9h-5.5V547h-5.7v-3h-5v-2h-6v-1.7h-5.7v-2.5h-6v-2H115V532h-4.5v-15.9h-6.2V150.8h6.2v-17.9h4.5v-2.7h5.5v-2h6
	v-2.5h5.7V124h6v-3h5v-3h5.7v-2.5h5.5v17.9h5.5v1.7h5.7v3h5.2v35h-61.6v7.8h61.5V180.8z"/>
<path class="st1" d="M204.1,104.5l26,10.9l-6.8,32.8l-28.1-1.4"/>
<path class="st1" d="M195.2,151.5H222v21.6h-26.8V151.5z"/>
<path class="st1" d="M204.1,561.2l26-11l-6.8-32.7l-28.1,1.4"/>
<path class="st1" d="M195.2,492.5H222v21.6h-26.8V492.5z"/>
<path class="st1" d="M195.2,181.3H222v21.4h-5.9v14.7h5.9v33.5h-26.8"/>
<path class="st1" d="M195.2,259.2H222v69.3h-26.8V259.2z"/>
<path class="st1" d="M195.2,337.1H222v68.3h-26.8V337.1z"/>
<path class="st1" d="M195.2,414.2H222v32.5h-5.4v14.7h5.4v23.8h-26.8"/>
<path class="st1" d="M297.2,253.7h-55.7v-49.3h55.7V253.7z"/>
<path class="st1" d="M241.5,336h55.7v69.8h-55.7V336z"/>
<path class="st1" d="M297.2,259.9v69.8h-55.7v-69.8L297.2,259.9L297.2,259.9z"/>
<path class="st1" d="M241.5,412h55.7v49.3h-55.7V412z"/>
<path class="st1" d="M310.3,221.1h28.5v29.8h-28.5V221.1L310.3,221.1z"/>
<path class="st1" d="M310.3,257.4h28.5v29.8h-28.5V257.4L310.3,257.4z"/>
<path class="st1" d="M310.3,293.8h28.5v35.9h-28.5V293.8L310.3,293.8z"/>
<path class="st1" d="M310.3,336h28.5v35.9h-28.5V336L310.3,336z"/>
<path class="st1" d="M310.3,379.4h28.5v28.2h-28.5V379.4L310.3,379.4z"/>
<path class="st1" d="M310.3,415.5h28.5v28.2h-28.5V415.5L310.3,415.5z"/>
<path class="st1" d="M204.1,564.6l7.3,8.7l17.7-13.8l-3.5-4.1l-4.7,3.8l-1.5-1.8l-3.8,3.2l-1.3-1.3l-4.1,3.9l-1.9-2"/>
<path class="st1" d="M204.1,100.4l7.3-8.6l17.7,13.7l-3.5,4.1l-4.7-3.8l-1.5,1.8l-3.8-3.2l-1.3,1.3l-4.1-3.9l-1.9,2"/>
<path class="st0" d="M754.6,180.8V173H693v-35h5.2v-3h5.7v-1.7h5.5v-17.9h5.5v2.5h5.7v3h5v3h6v1.7h5.7v2.5h6v2h5.5v2.7h4.5v17.9h6.2
	V516h-6.2v16h-4.5v3.7h-5.5v2h-6v2.5h-5.7v1.7h-6v2h-5v3h-5.7v2.5h-5.5v-16.9H704v-1.7h-5.7v-3H693v-34.5h61.6v-7.9H693v-70.6h61.6
	v-7.9H693v-70.3h61.6v-8.9H693v-69.5h61.6v-7.8H693v-69.5L754.6,180.8L754.6,180.8z"/>
<path class="st1" d="M660.6,104.5l-25.9,10.9l6.8,32.8l28-1.4"/>
<path class="st1" d="M669.5,173.1h-26.8v-21.6h26.8V173.1z"/>
<path class="st1" d="M660.6,561.2l-25.9-11l6.8-32.7l28,1.4"/>
<path class="st1" d="M669.5,514.2h-26.8v-21.6h26.8V514.2z"/>
<path class="st1" d="M669.5,181.3h-26.8v21.4h5.9v14.7h-5.9v33.5h26.8"/>
<path class="st1" d="M669.5,328.5h-26.8v-69.3h26.8V328.5z"/>
<path class="st1" d="M669.5,405.4h-26.8v-68.3h26.8V405.4z"/>
<path class="st1" d="M669.5,414.2h-26.8v32.5h5.4v14.7h-5.4v23.8h26.8"/>
<path class="st1" d="M566.5,204.3h55.7v49.3h-55.7V204.3z"/>
<path class="st1" d="M622.2,405.7h-55.7V336h55.7V405.7z"/>
<path class="st1" d="M622.2,259.9v69.8h-55.7v-69.8L622.2,259.9L622.2,259.9z"/>
<path class="st1" d="M622.2,461.3h-55.7V412h55.7V461.3z"/>
<path class="st1" d="M553.4,250.9h-28.5v-29.8h28.5V250.9z"/>
<path class="st1" d="M553.4,287.2h-28.5v-29.8h28.5V287.2z"/>
<path class="st2" d="M513.9,293.8h39.5v78h-39.5V293.8z"/>
<path class="st1" d="M553.4,407.6h-28.5v-28.2h28.5V407.6z"/>
<path class="st1" d="M553.4,443.7h-28.5v-28.2h28.5V443.7z"/>
<path class="st1" d="M660.6,564.6l-7.2,8.7l-17.8-13.8l3.5-4.1l4.7,3.8l1.5-1.8l3.8,3.2l1.3-1.3l4.1,3.9l1.9-2"/>
<path class="st1" d="M660.6,100.4l-7.2-8.6l-17.8,13.7l3.5,4.1l4.7-3.8l1.5,1.8l3.8-3.2l1.3,1.3l4.1-3.9l1.9,2"/>
<path class="st0" d="M427.9,104.5v33.1h-23.8v-33.1H427.9z"/>
<path class="st0" d="M404.1,137.6h23.8V176h-23.8V137.6z"/>
<path class="st0" d="M459.9,137.6V176h-23.8v-38.4H459.9z"/>
<path class="st0" d="M459.9,137.6h-23.8v-33.1h23.8V137.6z"/>
<path class="st3" d="M403,324.2h-6.1V249h6.1V324.2z"/>
<path class="st3" d="M430.1,366.2h-24.8v-39.6h24.8V366.2z"/>
<path class="st3" d="M403,326.6v75.3h-6.1v-75.3L403,326.6L403,326.6z"/>
<path class="st3" d="M459.7,282.3V249h6.2v75.2h-6.2v-39.6V282.3z"/>
<path class="st3" d="M432.5,326.6h24.8v39.6h-24.8V326.6z"/>
<path class="st3" d="M432.5,284.6h24.8v39.6h-24.8V284.6z"/>
<path class="st3" d="M430.1,324.2h-24.8v-39.6h24.8V324.2z"/>
<path class="st3" d="M459.7,326.6h6.2v75.3h-6.2v-33.4v-2.4V326.6z"/>
<path class="st3" d="M432,249v2.3h-2.2V249h-24.4v33.3h51.9V249"/>
<path class="st3" d="M457.3,368.6h-51.9v33.3h24.4v-2.6h2.2v2.6h25.3"/>
<path class="st4" d="M71.2,548.3C145.2,577,202.5,610,264.9,679H598c62.3-69,119.7-102,193.7-130.7V117.7C717.7,89,660.4,56,598-13
	H264.9C202.5,56,145.2,89,71.2,117.7V548.3z"/>
</svg>
